/* XPM */
static char * image_cancel_xpm[] = {
"14 14 144 2",
"  	c none",
". 	c #DFA8A6",
"+ 	c #C71F1F",
"@ 	c #C10000",
"# 	c #C41414",
"$ 	c #D98482",
"% 	c #DEA8A4",
"& 	c #CA0C14",
"* 	c #E8A6B0",
"= 	c #EEC2CB",
"- 	c #EEBFCA",
"; 	c #EBB0B9",
"> 	c #CA0A13",
", 	c #D57270",
"' 	c #C71F1E",
") 	c #DC7383",
"! 	c #DD7D8E",
"~ 	c #DD7A8B",
"{ 	c #DD788A",
"] 	c #DD798B",
"^ 	c #DD7C8D",
"/ 	c #DD7A8D",
"( 	c #C30A0A",
"_ 	c #C20000",
": 	c #DC7387",
"< 	c #D9697C",
"[ 	c #D75F74",
"} 	c #DD798A",
"| 	c #D86579",
"1 	c #D8687B",
"2 	c #D96A7D",
"3 	c #DA7183",
"4 	c #C80814",
"5 	c #C30000",
"6 	c #D76077",
"7 	c #F3D1D7",
"8 	c #FEF9FA",
"9 	c #D76076",
"0 	c #FAEEEF",
"a 	c #DA6E80",
"b 	c #DA6F81",
"c 	c #DA7286",
"d 	c #CA0313",
"e 	c #AD0000",
"f 	c #DD7183",
"g 	c #D96779",
"h 	c #DC7887",
"i 	c #FCF9F9",
"j 	c #FFFFFF",
"k 	c #F9E8EA",
"l 	c #D26476",
"m 	c #D01738",
"n 	c #DD5F73",
"o 	c #B90510",
"p 	c #8F0000",
"q 	c #DE697A",
"r 	c #D96072",
"s 	c #D75D6D",
"t 	c #C57679",
"u 	c #A84850",
"v 	c #BA0000",
"w 	c #CF0000",
"x 	c #D10000",
"y 	c #9F0000",
"z 	c #760000",
"A 	c #E05B65",
"B 	c #D9535E",
"C 	c #D9525D",
"D 	c #D84953",
"E 	c #EDE1E0",
"F 	c #FBFBFC",
"G 	c #F3EFF1",
"H 	c #C70008",
"I 	c #DD0000",
"J 	c #DE0000",
"K 	c #E50000",
"L 	c #900000",
"M 	c #5A0000",
"N 	c #E24952",
"O 	c #D9424A",
"P 	c #D9464D",
"Q 	c #E6DADC",
"R 	c #E7EAED",
"S 	c #EAEEEF",
"T 	c #E2E1E3",
"U 	c #E8EAED",
"V 	c #E8E4E6",
"W 	c #E90825",
"X 	c #EF0000",
"Y 	c #F30000",
"Z 	c #810000",
"` 	c #410000",
" .	c #E33138",
"..	c #DA2B31",
"+.	c #D3252E",
"@.	c #C5BDC1",
"#.	c #DAE1E3",
"$.	c #9C3642",
"%.	c #940000",
"&.	c #D4D8DA",
"*.	c #D1D8DA",
"=.	c #D50A1F",
"-.	c #F20000",
";.	c #F50000",
">.	c #6F0000",
",.	c #3C0000",
"'.	c #E5171E",
").	c #DC1319",
"!.	c #C80000",
"~.	c #820000",
"{.	c #913039",
"].	c #95000D",
"^.	c #83000C",
"/.	c #491212",
"(.	c #D40000",
"_.	c #DA0000",
":.	c #BE0000",
"<.	c #B60000",
"[.	c #EB0000",
"}.	c #460000",
"|.	c #987875",
"1.	c #5E0000",
"2.	c #E80000",
"3.	c #E41200",
"4.	c #DE1B00",
"5.	c #E51F00",
"6.	c #EB2200",
"7.	c #F22400",
"8.	c #F82700",
"9.	c #F92700",
"0.	c #F92500",
"a.	c #880000",
"b.	c #805956",
"c.	c #8C6865",
"d.	c #3D0909",
"e.	c #6A0000",
"f.	c #670000",
"g.	c #680000",
"h.	c #690000",
"i.	c #6C0000",
"j.	c #6E0000",
"k.	c #720000",
"l.	c #450000",
"m.	c #7F5856",
"  . + @ @ @ @ @ @ @ @ # $   ",
"% & * = - - - - - - = ; > , ",
"' ) ! ~ ~ { ~ ~ ] ] ~ ^ / ( ",
"_ : < < [ } | 1 2 2 1 < 3 4 ",
"5 : 2 6 7 8 ~ 9 0 0 a b c d ",
"e f g h i j 8 k j j l m n o ",
"p q r s t i j j j u v w x y ",
"z A B C D E F F G H I J K L ",
"M N O P Q R S T U V W X Y Z ",
"`  ...+.@.#.$.%.&.*.=.-.;.>.",
",.'.).!.~.{.@ I ].^.I -.;.>.",
"/.(._.:.<.v w J [.K -.X ;.}.",
"|.1.2.3.4.5.6.7.8.9.9.0.a.b.",
"  c.d.e.f.g.h.i.j.>.k.l.m.  "};
