/* XPM */
static char * image_lecture_add_example_16_xpm[] = {
"16 16 93 2",
"  	c None",
". 	c #ABB9D4",
"+ 	c #B9C5DD",
"@ 	c #B2BBD4",
"# 	c #A8B0CC",
"$ 	c #9FA5C3",
"% 	c #9499BC",
"& 	c #8B8EB4",
"* 	c #8283AC",
"= 	c #7D7DA8",
"- 	c #9AA1BD",
"; 	c #B9B6B8",
"> 	c #B1BBD5",
", 	c #FFFFFF",
"' 	c #7197D2",
") 	c #B2C7E2",
"! 	c #7C92BC",
"~ 	c #B7B4B5",
"{ 	c #ABB4CE",
"] 	c #F9FDFF",
"^ 	c #F6FBFF",
"/ 	c #DEE7F3",
"( 	c #6FBDF7",
"_ 	c #5478B1",
": 	c #B4B1B4",
"< 	c #A6AEC9",
"[ 	c #F5FAFF",
"} 	c #E7EBF5",
"| 	c #D1E0F1",
"1 	c #9CB6E0",
"2 	c #7172A3",
"3 	c #A1A7C4",
"4 	c #F9FCFF",
"5 	c #F0F8FF",
"6 	c #EAF5FF",
"7 	c #9CA1BF",
"8 	c #8788AE",
"9 	c #B0C9EE",
"0 	c #979AB9",
"a 	c #F0F7FF",
"b 	c #E9F5FF",
"c 	c #E5F2FF",
"d 	c #DFEFFF",
"e 	c #DCEEFF",
"f 	c #D6EAFF",
"g 	c #CFE9FF",
"h 	c #CADFFA",
"i 	c #9194B5",
"j 	c #FDFFFF",
"k 	c #C5DCFA",
"l 	c #8C8EB2",
"m 	c #F9FDFE",
"n 	c #EFF8FF",
"o 	c #E5F3FF",
"p 	c #DBEEFF",
"q 	c #D5EAFF",
"r 	c #CEE7FF",
"s 	c #CAE5FF",
"t 	c #204880",
"u 	c #F4FBFE",
"v 	c #8081A5",
"w 	c #A8C0E0",
"x 	c #8485AB",
"y 	c #EEF8FE",
"z 	c #8181A9",
"A 	c #EAF6FE",
"B 	c #FD0202",
"C 	c #EE0E13",
"D 	c #DA1C28",
"E 	c #CD2736",
"F 	c #B43C51",
"G 	c #A0B0C8",
"H 	c #184880",
"I 	c #7C7DA8",
"J 	c #E4F3FE",
"K 	c #D4EAFF",
"L 	c #CEE6FF",
"M 	c #C4E2FF",
"N 	c #C1E0FF",
"O 	c #7677A4",
"P 	c #E0F1FE",
"Q 	c #C0E0FF",
"R 	c #70719C",
"S 	c #7374A3",
"T 	c #E0F5FF",
"U 	c #D5EFFF",
"V 	c #D1EDFF",
"W 	c #CCEBFF",
"X 	c #C8E9FF",
"Y 	c #C1E5FF",
"Z 	c #BCE3FF",
"` 	c #B8E1FF",
" .	c #B2DEFF",
"  . + @ # $ % & * = - ;         ",
"  > , , , , , , , ' ) ! ~       ",
"  { , , , , , ] ^ ' / ( _ :     ",
"  < , < < < < [ < ' } | 1 2     ",
"  3 , , , 4 [ 5 6 ' ' ' ' 2     ",
"  7 , 7 7 7 7 6 7 8 2 2 9 2     ",
"  0 , 4 [ a b c d e f g h 2     ",
"  i j i i i i d i i i i k 2     ",
"  l m n 6 o d p q r s t t t     ",
"  8 u 8 8 8 8 q 8 8 v t w t     ",
"  x y o d p q r s t t t w t t t ",
"  z A B C D E s F t w w w G G H ",
"  I J p K L s M N t t t G H H H ",
"  O P O O O O Q O R R H G H     ",
"  S T U V W X Y Z `  .H H H     ",
"  2 2 2 2 2 2 2 2 2 2 2 2 2     "};
