/* XPM */
static char * image_empty_lecture_xpm[] = {
"13 13 101 2",
"  	c None",
". 	c #959693",
"+ 	c #80817E",
"@ 	c #7F7F7C",
"# 	c #81837F",
"$ 	c #B5B6B5",
"% 	c #8C8E8B",
"& 	c #F6F6F5",
"* 	c #FAFAF9",
"= 	c #F9FAF9",
"- 	c #F9F9F8",
"; 	c #F8F9F7",
"> 	c #F7F8F7",
", 	c #9E9E9E",
"' 	c #8F8F8F",
") 	c #ADADAC",
"! 	c #8D8E8B",
"~ 	c #F8F9F8",
"{ 	c #DCD9DC",
"] 	c #DADDD7",
"^ 	c #DBDCDF",
"/ 	c #DCDCDC",
"( 	c #DEDFE0",
"_ 	c #9C9C9B",
": 	c #DEDEDE",
"< 	c #979796",
"[ 	c #AFB0AF",
"} 	c #D9D9D9",
"| 	c #DFDDE0",
"1 	c #DEE2E2",
"2 	c #E2DFE0",
"3 	c #E2E6E3",
"4 	c #888A87",
"5 	c #7C7D7B",
"6 	c #81827F",
"7 	c #FAFAFA",
"8 	c #DFDDD9",
"9 	c #E4DEDF",
"0 	c #E1E4E3",
"a 	c #E4E4E4",
"b 	c #EBE9EC",
"c 	c #DFE0DD",
"d 	c #D1D3CF",
"e 	c #D7D8D5",
"f 	c #8B8B89",
"g 	c #FBFBFB",
"h 	c #E5E8E2",
"i 	c #E6E6E6",
"j 	c #EAEAEA",
"k 	c #E7E8E6",
"l 	c #EAEBE9",
"m 	c #F1EEF0",
"n 	c #F3F4F2",
"o 	c #939492",
"p 	c #FCFCFC",
"q 	c #E8E7E5",
"r 	c #E1E8E7",
"s 	c #E9E5EC",
"t 	c #E9EDEA",
"u 	c #ECE8E8",
"v 	c #F3EDEE",
"w 	c #EFEFEF",
"x 	c #F4F5F3",
"y 	c #FDFDFD",
"z 	c #EBE8EB",
"A 	c #E9ECE6",
"B 	c #EAEBEE",
"C 	c #ECEFEE",
"D 	c #F0ECF3",
"E 	c #F6F3F1",
"F 	c #F2F3F6",
"G 	c #F5F6F5",
"H 	c #FEFEFE",
"I 	c #E9EDED",
"J 	c #EEEFED",
"K 	c #F2F4F0",
"L 	c #F0F0F7",
"M 	c #FAF8F4",
"N 	c #F6F7F5",
"O 	c #FFFFFF",
"P 	c #E8E8EF",
"Q 	c #EDEEF0",
"R 	c #ECECF3",
"S 	c #F1F2F4",
"T 	c #FBF5F9",
"U 	c #F9F9F6",
"V 	c #F2F0EC",
"W 	c #F7F6F3",
"X 	c #F1F5F2",
"Y 	c #F8FBF5",
"Z 	c #F6F7FA",
"` 	c #FCF8FF",
" .	c #FDFEFF",
"..	c #8E8F8C",
"+.	c #FCFCFB",
"@.	c #F8F8F7",
"#.	c #929390",
"$.	c #959694",
"%.	c #828380",
"&.	c #82837F",
"*.	c #939491",
"  . + @ @ @ @ @ # $       ",
"  % & * = - ; > , ' )     ",
"  ! ~ { ] ^ / ( _ : < [   ",
"  ! - } | 1 2 3 4 4 5 6   ",
"  ! 7 8 9 0 a b c d e f   ",
"  ! g 9 h i j k l m n o   ",
"  ! p q r s t u v w x o   ",
"  ! y z A B C D E F G o   ",
"  ! H s I J J K L M N o   ",
"  ! O P Q R S T U g > o   ",
"  ! O V W X Y Z `  .- o   ",
"  ..7 O O H y y p +.@.#.  ",
"  $.%.+ + + + + + + &.*.  "};
