/* XPM */
static char * image_exchange_folders_16_xpm[] = {
"16 16 69 1",
" 	c None",
".	c #787860",
"+	c #707860",
"@	c #A8C0E0",
"#	c #9BB4D7",
"$	c #8FA9CF",
"%	c #84A0C7",
"&	c #E0E0D8",
"*	c #F0F0E0",
"=	c #E8F0E0",
"-	c #E8E8E0",
";	c #E8E8D8",
">	c #7A97C0",
",	c #D0D0B0",
"'	c #B1B7A9",
")	c #5C79A1",
"!	c #6988B4",
"~	c #C8D0A8",
"{	c #D8D8B8",
"]	c #E0E8D0",
"^	c #F2F2EA",
"/	c #365A8C",
"(	c #A0B0C8",
"_	c #4A6A97",
":	c #B8B898",
"<	c #788060",
"[	c #7E8570",
"}	c #A9AFA0",
"|	c #204880",
"1	c #94A6C1",
"2	c #909878",
"3	c #D8D8C8",
"4	c #889070",
"5	c #E0E0D0",
"6	c #A4A49F",
"7	c #808868",
"8	c #D8D8C0",
"9	c #B0B0A2",
"0	c #CACABC",
"a	c #E3E3D5",
"b	c #D0D8B8",
"c	c #AAB096",
"d	c #BCC3A6",
"e	c #DFE6D2",
"f	c #D0D0C0",
"g	c #808060",
"h	c #A2AA8F",
"i	c #BCBC9F",
"j	c #E3E3D0",
"k	c #DCE3C6",
"l	c #C0C8B0",
"m	c #E0E0C8",
"n	c #899DBB",
"o	c #7F95B5",
"p	c #A2AA89",
"q	c #D8E0C0",
"r	c #D8E0C8",
"s	c #B4BC98",
"t	c #A8A890",
"u	c #E0E0E0",
"v	c #E6E6E6",
"w	c #ECECEC",
"x	c #C9C9C9",
"y	c #C5C5C5",
"z	c #BFBFBF",
"A	c #C3C3C3",
"B	c #BDBDBD",
"C	c #E8E8E8",
"D	c #A0A088",
"                ",
" .+++.+ @#$%    ",
".&*=-;.@@@@@>   ",
"+=,,,;+++')@#!  ",
"+-,~~{;;]^/@(_  ",
"+;:<[}[++}|@1|'<",
"+;23*|***|@(1|=.",
"+;455||5|@(1|6-<",
"+]7&8|@|@(1|90a<",
"+]<;b|@@(1|cdefg",
"+5:]~|@(1|hijkl<",
"+mbm~|(1no|p~q:.",
"+m{r~|||||||srt ",
".uuuvwxxyzzABCD ",
"<+.+++++++++++< ",
"                "};
