/* XPM */
static char * image_bookmark_delete_18_xpm[] = {
"18 18 177 2",
"  	c None",
". 	c #4F5048",
"+ 	c #737563",
"@ 	c #757865",
"# 	c #757864",
"$ 	c #707360",
"% 	c #474842",
"& 	c #6F715E",
"* 	c #B2B4A5",
"= 	c #B3B5A5",
"- 	c #B1B3A3",
"; 	c #AFB1A0",
"> 	c #ADAF9E",
", 	c #A5A797",
"' 	c #3E3E3C",
") 	c #6D6F5D",
"! 	c #B2B4A4",
"~ 	c #90937C",
"{ 	c #9DA08C",
"] 	c #999C89",
"^ 	c #8E9181",
"/ 	c #8E9080",
"( 	c #8D8F7F",
"_ 	c #707068",
": 	c #696C59",
"< 	c #A3A594",
"[ 	c #8A8C76",
"} 	c #979985",
"| 	c #AEB0A0",
"1 	c #990000",
"2 	c #970006",
"3 	c #666856",
"4 	c #919381",
"5 	c #80826D",
"6 	c #7E806A",
"7 	c #787B66",
"8 	c #737662",
"9 	c #FF7575",
"0 	c #FF6666",
"a 	c #FF5555",
"b 	c #FF4343",
"c 	c #FF1919",
"d 	c #880005",
"e 	c #676960",
"f 	c #626452",
"g 	c #7C7D6B",
"h 	c #767764",
"i 	c #767763",
"j 	c #777965",
"k 	c #B8B9A9",
"l 	c #D5D5C7",
"m 	c #8A0000",
"n 	c #7D0000",
"o 	c #710000",
"p 	c #6F0005",
"q 	c #808270",
"r 	c #494B43",
"s 	c #717460",
"t 	c #717461",
"u 	c #AFB09F",
"v 	c #D0D0C0",
"w 	c #ADAD9A",
"x 	c #AAAB96",
"y 	c #C7C7B4",
"z 	c #B4B4A2",
"A 	c #A2A292",
"B 	c #A0A08F",
"C 	c #727561",
"D 	c #6B6D5B",
"E 	c #BDBEAD",
"F 	c #D1D2C3",
"G 	c #D2D3C3",
"H 	c #D2D2C3",
"I 	c #CCCCBB",
"J 	c #BCBCA8",
"K 	c #737663",
"L 	c #747663",
"M 	c #BBBDA7",
"N 	c #BEBFA9",
"O 	c #C7C8B5",
"P 	c #6E715E",
"Q 	c #696B59",
"R 	c #BFC0AB",
"S 	c #BBBCA6",
"T 	c #A2A48F",
"U 	c #8B8D7C",
"V 	c #898C7A",
"W 	c #A5A793",
"X 	c #CACBBA",
"Y 	c #6A6C5A",
"Z 	c #656755",
"` 	c #C6C7B4",
" .	c #BCBDA7",
"..	c #B2B49D",
"+.	c #727562",
"@.	c #6F7260",
"#.	c #AFB1A1",
"$.	c #6F725F",
"%.	c #B1B29C",
"&.	c #D0D1C1",
"*.	c #666857",
"=.	c #616252",
"-.	c #CFD0C0",
";.	c #C0C1AC",
">.	c #BBBCA9",
",.	c #767967",
"'.	c #ADAFA1",
").	c #DEDFD4",
"!.	c #CBCCBA",
"~.	c #777A68",
"{.	c #BBBCA8",
"].	c #D3D4C5",
"^.	c #626453",
"/.	c #5C5E4E",
"(.	c #D6D7C9",
"_.	c #C4C5B1",
":.	c #D0D1C6",
"<.	c #828472",
"[.	c #999B87",
"}.	c #5E5F4F",
"|.	c #58594B",
"1.	c #D8D9CC",
"2.	c #C7C9B6",
"3.	c #CBCDBB",
"4.	c #9A9C8D",
"5.	c #A7AA99",
"6.	c #B3B6A3",
"7.	c #999C8B",
"8.	c #CFD1C1",
"9.	c #5A5B4C",
"0.	c #545547",
"a.	c #D7D8CA",
"b.	c #797C69",
"c.	c #949685",
"d.	c #797D6A",
"e.	c #7A7D6B",
"f.	c #767966",
"g.	c #CACCBB",
"h.	c #CED0BF",
"i.	c #555648",
"j.	c #525246",
"k.	c #CCCEBF",
"l.	c #D1D3C3",
"m.	c #D2D4C4",
"n.	c #A8AA9D",
"o.	c #979988",
"p.	c #DDDED5",
"q.	c #DEDFD6",
"r.	c #949687",
"s.	c #8F9181",
"t.	c #C5C7B6",
"u.	c #525347",
"v.	c #4F4F43",
"w.	c #A9A998",
"x.	c #CACABA",
"y.	c #D1D1C3",
"z.	c #D3D3C6",
"A.	c #D5D5C8",
"B.	c #E1E1D8",
"C.	c #E5E5DE",
"D.	c #DCDCD3",
"E.	c #DCDCD2",
"F.	c #E6E6DE",
"G.	c #D2D2C5",
"H.	c #D0D0C2",
"I.	c #CECEBF",
"J.	c #A6A694",
"K.	c #4E4E44",
"L.	c #3D3D36",
"M.	c #666655",
"N.	c #A4A489",
"O.	c #A6A68A",
"P.	c #656555",
"Q.	c #3D3D35",
"R.	c #3E3E36",
"S.	c #4A4A3E",
"T.	c #3F3F34",
"  . + @ @ # # $ %                   ",
"  & * = - ; > , # '                 ",
"  ) ! ~ ~ ~ ~ { ] ^ / / / / ( ( _   ",
"  : < [ [ [ [ [ } | 1 1 1 1 1 1 2   ",
"  3 4 5 5 5 6 7 8 ( 1 9 0 a b c d e ",
"  f g h h i j k l l 1 m n n o p p q ",
"r 8 s s t # u v w x y z A A A A B C ",
"D E F F G H I J K L M N N N N N O P ",
"Q R S S S S S T U V W S S S S S X Y ",
"Z `  . ...+.P @.- #.$.P +.%. . .&.*.",
"=.-.;.;.>.,.'.).!.I ).'.~.{.;.;.].^.",
"/.(._._.O :.<.[._._.[.<.:.O _._.G }.",
"|.1.2.2.2.3.4.5.6.6.5.7.3.2.2.2.8.9.",
"0.a.3.3.3.3.b.c.d.e.c.f.g.3.3.3.h.i.",
"j.k.l.G m.m.n.o.p.q.r.s.m.m.G l.t.u.",
"v.w.x.y.z.A.B.C.D.E.F.F.A.G.H.I.J.K.",
"L.M.N.O.O.O.O.O.O.O.O.O.O.O.O.O.P.Q.",
"  R.S.S.S.S.S.S.S.S.S.S.S.S.S.S.T.  "};
