/* XPM */
static char * image_sqlite_lecture_xpm[] = {
"13 13 109 2",
"  	c None",
". 	c #959693",
"+ 	c #80817E",
"@ 	c #7F7F7C",
"# 	c #81837F",
"$ 	c #B5B6B5",
"% 	c #8C8E8B",
"& 	c #F6F6F5",
"* 	c #FAFAF9",
"= 	c #F9FAF9",
"- 	c #F9F9F8",
"; 	c #F8F9F7",
"> 	c #F7F8F7",
", 	c #9E9E9E",
"' 	c #8F8F8F",
") 	c #ADADAC",
"! 	c #8D8E8B",
"~ 	c #F8F9F8",
"{ 	c #DCD9DC",
"] 	c #DADDD7",
"^ 	c #DBDCDF",
"/ 	c #DCDCDC",
"( 	c #DEDFE0",
"_ 	c #9C9C9B",
": 	c #DEDEDE",
"< 	c #979796",
"[ 	c #AFB0AF",
"} 	c #D9D9D9",
"| 	c #DFDDE0",
"1 	c #DEE2E2",
"2 	c #E2DFE0",
"3 	c #E2E6E3",
"4 	c #888A87",
"5 	c #7C7D7B",
"6 	c #99C3BD",
"7 	c #9AC5C2",
"8 	c #FAFAFA",
"9 	c #DFDDD9",
"0 	c #E4DEDF",
"a 	c #E1E4E3",
"b 	c #AEC6BF",
"c 	c #91BEB3",
"d 	c #DFE0DD",
"e 	c #E5EDEA",
"f 	c #8BBDB3",
"g 	c #E9F0ED",
"h 	c #9BC2B1",
"i 	c #FBFBFB",
"j 	c #E5E8E2",
"k 	c #AEC7C0",
"l 	c #D3D9D3",
"m 	c #D4DFDC",
"n 	c #E2EAE8",
"o 	c #9FC7C1",
"p 	c #E5ECEA",
"q 	c #A6C4B4",
"r 	c #FCFCFC",
"s 	c #E8E7E5",
"t 	c #E1E8E7",
"u 	c #9BC2B8",
"v 	c #DFE8E6",
"w 	c #A3C6C3",
"x 	c #9DC7BF",
"y 	c #E6EDEB",
"z 	c #F0F4F3",
"A 	c #839FAA",
"B 	c #FDFDFD",
"C 	c #E9EFED",
"D 	c #9FC7BE",
"E 	c #A6C7C5",
"F 	c #DEE8E5",
"G 	c #90C0B7",
"H 	c #99C7C3",
"I 	c #A3BFD3",
"J 	c #FEFEFE",
"K 	c #E9E5EC",
"L 	c #D8E2DF",
"M 	c #92BEB7",
"N 	c #E1EAE8",
"O 	c #DCE5DF",
"P 	c #B3D0CF",
"Q 	c #E1E9E7",
"R 	c #F8FAF9",
"S 	c #939492",
"T 	c #FFFFFF",
"U 	c #D7E3E5",
"V 	c #93BFB8",
"W 	c #C9DFD9",
"X 	c #92BCB2",
"Y 	c #A5C6BD",
"Z 	c #F5F8F7",
"` 	c #F1F5F4",
" .	c #7FB8AC",
"..	c #DDE6E3",
"+.	c #F6F8F8",
"@.	c #F6F7FA",
"#.	c #FCF8FF",
"$.	c #FDFEFF",
"%.	c #8E8F8C",
"&.	c #A6CDCC",
"*.	c #D5E1DD",
"=.	c #FBFCFC",
"-.	c #FCFCFB",
";.	c #F8F8F7",
">.	c #929390",
",.	c #959694",
"'.	c #828380",
").	c #82837F",
"!.	c #939491",
"  . + @ @ @ @ @ # $       ",
"  % & * = - ; > , ' )     ",
"  ! ~ { ] ^ / ( _ : < [   ",
"  ! - } | 1 2 3 4 4 5 6 7 ",
"  ! 8 9 0 a b c d e f g h ",
"  ! i 0 j k l m n o n p q ",
"  ! r s t u v w x y z A   ",
"  ! B C D g E n F G H I   ",
"  ! J K L M N O P Q R S   ",
"  ! T U V W X Y Z i > S   ",
"  ! `  ...+.R @.#.$.- S   ",
"  %.&.*.=.J B B r -.;.>.  ",
"  ,.'.+ + + + + + + ).!.  "};
