/* XPM */
static char * image_lecture_view_16_xpm[] = {
"16 16 173 2",
"  	c None",
". 	c #ABB9D4",
"+ 	c #B9C5DD",
"@ 	c #B2BBD4",
"# 	c #A8B0CC",
"$ 	c #9FA5C3",
"% 	c #9499BC",
"& 	c #8B8EB4",
"* 	c #757A7A",
"= 	c #3F4446",
"- 	c #4C5152",
"; 	c #8B8F8F",
"> 	c #D0D0D0",
", 	c #B1BBD5",
"' 	c #FFFFFF",
") 	c #777A7A",
"! 	c #7C7E7D",
"~ 	c #C3C6C1",
"{ 	c #DBDCD8",
"] 	c #D5D7D3",
"^ 	c #B7B9B7",
"/ 	c #6F7375",
"( 	c #ABB4CE",
"_ 	c #665778",
": 	c #B5B9B3",
"< 	c #DDDFD9",
"[ 	c #E6E8E3",
"} 	c #EBECE9",
"| 	c #ECEDEA",
"1 	c #EDEEEB",
"2 	c #E5E5E4",
"3 	c #9EA1A0",
"4 	c #A6AEC9",
"5 	c #ACAFAF",
"6 	c #868886",
"7 	c #DADED9",
"8 	c #C8C9D2",
"9 	c #9898C9",
"0 	c #9C9CCB",
"a 	c #AFAFD6",
"b 	c #D7E3EE",
"c 	c #EEEEEC",
"d 	c #E6E6E4",
"e 	c #717576",
"f 	c #A1A7C4",
"g 	c #D4D9DF",
"h 	c #999DBE",
"i 	c #767CA7",
"j 	c #8F96BB",
"k 	c #CCCCCE",
"l 	c #DEDEDC",
"m 	c #BACFE8",
"n 	c #8488BA",
"o 	c #B2B3C1",
"p 	c #B8BAB9",
"q 	c #818586",
"r 	c #9CA1BF",
"s 	c #6C706F",
"t 	c #D8DDDD",
"u 	c #ECF3EA",
"v 	c #EEF7F3",
"w 	c #FAFAF8",
"x 	c #F3F3F2",
"y 	c #F0F0EE",
"z 	c #C2D2E3",
"A 	c #EAEBE8",
"B 	c #D5D7D4",
"C 	c #979AB9",
"D 	c #F9FCFF",
"E 	c #5C6060",
"F 	c #D1D7D4",
"G 	c #989CD3",
"H 	c #8E93D3",
"I 	c #7E7FD5",
"J 	c #8586D9",
"K 	c #CCCCD8",
"L 	c #D0DBE8",
"M 	c #AAACD7",
"N 	c #A891C1",
"O 	c #9194B5",
"P 	c #FDFFFF",
"Q 	c #707272",
"R 	c #D1DED1",
"S 	c #D7D9D7",
"T 	c #DAE9F1",
"U 	c #E8F1FA",
"V 	c #E0EAF1",
"W 	c #D5E8F1",
"X 	c #C2D9F0",
"Y 	c #E3E5E0",
"Z 	c #B0B3AE",
"` 	c #8C8EB2",
" .	c #F9FDFE",
"..	c #EFF8FF",
"+.	c #848687",
"@.	c #B7B9B9",
"#.	c #949ACE",
"$.	c #898FCC",
"%.	c #9BA4DF",
"&.	c #C8DBE4",
"*.	c #B3CFDD",
"=.	c #9ACDC6",
"-.	c #9394AB",
";.	c #C4C7C0",
">.	c #707271",
",.	c #8788AE",
"'.	c #F4FBFE",
").	c #9394B6",
"!.	c #A7A7C3",
"~.	c #5F6262",
"{.	c #C4D8D5",
"].	c #C9D7CC",
"^.	c #7B82BA",
"/.	c #7177B7",
"(.	c #7781BA",
"_.	c #CBE3C9",
":.	c #CCE9DF",
"<.	c #939792",
"[.	c #8485AB",
"}.	c #EEF8FE",
"|.	c #8C8C8C",
"1.	c #727272",
"2.	c #606261",
"3.	c #696D6D",
"4.	c #AFB1B1",
"5.	c #C8D5DE",
"6.	c #B3DCEA",
"7.	c #9AB9BD",
"8.	c #798579",
"9.	c #616275",
"0.	c #8181A9",
"a.	c #5B5F5F",
"b.	c #404544",
"c.	c #7E7E7E",
"d.	c #B0B0CB",
"e.	c #929596",
"f.	c #7C7E7E",
"g.	c #666A6A",
"h.	c #787C7C",
"i.	c #858786",
"j.	c #B4CCE7",
"k.	c #5C5D85",
"l.	c #595D5D",
"m.	c #525350",
"n.	c #C9DCEC",
"o.	c #C0D5EA",
"p.	c #BDD4EA",
"q.	c #B8D1EA",
"r.	c #B3D0EA",
"s.	c #B0D0EA",
"t.	c #B0C9E7",
"u.	c #636667",
"v.	c #4A4C4A",
"w.	c #606186",
"x.	c #6A6B94",
"y.	c #ADCAE6",
"z.	c #7677A4",
"A.	c #65668D",
"B.	c #9ABBE1",
"C.	c #666793",
"D.	c #54595B",
"E.	c #464A48",
"F.	c #C3DAE8",
"G.	c #BFD8E8",
"H.	c #C8E9FF",
"I.	c #C1E5FF",
"J.	c #BCE3FF",
"K.	c #B8E1FF",
"L.	c #B2DEFF",
"M.	c #ADDEFF",
"N.	c #AFD7FF",
"O.	c #7172A3",
"P.	c #929495",
"  . + @ # $ % & * = - ; >       ",
"  , ' ' ' ' ) ! ~ { ] ^ / >     ",
"  ( ' ' ' _ : < [ } | 1 2 3 >   ",
"  4 ' 4 5 6 7 8 9 0 a b c d e > ",
"  f ' ' ) g h i j k l m n o p q ",
"  r ' r s t u v w x y b z A B - ",
"  C ' D E F G H I J K L M N { = ",
"  O P O Q R S T U V W X X Y Z * ",
"  `  ...+.@.#.$.%.&.*.=.-.;.>.  ",
"  ,.'.).!.~.{.].^./.(._.:.<.    ",
"  [.}.|.1.2.3.4.5.6.6.7.8.9.    ",
"  0.|.a.b.c.d.e.f.g.h.i.j.k.    ",
"  |.l.m.a.|.n.o.p.q.r.s.t.k.    ",
"|.u.v.l.|.w.x.y.z.A.A.w.B.C.    ",
"D.E.u.|.F.G.H.I.J.K.L.M.N.O.    ",
"P.D.|.k.C.O.O.O.O.O.O.O.O.O.    "};
