/* XPM */
static char * image_lecture_edit_18_xpm[] = {
"18 18 160 2",
"  	c None",
". 	c #ABB9D4",
"+ 	c #B9C5DD",
"@ 	c #B2BBD4",
"# 	c #A8B0CC",
"$ 	c #9FA5C3",
"% 	c #9499BC",
"& 	c #8B8EB4",
"* 	c #8283AC",
"= 	c #7D7DA8",
"- 	c #9AA1BD",
"; 	c #B9B6B8",
"> 	c #B1BBD5",
", 	c #FFFFFF",
"' 	c #7197D2",
") 	c #B2C7E2",
"! 	c #7C92BC",
"~ 	c #B7B4B5",
"{ 	c #ABB4CE",
"] 	c #F9FDFF",
"^ 	c #F6FBFF",
"/ 	c #DEE7F3",
"( 	c #6FBDF7",
"_ 	c #5478B1",
": 	c #B4B1B4",
"< 	c #E8938F",
"[ 	c #EC8989",
"} 	c #A6AEC9",
"| 	c #F5FAFF",
"1 	c #E7EBF5",
"2 	c #D1E0F1",
"3 	c #9CB6E0",
"4 	c #C33A37",
"5 	c #D94C4B",
"6 	c #AB0B07",
"7 	c #A1A7C4",
"8 	c #F9FCFF",
"9 	c #F0F8FF",
"0 	c #EAF5FF",
"a 	c #C37B4A",
"b 	c #D26054",
"c 	c #DB4747",
"d 	c #BE100F",
"e 	c #9CA1BF",
"f 	c #8788AE",
"g 	c #7172A3",
"h 	c #D0AC74",
"i 	c #F6BC6A",
"j 	c #E1844C",
"k 	c #BB2218",
"l 	c #AA0702",
"m 	c #979AB9",
"n 	c #F0F7FF",
"o 	c #E9F5FF",
"p 	c #E5F2FF",
"q 	c #DFEFFF",
"r 	c #DCEEFF",
"s 	c #CDA66A",
"t 	c #F9BB5F",
"u 	c #FCB247",
"v 	c #E8A33D",
"w 	c #AB420F",
"x 	c #9194B5",
"y 	c #FDFFFF",
"z 	c #C49A57",
"A 	c #F5BB65",
"B 	c #FCB348",
"C 	c #E7A33E",
"D 	c #B3863E",
"E 	c #8C8EB2",
"F 	c #F9FDFE",
"G 	c #EFF8FF",
"H 	c #E5F3FF",
"I 	c #DBEEFF",
"J 	c #D5EAFF",
"K 	c #C69D5C",
"L 	c #F3BB67",
"M 	c #FCB44B",
"N 	c #E39F39",
"O 	c #BE8F46",
"P 	c #4F5073",
"Q 	c #F4FBFE",
"R 	c #CBA870",
"S 	c #F6BB66",
"T 	c #E09C36",
"U 	c #AD7925",
"V 	c #8599AF",
"W 	c #8485AB",
"X 	c #EEF8FE",
"Y 	c #C49D5E",
"Z 	c #F7BC65",
"` 	c #FCB248",
" .	c #E6A039",
"..	c #AE7A28",
"+.	c #839EB3",
"@.	c #B8D6F9",
"#.	c #8181A9",
"$.	c #EAF6FE",
"%.	c #7C7DA8",
"&.	c #EAE9D9",
"*.	c #DFA95A",
"=.	c #FBB54D",
"-.	c #BA8F47",
";.	c #535470",
">.	c #76779F",
",.	c #B0D0F4",
"'.	c #E4F3FE",
").	c #D4EAFF",
"!.	c #CEE6FF",
"~.	c #F4DFC0",
"{.	c #D0902F",
"].	c #B68940",
"^.	c #7F96AE",
"/.	c #ADD0F2",
"(.	c #A8CDF1",
"_.	c #A6C7EC",
":.	c #6B6C9B",
"<.	c #7677A4",
"[.	c #E0F1FE",
"}.	c #B4B09D",
"|.	c #94938F",
"1.	c #EFE9DF",
"2.	c #B09A6A",
"3.	c #535473",
"4.	c #70719C",
"5.	c #6A6B94",
"6.	c #65668C",
"7.	c #A2C4EC",
"8.	c #7374A3",
"9.	c #E0F5FF",
"0.	c #D5EFFF",
"a.	c #D1EDFF",
"b.	c #443C2E",
"c.	c #8DA4B3",
"d.	c #88A1B3",
"e.	c #7D97AA",
"f.	c #AED2F1",
"g.	c #AFD4F2",
"h.	c #A5CAE6",
"i.	c #9DC7E4",
"j.	c #9CBFE3",
"k.	c #656691",
"l.	c #C0E0FF",
"m.	c #5F6084",
"n.	c #98B9DE",
"o.	c #5B5C83",
"p.	c #CCEBFF",
"q.	c #C8E9FF",
"r.	c #C1E5FF",
"s.	c #B2D7F2",
"t.	c #B0D4F1",
"u.	c #ACD1F0",
"v.	c #9FC5E3",
"w.	c #94B7D7",
"x.	c #94B5D7",
"y.	c #575887",
"z.	c #6667A0",
"A.	c #616298",
"B.	c #5B5C8E",
"C.	c #575886",
"  . + @ @ # $ % & * * = - ;         ",
"  > , , , , , , , , , ' ) ! ~       ",
"  { , , , , , , ] ^ ^ ' / ( _ : < [ ",
"  } , } } } } } | } } ' 1 2 3 4 5 6 ",
"  7 , , , , 8 | 9 0 0 ' ' ' a b c d ",
"  e , e e e e e 0 e e f g h i j k l ",
"  m , 8 8 | n o p q q r s t u v w   ",
"  x y x x x x x q x x z A B C D     ",
"  E F G G 0 H q I J K L M N O P     ",
"  f Q f f f f f J R S M T U V g     ",
"  W X H H q I J Y Z `  ...+.@.g     ",
"  #.$.%.%.%.%.&.*.=. .-.;.>.,.g     ",
"  %.'.I I ).!., ~.{.].^./.(._.:.    ",
"  <.[.<.<.<.}.|.1.2.3.4.5.6.7.:.    ",
"  8.9.0.0.a.b.c.d.e.f.g.h.i.j.k.    ",
"  <.[.<.<.<.<.3.l.4.4.5.m.m.n.o.    ",
"  8.9.0.0.a.p.q.r.s.t.u.v.w.x.y.    ",
"  g g g g g g z.z.A.A.A.B.C.C.y.    "};
