/* XPM */
static char * image_learn_18_xpm[] = {
"18 18 114 2",
"  	c #0000E6",
". 	c #0000D0",
"+ 	c #6F7290",
"@ 	c #8283AC",
"# 	c #7D7DA8",
"$ 	c #9AA1BD",
"% 	c #B9B6B8",
"& 	c None",
"* 	c #42D9FF",
"= 	c #33D1FF",
"- 	c #18C1FF",
"; 	c #00A7FF",
"> 	c #009CFF",
", 	c #0000BC",
"' 	c #FFFFFF",
") 	c #7197D2",
"! 	c #204880",
"~ 	c #3BD0FF",
"{ 	c #2BCCFF",
"] 	c #22BFFF",
"^ 	c #0000AA",
"/ 	c #F9FDFF",
"( 	c #F6FBFF",
"_ 	c #A8C0E0",
": 	c #B4B1B4",
"< 	c #A6A6A6",
"[ 	c #A6AEC9",
"} 	c #F5FAFF",
"| 	c #0DA6FF",
"1 	c #0DBAFF",
"2 	c #F0F8FF",
"3 	c #EAF5FF",
"4 	c #A0B0C8",
"5 	c #000099",
"6 	c #0092FF",
"7 	c #00B3FF",
"8 	c #9CA1BF",
"9 	c #184880",
"0 	c #00008A",
"a 	c #0089FF",
"b 	c #E5F2FF",
"c 	c #DFEFFF",
"d 	c #DCEEFF",
"e 	c #7172A3",
"f 	c #00007D",
"g 	c #787886",
"h 	c #777777",
"i 	c #D5D9DD",
"j 	c #E1EFFB",
"k 	c #9696B4",
"l 	c #9194B5",
"m 	c #70728F",
"n 	c #F9FDFE",
"o 	c #EFF8FF",
"p 	c #E5F3FF",
"q 	c #E2EBF5",
"r 	c #DBE8F4",
"s 	c #D3E3F2",
"t 	c #CEE7FF",
"u 	c #CAE5FF",
"v 	c #C6E4FF",
"w 	c #C2DBFA",
"x 	c #8788AE",
"y 	c #F4FBFE",
"z 	c #8B8CAF",
"A 	c #D5E8F9",
"B 	c #8889AA",
"C 	c #8B8CAC",
"D 	c #8081A5",
"E 	c #BDD9F9",
"F 	c #8485AB",
"G 	c #EEF8FE",
"H 	c #DBEEFF",
"I 	c #D6E9FB",
"J 	c #CCDBE9",
"K 	c #B9BCC0",
"L 	c #008000",
"M 	c #B8D6F9",
"N 	c #8181A9",
"O 	c #EAF6FE",
"P 	c #7C7DA8",
"Q 	c #858585",
"R 	c #00BF00",
"S 	c #66D929",
"T 	c #007400",
"U 	c #E4F3FE",
"V 	c #D4EAFF",
"W 	c #CEE6FF",
"X 	c #C4E2FF",
"Y 	c #C2E0FF",
"Z 	c #55D522",
"` 	c #006900",
" .	c #7677A4",
"..	c #E0F1FE",
"+.	c #C0E0FF",
"@.	c #19C50A",
"#.	c #43D01B",
"$.	c #005F00",
"%.	c #7374A3",
"&.	c #E0F5FF",
"*.	c #D5EFFF",
"=.	c #D1EDFF",
"-.	c #CCEBFF",
";.	c #C8E9FF",
">.	c #C1E5FF",
",.	c #B2D7F2",
"'.	c #AED2F1",
").	c #2FCB13",
"!.	c #005600",
"~.	c #70719C",
"{.	c #004E00",
"].	c #004600",
"^.	c #6667A0",
"/.	c #616298",
"            . . + @ @ # $ % & & & & ",
". * = - ; > > , ' ' ' ) ! ! ! & & & ",
", ~ { ]   . , ^ / ( ( ) ! _ ! : & & ",
"^ ] ] - ;   < [ } [ ! ! ! _ ! ! ! & ",
"^ |   ; 1 ; . < 2 3 ! _ _ _ 4 4 ! & ",
"5 6 .   ; 7 ; . 3 8 ! ! ! 4 9 9 ! & ",
"0 a ^ < . ;   < b c c d 9 4 9 e & & ",
"f 5 5 g h . < i j k l l 9 9 9 e & & ",
"& m n o o 3 p q j r s t u v w e & & ",
"& x y x x x x z A B C x D D E e & & ",
"& F G p p c H I A J K < L < M L L L ",
"& N O P P P P P u P Q L R L < L S T ",
"& P U H H V W u X Y L R S R L T Z ` ",
"&  ... . . . . .+. .Q L R Z @.` #.$.",
"& %.&.*.*.=.-.;.>.,.'.< L @.#.).).!.",
"&  ... . . . . .+.~.L L T ` ).@.@.{.",
"& %.&.*.*.=.-.;.>.,.L S Z #.).@.R ].",
"& e e e e e e ^.^./.T ` $.!.{.{.].]."};
