/* XPM */
static char * image_verify_16_xpm[] = {
"16 16 157 2",
"  	c None",
". 	c #ABB9D4",
"+ 	c #B9C5DD",
"@ 	c #B2BBD4",
"# 	c #A8B0CC",
"$ 	c #9FA5C3",
"% 	c #9499BC",
"& 	c #8B8EB4",
"* 	c #8283AC",
"= 	c #7D7DA8",
"- 	c #C0A945",
"; 	c #AA9A40",
"> 	c #B1BBD5",
", 	c #FFFFFF",
"' 	c #E8DCA5",
") 	c #EBDE9D",
"! 	c #ECE1A6",
"~ 	c #E7D78B",
"{ 	c #ABB4CE",
"] 	c #F9FDFF",
"^ 	c #F6FBFF",
"/ 	c #DFCF84",
"( 	c #F5EFD0",
"_ 	c #DCC65E",
": 	c #A6AEC9",
"< 	c #AAB1C8",
"[ 	c #AAB1C7",
"} 	c #F2F6F8",
"| 	c #ADB3C4",
"1 	c #D4BE59",
"2 	c #F9F0B4",
"3 	c #F8EFB2",
"4 	c #C6A619",
"5 	c #A1A7C4",
"6 	c #C9AD37",
"7 	c #DECA6F",
"8 	c #DEC96B",
"9 	c #DDC969",
"0 	c #EBDD9C",
"a 	c #FBEF93",
"b 	c #FAEE8C",
"c 	c #EBDC97",
"d 	c #DDC867",
"e 	c #DEC96A",
"f 	c #DEC96E",
"g 	c #9CA1BF",
"h 	c #C9AD32",
"i 	c #ECDEA0",
"j 	c #FDFAE0",
"k 	c #FAEE8B",
"l 	c #FBEF8B",
"m 	c #FBEB6C",
"n 	c #F9E960",
"o 	c #F8EA71",
"p 	c #F8EA76",
"q 	c #FCF9DB",
"r 	c #ECDD9E",
"s 	c #979AB9",
"t 	c #F9FCFF",
"u 	c #F5FAFF",
"v 	c #F0F7FF",
"w 	c #CFBD66",
"x 	c #E2D174",
"y 	c #FAF4CB",
"z 	c #FAEB73",
"A 	c #F9E85B",
"B 	c #F8E652",
"C 	c #F8E761",
"D 	c #F9F3C6",
"E 	c #E2D070",
"F 	c #D2BD65",
"G 	c #9194B5",
"H 	c #FDFFFF",
"I 	c #737486",
"J 	c #CDBE72",
"K 	c #E4D070",
"L 	c #FAEF94",
"M 	c #F7E54B",
"N 	c #F7E445",
"O 	c #F9ED8C",
"P 	c #E3D06C",
"Q 	c #D2C072",
"R 	c #8C8EB2",
"S 	c #F9FDFE",
"T 	c #EFF8FF",
"U 	c #EAF5FF",
"V 	c #E5F3FF",
"W 	c #DFEFFF",
"X 	c #BCB37C",
"Y 	c #F0E499",
"Z 	c #F9EB7D",
"` 	c #FBF2AB",
" .	c #FBF2A8",
"..	c #F8E975",
"+.	c #F0E394",
"@.	c #DACB89",
"#.	c #8788AE",
"$.	c #F4FBFE",
"%.	c #8E8FB0",
"&.	c #CEBD65",
"*.	c #FDFBE6",
"=.	c #F6EDB2",
"-.	c #E2CE6A",
";.	c #E1CE6A",
">.	c #F6EDAE",
",.	c #FDFAE5",
"'.	c #D5C164",
").	c #8485AB",
"!.	c #EEF8FE",
"~.	c #DBEEFF",
"{.	c #D4DEDF",
"].	c #D8C357",
"^.	c #F9F4DB",
"/.	c #D5BF52",
"(.	c #B4BCAD",
"_.	c #B1BCAD",
":.	c #D5BF51",
"<.	c #F8F4DB",
"[.	c #D7C152",
"}.	c #8181A9",
"|.	c #EAF6FE",
"1.	c #7C7DA8",
"2.	c #C9BE70",
"3.	c #6F6C6B",
"4.	c #76779F",
"5.	c #B1B9B7",
"6.	c #D8C570",
"7.	c #E4F3FE",
"8.	c #D4EAFF",
"9.	c #CEE6FF",
"0.	c #CAE5FF",
"a.	c #B1CCE6",
"b.	c #9DB6D0",
"c.	c #A8C7E6",
"d.	c #B4DAFF",
"e.	c #B0DAFF",
"f.	c #AFD2F9",
"g.	c #5C5D85",
"h.	c #7677A4",
"i.	c #E0F1FE",
"j.	c #C0E0FF",
"k.	c #70719C",
"l.	c #6A6B94",
"m.	c #ABCFF9",
"n.	c #7172A3",
"o.	c #7374A3",
"p.	c #E0F5FF",
"q.	c #D5EFFF",
"r.	c #D1EDFF",
"s.	c #CCEBFF",
"t.	c #C8E9FF",
"u.	c #C1E5FF",
"v.	c #BCE3FF",
"w.	c #B8E1FF",
"x.	c #B2DEFF",
"y.	c #ADDEFF",
"z.	c #AFD7FF",
"  . + @ # $ % & * = - ;         ",
"  > , , , , , , , ' ) ! ~       ",
"  { , , , , , ] ^ / ( ( _       ",
"  : , : : < [ } | 1 2 3 4       ",
"  5 , , , 6 7 8 9 0 a b c d e f ",
"  g , g g h i j k l m n o p q r ",
"  s , t u v w x y z A B C D E F ",
"  G H G G G I J K L M N O P Q   ",
"  R S T U V W X Y Z `  ...+.@.  ",
"  #.$.#.#.#.%.&.*.=.-.;.>.,.'.  ",
"  ).!.V W ~.{.].^./.(._.:.<.[.  ",
"  }.|.1.1.1.1.2.4 3.4.4.5.4 6.  ",
"  1.7.~.8.9.0.a.b.c.d.e.f.g.    ",
"  h.i.h.h.h.h.j.h.k.k.l.m.n.    ",
"  o.p.q.r.s.t.u.v.w.x.y.z.n.    ",
"  n.n.n.n.n.n.n.n.n.n.n.n.n.    "};
