/* XPM */
static char * image_graph_leaf_xpm[] = {
"16 16 14 1",
" 	c #BFDCFF",
".	c #7575A1",
"+	c #8E8EB2",
"@	c #DADAE6",
"#	c #EBF4FF",
"$	c #FFFFFF",
"%	c #EFF6FF",
"&	c #E3F0FF",
"*	c #D1E6FF",
"=	c #F1F7FF",
"-	c #DDECFF",
";	c #A2C2EA",
">	c #B4B4CC",
",	c #A0C1EA",
"                ",
" .............. ",
" ......+@+..... ",
" ......#$%..... ",
" ......$$$..... ",
" ......&$&..... ",
" ......*=*..... ",
" ...... - ..... ",
" ......;*;..... ",
" .......>...... ",
" .............. ",
" ......,*,..... ",
" ......*$*..... ",
" ......,*,..... ",
" .............. ",
"                "};
