/* XPM */
static char * image_preview_18_xpm[] = {
"18 18 197 2",
"  	c None",
". 	c #888888",
"+ 	c #A08F70",
"@ 	c #887B65",
"# 	c #948275",
"$ 	c #978367",
"% 	c #918371",
"& 	c #8F7C71",
"* 	c #8D7162",
"= 	c #8D775E",
"- 	c #92734E",
"; 	c #836F51",
"> 	c #B19976",
", 	c #968A79",
"' 	c #A6A6A6",
") 	c #FFFFFC",
"! 	c #FFFAF6",
"~ 	c #FFF9F5",
"{ 	c #FFFBF2",
"] 	c #FFFAF1",
"^ 	c #FFF5EC",
"/ 	c #FFF7E8",
"( 	c #FFF9E2",
"_ 	c #CDBDA7",
": 	c #FFFEFD",
"< 	c #FFFBF6",
"[ 	c #FFFEEC",
"} 	c #FFF9EE",
"| 	c #FFF7E6",
"1 	c #FFF7E3",
"2 	c #FFF7DC",
"3 	c #B5A081",
"4 	c #F1F1EE",
"5 	c #D4CFC8",
"6 	c #BEAC71",
"7 	c #FFF8F0",
"8 	c #737373",
"9 	c #837F76",
"0 	c #FFF8DD",
"a 	c #FFF5DC",
"b 	c #FAF9F7",
"c 	c #E4E1DC",
"d 	c #C1B4A1",
"e 	c #827B71",
"f 	c #BAA76E",
"g 	c #FFFDF5",
"h 	c #FFFAEC",
"i 	c #FFFAE7",
"j 	c #FFF5E5",
"k 	c #FFF4E0",
"l 	c #FFF3DC",
"m 	c #FFF9DB",
"n 	c #FFF4D6",
"o 	c #B39B77",
"p 	c #F8F6F2",
"q 	c #ECE9E2",
"r 	c #C8C2BA",
"s 	c #9D988E",
"t 	c #8F795A",
"u 	c #BFA151",
"v 	c #F8EDD6",
"w 	c #FFF4DE",
"x 	c #FFF4D8",
"y 	c #B7A17C",
"z 	c #F9F7F2",
"A 	c #F6F4ED",
"B 	c #DAD7D0",
"C 	c #A59F96",
"D 	c #817665",
"E 	c #B49E66",
"F 	c #FFF5E0",
"G 	c #B59D77",
"H 	c #F6F2EB",
"I 	c #F9F6F0",
"J 	c #F1EAD9",
"K 	c #BFB8AC",
"L 	c #8A8479",
"M 	c #594F40",
"N 	c #B09963",
"O 	c #FFF8E7",
"P 	c #B69E78",
"Q 	c #F3EDE4",
"R 	c #F4EEE4",
"S 	c #F6EEDF",
"T 	c #DDD4C3",
"U 	c #AEA697",
"V 	c #786D5A",
"W 	c #564E41",
"X 	c #AC9561",
"Y 	c #FFF5DB",
"Z 	c #FFF7D9",
"` 	c #FFF8DB",
" .	c #AD9672",
"..	c #F4EFE4",
"+.	c #F4E9D0",
"@.	c #EBE1CA",
"#.	c #D5CDC1",
"$.	c #88847C",
"%.	c #A49D91",
"&.	c #AA915E",
"*.	c #9E8867",
"=.	c #F1EDE7",
"-.	c #F5F1E7",
";.	c #F5EAD0",
">.	c #FAF0D5",
",.	c #D5CAB4",
"'.	c #B1A999",
").	c #8B7E66",
"!.	c #AD9F7F",
"~.	c #72695A",
"{.	c #A78F5C",
"].	c #FFF5D5",
"^.	c #FFF0D7",
"/.	c #8B6A3B",
"(.	c #ECE6DD",
"_.	c #E9E3D8",
":.	c #FFF6DF",
"<.	c #FDEFCC",
"[.	c #F2E5C4",
"}.	c #D1C9B5",
"|.	c #88806F",
"1.	c #A79A7E",
"2.	c #CCB98D",
"3.	c #A58C5B",
"4.	c #FFEAB1",
"5.	c #F8DD97",
"6.	c #E1D4B1",
"7.	c #CCC3AE",
"8.	c #8F8166",
"9.	c #CAB98B",
"0.	c #FFE7A8",
"a.	c #A2895A",
"b.	c #8E8472",
"c.	c #9A8C73",
"d.	c #8E8576",
"e.	c #7C7C7C",
"f.	c #FFE59D",
"g.	c #DDCFAC",
"h.	c #8F897F",
"i.	c #C4B587",
"j.	c #EBD59B",
"k.	c #FFECA6",
"l.	c #716758",
"m.	c #9E8557",
"n.	c #666666",
"o.	c #AD9977",
"p.	c #B8AB90",
"q.	c #BFB399",
"r.	c #C2B99E",
"s.	c #B3A788",
"t.	c #AB9C78",
"u.	c #D0C2AE",
"v.	c #928161",
"w.	c #CEBC8A",
"x.	c #FFE8A8",
"y.	c #FFE8A1",
"z.	c #625B51",
"A.	c #9C8357",
"B.	c #D0C2A1",
"C.	c #CEC09F",
"D.	c #EBD8AF",
"E.	c #FFEABA",
"F.	c #F4E4B4",
"G.	c #E2D3A5",
"H.	c #BDAC82",
"I.	c #B1A179",
"J.	c #69502D",
"K.	c #C5B183",
"L.	c #EBD395",
"M.	c #615B4F",
"N.	c #FFF1C5",
"O.	c #E2D3AB",
"P.	c #F9E5B6",
"Q.	c #FFEFB9",
"R.	c #FFEFB8",
"S.	c #FFE8AD",
"T.	c #CCBB84",
"U.	c #CCBD89",
"V.	c #CCB882",
"W.	c #FFE5A3",
"X.	c #FFE39F",
"Y.	c #FFE399",
"Z.	c #575249",
"`.	c #857254",
" +	c #6D6354",
".+	c #6A6359",
"++	c #68635C",
"@+	c #60594E",
"#+	c #5C5852",
"$+	c #54514D",
"%+	c #545049",
"&+	c #5B5750",
"*+	c #53514D",
"=+	c #5B574F",
"-+	c #5B5549",
";+	c #4E4D48",
">+	c #8C8C8C",
"  . + @ @ # $ % & * = - ; > ,       ",
"  ' ) ) ! ~ { ] ^ / ( ( ( ( > _ ,   ",
"  ' : : < [ } / | 1 2 2 2 3 4 5 > , ",
"  6 7 8 8 8 8 8 9 0 a a > b c d e , ",
"  f g h i j k l m n n o p q r s t   ",
"  u ] 8 8 v w l x x y z A B C D ,   ",
"  E / ( 1 F x a a G H I J K L M     ",
"  N O 8 8 8 a a P Q R S T U V W     ",
"  X Y w Z ` `  .H ..+.@.#.$.%.W     ",
"  &.w 8 a a *.=.-.;.>.,.'.).!.~.    ",
"  {.].^.^./.(._.:.<.[.}.|.1.2.~.    ",
"  3.].]././././.4.5.6.7.8.9.0.~.    ",
"  a.]./.b.c.d.e./.f.g.h.i.j.k.l.    ",
"  m.n.o.p.q.r.s.t./.u.v.w.x.y.z.    ",
"  A.B.C.D.E.F.G.H.I.J.K.L.y.f.M.    ",
"  m.N.O.P.E.Q.R.S.T.U.V.W.X.Y.Z.    ",
"  `.`. +.+++@+#+$+%+&+*+=+-+-+;+    ",
"    >+>+>+>+>+>+>+>+>+>+>+>+>+>+    "};
