/* XPM */
static char * image_feature_16_xpm[] = {
"16 16 124 2",
"  	c None",
". 	c #E4B813",
"+ 	c #E0AD0D",
"@ 	c #DDA509",
"# 	c #DBA006",
"$ 	c #DB9C06",
"% 	c #FFF02F",
"& 	c #FFF433",
"* 	c #FFF130",
"= 	c #FFE928",
"- 	c #FFE01F",
"; 	c #FFDC1B",
"> 	c #FFDA19",
", 	c #FFD817",
"' 	c #FFD716",
") 	c #FFD410",
"! 	c #FFFF94",
"~ 	c #FFFF89",
"{ 	c #FFFF81",
"] 	c #FFFD6E",
"^ 	c #FFF25A",
"/ 	c #FFF056",
"( 	c #FFE546",
"_ 	c #FFE141",
": 	c #FFE13B",
"< 	c #FFDD32",
"[ 	c #FFD82B",
"} 	c #FFD71F",
"| 	c #FFCF0B",
"1 	c #F2F2F2",
"2 	c #808080",
"3 	c #FFFF87",
"4 	c #FFFF82",
"5 	c #FFFF79",
"6 	c #FFF86C",
"7 	c #FFF160",
"8 	c #6B4A29",
"9 	c #FFE648",
"0 	c #FFE23F",
"a 	c #FFE03A",
"b 	c #FFDD2F",
"c 	c #FFDD26",
"d 	c #E6E6E6",
"e 	c #FFFB7B",
"f 	c #FFF871",
"g 	c #FFF065",
"h 	c #FFE548",
"i 	c #FFE63F",
"j 	c #FFDE33",
"k 	c #FFDC24",
"l 	c #D9D9D9",
"m 	c #737373",
"n 	c #FFF26E",
"o 	c #FEEF66",
"p 	c #FFEE60",
"q 	c #FFEF55",
"r 	c #FFE64A",
"s 	c #FFE73D",
"t 	c #FFE035",
"u 	c #FFDF2E",
"v 	c #FFDB27",
"w 	c #FFD822",
"x 	c #CCCCCC",
"y 	c #595959",
"z 	c #FFF26F",
"A 	c #FFF067",
"B 	c #FFF05E",
"C 	c #FFEB57",
"D 	c #FFE344",
"E 	c #FFE13E",
"F 	c #FFE037",
"G 	c #FFDC2F",
"H 	c #BFBFBF",
"I 	c #404040",
"J 	c #FFF266",
"K 	c #FFEB63",
"L 	c #FFE443",
"M 	c #FFDF37",
"N 	c #B3B3B3",
"O 	c #FEF073",
"P 	c #FFF164",
"Q 	c #FFEC5E",
"R 	c #FFE85B",
"S 	c #FFE84D",
"T 	c #FFE640",
"U 	c #FEE43A",
"V 	c #FFD51C",
"W 	c #FED21B",
"X 	c #FFD10E",
"Y 	c #A6A6A6",
"Z 	c #FFF271",
"` 	c #FFED60",
" .	c #FFEE58",
"..	c #000000",
"+.	c #FEEA45",
"@.	c #FFE33D",
"#.	c #FFDD29",
"$.	c #FFD61B",
"%.	c #FFD211",
"&.	c #999999",
"*.	c #8C8C8C",
"=.	c #FFF36B",
"-.	c #FEED6B",
";.	c #FFEF63",
">.	c #FFEB55",
",.	c #FFE240",
"'.	c #FFDA2C",
").	c #FEDF25",
"!.	c #FFD515",
"~.	c #FFF477",
"{.	c #FFF56E",
"].	c #FFEE5F",
"^.	c #FFE744",
"/.	c #FEE03C",
"(.	c #FFD00E",
"_.	c #FDF482",
":.	c #FEF778",
"<.	c #FEF26C",
"[.	c #FDF161",
"}.	c #FFEE54",
"|.	c #FEEA4A",
"1.	c #FEE12D",
"2.	c #FDD11A",
"3.	c #FFD10B",
"                                ",
"                                ",
". . . . . . . + + + @ @ # # $ $ ",
". % & * % = - ; > , ' ' ' ' ' ) ",
". ! ! ~ { ] ^ / ( _ : < [ } ' | ",
"1 2 3 4 5 6 7 8 9 0 a b c 8 8 8 ",
"d d 2 e f g 8 8 h i : j k } ' 8 ",
"l l m n o p q 8 r s t u v w 8 } ",
"x x y z A B C 8 D E F G c 8 ' } ",
"H H I z J K 8 8 8 L M G k 8 8 8 ",
"N N I O P Q R S h T U b c V W X ",
"Y N I Z A `  ...+.@.a b #...$.%.",
"&.*.I =.-.;.>...+.,.U '.)...!.X ",
"*.I ~.{...].>...^./...G #...!.(.",
".._.:.<...[.}...|.s ..1.k ..2.3.",
"................................"};
