/* XPM */
static char * image_lecture_edited_16_xpm[] = {
"16 16 181 2",
"  	c None",
". 	c #FF6666",
"+ 	c #FF4343",
"@ 	c #F14343",
"# 	c #E54343",
"$ 	c #DB4343",
"% 	c #D34343",
"& 	c #CD4343",
"* 	c #C84343",
"= 	c #A76884",
"- 	c #B97F91",
"; 	c #B9B6B8",
"> 	c #E8938F",
", 	c #EC8989",
"' 	c #FF2F2F",
") 	c #FFFFFF",
"! 	c #BF8BA4",
"~ 	c #EAF1F8",
"{ 	c #A67591",
"] 	c #B7B4B5",
"^ 	c #C33A37",
"/ 	c #D94C4B",
"( 	c #AB0B07",
"_ 	c #EF2F2F",
": 	c #F9FDFF",
"< 	c #F6FBFF",
"[ 	c #E5ECF5",
"} 	c #E1F1FD",
"| 	c #C37B4A",
"1 	c #D26054",
"2 	c #DB4747",
"3 	c #BE100F",
"4 	c #E22F2F",
"5 	c #E87B81",
"6 	c #DF6369",
"7 	c #D35F68",
"8 	c #C44E58",
"9 	c #F5FAFF",
"0 	c #BC5F6C",
"a 	c #ECEFF7",
"b 	c #D0AC74",
"c 	c #F6BC6A",
"d 	c #E1844C",
"e 	c #BB2218",
"f 	c #AA0702",
"g 	c #D32A2A",
"h 	c #F9FCFF",
"i 	c #F0F8FF",
"j 	c #EAF5FF",
"k 	c #CDA66A",
"l 	c #F9BB5F",
"m 	c #FCB247",
"n 	c #E8A33D",
"o 	c #AB420F",
"p 	c #D41C1C",
"q 	c #D8646D",
"r 	c #CF5965",
"s 	c #CA4754",
"t 	c #C04754",
"u 	c #B75767",
"v 	c #C49A57",
"w 	c #F5BB65",
"x 	c #FCB348",
"y 	c #E7A33E",
"z 	c #B3863E",
"A 	c #D12020",
"B 	c #F0F7FF",
"C 	c #E9F5FF",
"D 	c #E5F2FF",
"E 	c #C69D5C",
"F 	c #F3BB67",
"G 	c #FCB44B",
"H 	c #E39F39",
"I 	c #BE8F46",
"J 	c #560000",
"K 	c #C81D1D",
"L 	c #FEF0F9",
"M 	c #C5404F",
"N 	c #B84F61",
"O 	c #B0586C",
"P 	c #A76278",
"Q 	c #CBA870",
"R 	c #F6BB66",
"S 	c #E09C36",
"T 	c #AD7925",
"U 	c #D6C1EC",
"V 	c #6B0000",
"W 	c #C31A1A",
"X 	c #FDEFF9",
"Y 	c #F9E9F7",
"Z 	c #F7E8F7",
"` 	c #F6E7F7",
" .	c #C49D5E",
"..	c #F7BC65",
"+.	c #FCB248",
"@.	c #E6A039",
"#.	c #AE7A28",
"$.	c #D7C6F0",
"%.	c #E4D7F3",
"&.	c #680000",
"*.	c #BF1717",
"=.	c #FBEAF7",
"-.	c #CD3A4A",
";.	c #C0485D",
">.	c #EAE9D9",
",.	c #DFA95A",
"'.	c #FBB54D",
").	c #BA8F47",
"!.	c #794E62",
"~.	c #A54C61",
"{.	c #E1D6F3",
"].	c #820000",
"^.	c #B70909",
"/.	c #F4E1F5",
"(.	c #F1E0F5",
"_.	c #F4DFC0",
":.	c #D0902F",
"<.	c #B68940",
"[.	c #B29BC1",
"}.	c #D1C3E5",
"|.	c #E0D9F5",
"1.	c #DFD4F3",
"2.	c #890000",
"3.	c #B60808",
"4.	c #F7E9F7",
"5.	c #C13B4F",
"6.	c #B4B09D",
"7.	c #94938F",
"8.	c #EFE9DF",
"9.	c #B09A6A",
"0.	c #6C374A",
"a.	c #82475F",
"b.	c #97394C",
"c.	c #DDD4F3",
"d.	c #860000",
"e.	c #B40808",
"f.	c #F5E7F7",
"g.	c #EFDFF5",
"h.	c #443C2E",
"i.	c #716F60",
"j.	c #C9B7CC",
"k.	c #D7CADC",
"l.	c #CDBDD7",
"m.	c #E0D7EE",
"n.	c #DDD6F5",
"o.	c #DBD6F5",
"p.	c #DBD3F3",
"q.	c #8C0000",
"r.	c #F1E1F5",
"s.	c #C62D3E",
"t.	c #B8384E",
"u.	c #A64661",
"v.	c #905879",
"w.	c #E9E1F7",
"x.	c #8A4F6D",
"y.	c #864B68",
"z.	c #79445E",
"A.	c #754058",
"B.	c #D9D1F3",
"C.	c #B30909",
"D.	c #F6EDF9",
"E.	c #F3EBF9",
"F.	c #F1EAF9",
"G.	c #F1E9F9",
"H.	c #EFE9F9",
"I.	c #EDE8F9",
"J.	c #E7E1F7",
"K.	c #E5E1F7",
"L.	c #DDD8F5",
"M.	c #D1CEF3",
"N.	c #D2CAF3",
"O.	c #900000",
"P.	c #AD0D0D",
"Q.	c #AB0000",
"R.	c #A40000",
"S.	c #A20000",
"T.	c #A70000",
"U.	c #A00000",
"V.	c #9B0000",
"W.	c #9D0000",
"X.	c #9E0000",
"  . + @ # $ % & * = - ;     > , ",
"  ' ) ) ) ) ) ) ) ! ~ { ] ^ / ( ",
"  _ ) ) ) ) ) : < ! [ } | 1 2 3 ",
"  4 ) 5 6 7 8 9 0 ! a b c d e f ",
"  g ) ) ) h 9 i j ! k l m n o   ",
"  p ) q r s t j u v w x y z     ",
"  A ) h 9 B C D E F G H I J     ",
"  K L M N O P Q R G S T U V     ",
"  W X Y Z `  ...+.@.#.$.%.&.    ",
"  *.=.-.;.>.,.'.@.).!.~.{.].    ",
"  ^.Y /.(.) _.:.<.[.}.|.1.2.    ",
"  3.4.5.6.7.8.9.0.a.b.b.c.d.    ",
"  e.f.g.h.i.j.k.l.m.n.o.p.q.    ",
"  3.r.s.t.u.v.w.x.y.z.A.B.q.    ",
"  C.D.E.F.G.H.I.J.K.L.M.N.O.    ",
"  P.Q.Q.R.S.T.R.S.U.V.V.W.X.    "};
