/* XPM */
static char * image_preview_16_xpm[] = {
"16 16 176 2",
"  	c None",
". 	c #888888",
"+ 	c #A08F70",
"@ 	c #887B65",
"# 	c #948275",
"$ 	c #978367",
"% 	c #918371",
"& 	c #8F7C71",
"* 	c #8D7162",
"= 	c #92734E",
"- 	c #836F51",
"; 	c #A89A85",
"> 	c #A6A6A6",
", 	c #FFFFFC",
"' 	c #FFFAF6",
") 	c #FFF9F5",
"! 	c #FFFBF2",
"~ 	c #FFFAF1",
"{ 	c #FFF5EC",
"] 	c #FFF7E8",
"^ 	c #FCF2E8",
"/ 	c #FEF6E8",
"( 	c #B5A081",
"_ 	c #B0A79B",
": 	c #968A79",
"< 	c #FFFEFD",
"[ 	c #FFFBF6",
"} 	c #FFFEEC",
"| 	c #FFF9EE",
"1 	c #FFF7E6",
"2 	c #FFF7E3",
"3 	c #B19976",
"4 	c #F4F1EC",
"5 	c #CAC4BA",
"6 	c #B2A189",
"7 	c #827B71",
"8 	c #BEAC71",
"9 	c #FFF8F0",
"0 	c #737373",
"a 	c #FFF6E4",
"b 	c #FFF8DD",
"c 	c #B39B77",
"d 	c #F4F1EB",
"e 	c #ECE9E2",
"f 	c #D3CFCA",
"g 	c #999996",
"h 	c #8F795A",
"i 	c #BAA76E",
"j 	c #FFFDF5",
"k 	c #FFFAEC",
"l 	c #FFFAE7",
"m 	c #FFF5E5",
"n 	c #FFF4E0",
"o 	c #FFF3DC",
"p 	c #FFF9DB",
"q 	c #B7A17C",
"r 	c #F8F5EF",
"s 	c #F6F4ED",
"t 	c #DAD7D0",
"u 	c #A39E96",
"v 	c #5F4F37",
"w 	c #BFA151",
"x 	c #FFF7E1",
"y 	c #FFF4DE",
"z 	c #B59D77",
"A 	c #F6F2EB",
"B 	c #F9F6F0",
"C 	c #F1EAD9",
"D 	c #C4BDB3",
"E 	c #7E7A74",
"F 	c #594F40",
"G 	c #B49E66",
"H 	c #FFF9E2",
"I 	c #FFF5E0",
"J 	c #FFF4D8",
"K 	c #B69E78",
"L 	c #F3EDE4",
"M 	c #F4EEE4",
"N 	c #F6EEDF",
"O 	c #DDD4C3",
"P 	c #ADA594",
"Q 	c #5C4E39",
"R 	c #B09963",
"S 	c #FFF8E7",
"T 	c #C5C5C5",
"U 	c #E1E1E1",
"V 	c #AD9672",
"W 	c #F4EFE6",
"X 	c #F4EFE4",
"Y 	c #F4E9D0",
"Z 	c #EBE1CA",
"` 	c #D5CDC1",
" .	c #88847C",
"..	c #A49D91",
"+.	c #5F5647",
"@.	c #AC9561",
"#.	c #FFF5DB",
"$.	c #FFF7D9",
"%.	c #9E8867",
"&.	c #EDE9E1",
"*.	c #F3EDE1",
"=.	c #F5EAD0",
"-.	c #FAF0D5",
";.	c #D5CAB4",
">.	c #B1A999",
",.	c #CFC39F",
"'.	c #AA915E",
").	c #8B6A3B",
"!.	c #ECE6DD",
"~.	c #E4DCCE",
"{.	c #FFF6DF",
"].	c #FDEFCC",
"^.	c #F2E5C4",
"/.	c #D1C9B5",
"(.	c #88806F",
"_.	c #A19C90",
":.	c #E7D8AB",
"<.	c #6F624D",
"[.	c #A78F5C",
"}.	c #FFF5D5",
"|.	c #FFEAB1",
"1.	c #F8DD97",
"2.	c #E1D4B1",
"3.	c #CCC3AE",
"4.	c #CEC19A",
"5.	c #EAD9AA",
"6.	c #A58C5B",
"7.	c #6E6E6E",
"8.	c #969283",
"9.	c #7C7C7C",
"0.	c #FFE59D",
"a.	c #DDCFAC",
"b.	c #8F897F",
"c.	c #AAA08A",
"d.	c #E2D4AA",
"e.	c #F1E2B6",
"f.	c #6D5D44",
"g.	c #A2895A",
"h.	c #AD9977",
"i.	c #B9AF99",
"j.	c #C4B9A1",
"k.	c #D0C8AF",
"l.	c #B7AC91",
"m.	c #A3977A",
"n.	c #D0C2AE",
"o.	c #C8B995",
"p.	c #ECDFBB",
"q.	c #FFECA6",
"r.	c #6D5B42",
"s.	c #9E8557",
"t.	c #D0C2A1",
"u.	c #EAE1CA",
"v.	c #F3E8C7",
"w.	c #F4E7C3",
"x.	c #EBDCB0",
"y.	c #CEBF94",
"z.	c #B1A179",
"A.	c #69502D",
"B.	c #A3966F",
"C.	c #DACDAE",
"D.	c #EED99A",
"E.	c #FFE8A1",
"F.	c #65563F",
"G.	c #857254",
"H.	c #6D6354",
"I.	c #6A6359",
"J.	c #68635C",
"K.	c #60594E",
"L.	c #5C5852",
"M.	c #5A5144",
"N.	c #5E503B",
"O.	c #66562C",
"P.	c #625627",
"Q.	c #635325",
"R.	c #605423",
"S.	c #8C8C8C",
"  . + @ @ # $ % & * = - ;       ",
"  > , , ' ) ! ~ { ] ^ / ( _ :   ",
"  > < < [ } | ] 1 2 1 3 4 5 6 7 ",
"  8 9 0 0 0 0 0 a b c d e f g h ",
"  i j k l m n o p q r s t u v   ",
"  w ~ 0 0 x y o z A B C D E F   ",
"  G ] H 2 I J K L M N O P v Q   ",
"  R S 0 T U V W X Y Z `  ...+.  ",
"  @.#.y $.%.&.*.=.-.;.>.v ,.+.  ",
"  '.y U ).!.~.{.].^./.(._.:.<.  ",
"  [.}.).).).).|.1.2.3.v 4.5.<.  ",
"  6.).7.8.9.9.).0.a.b.c.d.e.f.  ",
"  g.h.i.j.k.l.m.).n.v o.p.q.r.  ",
"  s.t.u.v.w.x.y.z.A.B.C.D.E.F.  ",
"  G.G.H.I.J.K.L.M.N.O.P.Q.Q.R.  ",
"    S.S.S.S.S.S.S.S.S.S.S.S.S.  "};
