/* XPM */
static char * image_new_classifier_18_xpm[] = {
"18 18 45 1",
" 	c #0000E6",
".	c #0000D0",
"+	c None",
"@	c #42D9FF",
"#	c #33D1FF",
"$	c #18C1FF",
"%	c #00A7FF",
"&	c #009CFF",
"*	c #0000BC",
"=	c #204880",
"-	c #3BD0FF",
";	c #2BCCFF",
">	c #22BFFF",
",	c #0000AA",
"'	c #A8C0E0",
")	c #A6A6A6",
"!	c #0DA6FF",
"~	c #0DBAFF",
"{	c #A0B0C8",
"]	c #000099",
"^	c #0092FF",
"/	c #00B3FF",
"(	c #184880",
"_	c #00008A",
":	c #0089FF",
"<	c #00007D",
"[	c #D4D4D4",
"}	c #E8E8E8",
"|	c #FFFFFF",
"1	c #BCBCBC",
"2	c #999999",
"3	c #AAAAAA",
"4	c #008000",
"5	c #00BF00",
"6	c #66D929",
"7	c #007400",
"8	c #55D522",
"9	c #006900",
"0	c #19C50A",
"a	c #43D01B",
"b	c #005F00",
"c	c #2FCB13",
"d	c #005600",
"e	c #004E00",
"f	c #004600",
"      ..++++++++++",
".@#$%&&*++++===+++",
"*-;> .*,++++='=+++",
",>>$% )+++==='===+",
",! %~%.)++='''{{=+",
"]^. %/%.++==={((=+",
"_:,).% )++++({(+++",
"<]]+).)[}[++(((+++",
"+++++++}|}1+++++++",
"+++++++[}23+++++++",
"++++++++321)4)+444",
"++++++++++)454)467",
"++++++++++45654789",
"++++++++++)45809ab",
"+++++++++++)40accd",
"++++++++++4479c00e",
"++++++++++468ac05f",
"++++++++++79bdeeff"};
