/* XPM */
static char * image_compare_lectures_18_xpm[] = {
"18 18 150 2",
"  	c None",
". 	c #ABB9D4",
"+ 	c #B9C5DD",
"@ 	c #B2BBD4",
"# 	c #A8B0CC",
"$ 	c #9FA5C3",
"% 	c #9499BC",
"& 	c #8B8EB4",
"* 	c #8283AC",
"= 	c #7D7DA8",
"- 	c #9AA1BD",
"; 	c #B9B6B8",
"> 	c #B1BBD5",
", 	c #FFFFFF",
"' 	c #7197D2",
") 	c #B2C7E2",
"! 	c #7C92BC",
"~ 	c #B7B4B5",
"{ 	c #ABB4CE",
"] 	c #F9FDFF",
"^ 	c #F6FBFF",
"/ 	c #DEE7F3",
"( 	c #6FBDF7",
"_ 	c #5478B1",
": 	c #B4B1B4",
"< 	c #A6AEC9",
"[ 	c #F5FAFF",
"} 	c #E7EBF5",
"| 	c #D1E0F1",
"1 	c #9CB6E0",
"2 	c #7172A3",
"3 	c #A1A7C4",
"4 	c #F9FCFF",
"5 	c #F0F8FF",
"6 	c #EAF5FF",
"7 	c #9CA1BF",
"8 	c #8788AE",
"9 	c #A4A5C4",
"0 	c #CA96C5",
"a 	c #BD7CB7",
"b 	c #AD5CA5",
"c 	c #99338F",
"d 	c #800073",
"e 	c #979AB9",
"f 	c #7CBD7C",
"g 	c #5CAD5C",
"h 	c #339933",
"i 	c #008000",
"j 	c #DFEFFF",
"k 	c #DCEEFF",
"l 	c #DEEEFF",
"m 	c #FFA1FF",
"n 	c #FF89FF",
"o 	c #FF5CFF",
"p 	c #5A0051",
"q 	c #9194B5",
"r 	c #FDFFFF",
"s 	c #B9BAD0",
"t 	c #E1FFB3",
"u 	c #BDFF59",
"v 	c #007300",
"w 	c #FF7CFF",
"x 	c #FF33FF",
"y 	c #8C8EB2",
"z 	c #F9FDFE",
"A 	c #EFF8FF",
"B 	c #EEF7FF",
"C 	c #9AFF01",
"D 	c #006500",
"E 	c #D5EAFF",
"F 	c #CEE7FF",
"G 	c #FF00FF",
"H 	c #F4FBFE",
"I 	c #B2B3CB",
"J 	c #006D00",
"K 	c #005A00",
"L 	c #999AB7",
"M 	c #8485AB",
"N 	c #EEF8FE",
"O 	c #E5F3FF",
"P 	c #E5F2FF",
"Q 	c #ADC6E0",
"R 	c #B2C9E3",
"S 	c #AEC6E1",
"T 	c #95B4D7",
"U 	c #91B0D5",
"V 	c #8DADD3",
"W 	c #86A7CF",
"X 	c #7C9FCB",
"Y 	c #678FC1",
"Z 	c #6084B2",
"` 	c #8181A9",
" .	c #EAF6FE",
"..	c #7C7DA8",
"+.	c #ABACC7",
"@.	c #436CA4",
"#.	c #44679B",
"$.	c #3D6197",
"%.	c #375D94",
"&.	c #355D96",
"*.	c #2B548F",
"=.	c #204A87",
"-.	c #26508C",
";.	c #E4F3FE",
">.	c #DBEEFF",
",.	c #D4EAFF",
"'.	c #CEE6FF",
").	c #CAE5FF",
"!.	c #C4E2FF",
"~.	c #C2E0FF",
"{.	c #CFE6FF",
"].	c #ADD0F2",
"^.	c #A8CDF1",
"/.	c #A6C7EC",
"(.	c #6B6C9B",
"_.	c #7677A4",
":.	c #E0F1FE",
"<.	c #C0E0FF",
"[.	c #D2D2E1",
"}.	c #4C6E9F",
"|.	c #9DB7D7",
"1.	c #65668C",
"2.	c #A2C4EC",
"3.	c #7374A3",
"4.	c #E0F5FF",
"5.	c #D5EFFF",
"6.	c #D1EDFF",
"7.	c #CCEBFF",
"8.	c #C8E9FF",
"9.	c #D7EEFF",
"0.	c #85A5CD",
"a.	c #9CBFE3",
"b.	c #656691",
"c.	c #A7A8C5",
"d.	c #325B95",
"e.	c #2B5590",
"f.	c #224C89",
"g.	c #5B5C83",
"h.	c #C1E5FF",
"i.	c #B2D7F2",
"j.	c #B0D4F1",
"k.	c #ACD1F0",
"l.	c #9FC5E3",
"m.	c #94B7D7",
"n.	c #94B5D7",
"o.	c #575887",
"p.	c #6667A0",
"q.	c #616298",
"r.	c #5B5C8E",
"s.	c #575886",
"  . + @ @ # $ % & * * = - ;         ",
"  > , , , , , , , , , ' ) ! ~       ",
"  { , , , , , , ] ^ ^ ' / ( _ :     ",
"  < , < < < < < [ < < ' } | 1 2     ",
"  3 , , , , 4 [ 5 6 6 ' ' ' ' 2     ",
"  7 , 7 7 7 7 7 6 7 7 8 9 0 a b c d ",
"  e , 4 4 [ f g h i j k l a m n o p ",
"  q r q q s g t u v q q s b w o x p ",
"  y z A A B h u C D E F E c x G G p ",
"  8 H 8 8 I i J D K 8 8 L d p p p p ",
"  M N O O P Q R R R S T U V W X Y Z ",
"  `  .....+.@.#.$.%.&.*.=.=.=.=.=.-.",
"  ..;.>.>.,.'.).!.~.{.=.].^./.(.    ",
"  _.:._._._._._.<.[.}.|.=.1.2.(.    ",
"  3.4.5.5.6.7.8.9.}.|.0.Y =.a.b.    ",
"  _.:._._._._.c.}.d.e.-.f.f.=.g.    ",
"  3.4.5.5.6.7.8.h.i.j.k.l.m.n.o.    ",
"  2 2 2 2 2 2 p.p.q.q.q.r.s.s.o.    "};
