/* XPM */
static char * image_new_feature_18_xpm[] = {
"18 18 125 2",
"  	c None",
". 	c #204880",
"+ 	c #E4B813",
"@ 	c #E0AD0D",
"# 	c #DDA509",
"$ 	c #A8C0E0",
"% 	c #DB9C06",
"& 	c #FFF02F",
"* 	c #FFF433",
"= 	c #FFF130",
"- 	c #FFE928",
"; 	c #FFE01F",
"> 	c #FFDC1B",
", 	c #FFDA19",
"' 	c #FFD817",
") 	c #FFD410",
"! 	c #FFFF94",
"~ 	c #FFFF89",
"{ 	c #FFFF81",
"] 	c #FFFD6E",
"^ 	c #FFF25A",
"/ 	c #FFF056",
"( 	c #FFE546",
"_ 	c #FFE141",
": 	c #A0B0C8",
"< 	c #CCA609",
"[ 	c #F2F2F2",
"} 	c #808080",
"| 	c #FFFF87",
"1 	c #FFFF82",
"2 	c #FFFF79",
"3 	c #FFF86C",
"4 	c #FFF160",
"5 	c #6B4A29",
"6 	c #FFE648",
"7 	c #FFE23F",
"8 	c #184880",
"9 	c #CCA70B",
"0 	c #E6E6E6",
"a 	c #FFFB7B",
"b 	c #FFF871",
"c 	c #FFF065",
"d 	c #FFE548",
"e 	c #FFE63F",
"f 	c #FFE13B",
"g 	c #CCB229",
"h 	c #563B21",
"i 	c #D9D9D9",
"j 	c #737373",
"k 	c #FFF26E",
"l 	c #FEEF66",
"m 	c #FFEE60",
"n 	c #FFEF55",
"o 	c #FFE64A",
"p 	c #FFE73D",
"q 	c #FFE035",
"r 	c #FFDF2E",
"s 	c #CCAC19",
"t 	c #FFD10E",
"u 	c #CCCCCC",
"v 	c #595959",
"w 	c #FFF26F",
"x 	c #FFF067",
"y 	c #FFF05E",
"z 	c #FFEB57",
"A 	c #FFE344",
"B 	c #FFE13E",
"C 	c #FFE037",
"D 	c #FFDC2F",
"E 	c #FFDD26",
"F 	c #CCAC12",
"G 	c #BFBFBF",
"H 	c #404040",
"I 	c #FFF266",
"J 	c #FFEB63",
"K 	c #FFE443",
"L 	c #FFDF37",
"M 	c #FFDC24",
"N 	c #B3B3B3",
"O 	c #FEF073",
"P 	c #FFF164",
"Q 	c #FFEC5E",
"R 	c #FFE85B",
"S 	c #FFE84D",
"T 	c #FFE640",
"U 	c #FEE43A",
"V 	c #FFDD2F",
"W 	c #FFD51C",
"X 	c #FED21B",
"Y 	c #A6A6A6",
"Z 	c #FFF271",
"` 	c #FFED60",
" .	c #FFEE58",
"..	c #000000",
"+.	c #FEEA45",
"@.	c #FFE33D",
"#.	c #FFE03A",
"$.	c #FFDD29",
"%.	c #FFD61B",
"&.	c #FFD211",
"*.	c #999999",
"=.	c #8C8C8C",
"-.	c #FFF36B",
";.	c #FEED6B",
">.	c #FFEF63",
",.	c #FFEB55",
"'.	c #FFE240",
").	c #FFDA2C",
"!.	c #FEDF25",
"~.	c #FFD515",
"{.	c #FFF477",
"].	c #FFF56E",
"^.	c #FFEE5F",
"/.	c #FFE744",
"(.	c #FEE03C",
"_.	c #FFD00E",
":.	c #FDF482",
"<.	c #FEF778",
"[.	c #FEF26C",
"}.	c #FDF161",
"|.	c #FFEE54",
"1.	c #FEEA4A",
"2.	c #FEE12D",
"3.	c #FDD11A",
"4.	c #FFD10B",
"                                    ",
"                        . . .       ",
"+ + + + + + + @ @ @ # # . $ . % % % ",
"+ & * = & - ; > , ' . . . $ . . . ) ",
"+ ! ! ~ { ] ^ / ( _ . $ $ $ : : . < ",
"[ } | 1 2 3 4 5 6 7 . . . : 8 8 . 9 ",
"0 0 } a b c 5 5 d e f g 8 : 8 h 9 9 ",
"i i j k l m n 5 o p q r 8 8 8 s t t ",
"u u v w x y z 5 A B C D E h F s t t ",
"G G H w I J 5 5 5 K L D M 5 5 5 t t ",
"N N H O P Q R S d T U V E W X t t t ",
"Y N H Z x `  ...+.@.#.V $...%.&.&.&.",
"*.=.H -.;.>.,...+.'.U ).!...~.t t t ",
"=.H {.]...^.,.../.(...D $...~._..._.",
"..:.<.[...}.|...1.p ..2.M ..3.4...4.",
"....................................",
"  N N N N N N N N N N N N N N N N N ",
"    N N N N N N N N N N N N N N N N "};
