/* XPM */
static char * image_new_from_fcl_16_xpm[] = {
"16 16 115 2",
"  	c None",
". 	c #204880",
"+ 	c #787860",
"@ 	c #707860",
"# 	c #A8C0E0",
"$ 	c #E0E0D8",
"% 	c #F0F0E0",
"& 	c #E8F0E0",
"* 	c #E8E8E0",
"= 	c #D0D0B0",
"- 	c #E8E8D8",
"; 	c #A0B0C8",
"> 	c #184880",
", 	c #C8D0A8",
"' 	c #D8D8B8",
") 	c #E0E8D0",
"! 	c #575856",
"~ 	c #A5A8A1",
"{ 	c #B1B4AD",
"] 	c #B0B3AC",
"^ 	c #AFB2AC",
"/ 	c #AFB2AB",
"( 	c #AAADA6",
"_ 	c #898B87",
": 	c #535352",
"< 	c #788060",
"[ 	c #A2A59E",
"} 	c #EDEEEC",
"| 	c #FEFEFE",
"1 	c #FAFAF9",
"2 	c #E6E7E5",
"3 	c #AEB1AB",
"4 	c #6A6C69",
"5 	c #A9ACA5",
"6 	c #9999BE",
"7 	c #9494BA",
"8 	c #7D7D91",
"9 	c #FDFDFD",
"0 	c #B8BAB5",
"a 	c #666864",
"b 	c #E0E0D0",
"c 	c #A4A7A1",
"d 	c #F1F2F0",
"e 	c #EEEFEC",
"f 	c #ECEDEA",
"g 	c #E9EBE6",
"h 	c #E6E9E4",
"i 	c #BCBCBC",
"j 	c #FFFFFF",
"k 	c #FDFDFC",
"l 	c #A5A7A2",
"m 	c #4B4C4B",
"n 	c #D8D8C8",
"o 	c #9FA29C",
"p 	c #9797BD",
"q 	c #777795",
"r 	c #A9ACA7",
"s 	c #B1B1B0",
"t 	c #D6D7D5",
"u 	c #7C7D79",
"v 	c #D0D8B8",
"w 	c #D8E0C8",
"x 	c #D0D0C0",
"y 	c #808060",
"z 	c #9B9D97",
"A 	c #FEFEFD",
"B 	c #F9F9F9",
"C 	c #FAFBF9",
"D 	c #F8F9F8",
"E 	c #F7F7F6",
"F 	c #D3D3D3",
"G 	c #CECFCE",
"H 	c #CCD0CA",
"I 	c #D9DAD8",
"J 	c #91938D",
"K 	c #D8E0C0",
"L 	c #C0C8B0",
"M 	c #969892",
"N 	c #FDFEFD",
"O 	c #9696BC",
"P 	c #F6F6F4",
"Q 	c #F9F9F7",
"R 	c #F9F9F8",
"S 	c #8E908B",
"T 	c #B8B898",
"U 	c #91938E",
"V 	c #F5F5F5",
"W 	c #F4F4F4",
"X 	c #898B86",
"Y 	c #A8A890",
"Z 	c #797B76",
"` 	c #ABACD0",
" .	c #ACACD1",
"..	c #ACADD2",
"+.	c #F4F5F3",
"@.	c #F3F4F2",
"#.	c #72746F",
"$.	c #E0E0E0",
"%.	c #A0A088",
"&.	c #6E706B",
"*.	c #EDEDEC",
"=.	c #F1F1F0",
"-.	c #686A67",
";.	c #444443",
">.	c #696C67",
",.	c #6A6C67",
"'.	c #696B67",
").	c #686A65",
"!.	c #676965",
"~.	c #666964",
"{.	c #666863",
"].	c #656763",
"^.	c #656762",
"/.	c #656764",
"(.	c #434442",
"                      . . .     ",
"  + @ @ @ + @         . # .     ",
"+ $ % & * * @     . . . # . . . ",
"@ & = = = - @ @ @ . # # # ; ; > ",
"@ * = , , ' - - ) . . . ; > > > ",
"! ~ { ] ^ / ( _ : @ @ > ; > + < ",
"[ } | | | | 1 2 3 4 % > > > & + ",
"5 | 6 7 7 7 7 8 9 0 a b b $ * < ",
"c | d e f g h i j k l m n b b < ",
"o | p 7 7 7 7 q r s t u v w x y ",
"z A B C D E B F G H I J = K L < ",
"M N O 7 7 P P P Q R | S , K T + ",
"U N V W W W R P Q R | X , w Y   ",
"Z | `  .........+.@.j #.$.$.%.  ",
"&.*.j j j j j j j j =.-.@ @ <   ",
";.>.,.'.).!.~.{.].^./.(.        "};
