/* XPM */
static char * image_has_not_xpm[] = {
"16 16 141 2",
"  	c None",
". 	c #5A5A96",
"+ 	c #585893",
"@ 	c #5F5F8A",
"# 	c #4C4F87",
"$ 	c #4B4E86",
"% 	c #8181D4",
"& 	c #8484D3",
"* 	c #BFBFE3",
"= 	c #7274DF",
"- 	c #56569C",
"; 	c #5F5F93",
"> 	c #9090E3",
", 	c #8B8BE1",
"' 	c #9090E0",
") 	c #CDCDFB",
"! 	c #8686FA",
"~ 	c #6464CA",
"{ 	c #45457D",
"] 	c #61619A",
"^ 	c #9191DA",
"/ 	c #9494E8",
"( 	c #8B8BE3",
"_ 	c #8484DB",
": 	c #CACAF5",
"< 	c #6F6FD9",
"[ 	c #5656B4",
"} 	c #3E3E71",
"| 	c #34345C",
"1 	c #9E9EE2",
"2 	c #A2A2F0",
"3 	c #9494E6",
"4 	c #8989E1",
"5 	c #7D7DD8",
"6 	c #7373D3",
"7 	c #5C5CB1",
"8 	c #434374",
"9 	c #535365",
"0 	c #5E5E70",
"a 	c #363650",
"b 	c #42426D",
"c 	c #8F8FC9",
"d 	c #A9A9F0",
"e 	c #9E9EEC",
"f 	c #6868BD",
"g 	c #414173",
"h 	c #484861",
"i 	c #DDDDE1",
"j 	c #ECECEF",
"k 	c #7C7C87",
"l 	c #343450",
"m 	c #4E4E75",
"n 	c #9090D0",
"o 	c #9C9CEB",
"p 	c #9494E7",
"q 	c #8A8AE2",
"r 	c #6A6AB6",
"s 	c #44487A",
"t 	c #5C5C6E",
"u 	c #FFFFFF",
"v 	c #FCFCFC",
"w 	c #ECECED",
"x 	c #9C9CA4",
"y 	c #424570",
"z 	c #89898E",
"A 	c #404060",
"B 	c #6969A5",
"C 	c #7878C9",
"D 	c #464678",
"E 	c #484863",
"F 	c #C5C5DA",
"G 	c #B3B3CC",
"H 	c #B1B4C6",
"I 	c #E1E1E1",
"J 	c #81818B",
"K 	c #3F4159",
"L 	c #ABABAB",
"M 	c #DADADC",
"N 	c #737382",
"O 	c #464671",
"P 	c #43436F",
"Q 	c #5C5C72",
"R 	c #E6E5F6",
"S 	c #9997D1",
"T 	c #6A6CAC",
"U 	c #6164A4",
"V 	c #9496B8",
"W 	c #D8D8D8",
"X 	c #A9A9AB",
"Y 	c #F1F1F3",
"Z 	c #A3A3AD",
"` 	c #8D8D9A",
" .	c #DFDFF2",
"..	c #8080B8",
"+.	c #4D538B",
"@.	c #4C5389",
"#.	c #9193AD",
"$.	c #D1D1D1",
"%.	c #A5A5A7",
"&.	c #A9A9A9",
"*.	c #CFCFE4",
"=.	c #7C7CB6",
"-.	c #485080",
";.	c #A3A3B4",
">.	c #C8C8C8",
",.	c #9FA0A0",
"'.	c #909090",
").	c #E7E7E7",
"!.	c #F2F2F2",
"~.	c #D1D1E1",
"{.	c #7D81B6",
"].	c #6C7495",
"^.	c #C3C3C6",
"/.	c #C1C1C1",
"(.	c #9C9C9C",
"_.	c #8B8B8B",
":.	c #CACACA",
"<.	c #F4F4F4",
"[.	c #E8E8E8",
"}.	c #DFDFDF",
"|.	c #CDCDD1",
"1.	c #B8BCC5",
"2.	c #C1C1C5",
"3.	c #B9B9B9",
"4.	c #848484",
"5.	c #EDEDED",
"6.	c #E4E4E4",
"7.	c #D4D4D4",
"8.	c #BFBFBF",
"9.	c #9C9CA2",
"0.	c #7D8189",
"a.	c #777B7B",
"b.	c #737376",
"c.	c #7F7F7F",
"d.	c #B1B1B1",
"e.	c #BDBDBF",
"f.	c #808080",
"g.	c #686868",
"h.	c #767A7A",
"i.	c #8A8A8A",
"j.	c #7B7B7E",
"          . + @ # $             ",
"        . % & * = -             ",
"      ; > , ' ) ! ~ {           ",
"    ] ^ / ( _ : < [ } |         ",
"  ; 1 2 3 4 5 6 7 8 9 0 a b     ",
"  c d e 3 4 5 f g h i j k l     ",
"  m n o p q r s t i u v w x l y ",
"  z A B p C D E i u F G H I J K ",
"  L M N O P Q i R S T U V W X   ",
"  L u Y Z ` i u  ...+.@.#.$.%.  ",
"  &.u u u u u v *.=.-.-.;.>.,.  ",
"  '.).u u u v !.~.{.-.].^./.(.  ",
"    _.:.v u <.[.}.|.1.2.3.%.4.  ",
"      _.:.u 5.6.7.8.9.0.a.b.    ",
"        c.d.W e.(.f.g.          ",
"          h.i.j.                "};
