/* XPM */
static char * image_save_as_fcl_16_xpm[] = {
"16 16 130 2",
"  	c #7F97BB",
". 	c #27518B",
"+ 	c #A40000",
"@ 	c #264F8A",
"# 	c #849BBD",
"$ 	c #274F8A",
"% 	c #5A86BE",
"& 	c #CC0000",
"* 	c #5D89C0",
"= 	c #234C88",
"- 	c #264E8A",
"; 	c #5C87BF",
"> 	c #FFFFFF",
", 	c #5F8AC1",
"' 	c #5D88BF",
") 	c #8DB9FC",
"! 	c #89B7FA",
"~ 	c #89B6F8",
"{ 	c #C0CDED",
"] 	c #81AAF8",
"^ 	c #83AAF6",
"/ 	c #608BC2",
"( 	c #5E89C0",
"_ 	c #6FA4F1",
": 	c #6897F1",
"< 	c #F8F8FC",
"[ 	c #73A7F4",
"} 	c #618CC2",
"| 	c #4482E4",
"1 	c #4F82DD",
"2 	c #BCC9ED",
"3 	c #4F82E4",
"4 	c #4A88E9",
"5 	c #DFDFF0",
"6 	c #3358BD",
"7 	c #A3A3D2",
"8 	c #2E53BD",
"9 	c #4C61BA",
"0 	c #6262B1",
"a 	c #5B86BE",
"b 	c #9BB5D8",
"c 	c #F1F5FA",
"d 	c #F2F5FA",
"e 	c #9CB7D9",
"f 	c #5985BD",
"g 	c #648FC4",
"h 	c #6791C6",
"i 	c #6992C7",
"j 	c #6B95C9",
"k 	c #6C95C9",
"l 	c #6A94C8",
"m 	c #628CC3",
"n 	c #254E89",
"o 	c #5581BA",
"p 	c #3768A5",
"q 	c #566067",
"r 	c #CACACA",
"s 	c #CCCCCC",
"t 	c #CBCBCB",
"u 	c #D6D6D6",
"v 	c #DFDFDF",
"w 	c #F2F2F2",
"x 	c #FAFAFA",
"y 	c #B5B6B5",
"z 	c #3F6EAB",
"A 	c #4270AD",
"B 	c #5784BC",
"C 	c #224B88",
"D 	c #527FB8",
"E 	c #3465A4",
"F 	c #565854",
"G 	c #C6C6C6",
"H 	c #666969",
"I 	c #585B59",
"J 	c #E9E9E9",
"K 	c #FEFEFE",
"L 	c #EDEDED",
"M 	c #4270AE",
"N 	c #507DB7",
"O 	c #575955",
"P 	c #555753",
"Q 	c #5781B5",
"R 	c #ECECEA",
"S 	c #F6F6F6",
"T 	c #EAEAEA",
"U 	c #D9D9D9",
"V 	c #D0D0D0",
"W 	c #4472AE",
"X 	c #4472AF",
"Y 	c #244E89",
"Z 	c #4B79B4",
"` 	c #3768A7",
" .	c #585A56",
"..	c #DCDCDC",
"+.	c #5884BC",
"@.	c #EEEEEC",
"#.	c #E2E2E2",
"$.	c #C0C0C0",
"%.	c #AFAFAF",
"&.	c #BABABA",
"*.	c #4675B0",
"=.	c #4C7AB4",
"-.	c #3B6096",
";.	c #5882B8",
">.	c #396AA7",
",.	c #646665",
"'.	c #CDCDCD",
").	c #ABABAB",
"!.	c #A5A5A5",
"~.	c #BEBEBE",
"{.	c #4675B1",
"].	c #4674B0",
"^.	c #4977B2",
"/.	c #BEC2C8",
"(.	c #3E68A0",
"_.	c #406FAA",
":.	c #F9F9F9",
"<.	c #FCFCFC",
"[.	c #EFEFEE",
"}.	c #CFCFCF",
"|.	c #C2C2C2",
"1.	c #C1C1C1",
"2.	c #5680B7",
"3.	c #5681B7",
"4.	c #5A84B8",
"5.	c #234D88",
"6.	c #D5D5D5",
"7.	c #A3A5A6",
"8.	c #9DA0A4",
"9.	c #9EA1A5",
"  . + + + + + + + + + + + + @ # ",
"$ % & & & & & & & & & & & & * = ",
"- ; > > > > > > > > > > > > , = ",
"- ' > ) ! ~ > { ] ^ > ! > > / = ",
"- ( > _ > > > : > < > [ > > } = ",
"- * > | 1 2 > 3 > > > 4 > 5 } = ",
"- ' > 6 > > > 7 8 9 > 8 8 0 / = ",
"- a b c > > > > > > > > d e ( = ",
"- f ; , g h i j k l i h m , ; = ",
"n o p q r s t u v w x y z A B C ",
"n D E F G H I v J K L v A M o C ",
"n N E O G P Q R S T U V W X D C ",
"Y Z `  ...P +.@.#.$.%.&.*.*.=.C ",
"-.;.>. .J ,.P @.'.).!.~.{.].^.C ",
"/.(._.O :.<.w [.}.|.1.1.2.3.4.5.",
"6.7.8.8.8.8.8.8.8.8.8.8.8.8.9.r "};
