/* XPM */
static char * image_verify_18_xpm[] = {
"18 18 174 2",
"  	c None",
". 	c #ABB9D4",
"+ 	c #B9C5DD",
"@ 	c #B2BBD4",
"# 	c #A8B0CC",
"$ 	c #9FA5C3",
"% 	c #9499BC",
"& 	c #8B8EB4",
"* 	c #8283AC",
"= 	c #C0A945",
"- 	c #AA9A40",
"; 	c #B9B6B8",
"> 	c #B1BBD5",
", 	c #FFFFFF",
"' 	c #E8DCA5",
") 	c #EBDE9D",
"! 	c #ECE1A6",
"~ 	c #E7D78B",
"{ 	c #B7B4B5",
"] 	c #ABB4CE",
"^ 	c #F9FDFF",
"/ 	c #F6FBFF",
"( 	c #DFCF84",
"_ 	c #F5EFD0",
": 	c #DCC65E",
"< 	c #5478B1",
"[ 	c #B4B1B4",
"} 	c #A6AEC9",
"| 	c #F5FAFF",
"1 	c #D4BE59",
"2 	c #F9F0B4",
"3 	c #F8EFB2",
"4 	c #C6A619",
"5 	c #9CB6E0",
"6 	c #7172A3",
"7 	c #A1A7C4",
"8 	c #C9AD37",
"9 	c #DECA6F",
"0 	c #DEC96B",
"a 	c #DDC969",
"b 	c #EBDD9C",
"c 	c #FBEF93",
"d 	c #FAEE8C",
"e 	c #EBDC97",
"f 	c #DDC867",
"g 	c #DEC96A",
"h 	c #DEC96E",
"i 	c #9CA1BF",
"j 	c #C9AD32",
"k 	c #ECDEA0",
"l 	c #FDFAE0",
"m 	c #FAEE8B",
"n 	c #FBEF8B",
"o 	c #FBEB6C",
"p 	c #F9E960",
"q 	c #F8EA71",
"r 	c #F8EA76",
"s 	c #FCF9DB",
"t 	c #ECDD9E",
"u 	c #979AB9",
"v 	c #F9FCFF",
"w 	c #C0C6CC",
"x 	c #CFBD66",
"y 	c #E2D174",
"z 	c #FAF4CB",
"A 	c #FAEB73",
"B 	c #F9E85B",
"C 	c #F8E652",
"D 	c #F8E761",
"E 	c #F9F3C6",
"F 	c #E2D070",
"G 	c #D2BD65",
"H 	c #9194B5",
"I 	c #FDFFFF",
"J 	c #747791",
"K 	c #CDBE72",
"L 	c #E4D070",
"M 	c #FAEF94",
"N 	c #F7E54B",
"O 	c #F7E445",
"P 	c #F9ED8C",
"Q 	c #E3D06C",
"R 	c #D2C072",
"S 	c #8C8EB2",
"T 	c #F9FDFE",
"U 	c #EFF8FF",
"V 	c #EAF5FF",
"W 	c #E5F3FF",
"X 	c #B3BFCC",
"Y 	c #BCB37C",
"Z 	c #F0E499",
"` 	c #F9EB7D",
" .	c #FBF2AB",
"..	c #FBF2A8",
"+.	c #F8E975",
"@.	c #F0E394",
"#.	c #DACB89",
"$.	c #8788AE",
"%.	c #F4FBFE",
"&.	c #6C6D8B",
"*.	c #CEBD65",
"=.	c #FDFBE6",
"-.	c #F6EDB2",
";.	c #E2CE6A",
">.	c #E1CE6A",
",.	c #F6EDAE",
"'.	c #FDFAE5",
").	c #D5C164",
"!.	c #8485AB",
"~.	c #EEF8FE",
"{.	c #DFEFFF",
"].	c #DBEEFF",
"^.	c #ABBBCC",
"/.	c #D8C357",
"(.	c #F9F4DB",
"_.	c #D5BF52",
":.	c #9EB5CC",
"<.	c #9BB3CC",
"[.	c #D5BF51",
"}.	c #F8F4DB",
"|.	c #D7C152",
"1.	c #8181A9",
"2.	c #EAF6FE",
"3.	c #7C7DA8",
"4.	c #C9BE70",
"5.	c #636487",
"6.	c #76779F",
"7.	c #D8C570",
"8.	c #E4F3FE",
"9.	c #D4EAFF",
"0.	c #CEE6FF",
"a.	c #CAE5FF",
"b.	c #9DB5CC",
"c.	c #C3E0FF",
"d.	c #B4D5F8",
"e.	c #ADD0F2",
"f.	c #A8CDF1",
"g.	c #859FBD",
"h.	c #56567C",
"i.	c #7677A4",
"j.	c #E0F1FE",
"k.	c #C0E0FF",
"l.	c #70719C",
"m.	c #6A6B94",
"n.	c #65668C",
"o.	c #A2C4EC",
"p.	c #6B6C9B",
"q.	c #7374A3",
"r.	c #E0F5FF",
"s.	c #D5EFFF",
"t.	c #D1EDFF",
"u.	c #CCEBFF",
"v.	c #C8E9FF",
"w.	c #C1E5FF",
"x.	c #B2D7F2",
"y.	c #AED2F1",
"z.	c #AFD4F2",
"A.	c #A5CAE6",
"B.	c #9DC7E4",
"C.	c #9CBFE3",
"D.	c #656691",
"E.	c #5F6084",
"F.	c #98B9DE",
"G.	c #5B5C83",
"H.	c #B0D4F1",
"I.	c #ACD1F0",
"J.	c #9FC5E3",
"K.	c #94B7D7",
"L.	c #94B5D7",
"M.	c #575887",
"N.	c #6667A0",
"O.	c #616298",
"P.	c #5B5C8E",
"Q.	c #575886",
"  . + @ @ # $ % & * * = - ;         ",
"  > , , , , , , , , ' ) ! ~ {       ",
"  ] , , , , , , ^ / ( _ _ : < [     ",
"  } , } } } } } | } 1 2 3 4 5 6     ",
"  7 , , , , 8 9 0 a b c d e f g h 8 ",
"  i , i i i j k l m n o p q r s t j ",
"  u , v v | w x y z A B C D E F G   ",
"  H I H H H H J K L M N O P Q R     ",
"  S T U U V W X Y Z `  ...+.@.#.    ",
"  $.%.$.$.$.$.&.*.=.-.;.>.,.'.).    ",
"  !.~.W W {.].^./.(._.:.<.[.}.|.    ",
"  1.2.3.3.3.3.3.4.4 5.6.6.6.4 7.    ",
"  3.8.].].9.0.a.b.<.c.d.e.f.g.h.    ",
"  i.j.i.i.i.i.i.k.i.i.l.m.n.o.p.    ",
"  q.r.s.s.t.u.v.w.x.y.z.A.B.C.D.    ",
"  i.j.i.i.i.i.i.k.l.l.m.E.E.F.G.    ",
"  q.r.s.s.t.u.v.w.x.H.I.J.K.L.M.    ",
"  6 6 6 6 6 6 N.N.O.O.O.P.Q.Q.M.    "};
