/* XPM */
static char * image_new_folder_18_xpm[] = {
"18 18 36 1",
" 	c None",
".	c #204880",
"+	c #787860",
"@	c #707860",
"#	c #A8C0E0",
"$	c #E0E0D8",
"%	c #F0F0E0",
"&	c #E8F0E0",
"*	c #E8E8E0",
"=	c #D0D0B0",
"-	c #E8E8D8",
";	c #A0B0C8",
">	c #184880",
",	c #C8D0A8",
"'	c #D8D8B8",
")	c #E0E8D0",
"!	c #B8B898",
"~	c #788060",
"{	c #909878",
"]	c #D8D8C8",
"^	c #889070",
"/	c #E0E0D0",
"(	c #B3B3B3",
"_	c #808868",
":	c #D8D8C0",
"<	c #D0D8B8",
"[	c #D8E0C8",
"}	c #D0D0C0",
"|	c #808060",
"1	c #C8D0B0",
"2	c #D8E0C0",
"3	c #C0C8B0",
"4	c #E0E0C8",
"5	c #A8A890",
"6	c #E0E0E0",
"7	c #A0A088",
"                  ",
"            ...   ",
" +@@@@+@    .#.   ",
"+$%&***@  ...#... ",
"@&====-@@@.###;;> ",
"@*=,,,'--)...;>>> ",
"@-!~@@@@@@@@>;>+~ ",
"@-{]%%%%%%%%>>>&+ ",
"@-^///////////$*~(",
"@)_$::::::]]]]//~(",
"@)~-<<<<<<<<<<[}|(",
"@)~-<<<<<<<<<<[}|(",
"@/!),,,,11=1==23~(",
"@4<4,,,,,,,,,,2!+(",
"@4'[,,,,,,,,,,[5((",
"+666666666666667( ",
"~@+@@@@@@@@@@@@~( ",
" (((((((((((((((( "};
