/* XPM */
static char * image_integer_feature_xpm[] = {
"13 13 81 1",
" 	c None",
".	c #959693",
"+	c #80817E",
"@	c #7F7F7C",
"#	c #81837F",
"$	c #B5B6B5",
"%	c #8C8E8B",
"&	c #F6F6F5",
"*	c #FAFAF9",
"=	c #F9FAF9",
"-	c #F9F9F8",
";	c #F8F9F7",
">	c #F7F8F7",
",	c #9E9E9E",
"'	c #8F8F8F",
")	c #ADADAC",
"!	c #8D8E8B",
"~	c #F8F9F8",
"{	c #BABAB9",
"]	c #575756",
"^	c #EEEFEC",
"/	c #ECEEEA",
"(	c #EAECE8",
"_	c #9C9C9B",
":	c #DEDEDE",
"<	c #979796",
"[	c #AFB0AF",
"}	c #585857",
"|	c #575757",
"1	c #EFF1EE",
"2	c #888A87",
"3	c #7C7D7B",
"4	c #81827F",
"5	c #FAFAFA",
"6	c #F5F6F4",
"7	c #F1F2F0",
"8	c #EEF0ED",
"9	c #DFE0DD",
"0	c #D1D3CF",
"a	c #D7D8D5",
"b	c #8B8B89",
"c	c #FBFBFB",
"d	c #585858",
"e	c #F3F5F3",
"f	c #C5C6C4",
"g	c #4F4F4E",
"h	c #3F403F",
"i	c #D5D7D4",
"j	c #F3F4F2",
"k	c #939492",
"l	c #FCFCFC",
"m	c #F5F5F5",
"n	c #4F4F4F",
"o	c #EBEBEB",
"p	c #D9D9D8",
"q	c #F4F5F3",
"r	c #FDFDFD",
"s	c #525252",
"t	c #4A4A4A",
"u	c #595A59",
"v	c #F2F3F1",
"w	c #F5F6F5",
"x	c #FEFEFE",
"y	c #DEDFDD",
"z	c #616161",
"A	c #DADBD9",
"B	c #F6F7F5",
"C	c #FFFFFF",
"D	c #CBCCCB",
"E	c #949493",
"F	c #505050",
"G	c #585958",
"H	c #616261",
"I	c #8E8F8C",
"J	c #FCFCFB",
"K	c #F8F8F7",
"L	c #929390",
"M	c #959694",
"N	c #828380",
"O	c #82837F",
"P	c #939491",
" .+@@@@@#$   ",
" %&*=-;>,')  ",
" !~{]^/(_:<[ ",
" !-}|1^/2234 ",
" !56}71890ab ",
" !c>defghijk ",
" !lmnodfphqk ",
" !rstu6qvgwk ",
" !xrc=>yzABk ",
" !CCrcDEBq>k ",
" !CCxrFGHz-k ",
" I5CCxrrlJKL ",
" MN+++++++OP "};
