/* XPM */
static char * image_compare_xpm[] = {
"12 12 48 1",
" 	c None",
".	c #CA96C5",
"+	c #BD7CB7",
"@	c #AD5CA5",
"#	c #99338F",
"$	c #800073",
"%	c #7CBD7C",
"&	c #5CAD5C",
"*	c #339933",
"=	c #008000",
"-	c #FFA1FF",
";	c #FF89FF",
">	c #FF5CFF",
",	c #5A0051",
"'	c #E1FFB3",
")	c #BDFF59",
"!	c #007300",
"~	c #FF7CFF",
"{	c #FF33FF",
"]	c #9AFF01",
"^	c #006500",
"/	c #FF00FF",
"(	c #006D00",
"_	c #005A00",
":	c #ADC6E0",
"<	c #B2C9E3",
"[	c #AEC6E1",
"}	c #95B4D7",
"|	c #91B0D5",
"1	c #8DADD3",
"2	c #86A7CF",
"3	c #7C9FCB",
"4	c #678FC1",
"5	c #6084B2",
"6	c #436CA4",
"7	c #44679B",
"8	c #3D6197",
"9	c #375D94",
"0	c #355D96",
"a	c #2B548F",
"b	c #204A87",
"c	c #26508C",
"d	c #4C6E9F",
"e	c #9DB7D7",
"f	c #85A5CD",
"g	c #325B95",
"h	c #2B5590",
"i	c #224C89",
"            ",
"       .+@#$",
"%&*=   +-;>,",
"&')!   @~>{,",
"*)]^   #{//,",
"=(^_   $,,,,",
":<<<[}|12345",
"67890abbbbbc",
"     b      ",
"    deb     ",
"   def4b    ",
"  dghciib   "};
