/* XPM */
static char * image_lecture_copy_16_xpm[] = {
"16 16 103 2",
"  	c #ABB9D4",
". 	c #B9C5DD",
"+ 	c #B2BBD4",
"@ 	c #A8B0CC",
"# 	c #9FA5C3",
"$ 	c #9499BC",
"% 	c #8B8EB4",
"& 	c #8283AC",
"* 	c #7D7DA8",
"= 	c #7E7FAB",
"- 	c #7C7DA9",
"; 	c #797AA9",
"> 	c None",
", 	c #B1BBD5",
"' 	c #FFFFFF",
") 	c #8386AF",
"! 	c #9AA1BD",
"~ 	c #B9B6B8",
"{ 	c #ABB4CE",
"] 	c #A6AEC9",
"^ 	c #F9FDFF",
"/ 	c #F6FBFF",
"( 	c #7197D2",
"_ 	c #B2C7E2",
": 	c #7C92BC",
"< 	c #B7B4B5",
"[ 	c #A1A7C4",
"} 	c #F5FAFF",
"| 	c #DEE7F3",
"1 	c #6FBDF7",
"2 	c #5478B1",
"3 	c #B4B1B4",
"4 	c #9CA1BF",
"5 	c #F9FCFF",
"6 	c #F0F8FF",
"7 	c #EAF5FF",
"8 	c #E7EBF5",
"9 	c #D1E0F1",
"0 	c #9CB6E0",
"a 	c #7172A3",
"b 	c #979AB9",
"c 	c #9194B5",
"d 	c #FDFFFF",
"e 	c #F0F7FF",
"f 	c #E9F5FF",
"g 	c #E5F2FF",
"h 	c #DFEFFF",
"i 	c #DCEEFF",
"j 	c #D6EAFF",
"k 	c #CFE9FF",
"l 	c #CADFFA",
"m 	c #8C8EB2",
"n 	c #F9FDFE",
"o 	c #EFF8FF",
"p 	c #C5DCFA",
"q 	c #8788AE",
"r 	c #F4FBFE",
"s 	c #E5F3FF",
"t 	c #DBEEFF",
"u 	c #D5EAFF",
"v 	c #CEE7FF",
"w 	c #CAE5FF",
"x 	c #C6E4FF",
"y 	c #C2DBFA",
"z 	c #8485AB",
"A 	c #EEF8FE",
"B 	c #8081A5",
"C 	c #BDD9F9",
"D 	c #8181A9",
"E 	c #EAF6FE",
"F 	c #7C7DA8",
"G 	c #C5E2FF",
"H 	c #C1E0FF",
"I 	c #BAE0FF",
"J 	c #B8D6F9",
"K 	c #E4F3FE",
"L 	c #76779F",
"M 	c #B5D5F9",
"N 	c #7677A4",
"O 	c #E0F1FE",
"P 	c #D4EAFF",
"Q 	c #CEE6FF",
"R 	c #C4E2FF",
"S 	c #BADDFF",
"T 	c #B4DAFF",
"U 	c #B0DAFF",
"V 	c #AFD2F9",
"W 	c #7374A3",
"X 	c #E0F5FF",
"Y 	c #D5EFFF",
"Z 	c #C0E0FF",
"` 	c #70719C",
" .	c #6A6B94",
"..	c #ABCFF9",
"+.	c #D1EDFF",
"@.	c #CCEBFF",
"#.	c #C8E9FF",
"$.	c #C1E5FF",
"%.	c #BCE3FF",
"&.	c #B8E1FF",
"*.	c #B2DEFF",
"=.	c #ADDEFF",
"-.	c #AFD7FF",
"  . + @ # $ % & * = - ; ; > > > ",
", ' '   . + @ # $ ) & * ! ~ > > ",
"{ ' ] , ' ' ' ' ' ^ / ( _ : < > ",
"[ ' ' { ' ] ] ] ] } ] ( | 1 2 3 ",
"4 ' 4 [ ' ' ' 5 } 6 7 ( 8 9 0 a ",
"b ' 5 4 ' 4 4 4 4 7 4 ( ( ( ( a ",
"c d c b ' 5 } e f g h i j k l a ",
"m n o c d c c c c h c c c c p a ",
"q r q m n o 7 s h t u v w x y a ",
"z A s q r q q q q u q q B B C a ",
"D E F z A s h t u v w G H I J a ",
"F K t D E F F F F w F L L L M a ",
"N O N F K t P Q w R H S T U V a ",
"W X Y N O N N N N Z N ` `  ...a ",
"a a a W X Y +.@.#.$.%.&.*.=.-.a ",
"> > > a a a a a a a a a a a a a "};
