/* XPM */
static char * image_composite_lecture_xpm[] = {
"13 13 95 2",
"  	c None",
". 	c #959693",
"+ 	c #80817E",
"@ 	c #7F7F7C",
"# 	c #81837F",
"$ 	c #B5B6B5",
"% 	c #8C8E8B",
"& 	c #F6F6F5",
"* 	c #FAFAF9",
"= 	c #F9FAF9",
"- 	c #F9F9F8",
"; 	c #F8F9F7",
"> 	c #F7F8F7",
", 	c #9E9E9E",
"' 	c #8F8F8F",
") 	c #ADADAC",
"! 	c #8D8E8B",
"~ 	c #F8F9F8",
"{ 	c #9596C2",
"] 	c #9E9ECE",
"^ 	c #E5ACAA",
"/ 	c #E7ADAF",
"( 	c #E5B5B8",
"_ 	c #9C9C9B",
": 	c #DEDEDE",
"< 	c #979796",
"[ 	c #AFB0AF",
"} 	c #9E9DCB",
"| 	c #ACA8D7",
"1 	c #E7AEB1",
"2 	c #E9B7B5",
"3 	c #ECC5C4",
"4 	c #888A87",
"5 	c #FAFAFA",
"6 	c #A8A7D9",
"7 	c #AEAADA",
"8 	c #E8B9BC",
"9 	c #E9C1C7",
"0 	c #EFC5C9",
"a 	c #7AB179",
"b 	c #7DB37A",
"c 	c #D3D3D2",
"d 	c #616261",
"e 	c #FFFFFF",
"f 	c #AEACDB",
"g 	c #B8B4E8",
"h 	c #ECC2C5",
"i 	c #EBC6C4",
"j 	c #F3CCCA",
"k 	c #8AC687",
"l 	c #8AC78D",
"m 	c #F5F5F5",
"n 	c #6C6D6B",
"o 	c #B6B8E9",
"p 	c #BBB9ED",
"q 	c #EAC7C8",
"r 	c #F1C8CA",
"s 	c #EDC8CA",
"t 	c #98DD99",
"u 	c #9ADF9B",
"v 	c #787977",
"w 	c #B9BBEE",
"x 	c #BABAEA",
"y 	c #F2CBCD",
"z 	c #F1D0D0",
"A 	c #F0CFD0",
"B 	c #9AE19C",
"C 	c #9DE19C",
"D 	c #858684",
"E 	c #BFBBF1",
"F 	c #BBBFF2",
"G 	c #F0D1D2",
"H 	c #F3D7D3",
"I 	c #A0E49E",
"J 	c #A0E19F",
"K 	c #C3C1F2",
"L 	c #F2D8D8",
"M 	c #F5DADA",
"N 	c #A3E6A0",
"O 	c #9EE29E",
"P 	c #C0C1F5",
"Q 	c #F6DADD",
"R 	c #F7E0DB",
"S 	c #FBE2DF",
"T 	c #9FE49F",
"U 	c #8E8F8C",
"V 	c #FEFEFE",
"W 	c #FDFDFD",
"X 	c #FCFCFC",
"Y 	c #FCFCFB",
"Z 	c #848582",
"` 	c #959694",
" .	c #828380",
"..	c #82837F",
"+.	c #858683",
"  . + @ @ @ @ @ # $       ",
"  % & * = - ; > , ' )     ",
"  ! ~ { ] ^ / ( _ : < [   ",
"  ! - } | 1 2 3 4 4 4 4   ",
"  ! 5 6 7 8 9 0 a b c d   ",
"  ! e f g h i j k l m n   ",
"  ! e o p q r s t u e v   ",
"  ! e w x y z A B C e D   ",
"  ! e E F z G H I J e D   ",
"  ! e E K L H M N O e D   ",
"  ! - K P Q R S T N e D   ",
"  U - - e V W W X Y e Z   ",
"  `  .+ + + + + + + ..+.  "};
