/* XPM */
static char * image_negative_example_xpm[] = {
"16 16 31 1",
" 	c None",
".	c #491919",
"+	c #471616",
"@	c #451414",
"#	c #431111",
"$	c #410E0E",
"%	c #3F0C0C",
"&	c #3D0909",
"*	c #3B0707",
"=	c #390404",
"-	c #380202",
";	c #390505",
">	c #3D0A0A",
",	c #410F0F",
"'	c #979797",
")	c #A9A9A9",
"!	c #B8B8B8",
"~	c #B7B7B7",
"{	c #B6B6B6",
"]	c #B5B5B5",
"^	c #B4B4B4",
"/	c #B3B3B3",
"(	c #A6A6A6",
"_	c #A0A0A0",
":	c #9F9F9F",
"<	c #9E9E9E",
"[	c #9D9D9D",
"}	c #9B9B9B",
"|	c #9A9A9A",
"1	c #999999",
"2	c #989898",
"                ",
"                ",
"                ",
"                ",
"                ",
"                ",
"   .+@#$%&*=-   ",
"   -;*>%,#@+.'  ",
"    ')!~{]^^/(' ",
"     _:<[}|12'' ",
"                ",
"                ",
"                ",
"                ",
"                ",
"                "};
