/* XPM */
static char * image_parent_16_xpm[] = {
"16 16 144 2",
"  	c None",
". 	c #868883",
"+ 	c #BDC0B9",
"@ 	c #858683",
"# 	c #737563",
"$ 	c #767965",
"% 	c #757865",
"& 	c #CACDC7",
"* 	c #F9F9F8",
"= 	c #727461",
"- 	c #B4B6A8",
"; 	c #B6B8A9",
"> 	c #B5B7A7",
", 	c #B3B5A5",
"' 	c #FFFFFF",
") 	c #737562",
"! 	c #B2B4A4",
"~ 	c #90937C",
"{ 	c #777975",
"] 	c #C6C9C3",
"^ 	c #F7F7F7",
"/ 	c #FEFEFE",
"( 	c #F6F6F6",
"_ 	c #7C7F7B",
": 	c #747763",
"< 	c #707460",
"[ 	c #6F715D",
"} 	c #A8AB99",
"| 	c #9B9E99",
"1 	c #EBECEB",
"2 	c #BDC0BB",
"3 	c #A9ACA6",
"4 	c #FCFCFC",
"5 	c #BCBFBA",
"6 	c #CFD0CC",
"7 	c #9A9C98",
"8 	c #7F8171",
"9 	c #959883",
"0 	c #6D715F",
"a 	c #6B6D5A",
"b 	c #959785",
"c 	c #858772",
"d 	c #5F615F",
"e 	c #91938D",
"f 	c #6F726E",
"g 	c #9EA19B",
"h 	c #FBFBFB",
"i 	c #6B6D68",
"j 	c #92948F",
"k 	c #616354",
"l 	c #8A8C78",
"m 	c #6B6E5B",
"n 	c #666856",
"o 	c #7E7F6E",
"p 	c #787966",
"q 	c #6C6D5C",
"r 	c #616253",
"s 	c #939590",
"t 	c #FAFAF9",
"u 	c #58584B",
"v 	c #686A58",
"w 	c #636453",
"x 	c #6B6B5A",
"y 	c #878A84",
"z 	c #E1E1E0",
"A 	c #585849",
"B 	c #646655",
"C 	c #5E604F",
"D 	c #676756",
"E 	c #7C7F79",
"F 	c #C9C9C9",
"G 	c #545446",
"H 	c #606251",
"I 	c #5A5B4C",
"J 	c #71736E",
"K 	c #B4B4B4",
"L 	c #5C5E4E",
"M 	c #565749",
"N 	c #686857",
"O 	c #6F715F",
"P 	c #747764",
"Q 	c #737662",
"R 	c #70725F",
"S 	c #636555",
"T 	c #6C6F5D",
"U 	c #6A6D5B",
"V 	c #6F7260",
"W 	c #9A9C8C",
"X 	c #BEBFB2",
"Y 	c #C4C6BA",
"Z 	c #C4C5BA",
"` 	c #C3C4B9",
" .	c #C2C3B8",
"..	c #C1C2B6",
"+.	c #C0C1B5",
"@.	c #BEC0B4",
"#.	c #B8B9AD",
"$.	c #6A6D5A",
"%.	c #616352",
"&.	c #BEC0B2",
"*.	c #C5C6B9",
"=.	c #C3C4B7",
"-.	c #C1C2B5",
";.	c #B8BAAA",
">.	c #ADAE9D",
",.	c #A7A896",
"'.	c #A6A795",
").	c #A5A695",
"!.	c #A3A594",
"~.	c #A2A493",
"{.	c #A1A392",
"].	c #A0A291",
"^.	c #B4B5A8",
"/.	c #58594A",
"(.	c #C4C5B7",
"_.	c #B9BBAA",
":.	c #B8B9A9",
"<.	c #B6B8A8",
"[.	c #B5B7A8",
"}.	c #B4B6A7",
"|.	c #B3B5A6",
"1.	c #B2B4A5",
"2.	c #B1B3A3",
"3.	c #B0B1A2",
"4.	c #AEAFA0",
"5.	c #ADAE9F",
"6.	c #AFB1A2",
"7.	c #505143",
"8.	c #818172",
"9.	c #AFAF9C",
"0.	c #B0B09D",
"a.	c #B1B19F",
"b.	c #B2B2A1",
"c.	c #B3B3A2",
"d.	c #B4B4A4",
"e.	c #B2B2A2",
"f.	c #AFAF9F",
"g.	c #ADAD9C",
"h.	c #AAAA99",
"i.	c #A7A796",
"j.	c #A4A492",
"k.	c #747467",
"l.	c #4C4C3F",
"m.	c #4B4B3F",
"              . + @             ",
"  # $ % % % . & * & .           ",
"= - ; > , . & * ' * & .         ",
") ! ~ ~ { ] ^ ] / ] ( ] _ : <   ",
"[ } ~ ~ | 1 2 3 4 3 5 6 7 8 9 0 ",
"a b c c d e f g h g i j d k l m ",
"n o p p q r r s t s u u u u p v ",
"w x x x x x x y z y A x x x x B ",
"C D D D D D D E F E G D D D D H ",
"I D D D D D D J K J G D D D D L ",
"M D D D N O P Q Q Q Q Q Q Q Q R ",
"S T U U V W X Y Z `  ...+.@.#.$.",
"%.&.*.=.-.;.>.,.'.).!.~.{.].^.%.",
"/.(._.:.; <.[.}.|.1.2.3.4.5.6./.",
"7.8.9.0.a.b.c.d.e.f.g.h.i.j.k.7.",
"  l.m.m.m.m.m.m.m.m.m.m.m.m.l.  "};
