/* XPM */
static char * image_new_lecture_from_text_18_xpm[] = {
"18 18 142 2",
"  	c None",
". 	c #ABB9D4",
"+ 	c #B9C5DD",
"@ 	c #B2BBD4",
"# 	c #A8B0CC",
"$ 	c #9FA5C3",
"% 	c #9499BC",
"& 	c #8B8EB4",
"* 	c #8283AC",
"= 	c #7D7DA8",
"- 	c #9AA1BD",
"; 	c #B9B6B8",
"> 	c #B1BBD5",
", 	c #FFFFFF",
"' 	c #7197D2",
") 	c #204880",
"! 	c #ABB4CE",
"~ 	c #F9FDFF",
"{ 	c #F6FBFF",
"] 	c #A8C0E0",
"^ 	c #B4B1B4",
"/ 	c #A6AEC9",
"( 	c #F5FAFF",
"_ 	c #A1A7C4",
": 	c #F9FCFF",
"< 	c #F0F8FF",
"[ 	c #EAF5FF",
"} 	c #A0B0C8",
"| 	c #9CA1BF",
"1 	c #184880",
"2 	c #979AB9",
"3 	c #F0F7FF",
"4 	c #E9F5FF",
"5 	c #E5F2FF",
"6 	c #DFEFFF",
"7 	c #9BA7B3",
"8 	c #4F5073",
"9 	c #9194B5",
"0 	c #FDFFFF",
"a 	c #66687F",
"b 	c #274F8A",
"c 	c #A40000",
"d 	c #264F8A",
"e 	c #D5EAFF",
"f 	c #CEE7FF",
"g 	c #8EA1B3",
"h 	c #8BA0B3",
"i 	c #889AB0",
"j 	c #8AA8CF",
"k 	c #CC0000",
"l 	c #5D89C0",
"m 	c #5F607A",
"n 	c #8788AE",
"o 	c #8081A5",
"p 	c #BDD9F9",
"q 	c #7172A3",
"r 	c #87A6CE",
"s 	c #608BC2",
"t 	c #C5E2FF",
"u 	c #C1E0FF",
"v 	c #BAE0FF",
"w 	c #B8D6F9",
"x 	c #7EA0CB",
"y 	c #BABDB6",
"z 	c #575876",
"A 	c #76779F",
"B 	c #B0D0F4",
"C 	c #789BC8",
"D 	c #9BB5D8",
"E 	c #F2F5FA",
"F 	c #5E89C0",
"G 	c #899EB3",
"H 	c #B4D5F8",
"I 	c #ADD0F2",
"J 	c #A8CDF1",
"K 	c #A6C7EC",
"L 	c #6B6C9B",
"M 	c #7196C4",
"N 	c #4C7AB4",
"O 	c #565F67",
"P 	c #555753",
"Q 	c #5A636B",
"R 	c #3E6DAB",
"S 	c #5A86BD",
"T 	c #535473",
"U 	c #70719C",
"V 	c #6A6B94",
"W 	c #65668C",
"X 	c #A2C4EC",
"Y 	c #698FC0",
"Z 	c #3465A4",
"` 	c #CDCDCD",
" .	c #666969",
"..	c #686B6B",
"+.	c #E9E9E9",
"@.	c #FEFEFE",
"#.	c #DFDFDF",
"$.	c #4270AD",
"%.	c #5581BA",
"&.	c #7A94A9",
"*.	c #AFD4F2",
"=.	c #A5CAE6",
"-.	c #9DC7E4",
";.	c #9CBFE3",
">.	c #656691",
",.	c #6189BC",
"'.	c #3566A5",
").	c #D2D2D2",
"!.	c #F6F6F6",
"~.	c #D5D5D5",
"{.	c #C2C2C2",
"].	c #4574B0",
"^.	c #4F7DB6",
"/.	c #4F4F6E",
"(.	c #5F6084",
"_.	c #98B9DE",
":.	c #5B5C83",
"<.	c #416BA3",
"[.	c #396AA7",
"}.	c #E8E8E8",
"|.	c #646665",
"1.	c #606261",
"2.	c #ABABAB",
"3.	c #BEBEBE",
"4.	c #4675B1",
"5.	c #4977B2",
"6.	c #7C95A9",
"7.	c #ACD1F0",
"8.	c #9FC5E3",
"9.	c #94B7D7",
"0.	c #94B5D7",
"a.	c #575887",
"b.	c #878B92",
"c.	c #244C88",
"d.	c #575955",
"e.	c #595B57",
"f.	c #244D88",
"g.	c #17335A",
"h.	c #44456B",
"i.	c #616298",
"j.	c #5B5C8E",
"k.	c #575886",
"  . + @ @ # $ % & * * = - ;         ",
"  > , , , , , , , , , ' ) ) )       ",
"  ! , , , , , , ~ { { ' ) ] ) ^     ",
"  / , / / / / / ( / ) ) ) ] ) ) )   ",
"  _ , , , , : ( < [ ) ] ] ] } } )   ",
"  | , | | | | | [ | ) ) ) } 1 1 )   ",
"  2 , : : ( 3 4 5 6 6 7 1 } 1 8     ",
"  9 0 9 9 9 9 9 6 9 9 a 1 1 1 8     ",
"b c c c c c c c c d e f g h i 8     ",
"j k k k k k k k k l m n o o p q     ",
"r , , , , , , , , s g t u v w q     ",
"x , y y y y y y , s z A A A B q     ",
"C D , , , , , , E F G H I J K L     ",
"M N O P P P P Q R S T U V W X L     ",
"Y Z `  ...+.@.#.$.%.&.*.=.-.;.>.    ",
",.'.).P P !.~.{.].^./.V (.(._.:.    ",
"<.[.}.|.1.` 2.3.4.5.6.7.8.9.0.a.    ",
"b.c.d.e.e.e.e.d.f.g.h.i.j.k.k.a.    "};
