/* XPM */
static char * image_new_classifier_16_xpm[] = {
"16 16 39 1",
" 	c #0000E6",
".	c #0000D0",
"+	c None",
"@	c #204880",
"#	c #42D9FF",
"$	c #33D1FF",
"%	c #18C1FF",
"&	c #00A7FF",
"*	c #009CFF",
"=	c #0000BC",
"-	c #A8C0E0",
";	c #3BD0FF",
">	c #2BCCFF",
",	c #22BFFF",
"'	c #0000AA",
")	c #A6A6A6",
"!	c #A0B0C8",
"~	c #0DA6FF",
"{	c #0DBAFF",
"]	c #184880",
"^	c #000099",
"/	c #0092FF",
"(	c #00B3FF",
"_	c #00008A",
":	c #0089FF",
"<	c #00007D",
"[	c #008000",
"}	c #00BF00",
"|	c #66D929",
"1	c #007400",
"2	c #55D522",
"3	c #006900",
"4	c #19C50A",
"5	c #43D01B",
"6	c #005F00",
"7	c #2FCB13",
"8	c #005600",
"9	c #004E00",
"0	c #004600",
"      ..+++@@@++",
".#$%&**=+++@-@++",
"=;>, .='+@@@-@@@",
"',,%& )++@---!!@",
"'~ &{&.)+@@@!]]@",
"^/. &(&.+++]!]++",
"_:').& )+++]]]++",
"<^^+).)+++++++++",
"+++++++++)[)+[[[",
"++++++++)[}[)[|1",
"++++++++[}|}[123",
"++++++++)[}24356",
"+++++++++)[45778",
"++++++++[[137449",
"++++++++[|2574}0",
"++++++++13689900"};
