/* XPM */
static char * image_classificatory_feature_xpm[] = {
"13 13 89 1",
" 	c None",
".	c #959693",
"+	c #80817E",
"@	c #7F7F7C",
"#	c #81837F",
"$	c #B5B6B5",
"%	c #8C8E8B",
"&	c #F6F6F5",
"*	c #FAFAF9",
"=	c #F9FAF9",
"-	c #F9F9F8",
";	c #F8F9F7",
">	c #F7F8F7",
",	c #9E9E9E",
"'	c #8F8F8F",
")	c #ADADAC",
"!	c #8D8E8B",
"~	c #CAE2FA",
"{	c #C5DEF2",
"]	c #C4DCF1",
"^	c #C2DAF0",
"/	c #ECEEEA",
"(	c #EAECE8",
"_	c #9C9C9B",
":	c #DEDEDE",
"<	c #979796",
"[	c #AFB0AF",
"}	c #CBE2FA",
"|	c #58AAFA",
"1	c #60AEF9",
"2	c #5FADF8",
"3	c #EEEFEC",
"4	c #888A87",
"5	c #7C7D7B",
"6	c #81827F",
"7	c #CCE3FA",
"8	c #4FA6FA",
"9	c #92C6F7",
"0	c #F1F2F0",
"a	c #EFF1EE",
"b	c #EEF0ED",
"c	c #DFE0DD",
"d	c #D1D3CF",
"e	c #D7D8D5",
"f	c #8B8B89",
"g	c #CCE4FB",
"h	c #47A2FA",
"i	c #F5F6F5",
"j	c #6BB4FA",
"k	c #F2F3F1",
"l	c #F0F1EF",
"m	c #ECEEEB",
"n	c #F3F4F2",
"o	c #939492",
"p	c #CDE5FC",
"q	c #F4F5F3",
"r	c #F2F2F2",
"s	c #FDFDFD",
"t	c #FBFBFA",
"u	c #F9F9F9",
"v	c #F7F8F6",
"w	c #F5F6F4",
"x	c #58D258",
"y	c #57D156",
"z	c #C7ECC7",
"A	c #FEFEFE",
"B	c #FBFBFB",
"C	c #92E192",
"D	c #60D460",
"E	c #C8EDC7",
"F	c #FFFFFF",
"G	c #E6F9E6",
"H	c #6DD86C",
"I	c #61D661",
"J	c #6BD06B",
"K	c #C9EDC9",
"L	c #E2F5E2",
"M	c #CBEFCB",
"N	c #CBEECA",
"O	c #8E8F8C",
"P	c #FAFAFA",
"Q	c #FCFCFC",
"R	c #FCFCFB",
"S	c #F8F8F7",
"T	c #929390",
"U	c #959694",
"V	c #828380",
"W	c #82837F",
"X	c #939491",
" .+@@@@@#$   ",
" %&*=-;>,')  ",
" !~{]^/(_:<[ ",
" !}|123/4456 ",
" !7890abcdef ",
" !ghijklbmno ",
" !p}>iqklrqo ",
" !stuvwxryzo ",
" !AsB=>rCDEo ",
" !FFsBGHIJKo ",
" !FFAsLMKENo ",
" OPFFAssQRST ",
" UV+++++++WX "};
