/* XPM */
static char * image_separator_classifier_xpm[] = {
"13 13 40 1",
" 	c #0000E6",
".	c #0000D0",
"+	c None",
"@	c #67007B",
"#	c #42D9FF",
"$	c #33D1FF",
"%	c #18C1FF",
"&	c #00A7FF",
"*	c #009CFF",
"=	c #0000BC",
"-	c #CCCCCC",
";	c #3BD0FF",
">	c #2BCCFF",
",	c #22BFFF",
"'	c #0000AA",
")	c #B4A5B7",
"!	c #BDAEC0",
"~	c #0DA6FF",
"{	c #0DBAFF",
"]	c #B5A3C0",
"^	c #000099",
"/	c #0092FF",
"(	c #00B3FF",
"_	c #008000",
":	c #9B84C0",
"<	c #00008A",
"[	c #0089FF",
"}	c #00BF00",
"|	c #66D929",
"1	c #007400",
"2	c #00007D",
"3	c #55D522",
"4	c #006900",
"5	c #19C50A",
"6	c #43D01B",
"7	c #005F00",
"8	c #2FCB13",
"9	c #005600",
"0	c #004E00",
"a	c #004600",
"      ..++++@",
".#$%&**=+++@-",
"=;>, .='++@)+",
"',,%& +++@!++",
"'~ &{&.+@]+++",
"^/. &(&_:+___",
"<['+.&_}_+_|1",
"2^^++_}|}_134",
"++++:@_}35467",
"+++]@++_56889",
"++!@+__148550",
"+!@++_|3685}a",
"-@+++147900aa"};
