/* XPM */
static char * image_feature_view_18_xpm[] = {
"18 18 200 2",
"  	c None",
". 	c #B0B0B0",
"+ 	c #929595",
"@ 	c #7F8282",
"# 	c #686B6C",
"$ 	c #8A8E8E",
"% 	c #A4A5A5",
"& 	c #9B9F9F",
"* 	c #656767",
"= 	c #B8BBB7",
"- 	c #C6C8C4",
"; 	c #C5C8C4",
"> 	c #BABCBA",
", 	c #969898",
"' 	c #989A9B",
") 	c #E4B813",
"! 	c #D2A749",
"~ 	c #958CA2",
"{ 	c #636663",
"] 	c #C7CAC4",
"^ 	c #DADCD7",
"/ 	c #DADAF2",
"( 	c #E1D8C5",
"_ 	c #E7DFB5",
": 	c #D4D5D4",
"< 	c #BEBFBF",
"[ 	c #7B7C7C",
"} 	c #DB9C06",
"| 	c #FFF02F",
"1 	c #FFF433",
"2 	c #FFF130",
"3 	c #B1B0B5",
"4 	c #716F74",
"5 	c #CED2CB",
"6 	c #E5E5F6",
"7 	c #F9F9FD",
"8 	c #F6F6FC",
"9 	c #EBEAF1",
"0 	c #E1D8C4",
"a 	c #E4DBBD",
"b 	c #BCBCBC",
"c 	c #636565",
"d 	c #FFD410",
"e 	c #FFFF94",
"f 	c #FFFF89",
"g 	c #D5D7D7",
"h 	c #767A7E",
"i 	c #9EA3AB",
"j 	c #FBFBFE",
"k 	c #E3D4B8",
"l 	c #DFD3AA",
"m 	c #E3D7B1",
"n 	c #E7DDB4",
"o 	c #DDD5AD",
"p 	c #969999",
"q 	c #6C6D6E",
"r 	c #F2F2F2",
"s 	c #808080",
"t 	c #FFFF87",
"u 	c #FFFF82",
"v 	c #BFC1C1",
"w 	c #6E757F",
"x 	c #D0DCF5",
"y 	c #E6E5F0",
"z 	c #E0D5A6",
"A 	c #E1D39C",
"B 	c #E5D99F",
"C 	c #E5D8AE",
"D 	c #E5D7AE",
"E 	c #DDDDEC",
"F 	c #BABCBB",
"G 	c #737778",
"H 	c #E6E6E6",
"I 	c #FFFB7B",
"J 	c #B6B8B8",
"K 	c #8B97AB",
"L 	c #ECE3A5",
"M 	c #E5DBA2",
"N 	c #E4D89A",
"O 	c #E9DFA0",
"P 	c #EDE3A2",
"Q 	c #C5C8C5",
"R 	c #484D4E",
"S 	c #D9D9D9",
"T 	c #737373",
"U 	c #FFF26E",
"V 	c #8492A8",
"W 	c #EDE3A1",
"X 	c #EDE3A3",
"Y 	c #E8DC9C",
"Z 	c #E1D596",
"` 	c #E0D6A2",
" .	c #E4DBAB",
"..	c #CBCDEE",
"+.	c #4A4F51",
"@.	c #CCCCCC",
"#.	c #595959",
"$.	c #FFF26F",
"%.	c #C1C2C2",
"&.	c #9FA8AA",
"*.	c #ECE2A3",
"=.	c #E1D38F",
"-.	c #D9CA88",
";.	c #D3C9A0",
">.	c #D1CBBC",
",.	c #CECCD0",
"'.	c #D7D7DC",
").	c #848989",
"!.	c #BFBFBF",
"~.	c #404040",
"{.	c #DBDDDD",
"].	c #A6A9AA",
"^.	c #CDCFDB",
"/.	c #E5D8B0",
"(.	c #E4D7A4",
"_.	c #D6C991",
":.	c #CCC294",
"<.	c #CAC1A3",
"[.	c #CEC8B7",
"}.	c #D3CEBE",
"|.	c #C5C7C1",
"1.	c #909392",
"2.	c #B3B3B3",
"3.	c #FEF073",
"4.	c #FFF164",
"5.	c #C0C2C2",
"6.	c #9EA1A1",
"7.	c #DEDEF0",
"8.	c #E2D6B2",
"9.	c #CFC6AD",
"0.	c #C0BAA9",
"a.	c #BFBAAE",
"b.	c #D8CEB4",
"c.	c #E2D7AD",
"d.	c #B7BAB5",
"e.	c #656666",
"f.	c #FFD10E",
"g.	c #A6A6A6",
"h.	c #FFF271",
"i.	c #BF9973",
"j.	c #858686",
"k.	c #747776",
"l.	c #C9CAD0",
"m.	c #D6D6E1",
"n.	c #B7B5B3",
"o.	c #AAA8A7",
"p.	c #ABABB1",
"q.	c #D6D7DF",
"r.	c #B3BAB3",
"s.	c #6C6C6B",
"t.	c #FFD211",
"u.	c #999999",
"v.	c #8C8C8C",
"w.	c #AD8862",
"x.	c #B06B22",
"y.	c #7D5522",
"z.	c #807A6F",
"A.	c #5F6060",
"B.	c #757778",
"C.	c #757876",
"D.	c #A6A9A9",
"E.	c #676869",
"F.	c #AFB1B1",
"G.	c #7E817F",
"H.	c #696B69",
"I.	c #AB8660",
"J.	c #77501D",
"K.	c #64400D",
"L.	c #D4BE5B",
"M.	c #000000",
"N.	c #E6D16E",
"O.	c #9B9B9B",
"P.	c #676767",
"Q.	c #6B6D6D",
"R.	c #332E24",
"S.	c #FFD515",
"T.	c #FFD00E",
"U.	c #AE6A21",
"V.	c #78501E",
"W.	c #5F3D08",
"X.	c #8A8B8B",
"Y.	c #FFEE54",
"Z.	c #FEEA4A",
"`.	c #FFE73D",
" +	c #FEE12D",
".+	c #FFDC24",
"++	c #FDD11A",
"@+	c #FFD10B",
"#+	c #9C703F",
"$+	c #AF6B22",
"%+	c #78501D",
"&+	c #878989",
"*+	c #8B6030",
"=+	c #754E1B",
"-+	c #63400C",
";+	c #878889",
">+	c #807869",
",+	c #7E8080",
"'+	c #A1A1A1",
")+	c #ADADAD",
"                . + @ # $ %         ",
"              & * = - ; > , '       ",
") ) ) ) ) ! ~ { ] ^ / ( _ : < [ } } ",
") | 1 2 | 3 4 5 6 7 8 9 0 ( a b c d ",
") e e f g h i / 7 j k l m n ( o p q ",
"r s t u v w x ( 8 y z A B C D E F G ",
"H H s I J K ( D 6 L M N O P D / Q R ",
"S S T U J V ( D W X Y Z `  .../ - +.",
"@.@.#.$.%.&.( D *.Y =.-.;.>.,.'.= ).",
"!.!.~.$.{.].^.( /.(._.:.<.[.}.|.1.. ",
"2.2.~.3.4.5.6.7.( 8.9.0.a.b.c.d.e.f.",
"g.2.~.h.i.j.k.6.l.m.n.o.p.q.r.s.t.t.",
"u.v.~.w.x.y.z.A.B.C.D.E.F.G.H.f.f.f.",
"v.~.I.x.J.K.L.M.N.O.P.P.Q.R.S.T.M.T.",
"M.I.U.V.W.X.Y.M.Z.`.M. +.+M.++@+M.@+",
"#+$+%+W.&+M.M.M.M.M.M.M.M.M.M.M.M.M.",
"*+=+-+;+u.2.2.2.2.2.2.2.2.2.2.2.2.2.",
">+*+,+u.u.u.'+g.)+2.2.2.2.2.2.2.2.2."};
