/* XPM */
static char * image_windowize_xpm[] = {
"14 14 138 2",
"  	c None",
". 	c #52CDF0",
"+ 	c #3570CC",
"@ 	c #2F66CC",
"# 	c #1955C7",
"$ 	c #2B67CA",
"% 	c #40BBEC",
"& 	c #51CDEF",
"* 	c #2B60CF",
"= 	c #93DBEC",
"- 	c #62D3F7",
"; 	c #45C8F9",
"> 	c #44C8F9",
", 	c #45CAF9",
"' 	c #45C7F7",
") 	c #2A5ECF",
"! 	c #38B3EA",
"~ 	c #487ED1",
"{ 	c #76B0DF",
"] 	c #5CABD5",
"^ 	c #60ADD7",
"/ 	c #59A9D5",
"( 	c #5AAAD5",
"_ 	c #5DABD6",
": 	c #60ACD7",
"< 	c #75A6CF",
"[ 	c #7FB7E0",
"} 	c #386ECE",
"| 	c #2F66CD",
"1 	c #7AB0DF",
"2 	c #4999D5",
"3 	c #FFFFFF",
"4 	c #5D91CF",
"5 	c #76B0DE",
"6 	c #406DD2",
"7 	c #2F66CE",
"8 	c #87B3DC",
"9 	c #6897CC",
"0 	c #6497D0",
"a 	c #7DB3DF",
"b 	c #2A58CF",
"c 	c #1955B5",
"d 	c #83B2DD",
"e 	c #6495CC",
"f 	c #459CEA",
"g 	c #47A2E8",
"h 	c #4FA9E5",
"i 	c #5BAEE7",
"j 	c #6989D8",
"k 	c #59B0ED",
"l 	c #275AC0",
"m 	c #19559A",
"n 	c #7AAADE",
"o 	c #679BDD",
"p 	c #6FAED5",
"q 	c #4A8DCD",
"r 	c #4B94C6",
"s 	c #4181CF",
"t 	c #3D77D4",
"u 	c #437BD6",
"v 	c #5590D5",
"w 	c #149DF1",
"x 	c #1955A8",
"y 	c #004376",
"z 	c #659CE0",
"A 	c #5E94D9",
"B 	c #5599D4",
"C 	c #3E8BCD",
"D 	c #4086D4",
"E 	c #2A71D6",
"F 	c #2F74D7",
"G 	c #3A7BD8",
"H 	c #3B76DF",
"I 	c #108AF0",
"J 	c #19559B",
"K 	c #00435A",
"L 	c #528AE2",
"M 	c #4788D3",
"N 	c #2371DE",
"O 	c #2D73E5",
"P 	c #3166F2",
"Q 	c #2D6BEB",
"R 	c #2861F2",
"S 	c #0B6CF7",
"T 	c #19558D",
"U 	c #004341",
"V 	c #3873E3",
"W 	c #3E7DD5",
"X 	c #2B6AEC",
"Y 	c #2E65F4",
"Z 	c #356AF5",
"` 	c #3268F5",
" .	c #265FF4",
"..	c #0A4AF5",
"+.	c #19557D",
"@.	c #00433C",
"#.	c #1E59E5",
"$.	c #2B62DE",
"%.	c #1451F3",
"&.	c #0043F5",
"*.	c #00436F",
"=.	c #125449",
"-.	c #0043D4",
";.	c #0043DA",
">.	c #0A4AC1",
",.	c #0F4EBA",
"'.	c #0F4EBE",
").	c #1250D2",
"!.	c #1351E0",
"~.	c #1351EC",
"{.	c #1351E7",
"].	c #1250F3",
"^.	c #0A4AF0",
"/.	c #004346",
"(.	c #75B898",
"_.	c #00435E",
":.	c #0043E8",
"<.	c #0054E4",
"[.	c #005DDE",
"}.	c #0061E5",
"|.	c #0064EB",
"1.	c #0066F2",
"2.	c #0069F8",
"3.	c #0069F9",
"4.	c #0067F9",
"5.	c #004388",
"6.	c #569A80",
"7.	c #65A98C",
"8.	c #094C3D",
"9.	c #00436A",
"0.	c #004367",
"a.	c #004368",
"b.	c #004369",
"c.	c #00436C",
"d.	c #00436E",
"e.	c #004372",
"f.	c #004345",
"g.	c #56997F",
"  . + @ @ # # # # # # $ %   ",
"& * = - ; > > > ; ; , ' ) ! ",
"~ { ] ^ ^ / ( _ : : _ < [ } ",
"| 1 2 3 3 3 3 3 3 3 3 4 5 6 ",
"7 8 9 3 3 3 3 3 3 3 3 0 a b ",
"c d e 3 f g h i i i 3 j k l ",
"m n o 3 p q r s t u 3 v w x ",
"y z A 3 B C D E F G 3 H I J ",
"K L M 3 N O P P Q Q 3 R S T ",
"U V W 3 X Y Z Z ` ` 3  ...+.",
"@.#.$.3 3 3 3 3 3 3 3 %.&.*.",
"=.-.;.>.,.'.).!.~.{.].^.&./.",
"(._.:.<.[.}.|.1.2.3.3.4.5.6.",
"  7.8.9.0.a.b.c.d.*.e.f.g.  "};
