/* XPM */
static char * image_find_18_xpm[] = {
"18 18 30 1",
" 	c #800000",
".	c None",
"+	c #FF5830",
"@	c #FF5028",
"#	c #FF4018",
"$	c #FF3008",
"%	c #FF1800",
"&	c #144A57",
"*	c #004800",
"=	c #48B818",
"-	c #40B018",
";	c #28A010",
">	c #38B010",
",	c #20A008",
"'	c #109000",
")	c #033E16",
"!	c #033316",
"~	c #CCCCCC",
"{	c #ADC8E0",
"]	c #3F3F00",
"^	c #8BA0B3",
"/	c #DAEE2B",
"(	c #C6D01F",
"_	c #B3C92B",
":	c #C6D01E",
"<	c #AFC235",
"[	c #849039",
"}	c #ACC028",
"|	c #8D9533",
"1	c #6F7434",
"     .............",
" ++@ .............",
" @#$ .............",
" $$% .............",
"     .............",
"..&...............",
"..&....*****......",
"..&....*===*......",
"..&&&&&*=-;*......",
"..&....*>,')......",
"..&....****!......",
"..&...........~...",
"{{&{{{{]]]]]{{&^{{",
"{{&{{{{]/(_]{{&&^{",
"{{&&&&&]:<[]{{&&&^",
"{{{{{{{]}|1]{{&&^{",
"{{{{{{{]]]]]{{&^{{",
"..............~..."};
