/* XPM */
static char * image_lecture_add_random_example_18_xpm[] = {
"18 18 177 2",
"  	c None",
". 	c #ABB9D4",
"+ 	c #B9C5DD",
"@ 	c #B2BBD4",
"# 	c #A8B0CC",
"$ 	c #9FA5C3",
"% 	c #9499BC",
"& 	c #8B8EB4",
"* 	c #8283AC",
"= 	c #7D7DA8",
"- 	c #9AA1BD",
"; 	c #B9B6B8",
"> 	c #BDD8E2",
", 	c #7CA1B3",
"' 	c #6E9AB3",
") 	c #6E9EBC",
"! 	c #73A2BC",
"~ 	c #799FB6",
"{ 	c #85A2AF",
"] 	c #BCCED4",
"^ 	c #FFFFFF",
"/ 	c #7197D2",
"( 	c #B2C7E2",
"_ 	c #7C92BC",
": 	c #B7B4B5",
"< 	c #B2CDDA",
"[ 	c #476675",
"} 	c #32586C",
"| 	c #325C75",
"1 	c #2F5D78",
"2 	c #305D77",
"3 	c #345A6F",
"4 	c #426170",
"5 	c #4A6068",
"6 	c #AABEC5",
"7 	c #F6FBFF",
"8 	c #DEE7F3",
"9 	c #6FBDF7",
"0 	c #5478B1",
"a 	c #B4B1B4",
"b 	c #729BB4",
"c 	c #35596E",
"d 	c #3E657B",
"e 	c #345D75",
"f 	c #376179",
"g 	c #3A6379",
"h 	c #B3D9E7",
"i 	c #C9E9F3",
"j 	c #3D5C6B",
"k 	c #7996A3",
"l 	c #A6AEC9",
"m 	c #E7EBF5",
"n 	c #D1E0F1",
"o 	c #9CB6E0",
"p 	c #7172A3",
"q 	c #6797B4",
"r 	c #355F78",
"s 	c #365E76",
"t 	c #32586D",
"u 	c #395E72",
"v 	c #3B6073",
"w 	c #B2D7EA",
"x 	c #9CC2D6",
"y 	c #395F74",
"z 	c #7FA5B8",
"A 	c #EAF5FF",
"B 	c #6D9DBB",
"C 	c #325F7A",
"D 	c #335C74",
"E 	c #3F6478",
"F 	c #A4C2CD",
"G 	c #AAC8D3",
"H 	c #406578",
"I 	c #30586F",
"J 	c #37647E",
"K 	c #719CB5",
"L 	c #9CA1BF",
"M 	c #8788AE",
"N 	c #B0C9EE",
"O 	c #72A0BC",
"P 	c #36627C",
"Q 	c #365E75",
"R 	c #395E71",
"S 	c #98B8C2",
"T 	c #9CBBC5",
"U 	c #3D6376",
"V 	c #345E76",
"W 	c #33617C",
"X 	c #658391",
"Y 	c #DFEFFF",
"Z 	c #DCEEFF",
"` 	c #D6EAFF",
" .	c #CFE9FF",
"..	c #CADFFA",
"+.	c #7399B0",
"@.	c #375D72",
"#.	c #AED3E3",
"$.	c #B8DDF0",
"%.	c #3F6477",
"&.	c #3D6276",
"*.	c #43697E",
"=.	c #335D75",
"-.	c #305A73",
";.	c #5E8296",
">.	c #9194B5",
",.	c #C5DCFA",
"'.	c #7F9CA9",
").	c #3F5D6C",
"!.	c #A8C8D3",
"~.	c #A3C6D4",
"{.	c #365F77",
"].	c #3D647A",
"^.	c #33596D",
"/.	c #637E89",
"(.	c #D5EAFF",
"_.	c #CEE7FF",
":.	c #CAE5FF",
"<.	c #C6E4FF",
"[.	c #C2DBFA",
"}.	c #C3D4DA",
"|.	c #576D76",
"1.	c #3C5B6A",
"2.	c #30566B",
"3.	c #33607A",
"4.	c #305E79",
"5.	c #325D76",
"6.	c #34596D",
"7.	c #4C6B7A",
"8.	c #8FA6AF",
"9.	c #8081A5",
"0.	c #BDD9F9",
"a.	c #BBCDD2",
"b.	c #7E9BA8",
"c.	c #769FB3",
"d.	c #6F9DB9",
"e.	c #6F9FBC",
"f.	c #75A1BA",
"g.	c #799CAF",
"h.	c #90A6AF",
"i.	c #204880",
"j.	c #8181A9",
"k.	c #F50919",
"l.	c #F20D1F",
"m.	c #EC122C",
"n.	c #E51938",
"o.	c #E21B3E",
"p.	c #DF1E3E",
"q.	c #DC2247",
"r.	c #D6234C",
"s.	c #C5326C",
"t.	c #A8C0E0",
"u.	c #7C7DA8",
"v.	c #7677A4",
"w.	c #E0F1FE",
"x.	c #C0E0FF",
"y.	c #A0B0C8",
"z.	c #7374A3",
"A.	c #E0F5FF",
"B.	c #D5EFFF",
"C.	c #D1EDFF",
"D.	c #CCEBFF",
"E.	c #C8E9FF",
"F.	c #C1E5FF",
"G.	c #B2D7F2",
"H.	c #AED2F1",
"I.	c #184880",
"J.	c #70719C",
"K.	c #6A6B94",
"L.	c #5F6084",
"M.	c #B0D4F1",
"N.	c #ACD1F0",
"O.	c #9FC5E3",
"P.	c #6667A0",
"Q.	c #616298",
"R.	c #5B5C8E",
"S.	c #575886",
"T.	c #575887",
"  . + @ @ # $ % & * * = - ;         ",
"  > , ' ) ! ~ { ] ^ ^ / ( _ :       ",
"< [ } | 1 2 3 4 5 6 7 / 8 9 0 a     ",
"b c d e f g h i j k l / m n o p     ",
"q r s t u v w x y z A / / / / p     ",
"B C D E F G H I J K L M p p N p     ",
"O P Q R S T U V W X Y Z `  ...p     ",
"+.@.#.$.%.&.*.=.-.;.>.>.>.>.,.p     ",
"'.).!.~.Q =.{.].^./.(._.:.<.[.p     ",
"}.|.1.2.3.4.5.6.7.8.M M 9.9.0.p     ",
"  a.b.c.d.e.f.g.h.^ ^ ^ ^ i.i.i.    ",
"  j.^ k.l.m.n.o.^ p.q.r.s.i.t.i.    ",
"  u.^ ^ ^ ^ ^ ^ ^ ^ ^ i.i.i.t.i.i.i.",
"  v.w.v.v.v.v.v.x.v.v.i.t.t.t.y.y.i.",
"  z.A.B.B.C.D.E.F.G.H.i.i.i.y.I.I.i.",
"  v.w.v.v.v.v.v.x.J.J.K.L.I.y.I.    ",
"  z.A.B.B.C.D.E.F.G.M.N.O.I.I.I.    ",
"  p p p p p p P.P.Q.Q.Q.R.S.S.T.    "};
