/* XPM */
static char * image_save_as_text_16_xpm[] = {
"16 16 134 2",
"  	c #ABB9D4",
". 	c #B9C5DD",
"+ 	c #B2BBD4",
"@ 	c #A8B0CC",
"# 	c #9FA5C3",
"$ 	c #9499BC",
"% 	c #8B8EB4",
"& 	c #8283AC",
"* 	c #8485AA",
"= 	c #8885B3",
"- 	c #B9B6B8",
"; 	c None",
"> 	c #B1BBD5",
", 	c #FFFFFF",
"' 	c #8794BF",
") 	c #B2C7E2",
"! 	c #7B7EB4",
"~ 	c #B7B4B5",
"{ 	c #ABB4CE",
"] 	c #F9FDFF",
"^ 	c #F6FBFF",
"/ 	c #8898C4",
"( 	c #DEE7F3",
"_ 	c #A3D5FA",
": 	c #848CBF",
"< 	c #B4B1B4",
"[ 	c #A6AEC9",
"} 	c #F5FAFF",
"| 	c #E7EBF5",
"1 	c #D1E0F1",
"2 	c #9CB6E0",
"3 	c #7B7C9C",
"4 	c #C9C9C9",
"5 	c #A1A7C4",
"6 	c #F9FCFF",
"7 	c #F0F8FF",
"8 	c #EAF5FF",
"9 	c #7493CA",
"0 	c #7172A3",
"a 	c #C3C3C3",
"b 	c #9CA1BF",
"c 	c #9E9EBD",
"d 	c #9797BB",
"e 	c #B8CEF0",
"f 	c #BCBCBC",
"g 	c #979AB9",
"h 	c #F0F7FF",
"i 	c #E9F5FF",
"j 	c #5272A1",
"k 	c #A40000",
"l 	c #264F8A",
"m 	c #9194B5",
"n 	c #FDFFFF",
"o 	c #B0B1C9",
"p 	c #8AA8CF",
"q 	c #CC0000",
"r 	c #5D89C0",
"s 	c #8C8EB2",
"t 	c #F9FDFE",
"u 	c #EFF8FF",
"v 	c #E5F3FF",
"w 	c #87A6CE",
"x 	c #608BC2",
"y 	c #8788AE",
"z 	c #F4FBFE",
"A 	c #B1B1CA",
"B 	c #7EA0CB",
"C 	c #BABDB6",
"D 	c #8485AB",
"E 	c #EEF8FE",
"F 	c #DFEFFF",
"G 	c #DBEEFF",
"H 	c #E1F0FF",
"I 	c #789BC8",
"J 	c #C9D7EA",
"K 	c #F2F5FA",
"L 	c #5E89C0",
"M 	c #8181A9",
"N 	c #EAF6FE",
"O 	c #7C7DA8",
"P 	c #AAAAC6",
"Q 	c #7196C4",
"R 	c #4C7AB4",
"S 	c #565F67",
"T 	c #555753",
"U 	c #5A636B",
"V 	c #3E6DAB",
"W 	c #5A86BD",
"X 	c #E4F3FE",
"Y 	c #D4EAFF",
"Z 	c #CEE6FF",
"` 	c #D9EDFF",
" .	c #698FC0",
"..	c #3465A4",
"+.	c #CDCDCD",
"@.	c #666969",
"#.	c #686B6B",
"$.	c #E9E9E9",
"%.	c #FEFEFE",
"&.	c #DFDFDF",
"*.	c #4270AD",
"=.	c #5581BA",
"-.	c #7677A4",
";.	c #E0F1FE",
">.	c #A5A6C4",
",.	c #6189BC",
"'.	c #3566A5",
").	c #D2D2D2",
"!.	c #F6F6F6",
"~.	c #D5D5D5",
"{.	c #C2C2C2",
"].	c #4574B0",
"^.	c #4F7DB6",
"/.	c #7374A3",
"(.	c #E0F5FF",
"_.	c #D5EFFF",
":.	c #D1EDFF",
"<.	c #CCEBFF",
"[.	c #D7EFFF",
"}.	c #416BA3",
"|.	c #396AA7",
"1.	c #E8E8E8",
"2.	c #646665",
"3.	c #606261",
"4.	c #ABABAB",
"5.	c #BEBEBE",
"6.	c #4675B1",
"7.	c #4977B2",
"8.	c #878B92",
"9.	c #244C88",
"0.	c #575955",
"a.	c #595B57",
"b.	c #244D88",
"c.	c #17335A",
"  . + @ # $ % & * = - ; ; ; ; ; ",
"> , , , , , , , ' ) ! ~ ; ; ; ; ",
"{ , , , , , ] ^ / ( _ : < ; ; ; ",
"[ , [ [ [ [ } [ / | 1 2 3 4 ; ; ",
"5 , , , 6 } 7 8 9 9 9 9 0 a ; ; ",
"b , b b b b 8 b c d d e 0 f ; ; ",
"g , 6 } h i j k k k k k k k k l ",
"m n m m m o p q q q q q q q q r ",
"s t u 8 v 8 w , , , , , , , , x ",
"y z y y y A B , C C C C C C , x ",
"D E v F G H I J , , , , , , K L ",
"M N O O O P Q R S T T T T U V W ",
"O X G Y Z `  ...+.@.#.$.%.&.*.=.",
"-.;.-.-.-.>.,.'.).T T !.~.{.].^.",
"/.(._.:.<.[.}.|.1.2.3.+.4.5.6.7.",
"0 0 0 0 0 0 8.9.0.a.a.a.a.0.b.c."};
