/* XPM */
static char * image_rename_18_xpm[] = {
"18 18 91 1",
" 	c None",
".	c #787860",
"+	c #707860",
"@	c #C33A37",
"#	c #D94C4B",
"$	c #AB0B07",
"%	c #E0E0D8",
"&	c #F0F0E0",
"*	c #E8F0E0",
"=	c #E8E8E0",
"-	c #C37B4A",
";	c #D26054",
">	c #DB4747",
",	c #BE100F",
"'	c #D0D0B0",
")	c #E8E8D8",
"!	c #D0AC74",
"~	c #F6BC6A",
"{	c #E1844C",
"]	c #BB2218",
"^	c #AA0702",
"/	c #C8D0A8",
"(	c #D8D8B8",
"_	c #E0E8D0",
":	c #CDA66A",
"<	c #F9BB5F",
"[	c #FCB247",
"}	c #E8A33D",
"|	c #AB420F",
"1	c #B8B898",
"2	c #788060",
"3	c #C49A57",
"4	c #F5BB65",
"5	c #FCB348",
"6	c #E7A33E",
"7	c #B3863E",
"8	c #585F47",
"9	c #909878",
"0	c #D8D8C8",
"a	c #C69D5C",
"b	c #F3BB67",
"c	c #FCB44B",
"d	c #E39F39",
"e	c #BE8F46",
"f	c #ABB1A4",
"g	c #889070",
"h	c #E0E0D0",
"i	c #CBA870",
"j	c #F6BB66",
"k	c #E09C36",
"l	c #AD7925",
"m	c #B6B6B0",
"n	c #D1D1CA",
"o	c #B3B3B3",
"p	c #808868",
"q	c #D8D8C0",
"r	c #C49D5E",
"s	c #F7BC65",
"t	c #FCB248",
"u	c #E6A039",
"v	c #AE7A28",
"w	c #B0B0A2",
"x	c #CACABC",
"y	c #D0D8B8",
"z	c #DFA95A",
"A	c #FBB54D",
"B	c #BA8F47",
"C	c #AAB096",
"D	c #BCC3A6",
"E	c #D8E0C8",
"F	c #D0D0C0",
"G	c #808060",
"H	c #FDFCFB",
"I	c #F4DFC0",
"J	c #D0902F",
"K	c #B68940",
"L	c #94938F",
"M	c #EFE9DF",
"N	c #929981",
"O	c #999981",
"P	c #B4BC9F",
"Q	c #D8E0C0",
"R	c #C0C8B0",
"S	c #E0E0C8",
"T	c #443C2E",
"U	c #716F60",
"V	c #A2AA89",
"W	c #B4BC98",
"X	c #A8A890",
"Y	c #E0E0E0",
"Z	c #A0A088",
"                  ",
"                  ",
" .++++.+       @#$",
".%&*===+      -;>,",
"+*'''')++++++!~{]^",
"+='///())___:<[}| ",
"+)12+++++++345678 ",
"+)90&&&&&&abcdef. ",
"+)ghhhhhhijcklmn2o",
"+_p%qqqqrstuvwxh2o",
"+_2)yyyyzAuBCDEFGo",
"+_2)yyyHIJKCDyEFGo",
"+h1_///LMNOP''QR2o",
"+SyS//TUVVVW//Q1.o",
"+S(E//////////EXoo",
".YYYYYYYYYYYYYYZo ",
"2+.++++++++++++2o ",
" oooooooooooooooo "};
