/* XPM */
static char * image_positive_example_xpm[] = {
"16 16 16 1",
" 	c None",
".	c #0C3802",
"+	c #113B07",
"@	c #0E3905",
"#	c #0E3A05",
"$	c #0F3A05",
"%	c #103B07",
"&	c #0E3904",
"*	c #979797",
"=	c #A7A7A7",
"-	c #B2B2B2",
";	c #B3B3B3",
">	c #B4B4B4",
",	c #A8A8A8",
"'	c #0F3A06",
")	c #A6A6A6",
"                ",
"                ",
"       ..       ",
"       +@       ",
"       @.       ",
"       ..       ",
"   ........#.   ",
"   $......%&.*  ",
"   *=--..--;>,* ",
"    ***.'-***** ",
"       ..;*     ",
"       ..;*     ",
"       *)>*     ",
"        ***     ",
"                ",
"                "};
