/* XPM */
static char * image_lecture_edited_18_xpm[] = {
"18 18 182 2",
"  	c None",
". 	c #FF6666",
"+ 	c #FF4343",
"@ 	c #F14343",
"# 	c #E54343",
"$ 	c #DB4343",
"% 	c #D34343",
"& 	c #CD4343",
"* 	c #C84343",
"= 	c #A76884",
"- 	c #B97F91",
"; 	c #B9B6B8",
"> 	c #FF2F2F",
", 	c #FFFFFF",
"' 	c #BF8BA4",
") 	c #EAF1F8",
"! 	c #A67591",
"~ 	c #B7B4B5",
"{ 	c #EF2F2F",
"] 	c #F9FDFF",
"^ 	c #F6FBFF",
"/ 	c #E5ECF5",
"( 	c #E8938F",
"_ 	c #EC8989",
": 	c #E22F2F",
"< 	c #E87B81",
"[ 	c #DF6369",
"} 	c #D35F68",
"| 	c #C44E58",
"1 	c #F5FAFF",
"2 	c #BC5F6C",
"3 	c #C33A37",
"4 	c #D94C4B",
"5 	c #AB0B07",
"6 	c #B7BDC4",
"7 	c #B4C1CB",
"8 	c #C37B4A",
"9 	c #D26054",
"0 	c #DB4747",
"a 	c #BE100F",
"b 	c #D0AC74",
"c 	c #F6BC6A",
"d 	c #E1844C",
"e 	c #BB2218",
"f 	c #AA0702",
"g 	c #D32A2A",
"h 	c #F9FCFF",
"i 	c #F0F8FF",
"j 	c #EAF5FF",
"k 	c #CDA66A",
"l 	c #F9BB5F",
"m 	c #FCB247",
"n 	c #E8A33D",
"o 	c #AB420F",
"p 	c #D41C1C",
"q 	c #D8646D",
"r 	c #CF5965",
"s 	c #CA4754",
"t 	c #C04754",
"u 	c #B75767",
"v 	c #C49A57",
"w 	c #F5BB65",
"x 	c #FCB348",
"y 	c #E7A33E",
"z 	c #B3863E",
"A 	c #560000",
"B 	c #D12020",
"C 	c #F0F7FF",
"D 	c #E9F5FF",
"E 	c #E5F2FF",
"F 	c #C69D5C",
"G 	c #F3BB67",
"H 	c #FCB44B",
"I 	c #E39F39",
"J 	c #BE8F46",
"K 	c #D6C1EC",
"L 	c #6B0000",
"M 	c #C81D1D",
"N 	c #FEF0F9",
"O 	c #C5404F",
"P 	c #B84F61",
"Q 	c #B0586C",
"R 	c #A76278",
"S 	c #CBA870",
"T 	c #F6BB66",
"U 	c #E09C36",
"V 	c #AD7925",
"W 	c #7F6379",
"X 	c #C31A1A",
"Y 	c #FDEFF9",
"Z 	c #F9E9F7",
"` 	c #F7E8F7",
" .	c #F6E7F7",
"..	c #C49D5E",
"+.	c #F7BC65",
"@.	c #FCB248",
"#.	c #E6A039",
"$.	c #AE7A28",
"%.	c #D7C6F0",
"&.	c #E4D7F3",
"*.	c #680000",
"=.	c #BF1717",
"-.	c #FBEAF7",
";.	c #CD3A4A",
">.	c #C0485D",
",.	c #EAE9D9",
"'.	c #DFA95A",
").	c #FBB54D",
"!.	c #BA8F47",
"~.	c #794E62",
"{.	c #A54C61",
"].	c #E1D6F3",
"^.	c #820000",
"/.	c #B70909",
"(.	c #F4E1F5",
"_.	c #F1E0F5",
":.	c #F4DFC0",
"<.	c #D0902F",
"[.	c #B68940",
"}.	c #B29BC1",
"|.	c #D1C3E5",
"1.	c #E0D9F5",
"2.	c #DFD4F3",
"3.	c #890000",
"4.	c #B60808",
"5.	c #F7E9F7",
"6.	c #C13B4F",
"7.	c #B4B09D",
"8.	c #94938F",
"9.	c #EFE9DF",
"0.	c #B09A6A",
"a.	c #6C374A",
"b.	c #82475F",
"c.	c #97394C",
"d.	c #DDD4F3",
"e.	c #860000",
"f.	c #B40808",
"g.	c #F5E7F7",
"h.	c #EFDFF5",
"i.	c #443C2E",
"j.	c #716F60",
"k.	c #C9B7CC",
"l.	c #D7CADC",
"m.	c #CDBDD7",
"n.	c #E0D7EE",
"o.	c #DDD6F5",
"p.	c #DBD6F5",
"q.	c #DBD3F3",
"r.	c #8C0000",
"s.	c #F1E1F5",
"t.	c #C62D3E",
"u.	c #B8384E",
"v.	c #A64661",
"w.	c #905879",
"x.	c #E9E1F7",
"y.	c #8A4F6D",
"z.	c #864B68",
"A.	c #79445E",
"B.	c #754058",
"C.	c #D9D1F3",
"D.	c #B30909",
"E.	c #F6EDF9",
"F.	c #F3EBF9",
"G.	c #F1EAF9",
"H.	c #F1E9F9",
"I.	c #EFE9F9",
"J.	c #EDE8F9",
"K.	c #E7E1F7",
"L.	c #E5E1F7",
"M.	c #DDD8F5",
"N.	c #D1CEF3",
"O.	c #D2CAF3",
"P.	c #900000",
"Q.	c #AD0D0D",
"R.	c #AB0000",
"S.	c #A40000",
"T.	c #A20000",
"U.	c #A70000",
"V.	c #A00000",
"W.	c #9B0000",
"X.	c #9D0000",
"Y.	c #9E0000",
"  . + @ @ # $ % & * * = - ;         ",
"  > , , , , , , , , , ' ) ! ~       ",
"  { , , , , , , ] ^ ^ ' / ) ! ( _   ",
"  : , < < [ } | 1 2 2 ! ! ! 3 4 5   ",
"  { , , , , , , ] ^ ^ 6 7 8 9 0 a   ",
"  : , < < [ } | 1 2 2 2 b c d e f   ",
"  g , , , , h 1 i j ' k l m n o     ",
"  p , q q r s t j u v w x y z A     ",
"  B , h h 1 C D E F G H I J K L     ",
"  M N O O P Q R S T H U V W K L     ",
"  X Y Z Z `  ...+.@.#.$.%.%.&.*.    ",
"  =.-.;.;.>.,.'.).#.!.~.{.{.].^.    ",
"  /.Z (.(._., :.<.[.}.|.1.1.2.3.    ",
"  4.5.6.6.7.8.9.0.a.b.c.c.c.d.e.    ",
"  f.g.h.h.i.j.k.l.m.n.o.p.p.q.r.    ",
"  4.s.t.t.u.v.w.x.y.z.A.B.B.C.r.    ",
"  D.E.F.F.G.H.I.J.K.L.M.N.N.O.P.    ",
"  Q.R.R.R.S.T.U.S.T.V.W.W.W.X.Y.    "};
