/* XPM */
static char * image_fuzzy_18_xpm[] = {
"18 18 57 1",
" 	c #CBDDE5",
".	c #A7C4D3",
"+	c #9EBECE",
"@	c #94B7C9",
"#	c #88AFC3",
"$	c #7BA6BD",
"%	c #6994AB",
"&	c #B0CAD7",
"*	c #5A90AD",
"=	c #48738B",
"-	c #6A9BB5",
";	c #82ABC1",
">	c #86AEC3",
",	c #7EA8BF",
"'	c #9CC1CC",
")	c #FFFFFF",
"!	c #F1F2FA",
"~	c #E4E6F5",
"{	c #CFD1ED",
"]	c #C6C8E9",
"^	c #B6B9E3",
"/	c #A3A8DC",
"(	c #CCCCCC",
"_	c #72A7B6",
":	c #A3A8DD",
"<	c #6F77C9",
"[	c #595FA1",
"}	c #8FA8C6",
"|	c #8C92D4",
"1	c #C7D3E6",
"2	c #D4E1E9",
"3	c #505691",
"4	c #5C92AF",
"5	c #82A8C2",
"6	c #C4D7E2",
"7	c #DFE1F3",
"8	c #B5B9E4",
"9	c #484E83",
"0	c #979DD8",
"a	c #D3E1E9",
"b	c #747CCB",
"c	c #E2E4F4",
"d	c #414676",
"e	c #6395B2",
"f	c #6F9EB8",
"g	c #7AA6BD",
"h	c #8BB1C5",
"i	c #E0EAF0",
"j	c #D8D9F1",
"k	c #E0E2F3",
"l	c #E9EAF7",
"m	c #F3F4FA",
"n	c #3B3F6A",
"o	c #7E8CC5",
"p	c #3A3E69",
"q	c #34385F",
"r	c #303357",
" ...+++@@@@####$$%",
"&****************=",
".****************=",
".********-;>>;;,,=",
".*******'))!~{]^/(",
"+******_)):<<<<<<[",
"+******})|<<<<<<<[",
"+******1)<<<<<<<<[",
"@****2)))))<<<<<<3",
"@***4$567||<<<<<<3",
"#******)8<<<<<<<<9",
"#******)|<<<<0))<9",
"$****;a)b<<<|c<<<d",
"$efghi)|<<<<:))c<d",
")jklm)|<<<<<|c<<<n",
"|<<<<<<<<<<<<0))<n",
"|<<<<<<<<<<<<<<<<n",
"o3399ddnnnnddpqqqr"};
