/* XPM */
static char * image_classifier_16_xpm[] = {
"16 16 35 1",
" 	c #0000E6",
".	c #0000D0",
"+	c None",
"@	c #42D9FF",
"#	c #33D1FF",
"$	c #18C1FF",
"%	c #00A7FF",
"&	c #009CFF",
"*	c #0000BC",
"=	c #3BD0FF",
"-	c #2BCCFF",
";	c #22BFFF",
">	c #0000AA",
",	c #A6A6A6",
"'	c #0DA6FF",
")	c #0DBAFF",
"!	c #000099",
"~	c #0092FF",
"{	c #00B3FF",
"]	c #00008A",
"^	c #0089FF",
"/	c #00007D",
"(	c #008000",
"_	c #00BF00",
":	c #66D929",
"<	c #007400",
"[	c #55D522",
"}	c #006900",
"|	c #19C50A",
"1	c #43D01B",
"2	c #005F00",
"3	c #2FCB13",
"4	c #005600",
"5	c #004E00",
"6	c #004600",
"      ..++++++++",
".@#$%&&*++++++++",
"*=-; .*>++++++++",
">;;$% ,+++++++++",
">' %)%.,++++++++",
"!~. %{%.++++++++",
"]^>,.% ,++++++++",
"/!!+,.,+++++++++",
"+++++++++,(,+(((",
"++++++++,(_(,(:<",
"++++++++(_:_(<[}",
"++++++++,(_[|}12",
"+++++++++,(|1334",
"++++++++((<}3||5",
"++++++++(:[13|_6",
"++++++++<}245566"};
