/* XPM */
static char * image_new_lecture_from_text_16_xpm[] = {
"16 16 117 2",
"  	c None",
". 	c #ABB9D4",
"+ 	c #B9C5DD",
"@ 	c #B2BBD4",
"# 	c #A8B0CC",
"$ 	c #9FA5C3",
"% 	c #9499BC",
"& 	c #8B8EB4",
"* 	c #8283AC",
"= 	c #204880",
"- 	c #B1BBD5",
"; 	c #FFFFFF",
"> 	c #A8C0E0",
", 	c #ABB4CE",
"' 	c #A6AEC9",
") 	c #A0B0C8",
"! 	c #184880",
"~ 	c #A1A7C4",
"{ 	c #F9FCFF",
"] 	c #F5FAFF",
"^ 	c #9CA1BF",
"/ 	c #EAF5FF",
"( 	c #A2ABB8",
"_ 	c #5C5D85",
": 	c #274F8A",
"< 	c #A40000",
"[ 	c #264F8A",
"} 	c #DFEFFF",
"| 	c #99A6B8",
"1 	c #666793",
"2 	c #8AA8CF",
"3 	c #CC0000",
"4 	c #5D89C0",
"5 	c #8386A3",
"6 	c #9194B5",
"7 	c #767993",
"8 	c #91A2B8",
"9 	c #7172A3",
"0 	c #87A6CE",
"a 	c #608BC2",
"b 	c #C0D3E6",
"c 	c #CEE7FF",
"d 	c #CAE5FF",
"e 	c #C6E4FF",
"f 	c #C2DBFA",
"g 	c #7EA0CB",
"h 	c #BABDB6",
"i 	c #6E6F8E",
"j 	c #8788AE",
"k 	c #8081A5",
"l 	c #BDD9F9",
"m 	c #789BC8",
"n 	c #9BB5D8",
"o 	c #F2F5FA",
"p 	c #5E89C0",
"q 	c #A4BBD0",
"r 	c #C5E2FF",
"s 	c #C1E0FF",
"t 	c #BAE0FF",
"u 	c #B8D6F9",
"v 	c #7196C4",
"w 	c #4C7AB4",
"x 	c #565F67",
"y 	c #555753",
"z 	c #5A636B",
"A 	c #3E6DAB",
"B 	c #5A86BD",
"C 	c #656689",
"D 	c #76779F",
"E 	c #B5D5F9",
"F 	c #698FC0",
"G 	c #3465A4",
"H 	c #CDCDCD",
"I 	c #666969",
"J 	c #686B6B",
"K 	c #E9E9E9",
"L 	c #FEFEFE",
"M 	c #DFDFDF",
"N 	c #4270AD",
"O 	c #5581BA",
"P 	c #9DB6D0",
"Q 	c #BADDFF",
"R 	c #B4DAFF",
"S 	c #B0DAFF",
"T 	c #AFD2F9",
"U 	c #6189BC",
"V 	c #3566A5",
"W 	c #D2D2D2",
"X 	c #F6F6F6",
"Y 	c #D5D5D5",
"Z 	c #C2C2C2",
"` 	c #4574B0",
" .	c #4F7DB6",
"..	c #606186",
"+.	c #70719C",
"@.	c #6A6B94",
"#.	c #ABCFF9",
"$.	c #416BA3",
"%.	c #396AA7",
"&.	c #E8E8E8",
"*.	c #646665",
"=.	c #606261",
"-.	c #ABABAB",
";.	c #BEBEBE",
">.	c #4675B1",
",.	c #4977B2",
"'.	c #99B9D0",
").	c #B8E1FF",
"!.	c #B2DEFF",
"~.	c #ADDEFF",
"{.	c #AFD7FF",
"].	c #878B92",
"^.	c #244C88",
"/.	c #575955",
"(.	c #595B57",
"_.	c #244D88",
":.	c #17335A",
"      . + @ # $ % & * = = =     ",
"      - ; ; ; ; ; ; ; = > =     ",
"      , ; ; ; ; ; = = = > = = = ",
"      ' ; ' ' ' ' = > > > ) ) ! ",
"      ~ ; ; ; { ] = = = ) ! ! ! ",
"      ^ ; ^ ^ ^ ^ / ^ ! ) ! ( _ ",
": < < < < < < < < [ } ! ! ! | 1 ",
"2 3 3 3 3 3 3 3 3 4 5 6 5 7 8 9 ",
"0 ; ; ; ; ; ; ; ; a b c d e f 9 ",
"g ; h h h h h h ; a i j k k l 9 ",
"m n ; ; ; ; ; ; o p q r s t u 9 ",
"v w x y y y y z A B C D D D E 9 ",
"F G H I J K L M N O P Q R S T 9 ",
"U V W y y X Y Z `  ...+.+.@.#.9 ",
"$.%.&.*.=.H -.;.>.,.'.).!.~.{.9 ",
"].^./.(.(.(.(./._.:._ 9 9 9 9 9 "};
