/* XPM */
static char * image_lecture_add_random_example_16_xpm[] = {
"16 16 162 2",
"  	c None",
". 	c #BDD8E2",
"+ 	c #7CA1B3",
"@ 	c #6E9AB3",
"# 	c #6E9EBC",
"$ 	c #73A2BC",
"% 	c #799FB6",
"& 	c #85A2AF",
"* 	c #BCCED4",
"= 	c #DEEAED",
"- 	c #9AA1BD",
"; 	c #B9B6B8",
"> 	c #B2CDDA",
", 	c #476675",
"' 	c #32586C",
") 	c #325C75",
"! 	c #2F5D78",
"~ 	c #305D77",
"{ 	c #345A6F",
"] 	c #426170",
"^ 	c #4A6068",
"/ 	c #AABEC5",
"( 	c #B2C7E2",
"_ 	c #7C92BC",
": 	c #B7B4B5",
"< 	c #729BB4",
"[ 	c #35596E",
"} 	c #3E657B",
"| 	c #345D75",
"1 	c #376179",
"2 	c #3A6379",
"3 	c #B3D9E7",
"4 	c #C9E9F3",
"5 	c #3D5C6B",
"6 	c #7996A3",
"7 	c #DEE7F3",
"8 	c #6FBDF7",
"9 	c #5478B1",
"0 	c #B4B1B4",
"a 	c #6797B4",
"b 	c #355F78",
"c 	c #365E76",
"d 	c #32586D",
"e 	c #395E72",
"f 	c #3B6073",
"g 	c #B2D7EA",
"h 	c #9CC2D6",
"i 	c #395F74",
"j 	c #7FA5B8",
"k 	c #E7EBF5",
"l 	c #D1E0F1",
"m 	c #9CB6E0",
"n 	c #7172A3",
"o 	c #6D9DBB",
"p 	c #325F7A",
"q 	c #335C74",
"r 	c #3F6478",
"s 	c #A4C2CD",
"t 	c #AAC8D3",
"u 	c #406578",
"v 	c #30586F",
"w 	c #37647E",
"x 	c #719CB5",
"y 	c #7197D2",
"z 	c #72A0BC",
"A 	c #36627C",
"B 	c #365E75",
"C 	c #395E71",
"D 	c #98B8C2",
"E 	c #9CBBC5",
"F 	c #3D6376",
"G 	c #345E76",
"H 	c #33617C",
"I 	c #658391",
"J 	c #72739E",
"K 	c #B0C9EE",
"L 	c #7399B0",
"M 	c #375D72",
"N 	c #AED3E3",
"O 	c #B8DDF0",
"P 	c #3F6477",
"Q 	c #3D6276",
"R 	c #43697E",
"S 	c #335D75",
"T 	c #305A73",
"U 	c #5E8296",
"V 	c #C1D6EA",
"W 	c #CFE9FF",
"X 	c #CADFFA",
"Y 	c #7F9CA9",
"Z 	c #3F5D6C",
"` 	c #A8C8D3",
" .	c #A3C6D4",
"..	c #365F77",
"+.	c #3D647A",
"@.	c #33596D",
"#.	c #637E89",
"$.	c #797A9F",
"%.	c #9194B5",
"&.	c #C5DCFA",
"*.	c #C3D4DA",
"=.	c #576D76",
"-.	c #3C5B6A",
";.	c #30566B",
">.	c #33607A",
",.	c #305E79",
"'.	c #325D76",
").	c #34596D",
"!.	c #4C6B7A",
"~.	c #8FA6AF",
"{.	c #B2C9DE",
"].	c #204880",
"^.	c #BBCDD2",
"/.	c #7E9BA8",
"(.	c #769FB3",
"_.	c #6F9DB9",
":.	c #6F9FBC",
"<.	c #75A1BA",
"[.	c #799CAF",
"}.	c #90A6AF",
"|.	c #99A3A3",
"1.	c #8081A5",
"2.	c #A8C0E0",
"3.	c #8485AB",
"4.	c #BFC7CB",
"5.	c #B7C3CC",
"6.	c #B3BFCC",
"7.	c #AFBFCC",
"8.	c #ABBBCC",
"9.	c #A5B9CC",
"0.	c #A2B7CC",
"a.	c #8181A9",
"b.	c #EAF6FE",
"c.	c #FD0202",
"d.	c #EE0E13",
"e.	c #DA1C28",
"f.	c #CD2736",
"g.	c #CAE5FF",
"h.	c #B43C51",
"i.	c #A0B0C8",
"j.	c #184880",
"k.	c #7C7DA8",
"l.	c #E4F3FE",
"m.	c #DBEEFF",
"n.	c #D4EAFF",
"o.	c #CEE6FF",
"p.	c #C4E2FF",
"q.	c #C1E0FF",
"r.	c #7677A4",
"s.	c #E0F1FE",
"t.	c #C0E0FF",
"u.	c #70719C",
"v.	c #7374A3",
"w.	c #E0F5FF",
"x.	c #D5EFFF",
"y.	c #D1EDFF",
"z.	c #CCEBFF",
"A.	c #C8E9FF",
"B.	c #C1E5FF",
"C.	c #BCE3FF",
"D.	c #B8E1FF",
"E.	c #B2DEFF",
"  . + @ # $ % & * = - ;         ",
"> , ' ) ! ~ { ] ^ / ( _ :       ",
"< [ } | 1 2 3 4 5 6 7 8 9 0     ",
"a b c d e f g h i j k l m n     ",
"o p q r s t u v w x y y y n     ",
"z A B C D E F G H I J n K n     ",
"L M N O P Q R S T U V W X n     ",
"Y Z `  .B S ..+.@.#.$.%.&.n     ",
"*.=.-.;.>.,.'.).!.~.{.].].].    ",
"  ^./.(._.:.<.[.}.|.1.].2.].    ",
"  3.4.5.6.7.8.9.0.].].].2.].].].",
"  a.b.c.d.e.f.g.h.].2.2.2.i.i.j.",
"  k.l.m.n.o.g.p.q.].].].i.j.j.j.",
"  r.s.r.r.r.r.t.r.u.u.j.i.j.    ",
"  v.w.x.y.z.A.B.C.D.E.j.j.j.    ",
"  n n n n n n n n n n n n n     "};
