/* XPM */
static char * image_new_from_fcl_18_xpm[] = {
"18 18 131 2",
"  	c None",
". 	c #204880",
"+ 	c #787860",
"@ 	c #707860",
"# 	c #A8C0E0",
"$ 	c #E0E0D8",
"% 	c #F0F0E0",
"& 	c #E8F0E0",
"* 	c #E8E8E0",
"= 	c #D0D0B0",
"- 	c #E8E8D8",
"; 	c #A0B0C8",
"> 	c #184880",
", 	c #C8D0A8",
"' 	c #D8D8B8",
") 	c #E0E8D0",
"! 	c #575856",
"~ 	c #A5A8A1",
"{ 	c #B1B4AE",
"] 	c #B1B4AD",
"^ 	c #B0B3AC",
"/ 	c #AFB2AC",
"( 	c #AFB2AB",
"_ 	c #AAADA6",
": 	c #898B87",
"< 	c #535352",
"[ 	c #788060",
"} 	c #A2A59E",
"| 	c #EDEEEC",
"1 	c #FEFEFE",
"2 	c #FAFAF9",
"3 	c #E6E7E5",
"4 	c #AEB1AB",
"5 	c #6A6C69",
"6 	c #A9ACA5",
"7 	c #F2F3F2",
"8 	c #EFF0ED",
"9 	c #EBEDE9",
"0 	c #E8EAE5",
"a 	c #E4E6E1",
"b 	c #E3E5E0",
"c 	c #D8D8D6",
"d 	c #FDFDFD",
"e 	c #B8BAB5",
"f 	c #666864",
"g 	c #E0E0D0",
"h 	c #A4A7A1",
"i 	c #9999BE",
"j 	c #9494BA",
"k 	c #BCBCBC",
"l 	c #FFFFFF",
"m 	c #FDFDFC",
"n 	c #A5A7A2",
"o 	c #4B4C4B",
"p 	c #D8D8C8",
"q 	c #9FA29C",
"r 	c #F1F2F0",
"s 	c #EDEEEB",
"t 	c #E9EBE6",
"u 	c #E6E9E4",
"v 	c #BFC2BC",
"w 	c #A9ACA7",
"x 	c #B1B1B0",
"y 	c #D6D7D5",
"z 	c #7C7D79",
"A 	c #D0D8B8",
"B 	c #D8E0C8",
"C 	c #D0D0C0",
"D 	c #808060",
"E 	c #9B9D97",
"F 	c #FEFEFD",
"G 	c #9797BD",
"H 	c #D3D3D3",
"I 	c #CECFCE",
"J 	c #CCD0CA",
"K 	c #D9DAD8",
"L 	c #91938D",
"M 	c #D8E0C0",
"N 	c #C0C8B0",
"O 	c #969892",
"P 	c #FDFEFD",
"Q 	c #F9F9F9",
"R 	c #FBFBF9",
"S 	c #FAFBF9",
"T 	c #F7F8F7",
"U 	c #F7F7F6",
"V 	c #F6F6F4",
"W 	c #F9F9F7",
"X 	c #F9F9F8",
"Y 	c #8E908B",
"Z 	c #B8B898",
"` 	c #91938E",
" .	c #9696BC",
"..	c #9596BB",
"+.	c #898B86",
"@.	c #A8A890",
"#.	c #797B76",
"$.	c #F5F5F5",
"%.	c #F4F4F4",
"&.	c #F9FAF9",
"*.	c #F4F5F3",
"=.	c #F3F4F2",
"-.	c #72746F",
";.	c #E0E0E0",
">.	c #A0A088",
",.	c #747671",
"'.	c #ABACD0",
").	c #ACACD1",
"!.	c #ACADD2",
"~.	c #ADAED2",
"{.	c #F7F8F6",
"].	c #F8F8F7",
"^.	c #F8F9F7",
"/.	c #6D6F6A",
"(.	c #6E706B",
"_.	c #EDEDEC",
":.	c #F1F1F0",
"<.	c #686A67",
"[.	c #444443",
"}.	c #696C67",
"|.	c #6A6C67",
"1.	c #696B67",
"2.	c #686B66",
"3.	c #686A65",
"4.	c #676965",
"5.	c #666964",
"6.	c #666863",
"7.	c #656763",
"8.	c #656762",
"9.	c #656764",
"0.	c #434442",
"                                    ",
"                        . . .       ",
"    + @ @ @ + @         . # .       ",
"  + $ % & * * @     . . . # . . .   ",
"  @ & = = = - @ @ @ . # # # ; ; >   ",
"  @ * = , , ' - - ) . . . ; > > >   ",
"! ~ { ] ^ / ( _ : < @ @ > ; > + [   ",
"} | 1 1 1 1 1 2 3 4 5 % > > > & +   ",
"6 1 7 8 9 0 a b c d e f g g $ * [   ",
"h 1 i j j j j j k l m n o p g g [   ",
"q 1 r 8 s 9 t u v w x y z A B C D   ",
"E F G j j j j j H I J K L = M N [   ",
"O P Q R S T U Q V W X 1 Y , M Z +   ",
"` P  .j j j j j j j ..1 +., B @.    ",
"#.1 $.%.%.%.$.X &.*.=.l -.;.;.>.    ",
",.1 '.).!.~.{.].^.^.].l /.@ @ [     ",
"(._.l l l l l l l l l :.<.          ",
"[.}.|.1.2.3.4.5.6.7.8.9.0.          "};
