/* XPM */
static char * image_lecture_add_example_18_xpm[] = {
"18 18 102 2",
"  	c None",
". 	c #ABB9D4",
"+ 	c #B9C5DD",
"@ 	c #B2BBD4",
"# 	c #A8B0CC",
"$ 	c #9FA5C3",
"% 	c #9499BC",
"& 	c #8B8EB4",
"* 	c #8283AC",
"= 	c #7D7DA8",
"- 	c #9AA1BD",
"; 	c #B9B6B8",
"> 	c #B1BBD5",
", 	c #FFFFFF",
"' 	c #7197D2",
") 	c #B2C7E2",
"! 	c #7C92BC",
"~ 	c #B7B4B5",
"{ 	c #ABB4CE",
"] 	c #F9FDFF",
"^ 	c #F6FBFF",
"/ 	c #DEE7F3",
"( 	c #6FBDF7",
"_ 	c #5478B1",
": 	c #B4B1B4",
"< 	c #A6AEC9",
"[ 	c #F5FAFF",
"} 	c #E7EBF5",
"| 	c #D1E0F1",
"1 	c #9CB6E0",
"2 	c #7172A3",
"3 	c #A1A7C4",
"4 	c #F9FCFF",
"5 	c #F0F8FF",
"6 	c #EAF5FF",
"7 	c #9CA1BF",
"8 	c #8788AE",
"9 	c #B0C9EE",
"0 	c #979AB9",
"a 	c #F0F7FF",
"b 	c #E9F5FF",
"c 	c #E5F2FF",
"d 	c #DFEFFF",
"e 	c #DCEEFF",
"f 	c #D6EAFF",
"g 	c #CFE9FF",
"h 	c #CADFFA",
"i 	c #9194B5",
"j 	c #FDFFFF",
"k 	c #C5DCFA",
"l 	c #8C8EB2",
"m 	c #F9FDFE",
"n 	c #EFF8FF",
"o 	c #E5F3FF",
"p 	c #DBEEFF",
"q 	c #D5EAFF",
"r 	c #CEE7FF",
"s 	c #CAE5FF",
"t 	c #C6E4FF",
"u 	c #C2DBFA",
"v 	c #F4FBFE",
"w 	c #8081A5",
"x 	c #BDD9F9",
"y 	c #8485AB",
"z 	c #204880",
"A 	c #8181A9",
"B 	c #F50919",
"C 	c #F20D1F",
"D 	c #EC122C",
"E 	c #E51938",
"F 	c #E21B3E",
"G 	c #DF1E3E",
"H 	c #DC2247",
"I 	c #D6234C",
"J 	c #C5326C",
"K 	c #A8C0E0",
"L 	c #7C7DA8",
"M 	c #7677A4",
"N 	c #E0F1FE",
"O 	c #C0E0FF",
"P 	c #A0B0C8",
"Q 	c #7374A3",
"R 	c #E0F5FF",
"S 	c #D5EFFF",
"T 	c #D1EDFF",
"U 	c #CCEBFF",
"V 	c #C8E9FF",
"W 	c #C1E5FF",
"X 	c #B2D7F2",
"Y 	c #AED2F1",
"Z 	c #184880",
"` 	c #70719C",
" .	c #6A6B94",
"..	c #5F6084",
"+.	c #B0D4F1",
"@.	c #ACD1F0",
"#.	c #9FC5E3",
"$.	c #6667A0",
"%.	c #616298",
"&.	c #5B5C8E",
"*.	c #575886",
"=.	c #575887",
"  . + @ @ # $ % & * * = - ;         ",
"  > , , , , , , , , , ' ) ! ~       ",
"  { , , , , , , ] ^ ^ ' / ( _ :     ",
"  < , < < < < < [ < < ' } | 1 2     ",
"  3 , , , , 4 [ 5 6 6 ' ' ' ' 2     ",
"  7 , 7 7 7 7 7 6 7 7 8 2 2 9 2     ",
"  0 , 4 4 [ a b c d d e f g h 2     ",
"  i j i i i i i d i i i i i k 2     ",
"  l m n n 6 o d p q q r s t u 2     ",
"  8 v 8 8 8 8 8 q 8 8 8 w w x 2     ",
"  y , , , , , , , , , , , z z z     ",
"  A , B C D E F , G H I J z K z     ",
"  L , , , , , , , , , z z z K z z z ",
"  M N M M M M M O M M z K K K P P z ",
"  Q R S S T U V W X Y z z z P Z Z z ",
"  M N M M M M M O ` `  ...Z P Z     ",
"  Q R S S T U V W X +.@.#.Z Z Z     ",
"  2 2 2 2 2 2 $.$.%.%.%.&.*.*.=.    "};
