/* XPM */
static char * image_has_not_out_xpm[] = {
"16 16 136 2",
"  	c None",
". 	c #9E94E4",
"+ 	c #4E5588",
"@ 	c #9898E8",
"# 	c #8080D8",
"$ 	c #6858B8",
"% 	c #8888E0",
"& 	c #7878D8",
"* 	c #5858A8",
"= 	c #383860",
"- 	c #A0A0E8",
"; 	c #404068",
"> 	c #808090",
", 	c #383050",
"' 	c #7070A8",
") 	c #6868B0",
"! 	c #F0F0F0",
"~ 	c #B0B0B8",
"{ 	c #C8C0D0",
"] 	c #666699",
"^ 	c #8888D0",
"/ 	c #484878",
"( 	c #888890",
"_ 	c #E0E0E8",
": 	c #E0E0E0",
"< 	c #A8A8A8",
"[ 	c #D0D0D0",
"} 	c #FFFFFF",
"| 	c #707070",
"1 	c #9898A0",
"2 	c #8888C0",
"3 	c #505088",
"4 	c #A8A8B8",
"5 	c #C8C8C8",
"6 	c #605860",
"7 	c #7880B8",
"8 	c #485080",
"9 	c #38C058",
"0 	c #28D850",
"a 	c #008000",
"b 	c #D0D0D8",
"c 	c #9090B8",
"d 	c #586088",
"e 	c #C0C0C0",
"f 	c #B8B8B8",
"g 	c #4BAF56",
"h 	c #48AE49",
"i 	c #3BBA46",
"j 	c #41B448",
"k 	c #34AB23",
"l 	c #E8E8E8",
"m 	c #01B700",
"n 	c #3EB642",
"o 	c #42B343",
"p 	c #39B73D",
"q 	c #20D038",
"r 	c #1DB316",
"s 	c #10AA0B",
"t 	c #099E06",
"u 	c #949799",
"v 	c #8E908D",
"w 	c #686967",
"x 	c #505850",
"y 	c #2FAD16",
"z 	c #39AF20",
"A 	c #49AC37",
"B 	c #57A13F",
"C 	c #5B9F42",
"D 	c #39B130",
"E 	c #30BF1C",
"F 	c #2BA820",
"G 	c #2CAB21",
"H 	c #2CA321",
"I 	c #36BA2C",
"J 	c #41AE2F",
"K 	c #26B10E",
"L 	c #18A800",
"M 	c #41AB28",
"N 	c #36AA1C",
"O 	c #24B511",
"P 	c #3BB321",
"Q 	c #49AB2E",
"R 	c #45B12B",
"S 	c #38B922",
"T 	c #38B923",
"U 	c #38B428",
"V 	c #31AB21",
"W 	c #39A827",
"X 	c #30AC20",
"Y 	c #52A03A",
"Z 	c #4BA339",
"` 	c #4DA336",
" .	c #48A531",
"..	c #48A731",
"+.	c #569C3D",
"@.	c #54A339",
"#.	c #3DAD27",
"$.	c #45AE2A",
"%.	c #45AD2B",
"&.	c #40B12B",
"*.	c #34BC1F",
"=.	c #39B724",
"-.	c #37A926",
";.	c #4D9D37",
">.	c #48A033",
",.	c #44A32E",
"'.	c #3DB11E",
").	c #48AE2A",
"!.	c #46AC2C",
"~.	c #3EAC28",
"{.	c #3FB121",
"].	c #45B127",
"^.	c #4BAD2D",
"/.	c #55A438",
"(.	c #57A03B",
"_.	c #39A62A",
":.	c #2BAC20",
"<.	c #3AA62B",
"[.	c #2BAF1C",
"}.	c #41AC27",
"|.	c #48A631",
"1.	c #3DAF24",
"2.	c #49A832",
"3.	c #50A438",
"4.	c #49A932",
"5.	c #41AE2B",
"6.	c #4BA630",
"7.	c #3CB422",
"8.	c #44A92D",
"9.	c #4FA137",
"0.	c #4DA635",
"a.	c #3ABA21",
"b.	c #35B621",
"c.	c #36B621",
"d.	c #3AB620",
"e.	c #41AE2A",
"        . +                     ",
"      @ @ # $                   ",
"    @ % % & * =                 ",
"  - @ # & * ; > ,               ",
"' @ @ # ) ; > ! ~ =             ",
"{ ] ^ ) / ( ! _ : < ,           ",
"[ } | 1 ! ! 2 3 4 5 6           ",
"[ } } } } _ 7 8 ~ 5 6 9 0 0     ",
"a b } } ! _ c d e f 6 g h i j   ",
"k a 5 } l : b e < a a m n o p q ",
"r s t u v w x a a y z A B C D E ",
"F G H I J K L M N O P Q R S T U ",
"V W X Y Z `  ...+.@.#.$.%.&.*.=.",
"  -.;.>.,.'.).!.~.~.{.].^./.(.  ",
"    _.:.<.[.}.|.1.2.3.4.5.6.7.  ",
"          k 8.9.0.a.b.c.d.e.    "};
