/* XPM */
static char * image_classifier_view_16_xpm[] = {
"16 16 113 2",
"  	c #0000E6",
". 	c #0000D0",
"+ 	c #5B5F5F",
"@ 	c #3F4446",
"# 	c #4C5152",
"$ 	c #9A9E9E",
"% 	c None",
"& 	c #42D9FF",
"* 	c #33D1FF",
"= 	c #18C1FF",
"- 	c #00A7FF",
"; 	c #009CFF",
"> 	c #B3B3B3",
", 	c #898C8B",
"' 	c #C3C6C1",
") 	c #DBDCD8",
"! 	c #D5D7D3",
"~ 	c #B7B9B7",
"{ 	c #6F7375",
"] 	c #0000BC",
"^ 	c #3BD0FF",
"/ 	c #2BCCFF",
"( 	c #22BFFF",
"_ 	c #999999",
": 	c #D9DCD5",
"< 	c #E3E5E0",
"[ 	c #E9EAE7",
"} 	c #EAEBE8",
"| 	c #EBECE9",
"1 	c #E5E5E4",
"2 	c #9EA1A0",
"3 	c #0000AA",
"4 	c #A4A7A4",
"5 	c #D6DAD2",
"6 	c #E6E7E3",
"7 	c #EEEEEC",
"8 	c #ECECEA",
"9 	c #D7E3EE",
"0 	c #E6E6E4",
"a 	c #717576",
"b 	c #0DA6FF",
"c 	c #929696",
"d 	c #C6D3F1",
"e 	c #C2D9F0",
"f 	c #EDEDEB",
"g 	c #B8BAB9",
"h 	c #8F9394",
"i 	c #000099",
"j 	c #0092FF",
"k 	c #787C7B",
"l 	c #B2C7F4",
"m 	c #81B6FB",
"n 	c #C2D2E3",
"o 	c #D5D7D4",
"p 	c #00008A",
"q 	c #0089FF",
"r 	c #A6A6A6",
"s 	c #717575",
"t 	c #7CBCFB",
"u 	c #8FD1F9",
"v 	c #AFDEF1",
"w 	c #C2D6EB",
"x 	c #00007D",
"y 	c #898C8C",
"z 	c #BED2D6",
"A 	c #9EDAF2",
"B 	c #D5ECD1",
"C 	c #AFB1B1",
"D 	c #EBEBE8",
"E 	c #A7E19F",
"F 	c #72CE6A",
"G 	c #ABD0C0",
"H 	c #606262",
"I 	c #008000",
"J 	c #747979",
"K 	c #98DF91",
"L 	c #4CC840",
"M 	c #4DC041",
"N 	c #499843",
"O 	c #6E9E69",
"P 	c #6C6C6C",
"Q 	c #7E7E7E",
"R 	c #007400",
"S 	c #8C8C8C",
"T 	c #727272",
"U 	c #606261",
"V 	c #D3D5D2",
"W 	c #63CF57",
"X 	c #3C9A32",
"Y 	c #33852C",
"Z 	c #4C4C4C",
"` 	c #55D522",
" .	c #006900",
"..	c #404544",
"+.	c #4F5252",
"@.	c #545757",
"#.	c #484A4A",
"$.	c #19C50A",
"%.	c #43D01B",
"&.	c #005F00",
"*.	c #595D5D",
"=.	c #525350",
"-.	c #2FCB13",
";.	c #005600",
">.	c #636667",
",.	c #4A4C4A",
"'.	c #004E00",
").	c #54595B",
"!.	c #464A48",
"~.	c #66D929",
"{.	c #00BF00",
"].	c #004600",
"^.	c #929495",
"            . . + @ # $ % % % % ",
". & * = - ; > , ' ) ! ~ { > % % ",
"] ^ / (   > _ : < [ } | 1 2 > % ",
"3 ( ( = - 4 5 6 7 8 8 9 7 0 a % ",
"3 b   - c d e 7 7 8 f e 9 | g h ",
"i j .   k l m e 7 8 8 9 n } o # ",
"p q 3 r s e t u v 8 8 9 w [ ) @ ",
"x i i % y z e A 7 8 B e e < ' + ",
"% % % % % C D f 7 E F G 6 : H I ",
"% % % % % J 8 D K L M N O P Q R ",
"% % % S T U J C V W X Y Z Q `  .",
"% % S + ..Q % % H +.@.#.$. .%.&.",
"% S *.=.+ S % % % r I $.%.-.-.;.",
"S >.,.*.S % % % I I R  .-.$.$.'.",
").!.>.S % % % % I ~.` %.-.$.{.].",
"^.).S % % % % % R  .&.;.'.'.].]."};
