/* XPM */
static char * image_feature_copy_16_xpm[] = {
"16 16 146 2",
"  	c None",
". 	c #E4B813",
"+ 	c #4E8C4A",
"@ 	c #E0AD0D",
"# 	c #C79508",
"$ 	c #FFF02F",
"% 	c #FFF433",
"& 	c #FFF130",
"* 	c #2C9516",
"= 	c #56884E",
"- 	c #FFE01F",
"; 	c #FFDC1B",
"> 	c #398E33",
", 	c #0A9106",
"' 	c #4F7D4A",
") 	c #F2F2F2",
"! 	c #808080",
"~ 	c #FFFF87",
"{ 	c #E6D06A",
"] 	c #4EB327",
"^ 	c #38991F",
"/ 	c #448537",
"( 	c #2CA217",
"_ 	c #2CAF17",
": 	c #1AA60E",
"< 	c #158113",
"[ 	c #E6E6E6",
"} 	c #669760",
"| 	c #68CD38",
"1 	c #61C631",
"2 	c #56C32B",
"3 	c #49BD25",
"4 	c #36B41C",
"5 	c #2AAE16",
"6 	c #12920A",
"7 	c #569B48",
"8 	c #7CE149",
"9 	c #6DD23A",
"0 	c #65CB33",
"a 	c #53C129",
"b 	c #40B220",
"c 	c #17810E",
"d 	c #1C491A",
"e 	c #FFE928",
"f 	c #49A733",
"g 	c #82E750",
"h 	c #7BDF48",
"i 	c #66CB36",
"j 	c #31871A",
"k 	c #23571F",
"l 	c #99810D",
"m 	c #AA8F1A",
"n 	c #FFFF82",
"o 	c #FFFF79",
"p 	c #FFF86C",
"q 	c #FFF160",
"r 	c #6B4A29",
"s 	c #43873B",
"t 	c #56BB36",
"u 	c #81E64F",
"v 	c #78DD45",
"w 	c #25641D",
"x 	c #47311B",
"y 	c #583C21",
"z 	c #FFFB7B",
"A 	c #FFF871",
"B 	c #FFF065",
"C 	c #FFE548",
"D 	c #D0BC33",
"E 	c #287421",
"F 	c #49A32C",
"G 	c #52B035",
"H 	c #D0AF19",
"I 	c #FFD716",
"J 	c #D9D9D9",
"K 	c #737373",
"L 	c #FFF26E",
"M 	c #FEEF66",
"N 	c #FFEE60",
"O 	c #FFEF55",
"P 	c #FFE64A",
"Q 	c #FFE73D",
"R 	c #E6CA30",
"S 	c #D0B526",
"T 	c #2A7423",
"U 	c #ABA53D",
"V 	c #FFD71F",
"W 	c #CCCCCC",
"X 	c #595959",
"Y 	c #FFF26F",
"Z 	c #FFF067",
"` 	c #FFF05E",
" .	c #FFEB57",
"..	c #FFE344",
"+.	c #FFE13E",
"@.	c #FFE037",
"#.	c #FFDC2F",
"$.	c #E6C722",
"%.	c #BFBFBF",
"&.	c #404040",
"*.	c #FFF266",
"=.	c #FFEB63",
"-.	c #FFE443",
";.	c #FFDF37",
">.	c #FFDC24",
",.	c #B3B3B3",
"'.	c #FEF073",
").	c #FFF164",
"!.	c #FFEC5E",
"~.	c #FFE85B",
"{.	c #FFE84D",
"].	c #FFE640",
"^.	c #FEE43A",
"/.	c #FFDD2F",
"(.	c #FFDD26",
"_.	c #FFD51C",
":.	c #FED21B",
"<.	c #FFD10E",
"[.	c #999999",
"}.	c #8C8C8C",
"|.	c #FFF36B",
"1.	c #FEED6B",
"2.	c #FFEF63",
"3.	c #FFEB55",
"4.	c #000000",
"5.	c #FEEA45",
"6.	c #FFE240",
"7.	c #FFDA2C",
"8.	c #FEDF25",
"9.	c #FFD515",
"0.	c #FFF477",
"a.	c #FFF56E",
"b.	c #FFEE5F",
"c.	c #FFE744",
"d.	c #FEE03C",
"e.	c #FFDD29",
"f.	c #FFD00E",
"g.	c #FDF482",
"h.	c #FEF778",
"i.	c #FEF26C",
"j.	c #FDF161",
"k.	c #FFEE54",
"l.	c #FEEA4A",
"m.	c #FEE12D",
"n.	c #FDD11A",
"o.	c #FFD10B",
"          . . . . + . . @ @ @ # ",
"          . $ % & * = - ; > , ' ",
"          ) ! ~ { ] ^ / ( _ : < ",
"          [ [ ! } | 1 2 3 4 5 6 ",
". . . . . . . @ 7 8 9 0 a b c d ",
". $ % & $ e - ; f g h i j k l m ",
") ! ~ n o p q r s t u v w x y r ",
"[ [ ! z A B r r C D E F G H I r ",
"J J K L M N O r P Q R S T U r V ",
"W W X Y Z `  .r ..+.@.#.$.x I V ",
"%.%.&.Y *.=.r r r -.;.#.>.r r r ",
",.,.&.'.).!.~.{.C ].^./.(._.:.<.",
"[.}.&.|.1.2.3.4.5.6.^.7.8.4.9.<.",
"}.&.0.a.4.b.3.4.c.d.4.#.e.4.9.f.",
"4.g.h.i.4.j.k.4.l.Q 4.m.>.4.n.o.",
"4.4.4.4.4.4.4.4.4.4.4.4.4.4.4.4."};
