/* XPM */
static char * image_delete_16_xpm[] = {
"16 16 25 1",
" 	c None",
".	c #800000",
"+	c #FF5830",
"@	c #FF5028",
"#	c #FF4018",
"$	c #FF3008",
"%	c #FF1800",
"&	c #144A57",
"*	c #004800",
"=	c #48B818",
"-	c #40B018",
";	c #28A010",
">	c #38B010",
",	c #20A008",
"'	c #109000",
")	c #3F3F00",
"!	c #DAEE2B",
"~	c #C6D01F",
"{	c #B3C92B",
"]	c #C6D01E",
"^	c #AFC235",
"/	c #849039",
"(	c #ACC028",
"_	c #8D9533",
":	c #6F7434",
".....           ",
".++@.           ",
".@#$.           ",
".$$%.           ",
".....           ",
"  &             ",
"  &   *****  &  ",
"  &   *===*  && ",
"  &   *=-;*  &&&",
"  &   *>,'*  && ",
"  &   *****  &  ",
")))))           ",
")!~{)           ",
")]^/)           ",
")(_:)           ",
")))))           "};
