/* XPM */
static char * image_new_feature_16_xpm[] = {
"16 16 118 2",
"  	c None",
". 	c #204880",
"+ 	c #A8C0E0",
"@ 	c #E4B813",
"# 	c #E0AD0D",
"$ 	c #FFF02F",
"% 	c #FFF433",
"& 	c #FFF130",
"* 	c #FFE928",
"= 	c #FFE01F",
"- 	c #FFDC1B",
"; 	c #FFDA19",
"> 	c #A0B0C8",
", 	c #184880",
"' 	c #FFFF94",
") 	c #FFFF89",
"! 	c #FFFF81",
"~ 	c #FFFD6E",
"{ 	c #FFF25A",
"] 	c #FFF056",
"^ 	c #FFE546",
"/ 	c #F2F2F2",
"( 	c #808080",
"_ 	c #FFFF87",
": 	c #FFFF82",
"< 	c #FFFF79",
"[ 	c #FFF86C",
"} 	c #FFF160",
"| 	c #6B4A29",
"1 	c #FFE648",
"2 	c #FFE23F",
"3 	c #FFE03A",
"4 	c #E6E6E6",
"5 	c #FFFB7B",
"6 	c #FFF871",
"7 	c #FFF065",
"8 	c #FFE548",
"9 	c #FFE63F",
"0 	c #FFE13B",
"a 	c #FFD716",
"b 	c #D9D9D9",
"c 	c #737373",
"d 	c #FFF26E",
"e 	c #FEEF66",
"f 	c #FFEE60",
"g 	c #FFEF55",
"h 	c #FFE64A",
"i 	c #FFE73D",
"j 	c #FFE035",
"k 	c #FFDF2E",
"l 	c #FFDB27",
"m 	c #FFD822",
"n 	c #FFD71F",
"o 	c #CCCCCC",
"p 	c #595959",
"q 	c #FFF26F",
"r 	c #FFF067",
"s 	c #FFF05E",
"t 	c #FFEB57",
"u 	c #FFE344",
"v 	c #FFE13E",
"w 	c #FFE037",
"x 	c #FFDC2F",
"y 	c #FFDD26",
"z 	c #BFBFBF",
"A 	c #404040",
"B 	c #FFF266",
"C 	c #FFEB63",
"D 	c #FFE443",
"E 	c #FFDF37",
"F 	c #FFDC24",
"G 	c #B3B3B3",
"H 	c #FEF073",
"I 	c #FFF164",
"J 	c #FFEC5E",
"K 	c #FFE85B",
"L 	c #FFE84D",
"M 	c #FFE640",
"N 	c #FEE43A",
"O 	c #FFDD2F",
"P 	c #FFD51C",
"Q 	c #FED21B",
"R 	c #FFD10E",
"S 	c #A6A6A6",
"T 	c #FFF271",
"U 	c #FFED60",
"V 	c #FFEE58",
"W 	c #000000",
"X 	c #FEEA45",
"Y 	c #FFE33D",
"Z 	c #FFDD29",
"` 	c #FFD61B",
" .	c #FFD211",
"..	c #999999",
"+.	c #8C8C8C",
"@.	c #FFF36B",
"#.	c #FEED6B",
"$.	c #FFEF63",
"%.	c #FFEB55",
"&.	c #FFE240",
"*.	c #FFDA2C",
"=.	c #FEDF25",
"-.	c #FFD515",
";.	c #FFF477",
">.	c #FFF56E",
",.	c #FFEE5F",
"'.	c #FFE744",
").	c #FEE03C",
"!.	c #FFD00E",
"~.	c #FDF482",
"{.	c #FEF778",
"].	c #FEF26C",
"^.	c #FDF161",
"/.	c #FFEE54",
"(.	c #FEEA4A",
"_.	c #FEE12D",
":.	c #FDD11A",
"<.	c #FFD10B",
"                      . . .     ",
"                      . + .     ",
"@ @ @ @ @ @ @ # # . . . + . . . ",
"@ $ % & $ * = - ; . + + + > > , ",
"@ ' ' ) ! ~ { ] ^ . . . > , , , ",
"/ ( _ : < [ } | 1 2 3 , > , | | ",
"4 4 ( 5 6 7 | | 8 9 0 , , , a | ",
"b b c d e f g | h i j k l m | n ",
"o o p q r s t | u v w x y | a n ",
"z z A q B C | | | D E x F | | | ",
"G G A H I J K L 8 M N O y P Q R ",
"S G A T r U V W X Y 3 O Z W `  .",
"..+.A @.#.$.%.W X &.N *.=.W -.R ",
"+.A ;.>.W ,.%.W '.).W x Z W -.!.",
"W ~.{.].W ^./.W (.i W _.F W :.<.",
"W W W W W W W W W W W W W W W W "};
