/* XPM */
static char * image_classifier_18_xpm[] = {
"18 18 41 1",
" 	c #0000E6",
".	c #0000D0",
"+	c None",
"@	c #42D9FF",
"#	c #33D1FF",
"$	c #18C1FF",
"%	c #00A7FF",
"&	c #009CFF",
"*	c #0000BC",
"=	c #3BD0FF",
"-	c #2BCCFF",
";	c #22BFFF",
">	c #0000AA",
",	c #A6A6A6",
"'	c #0DA6FF",
")	c #0DBAFF",
"!	c #000099",
"~	c #0092FF",
"{	c #00B3FF",
"]	c #00008A",
"^	c #0089FF",
"/	c #00007D",
"(	c #E8E8E8",
"_	c #D4D4D4",
":	c #FFFFFF",
"<	c #BCBCBC",
"[	c #999999",
"}	c #AAAAAA",
"|	c #008000",
"1	c #00BF00",
"2	c #66D929",
"3	c #007400",
"4	c #55D522",
"5	c #006900",
"6	c #19C50A",
"7	c #43D01B",
"8	c #005F00",
"9	c #2FCB13",
"0	c #005600",
"a	c #004E00",
"b	c #004600",
"      ..++++++++++",
".@#$%&&*++++++++++",
"*=-; .*>++++++++++",
">;;$% ,+++++++++++",
">' %)%.,++++++++++",
"!~. %{%.++++++++++",
"]^>,.% ,++++++++++",
"/!!+,.,+(_++++++++",
"+++++++(:(<+++++++",
"+++++++_([}+++++++",
"++++++++}[<,|,+|||",
"++++++++++,|1|,|23",
"++++++++++|121|345",
"++++++++++,|146578",
"+++++++++++,|67990",
"++++++++++||35966a",
"++++++++++|247961b",
"++++++++++3580aabb"};
