/* XPM */
static char * image_new_folder_16_xpm[] = {
"16 16 227 2",
"  	c None",
". 	c #000000",
"+ 	c #333333",
"@ 	c #666666",
"# 	c #999999",
"$ 	c #CCCCCC",
"% 	c #E0E0E0",
"& 	c #FFFFFF",
"* 	c #996666",
"= 	c #663333",
"- 	c #CC9999",
"; 	c #993333",
"> 	c #CC6666",
", 	c #CC3333",
"' 	c #330000",
") 	c #660000",
"! 	c #990000",
"~ 	c #CC0000",
"{ 	c #FF0000",
"] 	c #FF3333",
"^ 	c #FF6666",
"/ 	c #FF9999",
"( 	c #FFCCCC",
"_ 	c #FF3300",
": 	c #CC3300",
"< 	c #FF6633",
"[ 	c #CC6633",
"} 	c #993300",
"| 	c #FF9966",
"1 	c #FF6600",
"2 	c #996633",
"3 	c #CC9966",
"4 	c #663300",
"5 	c #CC6600",
"6 	c #FF9933",
"7 	c #FFCC99",
"8 	c #FF9900",
"9 	c #CC9933",
"0 	c #996600",
"a 	c #FFCC66",
"b 	c #CC9900",
"c 	c #FFCC33",
"d 	c #FFCC00",
"e 	c #787860",
"f 	c #A0A088",
"g 	c #E0E0D8",
"h 	c #A8A890",
"i 	c #808060",
"j 	c #D0D0C0",
"k 	c #E8E8E0",
"l 	c #D8D8C8",
"m 	c #B8B898",
"n 	c #999966",
"o 	c #E0E0D0",
"p 	c #D8D8C0",
"q 	c #D0D0B0",
"r 	c #E8E8D8",
"s 	c #E0E0C8",
"t 	c #D8D8B8",
"u 	c #666633",
"v 	c #CCCC99",
"w 	c #F0F0E0",
"x 	c #999933",
"y 	c #CCCC66",
"z 	c #CCCC33",
"A 	c #333300",
"B 	c #666600",
"C 	c #999900",
"D 	c #CCCC00",
"E 	c #FFFF00",
"F 	c #FFFF33",
"G 	c #FFFF66",
"H 	c #FFFF99",
"I 	c #FFFFCC",
"J 	c #C8D0A8",
"K 	c #CCFF00",
"L 	c #889070",
"M 	c #808868",
"N 	c #909878",
"O 	c #788060",
"P 	c #C8D0B0",
"Q 	c #D0D8B8",
"R 	c #D8E0C0",
"S 	c #99CC00",
"T 	c #CCFF33",
"U 	c #707860",
"V 	c #C0C8B0",
"W 	c #D8E0C8",
"X 	c #E0E8D0",
"Y 	c #99CC33",
"Z 	c #669900",
"` 	c #CCFF66",
" .	c #99FF00",
"..	c #E8F0E0",
"+.	c #669933",
"@.	c #99CC66",
"#.	c #336600",
"$.	c #66CC00",
"%.	c #99FF33",
"&.	c #CCFF99",
"*.	c #66FF00",
"=.	c #66CC33",
"-.	c #339900",
";.	c #99FF66",
">.	c #33CC00",
",.	c #66FF33",
"'.	c #33FF00",
").	c #669966",
"!.	c #336633",
"~.	c #99CC99",
"{.	c #339933",
"].	c #66CC66",
"^.	c #33CC33",
"/.	c #003300",
"(.	c #006600",
"_.	c #009900",
":.	c #00CC00",
"<.	c #00FF00",
"[.	c #33FF33",
"}.	c #66FF66",
"|.	c #99FF99",
"1.	c #CCFFCC",
"2.	c #00FF33",
"3.	c #00CC33",
"4.	c #33FF66",
"5.	c #33CC66",
"6.	c #009933",
"7.	c #66FF99",
"8.	c #00FF66",
"9.	c #339966",
"0.	c #66CC99",
"a.	c #006633",
"b.	c #00CC66",
"c.	c #33FF99",
"d.	c #99FFCC",
"e.	c #00FF99",
"f.	c #33CC99",
"g.	c #009966",
"h.	c #66FFCC",
"i.	c #00CC99",
"j.	c #33FFCC",
"k.	c #00FFCC",
"l.	c #669999",
"m.	c #336666",
"n.	c #99CCCC",
"o.	c #339999",
"p.	c #66CCCC",
"q.	c #33CCCC",
"r.	c #003333",
"s.	c #006666",
"t.	c #009999",
"u.	c #00CCCC",
"v.	c #00FFFF",
"w.	c #33FFFF",
"x.	c #66FFFF",
"y.	c #99FFFF",
"z.	c #CCFFFF",
"A.	c #00CCFF",
"B.	c #0099CC",
"C.	c #33CCFF",
"D.	c #3399CC",
"E.	c #006699",
"F.	c #66CCFF",
"G.	c #0099FF",
"H.	c #336699",
"I.	c #6699CC",
"J.	c #003366",
"K.	c #0066CC",
"L.	c #3399FF",
"M.	c #99CCFF",
"N.	c #184880",
"O.	c #A8C0E0",
"P.	c #204880",
"Q.	c #A0B0C8",
"R.	c #0066FF",
"S.	c #3366CC",
"T.	c #003399",
"U.	c #6699FF",
"V.	c #0033CC",
"W.	c #3366FF",
"X.	c #0033FF",
"Y.	c #666699",
"Z.	c #333366",
"`.	c #9999CC",
" +	c #333399",
".+	c #6666CC",
"++	c #3333CC",
"@+	c #000033",
"#+	c #000066",
"$+	c #000099",
"%+	c #0000CC",
"&+	c #0000FF",
"*+	c #3333FF",
"=+	c #6666FF",
"-+	c #9999FF",
";+	c #CCCCFF",
">+	c #3300FF",
",+	c #3300CC",
"'+	c #6633FF",
")+	c #6633CC",
"!+	c #330099",
"~+	c #9966FF",
"{+	c #6600FF",
"]+	c #663399",
"^+	c #9966CC",
"/+	c #330066",
"(+	c #6600CC",
"_+	c #9933FF",
":+	c #CC99FF",
"<+	c #9900FF",
"[+	c #9933CC",
"}+	c #660099",
"|+	c #CC66FF",
"1+	c #9900CC",
"2+	c #CC33FF",
"3+	c #CC00FF",
"4+	c #996699",
"5+	c #663366",
"6+	c #CC99CC",
"7+	c #993399",
"8+	c #CC66CC",
"9+	c #CC33CC",
"0+	c #330033",
"a+	c #660066",
"b+	c #990099",
"c+	c #CC00CC",
"d+	s none",
"d+d+d+d+d+d+d+d+d+d+d+P.P.P.d+d+",
"d+e U U U e U d+d+d+d+P.O.P.d+d+",
"e g w ..k k U d+d+P.P.P.O.P.P.P.",
"U ..q q q r U U U P.O.O.O.Q.Q.N.",
"U k q J J t r r X P.P.P.Q.N.N.N.",
"U r m O U U U U U U U N.Q.N.e O ",
"U r N l w w w w w w w N.N.N...e ",
"U r L o o o o o o o o o o g k O ",
"U X M g p p p p p l l l l o o O ",
"U X O r Q Q Q Q Q Q Q Q Q W j i ",
"U o m X J J J P P q P q q R V O ",
"U s Q s J J J J J J J J J R m e ",
"U s t W J J J J J J J J J W h d+",
"e % % % % % % % % % % % % % f d+",
"O U e U U U U U U U U U U U O d+",
"d+d+d+d+d+d+d+d+d+d+d+d+d+d+d+d+"};
