/* XPM */
static char * image_lecture_delete_example_18_xpm[] = {
"18 18 126 2",
"  	c None",
". 	c #ABB9D4",
"+ 	c #B9C5DD",
"@ 	c #B2BBD4",
"# 	c #A8B0CC",
"$ 	c #9FA5C3",
"% 	c #9499BC",
"& 	c #8B8EB4",
"* 	c #8283AC",
"= 	c #7D7DA8",
"- 	c #9AA1BD",
"; 	c #B9B6B8",
"> 	c #B1BBD5",
", 	c #FFFFFF",
"' 	c #7197D2",
") 	c #B2C7E2",
"! 	c #7C92BC",
"~ 	c #B7B4B5",
"{ 	c #ABB4CE",
"] 	c #F9FDFF",
"^ 	c #F6FBFF",
"/ 	c #DEE7F3",
"( 	c #6FBDF7",
"_ 	c #5478B1",
": 	c #B4B1B4",
"< 	c #A6AEC9",
"[ 	c #F5FAFF",
"} 	c #E7EBF5",
"| 	c #D1E0F1",
"1 	c #9CB6E0",
"2 	c #7172A3",
"3 	c #A1A7C4",
"4 	c #F9FCFF",
"5 	c #F0F8FF",
"6 	c #EAF5FF",
"7 	c #9CA1BF",
"8 	c #8788AE",
"9 	c #B0C9EE",
"0 	c #979AB9",
"a 	c #F0F7FF",
"b 	c #E9F5FF",
"c 	c #E5F2FF",
"d 	c #DFEFFF",
"e 	c #DCEEFF",
"f 	c #D6EAFF",
"g 	c #CFE9FF",
"h 	c #CADFFA",
"i 	c #9194B5",
"j 	c #FDFFFF",
"k 	c #C5DCFA",
"l 	c #8C8EB2",
"m 	c #F9FDFE",
"n 	c #EFF8FF",
"o 	c #E5F3FF",
"p 	c #DBEEFF",
"q 	c #D5EAFF",
"r 	c #CEE7FF",
"s 	c #CAE5FF",
"t 	c #C6E4FF",
"u 	c #C2DBFA",
"v 	c #F4FBFE",
"w 	c #8081A5",
"x 	c #BDD9F9",
"y 	c #8485AB",
"z 	c #EEF8FE",
"A 	c #C5E2FF",
"B 	c #C1E0FF",
"C 	c #BAE0FF",
"D 	c #B8D6F9",
"E 	c #8181A9",
"F 	c #EAF6FE",
"G 	c #7C7DA8",
"H 	c #76779F",
"I 	c #B0D0F4",
"J 	c #E4F3FE",
"K 	c #D4EAFF",
"L 	c #CEE6FF",
"M 	c #C4E2FF",
"N 	c #C2E0FF",
"O 	c #C3E0FF",
"P 	c #990000",
"Q 	c #970006",
"R 	c #7677A4",
"S 	c #E0F1FE",
"T 	c #F7070A",
"U 	c #EF0E14",
"V 	c #E8141C",
"W 	c #DE1D28",
"X 	c #D02939",
"Y 	c #C0E0FF",
"Z 	c #BC3B51",
"` 	c #9F5473",
" .	c #FF7575",
"..	c #FF6666",
"+.	c #FF5555",
"@.	c #FF4343",
"#.	c #FF1919",
"$.	c #880005",
"%.	c #7374A3",
"&.	c #E0F5FF",
"*.	c #D5EFFF",
"=.	c #D1EDFF",
"-.	c #CCEBFF",
";.	c #C8E9FF",
">.	c #C1E5FF",
",.	c #B2D7F2",
"'.	c #AED2F1",
").	c #8A0000",
"!.	c #7D0000",
"~.	c #710000",
"{.	c #6F0005",
"].	c #70719C",
"^.	c #6A6B94",
"/.	c #5F6084",
"(.	c #98B9DE",
"_.	c #5B5C83",
":.	c #B0D4F1",
"<.	c #ACD1F0",
"[.	c #9FC5E3",
"}.	c #94B7D7",
"|.	c #94B5D7",
"1.	c #575887",
"2.	c #6667A0",
"3.	c #616298",
"4.	c #5B5C8E",
"5.	c #575886",
"  . + @ @ # $ % & * * = - ;         ",
"  > , , , , , , , , , ' ) ! ~       ",
"  { , , , , , , ] ^ ^ ' / ( _ :     ",
"  < , < < < < < [ < < ' } | 1 2     ",
"  3 , , , , 4 [ 5 6 6 ' ' ' ' 2     ",
"  7 , 7 7 7 7 7 6 7 7 8 2 2 9 2     ",
"  0 , 4 4 [ a b c d d e f g h 2     ",
"  i j i i i i i d i i i i i k 2     ",
"  l m n n 6 o d p q q r s t u 2     ",
"  8 v 8 8 8 8 8 q 8 8 8 w w x 2     ",
"  y z o o d p q r s s A B C D 2     ",
"  E F G G G G G s G G H H H I 2     ",
"  G J p p K L s M N O P P P P P P Q ",
"  R S T U V W X Y Z ` P  ...+.@.#.$.",
"  %.&.*.*.=.-.;.>.,.'.P ).!.!.~.{.{.",
"  R S R R R R R Y ].].^././.(._.    ",
"  %.&.*.*.=.-.;.>.,.:.<.[.}.|.1.    ",
"  2 2 2 2 2 2 2.2.3.3.3.4.5.5.1.    "};
