/* XPM */
static char * image_new_lecture_18_xpm[] = {
"18 18 112 2",
"  	c None",
". 	c #ABB9D4",
"+ 	c #B9C5DD",
"@ 	c #B2BBD4",
"# 	c #A8B0CC",
"$ 	c #9FA5C3",
"% 	c #9499BC",
"& 	c #8B8EB4",
"* 	c #8283AC",
"= 	c #7D7DA8",
"- 	c #9AA1BD",
"; 	c #B9B6B8",
"> 	c #B1BBD5",
", 	c #FFFFFF",
"' 	c #7197D2",
") 	c #204880",
"! 	c #ABB4CE",
"~ 	c #F9FDFF",
"{ 	c #F6FBFF",
"] 	c #A8C0E0",
"^ 	c #B4B1B4",
"/ 	c #A6AEC9",
"( 	c #F5FAFF",
"_ 	c #A1A7C4",
": 	c #F9FCFF",
"< 	c #F0F8FF",
"[ 	c #EAF5FF",
"} 	c #A0B0C8",
"| 	c #9CA1BF",
"1 	c #184880",
"2 	c #979AB9",
"3 	c #F0F7FF",
"4 	c #E9F5FF",
"5 	c #E5F2FF",
"6 	c #DFEFFF",
"7 	c #9BA7B3",
"8 	c #4F5073",
"9 	c #9194B5",
"0 	c #FDFFFF",
"a 	c #66687F",
"b 	c #8C8EB2",
"c 	c #F9FDFE",
"d 	c #EFF8FF",
"e 	c #E5F3FF",
"f 	c #DBEEFF",
"g 	c #D5EAFF",
"h 	c #CEE7FF",
"i 	c #8EA1B3",
"j 	c #8BA0B3",
"k 	c #889AB0",
"l 	c #8788AE",
"m 	c #F4FBFE",
"n 	c #8081A5",
"o 	c #BDD9F9",
"p 	c #7172A3",
"q 	c #8485AB",
"r 	c #EEF8FE",
"s 	c #CAE5FF",
"t 	c #C5E2FF",
"u 	c #C1E0FF",
"v 	c #BAE0FF",
"w 	c #B8D6F9",
"x 	c #8181A9",
"y 	c #EAF6FE",
"z 	c #7C7DA8",
"A 	c #76779F",
"B 	c #B0D0F4",
"C 	c #E4F3FE",
"D 	c #D4EAFF",
"E 	c #CEE6FF",
"F 	c #C4E2FF",
"G 	c #C2E0FF",
"H 	c #C3E0FF",
"I 	c #B4D5F8",
"J 	c #ADD0F2",
"K 	c #A8CDF1",
"L 	c #A6C7EC",
"M 	c #6B6C9B",
"N 	c #7677A4",
"O 	c #E0F1FE",
"P 	c #C0E0FF",
"Q 	c #70719C",
"R 	c #6A6B94",
"S 	c #65668C",
"T 	c #A2C4EC",
"U 	c #7374A3",
"V 	c #E0F5FF",
"W 	c #D5EFFF",
"X 	c #D1EDFF",
"Y 	c #CCEBFF",
"Z 	c #C8E9FF",
"` 	c #C1E5FF",
" .	c #B2D7F2",
"..	c #AED2F1",
"+.	c #AFD4F2",
"@.	c #A5CAE6",
"#.	c #9DC7E4",
"$.	c #9CBFE3",
"%.	c #656691",
"&.	c #5F6084",
"*.	c #98B9DE",
"=.	c #5B5C83",
"-.	c #B0D4F1",
";.	c #ACD1F0",
">.	c #9FC5E3",
",.	c #94B7D7",
"'.	c #94B5D7",
").	c #575887",
"!.	c #6667A0",
"~.	c #616298",
"{.	c #5B5C8E",
"].	c #575886",
"  . + @ @ # $ % & * * = - ;         ",
"  > , , , , , , , , , ' ) ) )       ",
"  ! , , , , , , ~ { { ' ) ] ) ^     ",
"  / , / / / / / ( / ) ) ) ] ) ) )   ",
"  _ , , , , : ( < [ ) ] ] ] } } )   ",
"  | , | | | | | [ | ) ) ) } 1 1 )   ",
"  2 , : : ( 3 4 5 6 6 7 1 } 1 8     ",
"  9 0 9 9 9 9 9 6 9 9 a 1 1 1 8     ",
"  b c d d [ e 6 f g g h i j k 8     ",
"  l m l l l l l g l l l n n o p     ",
"  q r e e 6 f g h s s t u v w p     ",
"  x y z z z z z s z z A A A B p     ",
"  z C f f D E s F G H I J K L M     ",
"  N O N N N N N P N N Q R S T M     ",
"  U V W W X Y Z `  ...+.@.#.$.%.    ",
"  N O N N N N N P Q Q R &.&.*.=.    ",
"  U V W W X Y Z `  .-.;.>.,.'.).    ",
"  p p p p p p !.!.~.~.~.{.].].).    "};
