/* XPM */
static char * image_fuzzy_16_xpm[] = {
"16 16 39 1",
" 	c #5A90AD",
".	c #6A9BB5",
"+	c #82ABC1",
"@	c #86AEC3",
"#	c #7EA8BF",
"$	c #9CC1CC",
"%	c #FFFFFF",
"&	c #F1F2FA",
"*	c #E4E6F5",
"=	c #CFD1ED",
"-	c #C6C8E9",
";	c #B6B9E3",
">	c #A3A8DC",
",	c #72A7B6",
"'	c #A3A8DD",
")	c #6F77C9",
"!	c #8FA8C6",
"~	c #8C92D4",
"{	c #C7D3E6",
"]	c #D4E1E9",
"^	c #5C92AF",
"/	c #7BA6BD",
"(	c #82A8C2",
"_	c #C4D7E2",
":	c #DFE1F3",
"<	c #B5B9E4",
"[	c #979DD8",
"}	c #D3E1E9",
"|	c #747CCB",
"1	c #E2E4F4",
"2	c #6395B2",
"3	c #6F9EB8",
"4	c #7AA6BD",
"5	c #8BB1C5",
"6	c #E0EAF0",
"7	c #D8D9F1",
"8	c #E0E2F3",
"9	c #E9EAF7",
"0	c #F3F4FA",
"                ",
"                ",
"        .+@@++##",
"       $%%&*=-;>",
"      ,%%'))))))",
"      !%~)))))))",
"      {%))))))))",
"    ]%%%%%))))))",
"   ^/(_:~~))))))",
"      %<))))))))",
"      %~))))[%%)",
"    +}%|)))~1)))",
"23456%~))))'%%1)",
"7890%~)))))~1)))",
"))))))))))))[%%)",
"))))))))))))))))"};
