/* XPM */
static char * image_feature_delete_18_xpm[] = {
"18 18 133 2",
"  	c None",
". 	c #E4B813",
"+ 	c #E0AD0D",
"@ 	c #DDA509",
"# 	c #990000",
"$ 	c #970006",
"% 	c #FFF02F",
"& 	c #FFF433",
"* 	c #FFF130",
"= 	c #FFE928",
"- 	c #FFE01F",
"; 	c #FFDC1B",
"> 	c #FFDA19",
", 	c #FFD817",
"' 	c #FFD716",
") 	c #FF7575",
"! 	c #FF6666",
"~ 	c #FF5555",
"{ 	c #FF4343",
"] 	c #FF1919",
"^ 	c #880005",
"/ 	c #FFFF94",
"( 	c #FFFF89",
"_ 	c #FFFF81",
": 	c #FFFD6E",
"< 	c #FFF25A",
"[ 	c #FFF056",
"} 	c #FFE546",
"| 	c #FFE141",
"1 	c #FFE13B",
"2 	c #8A0000",
"3 	c #7D0000",
"4 	c #710000",
"5 	c #6F0005",
"6 	c #F2F2F2",
"7 	c #808080",
"8 	c #FFFF87",
"9 	c #FFFF82",
"0 	c #FFFF79",
"a 	c #FFF86C",
"b 	c #FFF160",
"c 	c #6B4A29",
"d 	c #FFE648",
"e 	c #FFE23F",
"f 	c #FFE03A",
"g 	c #FFDD2F",
"h 	c #BCA21C",
"i 	c #47311B",
"j 	c #BC9E17",
"k 	c #E6E6E6",
"l 	c #FFFB7B",
"m 	c #FFF871",
"n 	c #FFF065",
"o 	c #FFE548",
"p 	c #FFE63F",
"q 	c #FFDE33",
"r 	c #FFDC24",
"s 	c #FFD71F",
"t 	c #D9D9D9",
"u 	c #737373",
"v 	c #FFF26E",
"w 	c #FEEF66",
"x 	c #FFEE60",
"y 	c #FFEF55",
"z 	c #FFE64A",
"A 	c #FFE73D",
"B 	c #FFE035",
"C 	c #FFDF2E",
"D 	c #FFDB27",
"E 	c #FFD822",
"F 	c #CCCCCC",
"G 	c #595959",
"H 	c #FFF26F",
"I 	c #FFF067",
"J 	c #FFF05E",
"K 	c #FFEB57",
"L 	c #FFE344",
"M 	c #FFE13E",
"N 	c #FFE037",
"O 	c #FFDC2F",
"P 	c #FFDD26",
"Q 	c #BFBFBF",
"R 	c #404040",
"S 	c #FFF266",
"T 	c #FFEB63",
"U 	c #FFE443",
"V 	c #FFDF37",
"W 	c #FFD10E",
"X 	c #B3B3B3",
"Y 	c #FEF073",
"Z 	c #FFF164",
"` 	c #FFEC5E",
" .	c #FFE85B",
"..	c #FFE84D",
"+.	c #FFE640",
"@.	c #FEE43A",
"#.	c #FFD51C",
"$.	c #FED21B",
"%.	c #A6A6A6",
"&.	c #FFF271",
"*.	c #FFED60",
"=.	c #FFEE58",
"-.	c #000000",
";.	c #FEEA45",
">.	c #FFE33D",
",.	c #FFDD29",
"'.	c #FFD61B",
").	c #FFD211",
"!.	c #999999",
"~.	c #8C8C8C",
"{.	c #FFF36B",
"].	c #FEED6B",
"^.	c #FFEF63",
"/.	c #FFEB55",
"(.	c #FFE240",
"_.	c #FFDA2C",
":.	c #FEDF25",
"<.	c #FFD515",
"[.	c #FFF477",
"}.	c #FFF56E",
"|.	c #FFEE5F",
"1.	c #FFE744",
"2.	c #FEE03C",
"3.	c #FFD00E",
"4.	c #FDF482",
"5.	c #FEF778",
"6.	c #FEF26C",
"7.	c #FDF161",
"8.	c #FFEE54",
"9.	c #FEEA4A",
"0.	c #FEE12D",
"a.	c #FDD11A",
"b.	c #FFD10B",
"                                    ",
"                                    ",
". . . . . . . + + + @ # # # # # # $ ",
". % & * % = - ; > , ' # ) ! ~ { ] ^ ",
". / / ( _ : < [ } | 1 # 2 3 3 4 5 5 ",
"6 7 8 9 0 a b c d e f g h i i i j j ",
"k k 7 l m n c c o p 1 q r s ' c s s ",
"t t u v w x y c z A B C D E c s s s ",
"F F G H I J K c L M N O P c ' s s s ",
"Q Q R H S T c c c U V O r c c c W W ",
"X X R Y Z `  ...o +.@.g P #.$.W W W ",
"%.X R &.I *.=.-.;.>.f g ,.-.'.).).).",
"!.~.R {.].^./.-.;.(.@._.:.-.<.W W W ",
"~.R [.}.-.|./.-.1.2.-.O ,.-.<.3.-.3.",
"-.4.5.6.-.7.8.-.9.A -.0.r -.a.b.-.b.",
"-.-.-.-.-.-.-.-.-.-.-.-.-.-.-.-.-.-.",
"  X X X X X X X X X X X X X X X X X ",
"    X X X X X X X X X X X X X X X X "};
