/* XPM */
static char * image_float_feature_xpm[] = {
"13 13 91 1",
" 	c None",
".	c #A8A9A6",
"+	c #90918E",
"@	c #8F8F8C",
"#	c #838581",
"$	c #B8B9B8",
"%	c #9EA09C",
"&	c #F6F6F5",
"*	c #FAFAF9",
"=	c #F9FAF9",
"-	c #F9F9F8",
";	c #F8F9F7",
">	c #F7F8F7",
",	c #B2B2B2",
"'	c #929291",
")	c #C3C3C2",
"!	c #9FA09D",
"~	c #F8F9F8",
"{	c #F2F3F0",
"]	c #F0F1EE",
"^	c #EEEFEC",
"/	c #ECEEEA",
"(	c #EAECE8",
"_	c #B0B0AF",
":	c #DEDEDE",
"<	c #999A98",
"[	c #C6C7C5",
"}	c #F3F4F2",
"|	c #6A6A6A",
"1	c #696A69",
"2	c #696968",
"3	c #686966",
"4	c #8A8C89",
"5	c #7E7F7D",
"6	c #838481",
"7	c #FAFAFA",
"8	c #F5F6F4",
"9	c #6B6B6A",
"0	c #609C60",
"a	c #69A069",
"b	c #749D74",
"c	c #474747",
"d	c #BDBEBB",
"e	c #C2C3C0",
"f	c #8D8E8B",
"g	c #FBFBFB",
"h	c #6B6B6B",
"i	c #6BA96B",
"j	c #76AC75",
"k	c #82B181",
"l	c #4E4F4E",
"m	c #ECEEEB",
"n	c #A6A7A4",
"o	c #FCFCFC",
"p	c #6C6D6C",
"q	c #77AE77",
"r	c #84B484",
"s	c #91B990",
"t	c #575756",
"u	c #EEF0ED",
"v	c #F4F5F3",
"w	c #FDFDFD",
"x	c #FBFBFA",
"y	c #6D6D6D",
"z	c #85B484",
"A	c #92BB92",
"B	c #A2C2A2",
"C	c #606160",
"D	c #F0F1EF",
"E	c #F5F6F5",
"F	c #FEFEFE",
"G	c #6E6E6E",
"H	c #95BD95",
"I	c #A3C3A3",
"J	c #B4CBB4",
"K	c #F2F3F1",
"L	c #F6F7F5",
"M	c #717171",
"N	c #707070",
"O	c #6D6E6D",
"P	c #6D6D6C",
"Q	c #6B6C6B",
"R	c #FFFFFF",
"S	c #A0A19E",
"T	c #FCFCFB",
"U	c #F8F8F7",
"V	c #A4A5A2",
"W	c #A8A9A7",
"X	c #929490",
"Y	c #92938F",
"Z	c #A5A7A3",
" .+@@@@@#$   ",
" %&*=-;>,')  ",
" !~{]^/(_:<[ ",
" !-}|1234456 ",
" !7890abcdef ",
" !g>hijklm}n ",
" !o-pqrstuvn ",
" !wxyzABCDEn ",
" !FwGHIJhKLn ",
" !MMNGOPQhpn ",
" !RRFwg=>L-n ",
" S7RRFwwoTUV ",
" WX+++++++YZ "};
