/* XPM */
static char * image_graph_node_xpm[] = {
"16 16 25 1",
" 	c #BFDCFF",
".	c #7575A1",
"+	c #9090B4",
"@	c #B8B8CF",
"#	c #E4E4E4",
"$	c #DEDEDE",
"%	c #DADAE7",
"&	c #F7F7F7",
"*	c #FFFFFF",
"=	c #EFEFEF",
"-	c #D1E2E7",
";	c #A6A6C3",
">	c #F4F4F4",
",	c #FBFBFB",
"'	c #D6D6D6",
")	c #EEF2F7",
"!	c #AAC8EE",
"~	c #F9FAFC",
"{	c #E9F0F7",
"]	c #A0C1EA",
"^	c #B2CEF1",
"/	c #DEE8F4",
"(	c #E9F3FF",
"_	c #E4F0FF",
":	c #D1E6FF",
"                ",
" .............. ",
" ....+@#$@..... ",
" ...+%&**=-.... ",
" ...;>*..*,+... ",
" ...+*'..**+... ",
" .......;*)+... ",
" ......!~{].... ",
" .....^/(]..... ",
" .....]_]...... ",
" .............. ",
" .....]:]...... ",
" .....:*:...... ",
" .....]:]...... ",
" .............. ",
"                "};
