/* XPM */
static char * image_explain_18_xpm[] = {
"18 18 17 1",
" 	c #800000",
".	c None",
"+	c #FF5830",
"@	c #FF5028",
"#	c #FF4018",
"$	c #FF3008",
"%	c #FF1800",
"&	c #144A57",
"*	c #CCCCCC",
"=	c #004800",
"-	c #48B818",
";	c #40B018",
">	c #28A010",
",	c #808080",
"'	c #38B010",
")	c #20A008",
"!	c #109000",
"     .............",
" ++@ .............",
" @#$ .............",
" $$% .............",
"     .............",
"..&.............*.",
"..&....=====...*&.",
"..&....=---=..*&&.",
"..&&&&&=-;>=.*&&&.",
"..,....=')!=..*&&.",
"..,....=====...*&.",
"..,.............*.",
"..,....,,,,,......",
"..,....,...,......",
"..,,,,,,...,......",
".......,...,......",
".......,,,,,......",
".................."};
