/* XPM */
static char * image_learn_16_xpm[] = {
"16 16 95 2",
"  	c #0000E6",
". 	c #0000D0",
"+ 	c #8283AC",
"@ 	c #7D7DA8",
"# 	c #9AA1BD",
"$ 	c #204880",
"% 	c None",
"& 	c #42D9FF",
"* 	c #33D1FF",
"= 	c #18C1FF",
"- 	c #00A7FF",
"; 	c #009CFF",
"> 	c #0000BC",
", 	c #FFFFFF",
"' 	c #7197D2",
") 	c #B2C7E2",
"! 	c #A8C0E0",
"~ 	c #3BD0FF",
"{ 	c #2BCCFF",
"] 	c #22BFFF",
"^ 	c #0000AA",
"/ 	c #F6FBFF",
"( 	c #A6A6A6",
"_ 	c #F5FAFF",
": 	c #A6AEC9",
"< 	c #A0B0C8",
"[ 	c #0DA6FF",
"} 	c #0DBAFF",
"| 	c #EAF5FF",
"1 	c #184880",
"2 	c #000099",
"3 	c #0092FF",
"4 	c #00B3FF",
"5 	c #9CA1BF",
"6 	c #8788AE",
"7 	c #7172A3",
"8 	c #00008A",
"9 	c #0089FF",
"0 	c #D4D4D4",
"a 	c #C7D7E6",
"b 	c #D6EAFF",
"c 	c #00007D",
"d 	c #9194B5",
"e 	c #FFF8F1",
"f 	c #E8E8E8",
"g 	c #767993",
"h 	c #C5DCFA",
"i 	c #8C8EB2",
"j 	c #F9FDFE",
"k 	c #EFF8FF",
"l 	c #E5F3FF",
"m 	c #BFBFD8",
"n 	c #AAAAC0",
"o 	c #008000",
"p 	c #C2DBFA",
"q 	c #F4FBFE",
"r 	c #C0D3E6",
"s 	c #757575",
"t 	c #00BF00",
"u 	c #66D929",
"v 	c #007400",
"w 	c #8485AB",
"x 	c #EEF8FE",
"y 	c #DFEFFF",
"z 	c #DBEEFF",
"A 	c #D5EAFF",
"B 	c #CEE7FF",
"C 	c #55D522",
"D 	c #006900",
"E 	c #8181A9",
"F 	c #EAF6FE",
"G 	c #7C7DA8",
"H 	c #CAE5FF",
"I 	c #19C50A",
"J 	c #43D01B",
"K 	c #005F00",
"L 	c #E4F3FE",
"M 	c #D4EAFF",
"N 	c #CEE6FF",
"O 	c #C4E2FF",
"P 	c #C1E0FF",
"Q 	c #2FCB13",
"R 	c #005600",
"S 	c #7677A4",
"T 	c #E0F1FE",
"U 	c #C0E0FF",
"V 	c #004E00",
"W 	c #7374A3",
"X 	c #E0F5FF",
"Y 	c #D5EFFF",
"Z 	c #D1EDFF",
"` 	c #CCEBFF",
" .	c #C8E9FF",
"..	c #C1E5FF",
"+.	c #004600",
"            . . + @ # $ $ $ % % ",
". & * = - ; ; > , ' ) $ ! $ % % ",
"> ~ { ]   . > ^ / $ $ $ ! $ $ $ ",
"^ ] ] = -   ( _ : $ ! ! ! < < $ ",
"^ [   - } - . ( | $ $ $ < 1 1 $ ",
"2 3 .   - 4 - . 5 6 7 1 < 1 % % ",
"8 9 ^ ( . -   ( 0 a b 1 1 1 % % ",
"c 2 2 d ( . ( e f g d d h 7 % % ",
"% i j k | l m f n ( o ( p o o o ",
"% 6 q 6 6 6 6 r s o t o ( o u v ",
"% w x l y z A B o t u t o v C D ",
"% E F G G G G H s o t C I D J K ",
"% G L z M N H O P ( o I J Q Q R ",
"% S T S S S S U o o v D Q I I V ",
"% W X Y Z `  ...o u C J Q I t +.",
"% 7 7 7 7 7 7 7 v D K R V V +.+."};
