/* XPM */
static char * image_lecture_edit_16_xpm[] = {
"16 16 142 2",
"  	c None",
". 	c #ABB9D4",
"+ 	c #B9C5DD",
"@ 	c #B2BBD4",
"# 	c #A8B0CC",
"$ 	c #9FA5C3",
"% 	c #9499BC",
"& 	c #8B8EB4",
"* 	c #8283AC",
"= 	c #7D7DA8",
"- 	c #9AA1BD",
"; 	c #B9B6B8",
"> 	c #E8938F",
", 	c #EC8989",
"' 	c #B1BBD5",
") 	c #FFFFFF",
"! 	c #7197D2",
"~ 	c #B2C7E2",
"{ 	c #7C92BC",
"] 	c #B7B4B5",
"^ 	c #C33A37",
"/ 	c #D94C4B",
"( 	c #AB0B07",
"_ 	c #ABB4CE",
": 	c #F9FDFF",
"< 	c #F6FBFF",
"[ 	c #DEE7F3",
"} 	c #6FBDF7",
"| 	c #C37B4A",
"1 	c #D26054",
"2 	c #DB4747",
"3 	c #BE100F",
"4 	c #A6AEC9",
"5 	c #F5FAFF",
"6 	c #E7EBF5",
"7 	c #D0AC74",
"8 	c #F6BC6A",
"9 	c #E1844C",
"0 	c #BB2218",
"a 	c #AA0702",
"b 	c #A1A7C4",
"c 	c #F9FCFF",
"d 	c #F0F8FF",
"e 	c #EAF5FF",
"f 	c #CDA66A",
"g 	c #F9BB5F",
"h 	c #FCB247",
"i 	c #E8A33D",
"j 	c #AB420F",
"k 	c #9CA1BF",
"l 	c #C49A57",
"m 	c #F5BB65",
"n 	c #FCB348",
"o 	c #E7A33E",
"p 	c #B3863E",
"q 	c #979AB9",
"r 	c #F0F7FF",
"s 	c #E9F5FF",
"t 	c #E5F2FF",
"u 	c #C69D5C",
"v 	c #F3BB67",
"w 	c #FCB44B",
"x 	c #E39F39",
"y 	c #BE8F46",
"z 	c #7172A3",
"A 	c #9194B5",
"B 	c #FDFFFF",
"C 	c #CBA870",
"D 	c #F6BB66",
"E 	c #E09C36",
"F 	c #AD7925",
"G 	c #C5DCFA",
"H 	c #8C8EB2",
"I 	c #F9FDFE",
"J 	c #EFF8FF",
"K 	c #E5F3FF",
"L 	c #C49D5E",
"M 	c #F7BC65",
"N 	c #FCB248",
"O 	c #E6A039",
"P 	c #AE7A28",
"Q 	c #C6E4FF",
"R 	c #C2DBFA",
"S 	c #8788AE",
"T 	c #F4FBFE",
"U 	c #EAE9D9",
"V 	c #DFA95A",
"W 	c #FBB54D",
"X 	c #BA8F47",
"Y 	c #747495",
"Z 	c #8081A5",
"` 	c #BDD9F9",
" .	c #8485AB",
"..	c #EEF8FE",
"+.	c #DFEFFF",
"@.	c #F4DFC0",
"#.	c #D0902F",
"$.	c #B68940",
"%.	c #91A6BC",
"&.	c #AECAE6",
"*.	c #BAE0FF",
"=.	c #B8D6F9",
"-.	c #8181A9",
";.	c #EAF6FE",
">.	c #7C7DA8",
",.	c #B4B09D",
"'.	c #94938F",
").	c #EFE9DF",
"!.	c #B09A6A",
"~.	c #5B5C7C",
"{.	c #6A6B8F",
"].	c #76779F",
"^.	c #B5D5F9",
"/.	c #E4F3FE",
"(.	c #DBEEFF",
"_.	c #443C2E",
":.	c #716F60",
"<.	c #8695A3",
"[.	c #8EA0B2",
"}.	c #8EA4BC",
"|.	c #A8C7E6",
"1.	c #B4DAFF",
"2.	c #B0DAFF",
"3.	c #AFD2F9",
"4.	c #7677A4",
"5.	c #E0F1FE",
"6.	c #C0E0FF",
"7.	c #70719C",
"8.	c #6A6B94",
"9.	c #ABCFF9",
"0.	c #7374A3",
"a.	c #E0F5FF",
"b.	c #D5EFFF",
"c.	c #D1EDFF",
"d.	c #CCEBFF",
"e.	c #C8E9FF",
"f.	c #C1E5FF",
"g.	c #BCE3FF",
"h.	c #B8E1FF",
"i.	c #B2DEFF",
"j.	c #ADDEFF",
"k.	c #AFD7FF",
"  . + @ # $ % & * = - ;     > , ",
"  ' ) ) ) ) ) ) ) ! ~ { ] ^ / ( ",
"  _ ) ) ) ) ) : < ! [ } | 1 2 3 ",
"  4 ) 4 4 4 4 5 4 ! 6 7 8 9 0 a ",
"  b ) ) ) c 5 d e ! f g h i j   ",
"  k ) k k k k e k l m n o p     ",
"  q ) c 5 r s t u v w x y z     ",
"  A B A A A A C D w E F G z     ",
"  H I J e K L M N O P Q R z     ",
"  S T S S U V W O X Y Z ` z     ",
"   ...K +.) @.#.$.%.&.*.=.z     ",
"  -.;.>.,.'.).!.~.{.].].^.z     ",
"  >./.(._.:.<.[.}.|.1.2.3.z     ",
"  4.5.4.4.4.4.6.4.7.7.8.9.z     ",
"  0.a.b.c.d.e.f.g.h.i.j.k.z     ",
"  z z z z z z z z z z z z z     "};
