/* XPM */
static char * image_rename_item_18_xpm[] = {
"18 18 93 2",
"  	c None",
". 	c #E3B5B0",
"+ 	c #E8A9A9",
"@ 	c #FDF7F7",
"# 	c #C1D7E7",
"$ 	c #7592BF",
"% 	c #AEBFE1",
"& 	c #C33A37",
"* 	c #D94C4B",
"= 	c #AB0B07",
"- 	c #CA635F",
"; 	c #97B8D2",
"> 	c #B1C1E1",
", 	c #6B89C8",
"' 	c #C37B4A",
") 	c #D26054",
"! 	c #DB4747",
"~ 	c #BE100F",
"{ 	c #DB7979",
"] 	c #91A5D2",
"^ 	c #4484B8",
"/ 	c #6985C1",
"( 	c #9BADD6",
"_ 	c #D0AC74",
": 	c #F6BC6A",
"< 	c #E1844C",
"[ 	c #BB2218",
"} 	c #AA0702",
"| 	c #5D90B9",
"1 	c #C9D3E9",
"2 	c #CDA66A",
"3 	c #F9BB5F",
"4 	c #FCB247",
"5 	c #E8A33D",
"6 	c #AB420F",
"7 	c #5377C1",
"8 	c #7A91C1",
"9 	c #C49A57",
"0 	c #F5BB65",
"a 	c #FCB348",
"b 	c #E7A33E",
"c 	c #B3863E",
"d 	c #C69D5C",
"e 	c #F3BB67",
"f 	c #FCB44B",
"g 	c #E39F39",
"h 	c #BE8F46",
"i 	c #DFDDD7",
"j 	c #E4E5E1",
"k 	c #CBA870",
"l 	c #F6BB66",
"m 	c #E09C36",
"n 	c #AD7925",
"o 	c #D1D1C9",
"p 	c #DADAD7",
"q 	c #E4E4E1",
"r 	c #C49D5E",
"s 	c #F7BC65",
"t 	c #FCB248",
"u 	c #E6A039",
"v 	c #AE7A28",
"w 	c #C2C1B7",
"x 	c #CDCDC4",
"y 	c #D1D1CA",
"z 	c #EAE9D9",
"A 	c #DFA95A",
"B 	c #FBB54D",
"C 	c #BA8F47",
"D 	c #ADB09A",
"E 	c #BEC2B3",
"F 	c #C2C4B9",
"G 	c #FFFFFF",
"H 	c #F4DFC0",
"I 	c #D0902F",
"J 	c #B68940",
"K 	c #A7A493",
"L 	c #ADB0A5",
"M 	c #BBBBAE",
"N 	c #B4B09D",
"O 	c #94938F",
"P 	c #EFE9DF",
"Q 	c #C3AB75",
"R 	c #9A9C86",
"S 	c #A3A795",
"T 	c #B0B2A8",
"U 	c #443C2E",
"V 	c #716F60",
"W 	c #878B7B",
"X 	c #939688",
"Y 	c #A4A79D",
"Z 	c #B8BAB0",
"` 	c #E0E0E0",
" .	c #CACACA",
"                                    ",
"                              . + @ ",
"            # $ %           & * = - ",
"          ; >   ,         ' ) ! ~ { ",
"    ]     ^   / (       _ : < [ }   ",
"  /     |   | 1       2 3 4 5 6     ",
"  1 / / 7 8         9 0 a b c       ",
"      ^           d e f g h i j     ",
"    | 8         k l f m n o p q     ",
"    /         r s t u v w x y       ",
"    /       z A B u C D E F         ",
"    /       G H I J K L M           ",
"      7   N O P Q R S T             ",
"        / U V W X Y Z               ",
"          `  . . . .                ",
"                                    ",
"                                    ",
"                                    "};
