/* XPM */
static char * image_bookmark_add_16_xpm[] = {
"16 16 138 2",
"  	c None",
". 	c #204880",
"+ 	c #4F5048",
"@ 	c #737563",
"# 	c #767965",
"$ 	c #757864",
"% 	c #707360",
"& 	c #474842",
"* 	c #A8C0E0",
"= 	c #727461",
"- 	c #B4B6A8",
"; 	c #B6B8A9",
"> 	c #B5B7A7",
", 	c #B3B5A5",
"' 	c #B1B3A3",
") 	c #A9AB9B",
"! 	c #51514F",
"~ 	c #737562",
"{ 	c #B2B4A4",
"] 	c #90937C",
"^ 	c #8A8E77",
"/ 	c #797C69",
"( 	c #737662",
"_ 	c #818371",
": 	c #A0B0C8",
"< 	c #184880",
"[ 	c #6F715D",
"} 	c #A8AB99",
"| 	c #8C8F78",
"1 	c #7A7D68",
"2 	c #C1C1B2",
"3 	c #DBDBCE",
"4 	c #6D6F5D",
"5 	c #767765",
"6 	c #70725F",
"7 	c #797B68",
"8 	c #BABBAC",
"9 	c #D1D1C2",
"0 	c #ABAB97",
"a 	c #A8A995",
"b 	c #ACAC99",
"c 	c #B0B0A5",
"d 	c #5A5D4E",
"e 	c #6E705E",
"f 	c #C4C5B6",
"g 	c #D6D6C9",
"h 	c #D5D5C7",
"i 	c #C9C9B7",
"j 	c #BABAA4",
"k 	c #737663",
"l 	c #747662",
"m 	c #B9BAA4",
"n 	c #BCBCA6",
"o 	c #BDBDB1",
"p 	c #6B6E5B",
"q 	c #676957",
"r 	c #D3D4C5",
"s 	c #BCBDA7",
"t 	c #A3A58F",
"u 	c #8B8D7C",
"v 	c #898C7A",
"w 	c #A6A893",
"x 	c #AAAB97",
"y 	c #BBBCAD",
"z 	c #636554",
"A 	c #D3D3C4",
"B 	c #C0C1AC",
"C 	c #B5B7A2",
"D 	c #727562",
"E 	c #6E715E",
"F 	c #6F7260",
"G 	c #B3B4A5",
"H 	c #B1B2A3",
"I 	c #6F725F",
"J 	c #B5B6A1",
"K 	c #CFCFBF",
"L 	c #636454",
"M 	c #5E6050",
"N 	c #D2D4C5",
"O 	c #C4C6B2",
"P 	c #BFC0AE",
"Q 	c #767A68",
"R 	c #AFB0A3",
"S 	c #E0E1D7",
"T 	c #CED0BF",
"U 	c #CFD1C0",
"V 	c #777A68",
"W 	c #BEC0AD",
"X 	c #CFD0C0",
"Y 	c #5A5B4C",
"Z 	c #C9CAB7",
"` 	c #CCCDBB",
" .	c #D3D3C8",
"..	c #838573",
"+.	c #9B9E8A",
"@.	c #D0D1C0",
"#.	c #565748",
"$.	c #D4D6C6",
"%.	c #CDCFBD",
"&.	c #D0D2C1",
"*.	c #9B9E8E",
"=.	c #A9AC9C",
"-.	c #B8BBA8",
";.	c #9A9D8D",
">.	c #D1D3C2",
",.	c #525245",
"'.	c #CCCDBD",
").	c #C7C8B6",
"!.	c #787B69",
"~.	c #929584",
"{.	c #7A7C6A",
"].	c #757866",
"^.	c #C6C7B6",
"/.	c #C9CAB8",
"(.	c #515245",
"_.	c #4F5044",
":.	c #A7A791",
"<.	c #B0B097",
"[.	c #9FA090",
"}.	c #8E907E",
"|.	c #CBCBBE",
"1.	c #CCCCBE",
"2.	c #8C8E7C",
"3.	c #8A8C7A",
"4.	c #A4A48D",
"5.	c #4F4F44",
"6.	c #48483F",
"7.	c #71715E",
"8.	c #A1A184",
"9.	c #B9B9A4",
"0.	c #C0C0AC",
"a.	c #A5A589",
"b.	c #A4A488",
"c.	c #C0C0AD",
"d.	c #C4C4B1",
"e.	c #47473E",
"f.	c #4A4A40",
"g.	c #4A4A3E",
"                      . . .     ",
"+ @ # $ $ $ % &       . * .     ",
"= - ; > , ' ) $ ! . . . * . . . ",
"~ { ] ] ] ^ / ( _ . * * * : : < ",
"[ } ] ] | 1 2 3 3 . . . : < < < ",
"4 5 6 6 7 8 9 0 a b b < : < c d ",
"e f g g h i j k l m n < < < o p ",
"q r s s s s t u v w s x x x y q ",
"z A B C D E F G H I E D J B K L ",
"M N O P Q R S T U S R V W O X M ",
"Y r Z `  ...+.Z Z +... .` Z @.Y ",
"#.$.%.%.&.*.=.-.-.=.;.&.%.%.>.#.",
",.'.).).).!.~./ {.~.].^.).)./.(.",
"_.:.<.<.<.[.}.|.1.2.3.<.<.<.4.5.",
"6.7.8.8.8.9.0.a.b.c.d.8.8.8.7.e.",
"  f.g.g.g.g.g.g.g.g.g.g.g.g.f.  "};
