/* XPM */
static char * image_output_feature_xpm[] = {
"13 13 84 1",
" 	c None",
".	c #959693",
"+	c #80817E",
"@	c #7F7F7C",
"#	c #81837F",
"$	c #B5B6B5",
"%	c #8C8E8B",
"&	c #F6F6F5",
"*	c #FAFAF9",
"=	c #F9FAF9",
"-	c #990000",
";	c #F8F9F7",
">	c #F7F8F7",
",	c #9E9E9E",
"'	c #8F8F8F",
")	c #ADADAC",
"!	c #8D8E8B",
"~	c #F8F9F8",
"{	c #F2F3F0",
"]	c #F0F1EE",
"^	c #ECEEEA",
"/	c #EAECE8",
"(	c #9C9C9B",
"_	c #DEDEDE",
":	c #979796",
"<	c #AFB0AF",
"[	c #F9F9F8",
"}	c #F3F4F2",
"|	c #C4C5C4",
"1	c #464645",
"2	c #9C9E9A",
"3	c #888A87",
"4	c #7C7D7B",
"5	c #81827F",
"6	c #FAFAFA",
"7	c #F5F6F4",
"8	c #474747",
"9	c #FF972D",
"0	c #4E4F4E",
"a	c #A3A4A2",
"b	c #D1D3CF",
"c	c #D7D8D5",
"d	c #8B8B89",
"e	c #FBFBFB",
"f	c #FF9C37",
"g	c #FFA64B",
"h	c #ECEEEB",
"i	c #939492",
"j	c #FCFCFC",
"k	c #BC7125",
"l	c #FFAE5C",
"m	c #4F4F4E",
"n	c #AFB1AE",
"o	c #F4F5F3",
"p	c #BABABA",
"q	c #484848",
"r	c #E69644",
"s	c #FFB871",
"t	c #D0A171",
"u	c #575756",
"v	c #D1D2D1",
"w	c #4A4A4A",
"x	c #E6923D",
"y	c #FFB366",
"z	c #FFC58A",
"A	c #FFD5AA",
"B	c #FFE8D0",
"C	c #616161",
"D	c #535353",
"E	c #525252",
"F	c #4F504F",
"G	c #4F4F4F",
"H	c #FFFFFF",
"I	c #FEFEFE",
"J	c #F6F7F5",
"K	c #8E8F8C",
"L	c #FDFDFD",
"M	c #FCFCFB",
"N	c #F8F8F7",
"O	c #929390",
"P	c #959694",
"Q	c #828380",
"R	c #82837F",
"S	c #939491",
" .+@@@@@#$   ",
" %&*=-;>,')  ",
" !~{]-^/(_:< ",
" ![}|-123345 ",
" !678-90abcd ",
" !e$8-fg0h}i ",
" !j8k-glmnoi ",
" !pqr-lstuvi ",
" !wxy-szABCi ",
" !DDE-FGGGGi ",
" !HHI-e=>J[i ",
" K6HH-LLjMNO ",
" PQ+++++++RS "};
