/* XPM */
static char * image_feature_view_16_xpm[] = {
"16 16 146 2",
"  	c None",
". 	c #828787",
"+ 	c #3F4446",
"@ 	c #4C5152",
"# 	c #9A9E9E",
"$ 	c #D0D09E",
"% 	c #848787",
"& 	c #898C8B",
"* 	c #C3C6C1",
"= 	c #DBDCD8",
"- 	c #D5D7D3",
"; 	c #B7B9B7",
"> 	c #6F7375",
", 	c #BCBC8F",
"' 	c #E4B813",
") 	c #665778",
"! 	c #B5B9B3",
"~ 	c #D9DCD5",
"{ 	c #E3E5E0",
"] 	c #E9EAE7",
"^ 	c #EAEBE8",
"/ 	c #EBECE9",
"( 	c #E5E5E4",
"_ 	c #9EA1A0",
": 	c #C68D05",
"< 	c #DB9C06",
"[ 	c #FFF02F",
"} 	c #FFF433",
"| 	c #FFF130",
"1 	c #ACAFAF",
"2 	c #949794",
"3 	c #D6DAD2",
"4 	c #E6E7E3",
"5 	c #EEEEEC",
"6 	c #ECECEA",
"7 	c #D7E3EE",
"8 	c #E6E6E4",
"9 	c #717576",
"0 	c #FFD410",
"a 	c #FFFF94",
"b 	c #FFFF89",
"c 	c #CCD3DB",
"d 	c #FCF1BF",
"e 	c #EDE9D7",
"f 	c #EDEDEB",
"g 	c #C2D9F0",
"h 	c #B8BAB9",
"i 	c #8F9394",
"j 	c #F2F2F2",
"k 	c #808080",
"l 	c #FFFF87",
"m 	c #FFFF82",
"n 	c #787C7B",
"o 	c #C1C9C8",
"p 	c #F8E69F",
"q 	c #C2D2E3",
"r 	c #D5D7D4",
"s 	c #E6E6E6",
"t 	c #FFFB7B",
"u 	c #717575",
"v 	c #B0BAB4",
"w 	c #FCEDAE",
"x 	c #F6E291",
"y 	c #C2D6EB",
"z 	c #D9D9D9",
"A 	c #737373",
"B 	c #FFF26E",
"C 	c #898C8C",
"D 	c #CAD2B0",
"E 	c #FAE89F",
"F 	c #F8E391",
"G 	c #EFE6C3",
"H 	c #EEE9D4",
"I 	c #FAEBAE",
"J 	c #CCCCCC",
"K 	c #595959",
"L 	c #FFF26F",
"M 	c #A2A5A6",
"N 	c #AFB1B1",
"O 	c #ECE3BF",
"P 	c #F0DE92",
"Q 	c #F0DE93",
"R 	c #ABD0C0",
"S 	c #7C7E7D",
"T 	c #E6C21C",
"U 	c #BFBFBF",
"V 	c #404040",
"W 	c #FFF266",
"X 	c #747979",
"Y 	c #F0E7C0",
"Z 	c #EEE2AE",
"` 	c #F6DF85",
" .	c #FFF7D2",
"..	c #3F6F40",
"+.	c #6B4A29",
"@.	c #B3B3B3",
"#.	c #8C8C8C",
"$.	c #727272",
"%.	c #606261",
"&.	c #D3D5D2",
"*.	c #95A394",
"=.	c #6C6D82",
"-.	c #E5BD18",
";.	c #E6BD0D",
">.	c #A6A6A6",
",.	c #5B5F5F",
"'.	c #404544",
").	c #7E7E7E",
"!.	c #FFEE58",
"~.	c #787C7C",
"{.	c #939695",
"].	c #D0B421",
"^.	c #000000",
"/.	c #E6C118",
"(.	c #E6BD0F",
"_.	c #999999",
":.	c #595D5D",
"<.	c #525350",
"[.	c #FFEB55",
"}.	c #E5D33E",
"|.	c #E6CC3A",
"1.	c #CFBA2F",
"2.	c #D0B224",
"3.	c #CFB51E",
"4.	c #E6C013",
"5.	c #FFD10E",
"6.	c #636667",
"7.	c #4A4C4A",
"8.	c #FFEE5F",
"9.	c #FFE744",
"0.	c #E5CA36",
"a.	c #E6C72A",
"b.	c #E6C725",
"c.	c #FFD515",
"d.	c #FFD00E",
"e.	c #54595B",
"f.	c #464A48",
"g.	c #FDF161",
"h.	c #FFEE54",
"i.	c #FEEA4A",
"j.	c #FFE73D",
"k.	c #FEE12D",
"l.	c #FFDC24",
"m.	c #FDD11A",
"n.	c #FFD10B",
"o.	c #929495",
"                . + @ # $       ",
"            % & * = - ; > ,     ",
"' ' ' ' ' ) ! ~ { ] ^ / ( _ : < ",
"' [ } | 1 2 3 4 5 6 6 7 5 8 9 0 ",
"' a a b % c d e e 6 f g 7 / h i ",
"j k l m n o d p e 6 6 7 q ^ r @ ",
"s s k t u v w x d 6 6 7 y ] = + ",
"z z A B C D E F G H I g g { * . ",
"J J K L M N O P Q p I R 4 ~ S T ",
"U U V L W X Y Z ` ` E w  .! ..+.",
"@.@.V #.$.%.X N &. . . .*.=.-.;.",
">.@.#.,.'.).!.M C u ~.{.].^./.(.",
"_.#.:.<.,.#.[.^.}.|.1.2.3.^.4.5.",
"#.6.7.:.#.8.[.^.9.0.^.a.b.^.c.d.",
"e.f.6.#.^.g.h.^.i.j.^.k.l.^.m.n.",
"o.e.#.^.^.^.^.^.^.^.^.^.^.^.^.^."};
