/* XPM */
static char * image_classifier_view_18_xpm[] = {
"18 18 122 2",
"  	c #0000E6",
". 	c #0000D0",
"+ 	c None",
"@ 	c #42D9FF",
"# 	c #33D1FF",
"$ 	c #18C1FF",
"% 	c #00A7FF",
"& 	c #009CFF",
"* 	c #0000BC",
"= 	c #828787",
"- 	c #3F4446",
"; 	c #4C5152",
"> 	c #878A8A",
", 	c #CECECE",
"' 	c #3BD0FF",
") 	c #2BCCFF",
"! 	c #22BFFF",
"~ 	c #B3B3B3",
"{ 	c #898C8B",
"] 	c #C3C6C1",
"^ 	c #DBDCD8",
"/ 	c #D5D7D3",
"( 	c #B7B9B7",
"_ 	c #6F7375",
": 	c #0000AA",
"< 	c #999999",
"[ 	c #D9DCD5",
"} 	c #E3E5E0",
"| 	c #E9EAE7",
"1 	c #EAEBE8",
"2 	c #EBECE9",
"3 	c #E5E5E4",
"4 	c #7B7D7C",
"5 	c #0DA6FF",
"6 	c #0DBAFF",
"7 	c #A4A7A4",
"8 	c #D6DAD2",
"9 	c #E6E7E3",
"0 	c #EEEEEC",
"a 	c #ECECEA",
"b 	c #D7E3EE",
"c 	c #E6E6E4",
"d 	c #717576",
"e 	c #000099",
"f 	c #0092FF",
"g 	c #929696",
"h 	c #C6D3F1",
"i 	c #7CAFEF",
"j 	c #EDEDEB",
"k 	c #C2D9F0",
"l 	c #9C9D9D",
"m 	c #7F8282",
"n 	c #00008A",
"o 	c #0089FF",
"p 	c #A6A6A6",
"q 	c #787C7B",
"r 	c #B2C7F4",
"s 	c #4C97FA",
"t 	c #63A7F8",
"u 	c #C2D2E3",
"v 	c #D5D7D4",
"w 	c #00007D",
"x 	c #717575",
"y 	c #94B1F0",
"z 	c #45A0FA",
"A 	c #5FBDF7",
"B 	c #AFDEF1",
"C 	c #C2D6EB",
"D 	c #898C8C",
"E 	c #BED2D6",
"F 	c #3DBEF9",
"G 	c #9EDAF2",
"H 	c #D5ECD1",
"I 	c #5B5F5F",
"J 	c #AFB1B1",
"K 	c #EBEBE8",
"L 	c #A7E19F",
"M 	c #72CE6A",
"N 	c #ABD0C0",
"O 	c #606262",
"P 	c #ABABAB",
"Q 	c #747979",
"R 	c #98DF91",
"S 	c #4CC840",
"T 	c #4DC041",
"U 	c #499843",
"V 	c #6E9E69",
"W 	c #6C6C6C",
"X 	c #989898",
"Y 	c #008000",
"Z 	c #8C8C8C",
"` 	c #727272",
" .	c #606261",
"..	c #959797",
"+.	c #D3D5D2",
"@.	c #63CF57",
"#.	c #3C9A32",
"$.	c #33852C",
"%.	c #66D929",
"&.	c #007400",
"*.	c #404544",
"=.	c #7E7E7E",
"-.	c #4F5252",
";.	c #545757",
">.	c #676969",
",.	c #00BF00",
"'.	c #55D522",
").	c #006900",
"!.	c #595D5D",
"~.	c #525350",
"{.	c #19C50A",
"].	c #43D01B",
"^.	c #005F00",
"/.	c #636667",
"(.	c #4A4C4A",
"_.	c #2FCB13",
":.	c #005600",
"<.	c #54595B",
"[.	c #464A48",
"}.	c #004E00",
"|.	c #929495",
"1.	c #004600",
"            . . + + + + + + + + + + ",
". @ # $ % & & * + = - ; > , + + + + ",
"* ' ) !   . * ~ { ] ^ / ( _ ~ + + + ",
": ! ! $ %   ~ < [ } | 1 2 3 4 ~ + + ",
": 5   % 6 % 7 8 9 0 a a b 0 c d , + ",
"e f .   % g h i 0 0 a j k b 2 l m + ",
"n o : p . q r s t 0 a a b u 1 v ; + ",
"w e e + p x y z A B a a b C | ^ - + ",
"+ + + + + D E F G 0 a H k k } ] I + ",
"+ + + + + , J K j 0 L M N 9 [ O P + ",
"+ + + + + + Q a K R S T U V W X Y Y ",
"+ + + + Z `  .Q ..+.@.#.$.W X Y %.&.",
"+ + + Z I *.=.+ P O -.;.>.,.Y &.'.).",
"+ + Z !.~.I Z + + + p Y ,.'.{.).].^.",
"+ Z /.(.!.Z + + + + + p Y {.]._._.:.",
"+ <.[./.Z + + + + + Y Y &.)._.{.{.}.",
"+ |.<.Z + + + + + + Y %.'.]._.{.,.1.",
"+ + + + + + + + + + &.).^.:.}.}.1.1."};
