/* XPM */
static char * image_isosceles_feature_xpm[] = {
"13 13 92 2",
"  	c None",
". 	c #959693",
"+ 	c #80817E",
"@ 	c #7F7F7C",
"# 	c #81837F",
"$ 	c #B5B6B5",
"% 	c #8C8E8B",
"& 	c #F6F6F5",
"* 	c #FAFAF9",
"= 	c #F9FAF9",
"- 	c #F9F9F8",
"; 	c #F8F9F7",
"> 	c #F7F8F7",
", 	c #9E9E9E",
"' 	c #8F8F8F",
") 	c #ADADAC",
"! 	c #8D8E8B",
"~ 	c #F8F9F8",
"{ 	c #F2F3F0",
"] 	c #F0F1EE",
"^ 	c #EEEFEC",
"/ 	c #ECEEEA",
"( 	c #EAECE8",
"_ 	c #9C9C9B",
": 	c #DEDEDE",
"< 	c #979796",
"[ 	c #AFB0AF",
"} 	c #F3F4F2",
"| 	c #F1F2F0",
"1 	c #4E4F4E",
"2 	c #4E4E4D",
"3 	c #454644",
"4 	c #888A87",
"5 	c #7C7D7B",
"6 	c #81827F",
"7 	c #FAFAFA",
"8 	c #F5F6F4",
"9 	c #B3B4B2",
"0 	c #4F4F4F",
"a 	c #EE1FA2",
"b 	c #464746",
"c 	c #6B6B6A",
"d 	c #D1D3CF",
"e 	c #D7D8D5",
"f 	c #8B8B89",
"g 	c #FBFBFB",
"h 	c #F32695",
"i 	c #FA2FC3",
"j 	c #E034A9",
"k 	c #393A39",
"l 	c #ECEEEB",
"m 	c #939492",
"n 	c #FCFCFC",
"o 	c #B7B7B6",
"p 	c #FA3AC3",
"q 	c #FA47D8",
"r 	c #FA58EF",
"s 	c #474746",
"t 	c #AFB1AE",
"u 	c #F4F5F3",
"v 	c #FDFDFD",
"w 	c #595959",
"x 	c #F03AB7",
"y 	c #FA4FD9",
"z 	c #FA61F1",
"A 	c #FA6BF1",
"B 	c #D16BCB",
"C 	c #4F4F4E",
"D 	c #F5F6F5",
"E 	c #C2C2C2",
"F 	c #5B5B5B",
"G 	c #FB48C5",
"H 	c #FA59DA",
"I 	c #FA6DF2",
"J 	c #FA78F2",
"K 	c #E892E3",
"L 	c #606160",
"M 	c #C8C9C7",
"N 	c #5C5C5C",
"O 	c #585958",
"P 	c #585858",
"Q 	c #FFFFFF",
"R 	c #FEFEFE",
"S 	c #F6F7F5",
"T 	c #8E8F8C",
"U 	c #FCFCFB",
"V 	c #F8F8F7",
"W 	c #929390",
"X 	c #959694",
"Y 	c #828380",
"Z 	c #82837F",
"` 	c #939491",
"  . + @ @ @ @ @ # $       ",
"  % & * = - ; > , ' )     ",
"  ! ~ { ] ^ / ( _ : < [   ",
"  ! - } | 1 2 3 4 4 5 6   ",
"  ! 7 8 9 0 a b c d e f   ",
"  ! g > 0 h i j k l } m   ",
"  ! n o 0 p q r s t u m   ",
"  ! v w x y z A B C D m   ",
"  ! E F G H I J K L M m   ",
"  ! N N F w O P P P P m   ",
"  ! Q Q R v g = > S - m   ",
"  T 7 Q Q R v v n U V W   ",
"  X Y + + + + + + + Z `   "};
