/* XPM */
static char * image_lecture_copy_18_xpm[] = {
"18 18 172 2",
"  	c #ABB9D4",
". 	c #B9C5DD",
"+ 	c #B2BBD4",
"@ 	c #A8B0CC",
"# 	c #9FA5C3",
"$ 	c #9499BC",
"% 	c #8B8EB4",
"& 	c #8283AC",
"* 	c #7D7DA8",
"= 	c #9AA1BD",
"- 	c #B9B6B8",
"; 	c None",
"> 	c #B1BBD5",
", 	c #FFFFFF",
"' 	c #354626",
") 	c #7197D2",
"! 	c #B2C7E2",
"~ 	c #7C92BC",
"{ 	c #B7B4B5",
"] 	c #ABB4CE",
"^ 	c #38690C",
"/ 	c #4B8C0E",
"( 	c #F9FDFF",
"_ 	c #F6FBFF",
": 	c #DEE7F3",
"< 	c #6FBDF7",
"[ 	c #5478B1",
"} 	c #B4B1B4",
"| 	c #498B0B",
"1 	c #78D122",
"2 	c #A6AEC9",
"3 	c #F5FAFF",
"4 	c #E7EBF5",
"5 	c #D1E0F1",
"6 	c #9CB6E0",
"7 	c #7172A3",
"8 	c #386112",
"9 	c #61B212",
"0 	c #55A00E",
"a 	c #A1A7C4",
"b 	c #374F20",
"c 	c #3A6D09",
"d 	c #385918",
"e 	c #F9FCFF",
"f 	c #F0F8FF",
"g 	c #EAF5FF",
"h 	c #3D7904",
"i 	c #7CD226",
"j 	c #478808",
"k 	c #9CA1BF",
"l 	c #3C730A",
"m 	c #6BAD2A",
"n 	c #559618",
"o 	c #385F14",
"p 	c #8788AE",
"q 	c #B0C9EE",
"r 	c #3D6A12",
"s 	c #75BE2E",
"t 	c #65AC22",
"u 	c #3C6515",
"v 	c #3A5B1B",
"w 	c #609F23",
"x 	c #A9E271",
"y 	c #3B6216",
"z 	c #E5F2FF",
"A 	c #DFEFFF",
"B 	c #DCEEFF",
"C 	c #D6EAFF",
"D 	c #CFE9FF",
"E 	c #CADFFA",
"F 	c #374B26",
"G 	c #5A9C1B",
"H 	c #A0E160",
"I 	c #71B332",
"J 	c #448605",
"K 	c #6AA530",
"L 	c #BEEA94",
"M 	c #3C6417",
"N 	c #9194B5",
"O 	c #C5DCFA",
"P 	c #427C0D",
"Q 	c #61A225",
"R 	c #95CB61",
"S 	c #C1F095",
"T 	c #CDF3AA",
"U 	c #D3F0B7",
"V 	c #4F9210",
"W 	c #9CABBC",
"X 	c #D5EAFF",
"Y 	c #CEE7FF",
"Z 	c #CAE5FF",
"` 	c #C6E4FF",
" .	c #C2DBFA",
"..	c #8485AB",
"+.	c #EEF8FE",
"@.	c #394D26",
"#.	c #427514",
"$.	c #4A9206",
"%.	c #7FB54C",
"&.	c #E5F6D5",
"*.	c #406C16",
"=.	c #636480",
"-.	c #8081A5",
";.	c #BDD9F9",
">.	c #8181A9",
",.	c #EAF6FE",
"'.	c #7C7DA8",
").	c #61617D",
"!.	c #C2CACF",
"~.	c #416B18",
"{.	c #87B958",
"].	c #F3F9ED",
"^.	c #427116",
"/.	c #98AABC",
"(.	c #C5E2FF",
"_.	c #C1E0FF",
":.	c #BAE0FF",
"<.	c #B8D6F9",
"[.	c #E4F3FE",
"}.	c #DBEEFF",
"|.	c #4A8D0C",
"1.	c #B8D79B",
"2.	c #8BBD5C",
"3.	c #5B5C7C",
"4.	c #76779F",
"5.	c #B0D0F4",
"6.	c #7677A4",
"7.	c #E0F1FE",
"8.	c #3F5F20",
"9.	c #4B8D0B",
"0.	c #40681B",
"a.	c #C4E2FF",
"b.	c #C2E0FF",
"c.	c #C3E0FF",
"d.	c #B4D5F8",
"e.	c #ADD0F2",
"f.	c #A8CDF1",
"g.	c #A6C7EC",
"h.	c #6B6C9B",
"i.	c #7374A3",
"j.	c #E0F5FF",
"k.	c #D5EFFF",
"l.	c #575879",
"m.	c #C0E0FF",
"n.	c #70719C",
"o.	c #6A6B94",
"p.	c #65668C",
"q.	c #A2C4EC",
"r.	c #D1EDFF",
"s.	c #CCEBFF",
"t.	c #C8E9FF",
"u.	c #C1E5FF",
"v.	c #B2D7F2",
"w.	c #AED2F1",
"x.	c #AFD4F2",
"y.	c #A5CAE6",
"z.	c #9DC7E4",
"A.	c #9CBFE3",
"B.	c #656691",
"C.	c #5F6084",
"D.	c #98B9DE",
"E.	c #5B5C83",
"F.	c #B0D4F1",
"G.	c #ACD1F0",
"H.	c #9FC5E3",
"I.	c #94B7D7",
"J.	c #94B5D7",
"K.	c #575887",
"L.	c #6667A0",
"M.	c #616298",
"N.	c #5B5C8E",
"O.	c #575886",
"  . +   . + + @ # $ % & & * = - ; ; ",
"> , ' > , , , , , , , , , ) ! ~ { ; ",
"] ^ / ] , , , , , , ( _ _ ) : < [ } ",
"' | 1 2 , 2 2 2 2 2 3 2 2 ) 4 5 6 7 ",
"8 9 0 a , b c d e 3 f g g ) ) ) ) 7 ",
"h i j k , l m n o k g k k p 7 7 q 7 ",
"r s t u , v w x w y z A A B C D E 7 ",
"F G H I J J J K L K M N N N N N O 7 ",
"p P Q R S S S S T U V W X Y Z `  .7 ",
"..+.@.#.$.$.$.%.&.%.*.=.p p -.-.;.7 ",
">.,.'.).!.~.{.].{.^./.Z Z (._.:.<.7 ",
"'.[.}.>.,.|.1.2.^.3.Z '.'.4.4.4.5.7 ",
"6.7.6.'.[.8.9.0./.Z a.b.c.d.e.f.g.h.",
"i.j.k.6.7.6.l.l.6.6.m.6.6.n.o.p.q.h.",
"7 7 7 i.j.k.k.r.s.t.u.v.w.x.y.z.A.B.",
"; ; ; 6.7.6.6.6.6.6.m.n.n.o.C.C.D.E.",
"; ; ; i.j.k.k.r.s.t.u.v.F.G.H.I.J.K.",
"; ; ; 7 7 7 7 7 7 L.L.M.M.M.N.O.O.K."};
