/* XPM */
static char * image_confirm_xpm[] = {
"16 16 14 1",
" 	c None",
".	c #8C8C8C",
"+	c #D9D9D9",
"@	c #F2F2F2",
"#	c #FFFFFF",
"$	c #F7F7F7",
"%	c #F6F7F7",
"&	c #FDFDFE",
"*	c #E9F2F6",
"=	c #EBF1F9",
"-	c #E6EDF8",
";	c #E7EBF3",
">	c #EBEEF3",
",	c #E4E9F2",
"                ",
" ...............",
" ...............",
" .............+.",
" ............@#.",
" ...........$#@.",
" ..........$#@..",
" .........%&%...",
" ...**...*#*....",
" ..*##*.*#*.....",
" ...*#=-#;......",
" ....*##>.......",
" .....,,........",
" ...............",
" ...............",
" ..............."};
