/* XPM */
static char * image_lecture_copy_example_16_xpm[] = {
"16 16 119 2",
"  	c None",
". 	c #ABB9D4",
"+ 	c #B9C5DD",
"@ 	c #B2BBD4",
"# 	c #A8B0CC",
"$ 	c #9FA5C3",
"% 	c #9499BC",
"& 	c #8B8EB4",
"* 	c #8283AC",
"= 	c #7D7DA8",
"- 	c #9AA1BD",
"; 	c #B9B6B8",
"> 	c #B1BBD5",
", 	c #FFFFFF",
"' 	c #7197D2",
") 	c #B2C7E2",
"! 	c #7C92BC",
"~ 	c #B7B4B5",
"{ 	c #ABB4CE",
"] 	c #F9FDFF",
"^ 	c #F6FBFF",
"/ 	c #DEE7F3",
"( 	c #6FBDF7",
"_ 	c #5478B1",
": 	c #B4B1B4",
"< 	c #A6AEC9",
"[ 	c #F5FAFF",
"} 	c #E7EBF5",
"| 	c #D1E0F1",
"1 	c #9CB6E0",
"2 	c #7172A3",
"3 	c #A1A7C4",
"4 	c #F9FCFF",
"5 	c #F0F8FF",
"6 	c #EAF5FF",
"7 	c #9CA1BF",
"8 	c #2EA003",
"9 	c #288A0B",
"0 	c #26810F",
"a 	c #247813",
"b 	c #8788AE",
"c 	c #B0C9EE",
"d 	c #979AB9",
"e 	c #2C9A05",
"f 	c #6FD751",
"g 	c #216F16",
"h 	c #B5C3D0",
"i 	c #DCEEFF",
"j 	c #D6EAFF",
"k 	c #CFE9FF",
"l 	c #CADFFA",
"m 	c #9194B5",
"n 	c #FDFFFF",
"o 	c #51C02B",
"p 	c #6A6D85",
"q 	c #C5DCFA",
"r 	c #8C8EB2",
"s 	c #F9FDFE",
"t 	c #ADBED0",
"u 	c #CEE7FF",
"v 	c #CAE5FF",
"w 	c #C6E4FF",
"x 	c #C2DBFA",
"y 	c #2A8F09",
"z 	c #27850D",
"A 	c #298D09",
"B 	c #1B5322",
"C 	c #1A4D24",
"D 	c #8081A5",
"E 	c #BDD9F9",
"F 	c #5D6874",
"G 	c #3DA21D",
"H 	c #44B61B",
"I 	c #39AD0B",
"J 	c #20631D",
"K 	c #97ADA3",
"L 	c #C1E0FF",
"M 	c #BAE0FF",
"N 	c #B8D6F9",
"O 	c #747498",
"P 	c #D9E8D5",
"Q 	c #36931D",
"R 	c #54C230",
"S 	c #20621D",
"T 	c #5B6B90",
"U 	c #76779F",
"V 	c #B5D5F9",
"W 	c #7C7DA8",
"X 	c #E4F3FE",
"Y 	c #C2D3C5",
"Z 	c #91A79D",
"` 	c #B3C8DB",
" .	c #BADDFF",
"..	c #B4DAFF",
"+.	c #B0DAFF",
"@.	c #AFD2F9",
"#.	c #7677A4",
"$.	c #E0F1FE",
"%.	c #AD4762",
"&.	c #995E73",
"*.	c #A56776",
"=.	c #B2CAE1",
"-.	c #D32634",
";.	c #C62D3E",
">.	c #B9374D",
",.	c #9C3458",
"'.	c #ABCFF9",
").	c #7374A3",
"!.	c #E0F5FF",
"~.	c #D5EFFF",
"{.	c #D1EDFF",
"].	c #BFD0C8",
"^.	c #B4CAD9",
"/.	c #C1E5FF",
"(.	c #BCE3FF",
"_.	c #B8E1FF",
":.	c #B2DEFF",
"<.	c #ADDEFF",
"[.	c #AFD7FF",
"  . + @ # $ % & * = - ;         ",
"  > , , , , , , , ' ) ! ~       ",
"  { , , , , , ] ^ ' / ( _ :     ",
"  < , < < < < [ < ' } | 1 2     ",
"  3 , , , 4 [ 5 6 ' ' ' ' 2     ",
"  7 , 8 9 0 a a 7 b 2 2 c 2     ",
"  d , e f f f g h i j k l 2     ",
"  m n e f o o g p m m m q 2     ",
"  r s e f o o g t u v w x 2     ",
"  y z A f o o B C C D D E 2     ",
"  F G f f o H I J K L M N 2     ",
"  O P Q R H I S T U U U V 2     ",
"  W X Y J I J Z `  ...+.@.2     ",
"  #.$.%.&.J *.=.-.;.>.,.'.2     ",
"  ).!.~.{.].^./.(._.:.<.[.2     ",
"  2 2 2 2 2 2 2 2 2 2 2 2 2     "};
