/* XPM */
static char * image_independent_binary_feature_xpm[] = {
"13 13 75 1",
" 	c None",
".	c #959693",
"+	c #80817E",
"@	c #7F7F7C",
"#	c #81837F",
"$	c #B5B6B5",
"%	c #8C8E8B",
"&	c #F6F6F5",
"*	c #FAFAF9",
"=	c #F9FAF9",
"-	c #F9F9F8",
";	c #F8F9F7",
">	c #F7F8F7",
",	c #9E9E9E",
"'	c #8F8F8F",
")	c #ADADAC",
"!	c #8D8E8B",
"~	c #F8F9F8",
"{	c #C1C1C0",
"]	c #3B3B3A",
"^	c #EEEFEC",
"/	c #ECEEEA",
"(	c #EAECE8",
"_	c #9C9C9B",
":	c #DEDEDE",
"<	c #979796",
"[	c #AFB0AF",
"}	c #3B3C3B",
"|	c #3B3B3B",
"1	c #EFF1EE",
"2	c #888A87",
"3	c #7C7D7B",
"4	c #81827F",
"5	c #FAFAFA",
"6	c #F5F6F4",
"7	c #F1F2F0",
"8	c #EEF0ED",
"9	c #DFE0DD",
"0	c #D1D3CF",
"a	c #D7D8D5",
"b	c #8B8B89",
"c	c #FBFBFB",
"d	c #3C3C3C",
"e	c #F3F5F3",
"f	c #AAABA9",
"g	c #3A3B3A",
"h	c #A6A7A5",
"i	c #F3F4F2",
"j	c #939492",
"k	c #FCFCFC",
"l	c #F5F6F5",
"m	c #555554",
"n	c #F2F3F1",
"o	c #F0F1EF",
"p	c #F4F5F3",
"q	c #FDFDFD",
"r	c #3D3D3D",
"s	c #555655",
"t	c #FEFEFE",
"u	c #565656",
"v	c #F6F7F5",
"w	c #FFFFFF",
"x	c #565756",
"y	c #F8F8F7",
"z	c #3C3C3B",
"A	c #B0B0B0",
"B	c #3C3D3C",
"C	c #ADAEAC",
"D	c #8E8F8C",
"E	c #FCFCFB",
"F	c #929390",
"G	c #959694",
"H	c #828380",
"I	c #82837F",
"J	c #939491",
" .+@@@@@#$   ",
" %&*=-;>,')  ",
" !~{]^/(_:<[ ",
" !-}|1^/2234 ",
" !56}71890ab ",
" !c>def]ghij ",
" !k-dlmnogpj ",
" !qrddspn]lj ",
" !tqc=uvp|vj ",
" !wwqcxyvz>j ",
" !wwtqABdC-j ",
" D5wwtqqkEyF ",
" GH+++++++IJ "};
