/* XPM */
static char * image_save_as_text_18_xpm[] = {
"18 18 131 2",
"  	c None",
". 	c #ABB9D4",
"+ 	c #B9C5DD",
"@ 	c #B2BBD4",
"# 	c #A8B0CC",
"$ 	c #9FA5C3",
"% 	c #9499BC",
"& 	c #8B8EB4",
"* 	c #8283AC",
"= 	c #7D7DA8",
"- 	c #9AA1BD",
"; 	c #B9B6B8",
"> 	c #B1BBD5",
", 	c #FFFFFF",
"' 	c #7197D2",
") 	c #B2C7E2",
"! 	c #7C92BC",
"~ 	c #B7B4B5",
"{ 	c #ABB4CE",
"] 	c #F9FDFF",
"^ 	c #F6FBFF",
"/ 	c #DEE7F3",
"( 	c #6FBDF7",
"_ 	c #5478B1",
": 	c #B4B1B4",
"< 	c #A6AEC9",
"[ 	c #F5FAFF",
"} 	c #E7EBF5",
"| 	c #D1E0F1",
"1 	c #9CB6E0",
"2 	c #7172A3",
"3 	c #A1A7C4",
"4 	c #F9FCFF",
"5 	c #F0F8FF",
"6 	c #EAF5FF",
"7 	c #9CA1BF",
"8 	c #8788AE",
"9 	c #B0C9EE",
"0 	c #979AB9",
"a 	c #F0F7FF",
"b 	c #E9F5FF",
"c 	c #E5F2FF",
"d 	c #DFEFFF",
"e 	c #DCEEFF",
"f 	c #D6EAFF",
"g 	c #CFE9FF",
"h 	c #CADFFA",
"i 	c #9194B5",
"j 	c #FDFFFF",
"k 	c #C5DCFA",
"l 	c #8C8EB2",
"m 	c #F9FDFE",
"n 	c #EFF8FF",
"o 	c #E5F3FF",
"p 	c #F4FAFF",
"q 	c #5272A1",
"r 	c #A40000",
"s 	c #264F8A",
"t 	c #F4FBFE",
"u 	c #8AA8CF",
"v 	c #CC0000",
"w 	c #5D89C0",
"x 	c #8485AB",
"y 	c #EEF8FE",
"z 	c #DBEEFF",
"A 	c #EDF6FF",
"B 	c #87A6CE",
"C 	c #608BC2",
"D 	c #8181A9",
"E 	c #EAF6FE",
"F 	c #7C7DA8",
"G 	c #7EA0CB",
"H 	c #BABDB6",
"I 	c #E4F3FE",
"J 	c #D4EAFF",
"K 	c #CEE6FF",
"L 	c #E4F1FF",
"M 	c #789BC8",
"N 	c #C9D7EA",
"O 	c #F2F5FA",
"P 	c #5E89C0",
"Q 	c #7677A4",
"R 	c #E0F1FE",
"S 	c #7196C4",
"T 	c #4C7AB4",
"U 	c #565F67",
"V 	c #555753",
"W 	c #5A636B",
"X 	c #3E6DAB",
"Y 	c #5A86BD",
"Z 	c #7374A3",
"` 	c #E0F5FF",
" .	c #D5EFFF",
"..	c #D1EDFF",
"+.	c #CCEBFF",
"@.	c #E3F4FF",
"#.	c #698FC0",
"$.	c #3465A4",
"%.	c #CDCDCD",
"&.	c #666969",
"*.	c #686B6B",
"=.	c #E9E9E9",
"-.	c #FEFEFE",
";.	c #DFDFDF",
">.	c #4270AD",
",.	c #5581BA",
"'.	c #6189BC",
").	c #3566A5",
"!.	c #D2D2D2",
"~.	c #F6F6F6",
"{.	c #D5D5D5",
"].	c #C2C2C2",
"^.	c #4574B0",
"/.	c #4F7DB6",
"(.	c #DCF1FF",
"_.	c #416BA3",
":.	c #396AA7",
"<.	c #E8E8E8",
"[.	c #646665",
"}.	c #606261",
"|.	c #ABABAB",
"1.	c #BEBEBE",
"2.	c #4675B1",
"3.	c #4977B2",
"4.	c #6667A0",
"5.	c #878B92",
"6.	c #244C88",
"7.	c #575955",
"8.	c #595B57",
"9.	c #244D88",
"0.	c #17335A",
"  . + @ @ # $ % & * * = - ;         ",
"  > , , , , , , , , , ' ) ! ~       ",
"  { , , , , , , ] ^ ^ ' / ( _ :     ",
"  < , < < < < < [ < < ' } | 1 2     ",
"  3 , , , , 4 [ 5 6 6 ' ' ' ' 2     ",
"  7 , 7 7 7 7 7 6 7 7 8 2 2 9 2     ",
"  0 , 4 4 [ a b c d d e f g h 2     ",
"  i j i i i i i d i i i i i k 2     ",
"  l m n n 6 o p q r r r r r r r r s ",
"  8 t 8 8 8 8 8 u v v v v v v v v w ",
"  x y o o d z A B , , , , , , , , C ",
"  D E F F F F F G , H H H H H H , C ",
"  F I z z J K L M N , , , , , , O P ",
"  Q R Q Q Q Q Q S T U V V V V W X Y ",
"  Z `  . ...+.@.#.$.%.&.*.=.-.;.>.,.",
"  Q R Q Q Q Q Q '.).!.V V ~.{.].^./.",
"  Z `  . ...+.(._.:.<.[.}.%.|.1.2.3.",
"  2 2 2 2 2 2 4.5.6.7.8.8.8.8.7.9.0."};
