/* XPM */
static char * image_lecture_delete_example_16_xpm[] = {
"16 16 106 2",
"  	c None",
". 	c #ABB9D4",
"+ 	c #B9C5DD",
"@ 	c #B2BBD4",
"# 	c #A8B0CC",
"$ 	c #9FA5C3",
"% 	c #9499BC",
"& 	c #8B8EB4",
"* 	c #8283AC",
"= 	c #7D7DA8",
"- 	c #9AA1BD",
"; 	c #B9B6B8",
"> 	c #B1BBD5",
", 	c #FFFFFF",
"' 	c #7197D2",
") 	c #B2C7E2",
"! 	c #7C92BC",
"~ 	c #B7B4B5",
"{ 	c #ABB4CE",
"] 	c #F9FDFF",
"^ 	c #F6FBFF",
"/ 	c #DEE7F3",
"( 	c #6FBDF7",
"_ 	c #5478B1",
": 	c #B4B1B4",
"< 	c #A6AEC9",
"[ 	c #F5FAFF",
"} 	c #E7EBF5",
"| 	c #D1E0F1",
"1 	c #9CB6E0",
"2 	c #7172A3",
"3 	c #A1A7C4",
"4 	c #F9FCFF",
"5 	c #F0F8FF",
"6 	c #EAF5FF",
"7 	c #9CA1BF",
"8 	c #8788AE",
"9 	c #B0C9EE",
"0 	c #5C5D85",
"a 	c #979AB9",
"b 	c #F0F7FF",
"c 	c #E9F5FF",
"d 	c #E5F2FF",
"e 	c #DFEFFF",
"f 	c #DCEEFF",
"g 	c #D6EAFF",
"h 	c #CFE9FF",
"i 	c #CADFFA",
"j 	c #9194B5",
"k 	c #FDFFFF",
"l 	c #C5DCFA",
"m 	c #8C8EB2",
"n 	c #F9FDFE",
"o 	c #EFF8FF",
"p 	c #E5F3FF",
"q 	c #DBEEFF",
"r 	c #D5EAFF",
"s 	c #CEE7FF",
"t 	c #CAE5FF",
"u 	c #F4FBFE",
"v 	c #8081A5",
"w 	c #8485AB",
"x 	c #EEF8FE",
"y 	c #990000",
"z 	c #970006",
"A 	c #8181A9",
"B 	c #EAF6FE",
"C 	c #FD0202",
"D 	c #EE0E13",
"E 	c #DA1C28",
"F 	c #CD2736",
"G 	c #B43C51",
"H 	c #FF7575",
"I 	c #FF6666",
"J 	c #FF5555",
"K 	c #FF4343",
"L 	c #FF1919",
"M 	c #880005",
"N 	c #7C7DA8",
"O 	c #E4F3FE",
"P 	c #D4EAFF",
"Q 	c #CEE6FF",
"R 	c #C4E2FF",
"S 	c #C1E0FF",
"T 	c #8A0000",
"U 	c #7D0000",
"V 	c #710000",
"W 	c #6F0005",
"X 	c #7677A4",
"Y 	c #E0F1FE",
"Z 	c #C0E0FF",
"` 	c #70719C",
" .	c #65668D",
"..	c #83A2BC",
"+.	c #535478",
"@.	c #7374A3",
"#.	c #E0F5FF",
"$.	c #D5EFFF",
"%.	c #D1EDFF",
"&.	c #CCEBFF",
"*.	c #C8E9FF",
"=.	c #C1E5FF",
"-.	c #BCE3FF",
";.	c #B8E1FF",
">.	c #B2DEFF",
",.	c #666793",
"  . + @ # $ % & * = - ;         ",
"  > , , , , , , , ' ) ! ~       ",
"  { , , , , , ] ^ ' / ( _ :     ",
"  < , < < < < [ < ' } | 1 2     ",
"  3 , , , 4 [ 5 6 ' ' ' ' 2     ",
"  7 , 7 7 7 7 6 7 8 2 2 9 0     ",
"  a , 4 [ b c d e f g h i 2     ",
"  j k j j j j e j j j j l 2     ",
"  m n o 6 p e q r s t t t 2     ",
"  8 u 8 8 8 8 r 8 8 v v t 2     ",
"  w x p e q r s t y y y y y y z ",
"  A B C D E F t G y H I J K L M ",
"  N O q P Q t R S y T U U V W W ",
"  X Y X X X X Z X `  .0 ..+.    ",
"  @.#.$.%.&.*.=.-.;.>.>.>.,.    ",
"  2 2 2 2 2 2 2 2 2 2 ,.,.,.    "};
