/* XPM */
static char * image_lecture_copy_example_18_xpm[] = {
"18 18 139 2",
"  	c None",
". 	c #ABB9D4",
"+ 	c #B9C5DD",
"@ 	c #B2BBD4",
"# 	c #A8B0CC",
"$ 	c #9FA5C3",
"% 	c #9499BC",
"& 	c #8B8EB4",
"* 	c #8283AC",
"= 	c #7D7DA8",
"- 	c #9AA1BD",
"; 	c #B9B6B8",
"> 	c #B1BBD5",
", 	c #FFFFFF",
"' 	c #7197D2",
") 	c #B2C7E2",
"! 	c #7C92BC",
"~ 	c #B7B4B5",
"{ 	c #ABB4CE",
"] 	c #F9FDFF",
"^ 	c #F6FBFF",
"/ 	c #DEE7F3",
"( 	c #6FBDF7",
"_ 	c #5478B1",
": 	c #B4B1B4",
"< 	c #A6AEC9",
"[ 	c #F5FAFF",
"} 	c #E7EBF5",
"| 	c #D1E0F1",
"1 	c #9CB6E0",
"2 	c #7172A3",
"3 	c #A1A7C4",
"4 	c #2EA003",
"5 	c #288A0B",
"6 	c #26810F",
"7 	c #247813",
"8 	c #F0F8FF",
"9 	c #EAF5FF",
"0 	c #9CA1BF",
"a 	c #2C9A05",
"b 	c #6FD751",
"c 	c #216F16",
"d 	c #8788AE",
"e 	c #B0C9EE",
"f 	c #979AB9",
"g 	c #51C02B",
"h 	c #E5F2FF",
"i 	c #DFEFFF",
"j 	c #DCEEFF",
"k 	c #D6EAFF",
"l 	c #CFE9FF",
"m 	c #CADFFA",
"n 	c #9194B5",
"o 	c #FDFFFF",
"p 	c #C5DCFA",
"q 	c #2A8F09",
"r 	c #27850D",
"s 	c #298D09",
"t 	c #1B5322",
"u 	c #1A4D24",
"v 	c #D5EAFF",
"w 	c #CEE7FF",
"x 	c #CAE5FF",
"y 	c #C6E4FF",
"z 	c #C2DBFA",
"A 	c #3DA21D",
"B 	c #44B61B",
"C 	c #39AD0B",
"D 	c #20631D",
"E 	c #8081A5",
"F 	c #BDD9F9",
"G 	c #8485AB",
"H 	c #EEF8FE",
"I 	c #36931D",
"J 	c #54C230",
"K 	c #20621D",
"L 	c #C5E2FF",
"M 	c #C1E0FF",
"N 	c #BAE0FF",
"O 	c #B8D6F9",
"P 	c #8181A9",
"Q 	c #EAF6FE",
"R 	c #7C7DA8",
"S 	c #76779F",
"T 	c #B0D0F4",
"U 	c #E4F3FE",
"V 	c #DBEEFF",
"W 	c #CEE6FF",
"X 	c #C4E2FF",
"Y 	c #C2E0FF",
"Z 	c #C3E0FF",
"` 	c #B4D5F8",
" .	c #ADD0F2",
"..	c #A8CDF1",
"+.	c #A6C7EC",
"@.	c #6B6C9B",
"#.	c #7677A4",
"$.	c #E0F1FE",
"%.	c #FB0405",
"&.	c #F90507",
"*.	c #F7070A",
"=.	c #F40A0E",
"-.	c #EF0E14",
";.	c #C0E0FF",
">.	c #E8141C",
",.	c #DE1D28",
"'.	c #CD2736",
").	c #B53549",
"!.	c #934862",
"~.	c #A2C4EC",
"{.	c #7374A3",
"].	c #E0F5FF",
"^.	c #D5EFFF",
"/.	c #D1EDFF",
"(.	c #CCEBFF",
"_.	c #C8E9FF",
":.	c #C1E5FF",
"<.	c #B2D7F2",
"[.	c #AED2F1",
"}.	c #AFD4F2",
"|.	c #A5CAE6",
"1.	c #9DC7E4",
"2.	c #9CBFE3",
"3.	c #656691",
"4.	c #70719C",
"5.	c #6A6B94",
"6.	c #5F6084",
"7.	c #98B9DE",
"8.	c #5B5C83",
"9.	c #B0D4F1",
"0.	c #ACD1F0",
"a.	c #9FC5E3",
"b.	c #94B7D7",
"c.	c #94B5D7",
"d.	c #575887",
"e.	c #6667A0",
"f.	c #616298",
"g.	c #5B5C8E",
"h.	c #575886",
"  . + @ @ # $ % & * * = - ;         ",
"  > , , , , , , , , , ' ) ! ~       ",
"  { , , , , , , ] ^ ^ ' / ( _ :     ",
"  < , < < < < < [ < < ' } | 1 2     ",
"  3 , 4 5 6 7 7 8 9 9 ' ' ' ' 2     ",
"  0 , a b b b c 9 0 0 d 2 2 e 2     ",
"  f , a b g g c h i i j k l m 2     ",
"  n o a b g g c i n n n n n p 2     ",
"  q r s b g g t u u v w x y z 2     ",
"  d A b b g B C D d d d E E F 2     ",
"  G H I J B C K w x x L M N O 2     ",
"  P Q R D C D R x R R S S S T 2     ",
"  R U V V D W x X Y Z `  ...+.@.    ",
"  #.$.%.&.*.=.-.;.>.,.'.).!.~.@.    ",
"  {.].^.^./.(._.:.<.[.}.|.1.2.3.    ",
"  #.$.#.#.#.#.#.;.4.4.5.6.6.7.8.    ",
"  {.].^.^./.(._.:.<.9.0.a.b.c.d.    ",
"  2 2 2 2 2 2 e.e.f.f.f.g.h.h.d.    "};
