/* XPM */
static char * image_collapse_18_xpm[] = {
"18 18 11 1",
" 	c #800000",
".	c None",
"+	c #FF5830",
"@	c #FF5028",
"#	c #FF4018",
"$	c #FF3008",
"%	c #FF1800",
"&	c #999999",
"*	c #FF0000",
"=	c #FFCCCC",
"-	c #FFA3A3",
"     .............",
" ++@ .............",
" @#$ .............",
" $$% .............",
"     .............",
"..&...............",
"..&...............",
"..&.....&&&&&.....",
"..&.....&...&.....",
"..&&&&&&&...&.....",
"..&.....&...*=.=*.",
"..&.....&&&&&*=*-.",
"..&..........=*=..",
"..&.....&&&&&*=*-.",
"..&.....&...*=.=*.",
"..&&&&&&&...&.....",
"........&...&.....",
"........&&&&&....."};
