/* XPM */
static char * image_graph_branch_xpm[] = {
"16 16 14 1",
" 	c #BFDCFF",
".	c #7575A1",
"+	c #FFFFFF",
"@	c #EAF5FF",
"#	c #ECF6FF",
"$	c #E8F3FF",
"%	c #E8F4FF",
"&	c #E3F1FF",
"*	c #E6F3FF",
"=	c #DDEEFF",
"-	c #D9ECFF",
";	c #D5EAFF",
">	c #D0E8FF",
",	c #CCE6FF",
"                ",
" .............. ",
" ......++...... ",
" ......+++..... ",
" .......+++.... ",
" ........+++... ",
" .........+++.. ",
" .++++++...+++. ",
" .++++++...@#$. ",
" .........%%&.. ",
" ........*%=... ",
" .......-*;.... ",
" ......>>>..... ",
" ......,,...... ",
" .............. ",
"                "};
