/* XPM */
static char * image_nominal_feature_xpm[] = {
"13 13 81 1",
" 	c None",
".	c #959693",
"+	c #80817E",
"@	c #7F7F7C",
"#	c #81837F",
"$	c #B5B6B5",
"%	c #8C8E8B",
"&	c #F6F6F5",
"*	c #FAFAF9",
"=	c #F9FAF9",
"-	c #F9F9F8",
";	c #F8F9F7",
">	c #F7F8F7",
",	c #9E9E9E",
"'	c #8F8F8F",
")	c #ADADAC",
"!	c #8D8E8B",
"~	c #F8F9F8",
"{	c #F2F3F0",
"]	c #F0F1EE",
"^	c #EEEFEC",
"/	c #ECEEEA",
"(	c #EAECE8",
"_	c #9C9C9B",
":	c #DEDEDE",
"<	c #979796",
"[	c #AFB0AF",
"}	c #F3F4F2",
"|	c #EEEFEE",
"1	c #D8D9D7",
"2	c #81817F",
"3	c #C0C2BE",
"4	c #888A87",
"5	c #7C7D7B",
"6	c #81827F",
"7	c #FAFAFA",
"8	c #F5F6F4",
"9	c #A0A1A0",
"0	c #838383",
"a	c #5F605F",
"b	c #DFE0DD",
"c	c #D1D3CF",
"d	c #D7D8D5",
"e	c #8B8B89",
"f	c #FBFBFB",
"g	c #F5F6F5",
"h	c #6B6B6B",
"i	c #F2F3F1",
"j	c #474746",
"k	c #EEF0ED",
"l	c #ECEEEB",
"m	c #939492",
"n	c #FCFCFC",
"o	c #C9CAC9",
"p	c #F4F5F3",
"q	c #474747",
"r	c #A0A09F",
"s	c #FDFDFD",
"t	c #FBFBFA",
"u	c #6D6D6D",
"v	c #616261",
"w	c #585858",
"x	c #F0F1EF",
"y	c #FEFEFE",
"z	c #BABABA",
"A	c #6E6E6E",
"B	c #F6F7F5",
"C	c #404040",
"D	c #B2B3B1",
"E	c #FFFFFF",
"F	c #717171",
"G	c #B8B8B8",
"H	c #F8F8F7",
"I	c #C8C9C7",
"J	c #8E8F8C",
"K	c #FCFCFB",
"L	c #929390",
"M	c #959694",
"N	c #828380",
"O	c #82837F",
"P	c #939491",
" .+@@@@@#$   ",
" %&*=-;>,')  ",
" !~{]^/(_:<[ ",
" !-}|1234456 ",
" !78}90abcde ",
" !f>ghijkl}m ",
" !n-ohpqrkpm ",
" !stuvwqqxgm ",
" !yzA=>BCDBm ",
" !EFGf=HIq>m ",
" !EEysf=>B-m ",
" J7EEyssnKHL ",
" MN+++++++OP "};
