/* XPM */
static char * image_lecture_view_18_xpm[] = {
"18 18 178 2",
"  	c None",
". 	c #ABB9D4",
"+ 	c #B9C5DD",
"@ 	c #B2BBD4",
"# 	c #A8B0CC",
"$ 	c #9FA5C3",
"% 	c #9499BC",
"& 	c #B0B0B0",
"* 	c #929595",
"= 	c #7F8282",
"- 	c #686B6C",
"; 	c #8A8E8E",
"> 	c #A4A5A5",
", 	c #B1BBD5",
"' 	c #FFFFFF",
") 	c #9B9F9F",
"! 	c #656767",
"~ 	c #B8BBB7",
"{ 	c #C6C8C4",
"] 	c #C5C8C4",
"^ 	c #BABCBA",
"/ 	c #969898",
"( 	c #989A9B",
"_ 	c #ABB4CE",
": 	c #CFC9D7",
"< 	c #958CA2",
"[ 	c #636663",
"} 	c #C7CAC4",
"| 	c #DADCD7",
"1 	c #DADAF2",
"2 	c #E1E2DF",
"3 	c #D4D5D4",
"4 	c #BEBFBF",
"5 	c #7B7C7C",
"6 	c #A6AEC9",
"7 	c #B1B0B5",
"8 	c #716F74",
"9 	c #CED2CB",
"0 	c #E5E5F6",
"a 	c #F9F9FD",
"b 	c #F6F6FC",
"c 	c #EDEDF9",
"d 	c #DDDDE8",
"e 	c #BCBCBC",
"f 	c #636565",
"g 	c #A1A7C4",
"h 	c #D5D7D7",
"i 	c #767A7E",
"j 	c #9EA3AB",
"k 	c #FBFBFE",
"l 	c #D5D6D4",
"m 	c #969999",
"n 	c #6C6D6E",
"o 	c #9CA1BF",
"p 	c #BFC1C1",
"q 	c #6E757F",
"r 	c #D0DCF5",
"s 	c #DDDDEC",
"t 	c #BABCBB",
"u 	c #737778",
"v 	c #979AB9",
"w 	c #F9FCFF",
"x 	c #B6B8B8",
"y 	c #8B97AB",
"z 	c #B3B3D2",
"A 	c #96AFD2",
"B 	c #C5C8C5",
"C 	c #484D4E",
"D 	c #9194B5",
"E 	c #FDFFFF",
"F 	c #8492A8",
"G 	c #C8CCF4",
"H 	c #4A4F51",
"I 	c #8C8EB2",
"J 	c #F9FDFE",
"K 	c #EFF8FF",
"L 	c #C1C2C2",
"M 	c #9FA8AA",
"N 	c #9898BC",
"O 	c #D1D3F4",
"P 	c #C3C8F5",
"Q 	c #BABCDA",
"R 	c #DADBDF",
"S 	c #848989",
"T 	c #8788AE",
"U 	c #F4FBFE",
"V 	c #DBDDDD",
"W 	c #A6A9AA",
"X 	c #CDCFDB",
"Y 	c #CFD1F4",
"Z 	c #909392",
"` 	c #8485AB",
" .	c #EEF8FE",
"..	c #E5F3FF",
"+.	c #C0C2C2",
"@.	c #9EA1A1",
"#.	c #DEDEF0",
"$.	c #DEDFEE",
"%.	c #B7BAB5",
"&.	c #656666",
"*.	c #8181A9",
"=.	c #EAF6FE",
"-.	c #7C7DA8",
";.	c #BF9973",
">.	c #858686",
",.	c #747776",
"'.	c #C9CAD0",
").	c #DBDCEA",
"!.	c #DBDDE7",
"~.	c #B3BAB3",
"{.	c #6C6C6B",
"].	c #E4F3FE",
"^.	c #AD8862",
"/.	c #B06B22",
"(.	c #7D5522",
"_.	c #807A6F",
":.	c #757778",
"<.	c #757876",
"[.	c #AAADAC",
"}.	c #AEB0B0",
"|.	c #B8BABA",
"1.	c #7E817F",
"2.	c #696B69",
"3.	c #6B6C9B",
"4.	c #7677A4",
"5.	c #AB8660",
"6.	c #77501D",
"7.	c #64400D",
"8.	c #A8A8A8",
"9.	c #CCCECF",
"0.	c #9B9B9B",
"a.	c #676767",
"b.	c #6B6D6D",
"c.	c #CDCECE",
"d.	c #A2C4EC",
"e.	c #AE6A21",
"f.	c #78501E",
"g.	c #5F3D08",
"h.	c #8A8B8B",
"i.	c #CCEBFF",
"j.	c #C8E9FF",
"k.	c #C1E5FF",
"l.	c #B2D7F2",
"m.	c #AED2F1",
"n.	c #AFD4F2",
"o.	c #A5CAE6",
"p.	c #9DC7E4",
"q.	c #9CBFE3",
"r.	c #656691",
"s.	c #9C703F",
"t.	c #AF6B22",
"u.	c #78501D",
"v.	c #878989",
"w.	c #C0E0FF",
"x.	c #70719C",
"y.	c #6A6B94",
"z.	c #5F6084",
"A.	c #98B9DE",
"B.	c #5B5C83",
"C.	c #8B6030",
"D.	c #754E1B",
"E.	c #63400C",
"F.	c #878889",
"G.	c #D5EFFF",
"H.	c #D1EDFF",
"I.	c #B0D4F1",
"J.	c #ACD1F0",
"K.	c #9FC5E3",
"L.	c #94B7D7",
"M.	c #94B5D7",
"N.	c #575887",
"O.	c #807869",
"P.	c #7E8080",
"Q.	c #7172A3",
"R.	c #6667A0",
"S.	c #616298",
"T.	c #5B5C8E",
"U.	c #575886",
"  . + @ @ # $ % & * = - ; >         ",
"  , ' ' ' ' ' ) ! ~ { ] ^ / (       ",
"  _ ' ' ' : < [ } | 1 1 2 3 4 5     ",
"  6 ' 6 6 7 8 9 0 a b c 1 1 d e f   ",
"  g ' ' h i j 1 a k 0 1 1 1 1 l m n ",
"  o ' o p q r 1 b 0 1 1 1 1 1 s t u ",
"  v ' w x y 1 z 0 z A z 1 1 1 1 B C ",
"  D E D x F 1 1 1 1 1 1 1 1 G 1 { H ",
"  I J K L M 1 z N N N z O P Q R ~ S ",
"  T U T V W X 1 1 1 1 Y P Q 1 } Z & ",
"  `  .....+.@.#.z N G P Q 1 $.%.&.  ",
"  *.=.-.;.>.,.@.'.).1 1 1 !.~.{.    ",
"  -.].^./.(._.+.:.<.[.}.|.1.2.3.    ",
"  4.5./.6.7.8.4.9.0.a.a.b.c.d.3.    ",
"  5.e.f.g.h.i.j.k.l.m.n.o.p.q.r.    ",
"s.t.u.g.v.4.4.4.w.x.x.y.z.z.A.B.    ",
"C.D.E.F.G.H.i.j.k.l.I.J.K.L.M.N.    ",
"O.C.P.Q.Q.Q.Q.R.R.S.S.S.T.U.U.N.    "};
