/* XPM */
static char * image_rename_item_16_xpm[] = {
"16 16 87 1",
" 	c None",
".	c #E3B5B0",
"+	c #E8A9A9",
"@	c #C1D7E7",
"#	c #7592BF",
"$	c #AEBFE1",
"%	c #C33A37",
"&	c #D94C4B",
"*	c #AB0B07",
"=	c #97B8D2",
"-	c #B1C1E1",
";	c #6B89C8",
">	c #C37B4A",
",	c #D26054",
"'	c #DB4747",
")	c #BE100F",
"!	c #91A5D2",
"~	c #4484B8",
"{	c #6985C1",
"]	c #9BADD6",
"^	c #D0AC74",
"/	c #F6BC6A",
"(	c #E1844C",
"_	c #BB2218",
":	c #AA0702",
"<	c #5D90B9",
"[	c #C9D3E9",
"}	c #CDA66A",
"|	c #F9BB5F",
"1	c #FCB247",
"2	c #E8A33D",
"3	c #AB420F",
"4	c #5377C1",
"5	c #7A91C1",
"6	c #C49A57",
"7	c #F5BB65",
"8	c #FCB348",
"9	c #E7A33E",
"0	c #B3863E",
"a	c #C69D5C",
"b	c #F3BB67",
"c	c #FCB44B",
"d	c #E39F39",
"e	c #BE8F46",
"f	c #DFDDD7",
"g	c #E4E5E1",
"h	c #CBA870",
"i	c #F6BB66",
"j	c #E09C36",
"k	c #AD7925",
"l	c #D1D1C9",
"m	c #DADAD7",
"n	c #E4E4E1",
"o	c #C49D5E",
"p	c #F7BC65",
"q	c #FCB248",
"r	c #E6A039",
"s	c #AE7A28",
"t	c #C2C1B7",
"u	c #CDCDC4",
"v	c #D1D1CA",
"w	c #EAE9D9",
"x	c #DFA95A",
"y	c #FBB54D",
"z	c #BA8F47",
"A	c #AEB199",
"B	c #BBC0AB",
"C	c #BDC1B2",
"D	c #FFFFFF",
"E	c #F4DFC0",
"F	c #D0902F",
"G	c #B68940",
"H	c #ADAA92",
"I	c #A2AA8F",
"J	c #ADAD9A",
"K	c #B4B09D",
"L	c #94938F",
"M	c #EFE9DF",
"N	c #C3AB75",
"O	c #AAAC91",
"P	c #A2AA89",
"Q	c #92997C",
"R	c #443C2E",
"S	c #716F60",
"T	c #848A70",
"U	c #E0E0E0",
"V	c #CACACA",
"              .+",
"     @#$     %&*",
"    =- ;    >,')",
" !  ~ {]   ^/(_:",
"{  < <[   }|123 ",
"[{{45    67890  ",
"  ~     abcdefg ",
" <5    hicjklmn ",
" {    opqrstuv  ",
" {   wxyrzABC   ",
" {   DEFGHIJ    ",
"  4 KLMNOPQ     ",
"   {RSTQPP      ",
"    UVVVV       ",
"                ",
"                "};
