/* XPM */
static char * image_save_as_fcl_18_xpm[] = {
"18 18 131 2",
"  	c #7F97BB",
". 	c #27518B",
"+ 	c #A40000",
"@ 	c #264F8A",
"# 	c #849BBD",
"$ 	c None",
"% 	c #274F8A",
"& 	c #5A86BE",
"* 	c #CC0000",
"= 	c #5D89C0",
"- 	c #234C88",
"; 	c #B3B3B3",
"> 	c #264E8A",
", 	c #5C87BF",
"' 	c #FFFFFF",
") 	c #5F8AC1",
"! 	c #5D88BF",
"~ 	c #8DB9FC",
"{ 	c #89B7FA",
"] 	c #89B6F8",
"^ 	c #C0CDED",
"/ 	c #81AAF8",
"( 	c #83AAF6",
"_ 	c #608BC2",
": 	c #5E89C0",
"< 	c #6FA4F1",
"[ 	c #6897F1",
"} 	c #F8F8FC",
"| 	c #73A7F4",
"1 	c #618CC2",
"2 	c #4482E4",
"3 	c #4F82DD",
"4 	c #BCC9ED",
"5 	c #4F82E4",
"6 	c #4A88E9",
"7 	c #DFDFF0",
"8 	c #3358BD",
"9 	c #A3A3D2",
"0 	c #2E53BD",
"a 	c #4C61BA",
"b 	c #6262B1",
"c 	c #5B86BE",
"d 	c #9BB5D8",
"e 	c #F1F5FA",
"f 	c #F2F5FA",
"g 	c #9CB7D9",
"h 	c #5985BD",
"i 	c #648FC4",
"j 	c #6791C6",
"k 	c #6992C7",
"l 	c #6B95C9",
"m 	c #6C95C9",
"n 	c #6A94C8",
"o 	c #628CC3",
"p 	c #254E89",
"q 	c #5581BA",
"r 	c #3768A5",
"s 	c #566067",
"t 	c #CACACA",
"u 	c #CCCCCC",
"v 	c #CBCBCB",
"w 	c #D6D6D6",
"x 	c #DFDFDF",
"y 	c #F2F2F2",
"z 	c #FAFAFA",
"A 	c #B5B6B5",
"B 	c #3F6EAB",
"C 	c #4270AD",
"D 	c #5784BC",
"E 	c #224B88",
"F 	c #527FB8",
"G 	c #3465A4",
"H 	c #565854",
"I 	c #C6C6C6",
"J 	c #666969",
"K 	c #585B59",
"L 	c #E9E9E9",
"M 	c #FEFEFE",
"N 	c #EDEDED",
"O 	c #4270AE",
"P 	c #507DB7",
"Q 	c #575955",
"R 	c #555753",
"S 	c #5781B5",
"T 	c #ECECEA",
"U 	c #F6F6F6",
"V 	c #EAEAEA",
"W 	c #D9D9D9",
"X 	c #D0D0D0",
"Y 	c #4472AE",
"Z 	c #4472AF",
"` 	c #244E89",
" .	c #4B79B4",
"..	c #3768A7",
"+.	c #585A56",
"@.	c #DCDCDC",
"#.	c #5884BC",
"$.	c #EEEEEC",
"%.	c #E2E2E2",
"&.	c #C0C0C0",
"*.	c #AFAFAF",
"=.	c #BABABA",
"-.	c #4675B0",
";.	c #4C7AB4",
">.	c #3B6096",
",.	c #5882B8",
"'.	c #396AA7",
").	c #646665",
"!.	c #CDCDCD",
"~.	c #ABABAB",
"{.	c #A5A5A5",
"].	c #BEBEBE",
"^.	c #4675B1",
"/.	c #4674B0",
"(.	c #4977B2",
"_.	c #BEC2C8",
":.	c #3E68A0",
"<.	c #406FAA",
"[.	c #F9F9F9",
"}.	c #FCFCFC",
"|.	c #EFEFEE",
"1.	c #CFCFCF",
"2.	c #C2C2C2",
"3.	c #C1C1C1",
"4.	c #5680B7",
"5.	c #5681B7",
"6.	c #5A84B8",
"7.	c #234D88",
"8.	c #A3A5A6",
"9.	c #9DA0A4",
"0.	c #9EA1A5",
"  . + + + + + + + + + + + + + @ # $ ",
"% & * * * * * * * * * * * * * = - ; ",
"> , ' ' ' ' ' ' ' ' ' ' ' ' ' ) - ; ",
"> ! ' ~ { ] ' ^ / ( ' { ' ' ' _ - ; ",
"> : ' < ' ' ' [ ' } ' | ' ' ' 1 - ; ",
"> = ' 2 3 4 ' 5 ' ' ' 6 ' 7 ' 1 - ; ",
"> ! ' 8 ' ' ' 9 0 a ' 0 0 b ' _ - ; ",
"> c d e ' ' ' ' ' ' ' ' f g g : - ; ",
"> h , ) i j k l m n k j o ) ) , - ; ",
"> h , ) i j k l m n k j o ) ) , - ; ",
"p q r s t u v w x y z A B C C D E ; ",
"p F G H I J K x L M N x C O O q E ; ",
"p P G Q I R S T U V W X Y Z Z F E ; ",
"`  ...+.@.R #.$.%.&.*.=.-.-.-.;.E ; ",
">.,.'.+.L ).R $.!.~.{.].^././.(.E ; ",
"_.:.<.Q [.}.y |.1.2.3.3.4.5.5.6.7.; ",
"$ 8.9.9.9.9.9.9.9.9.9.9.9.9.9.0.; ; ",
"$ $ ; ; ; ; ; ; ; ; ; ; ; ; ; ; ; ; "};
