/* XPM */
static char * image_exchange_folders_18_xpm[] = {
"18 18 85 1",
" 	c None",
".	c #787860",
"+	c #707860",
"@	c #354F6F",
"#	c #376298",
"$	c #3365A2",
"%	c #3465A4",
"&	c #436A9A",
"*	c #485D75",
"=	c #E0E0D8",
"-	c #F0F0E0",
";	c #E8F0E0",
">	c #E8E8E0",
",	c #365E91",
"'	c #648ABA",
")	c #A7C1DF",
"!	c #BBD0E7",
"~	c #B3CBE5",
"{	c #8DA3B9",
"]	c #617081",
"^	c #393C41",
"/	c #D0D0B0",
"(	c #E8E8D8",
"_	c #354C6C",
":	c #5E86B7",
"<	c #B7CEE6",
"[	c #96B8DB",
"}	c #8AABD1",
"|	c #5177A7",
"1	c #4E6B8C",
"2	c #414B58",
"3	c #C8D0A8",
"4	c #D8D8B8",
"5	c #9BB9DA",
"6	c #93B6DA",
"7	c #A3C1E0",
"8	c #789BC4",
"9	c #355C8E",
"0	c #324154",
"a	c #363C42",
"b	c #360B0B",
"c	c #B8B898",
"d	c #788060",
"e	c #7BA5D2",
"f	c #BDD2E9",
"g	c #3C6AA7",
"h	c #909878",
"i	c #D8D8C8",
"j	c #3D6CA8",
"k	c #75A1D0",
"l	c #3A659D",
"m	c #889070",
"n	c #E0E0D0",
"o	c #C5D6E9",
"p	c #9BBBDD",
"q	c #729FCF",
"r	c #B3B3B3",
"s	c #E0E8D0",
"t	c #808868",
"u	c #D8D8C0",
"v	c #ADAD9A",
"w	c #C7D7EA",
"x	c #739FCF",
"y	c #8F8F86",
"z	c #D0D8B8",
"A	c #A7AD93",
"B	c #A2C0DF",
"C	c #73A0CF",
"D	c #8B8F80",
"E	c #D0D0C0",
"F	c #808060",
"G	c #B5CDE6",
"H	c #868B76",
"I	c #D8E0C8",
"J	c #A0A78D",
"K	c #B6CBE2",
"L	c #868671",
"M	c #D8E0C0",
"N	c #C0C8B0",
"O	c #E0E0C8",
"P	c #A0A787",
"Q	c #737878",
"R	c #A8A890",
"S	c #E0E0E0",
"T	c #A0A088",
"                  ",
"                  ",
" .++++.+  @#$%&*  ",
".=-;>>>+ ,')!~{]^ ",
"+;////(+_:<[!}|12 ",
"+>/3334(#567890ab ",
"+(cd++++$!efg++.d ",
"+(hi-%%%jfkfj%%l. ",
"+(mnn%offpqpffo%dr",
"+st=uv%w7xqx7w%ydr",
"+sd(zzA%wBCBw%DEFr",
"+sd(zzzA%wGw%HIEFr",
"+ncs3333J%K%L/MNdr",
"+OzO33333P%Q33Mc.r",
"+O4I333333P333IRrr",
".SSSSSSSSSSSSSSTr ",
"d+.++++++++++++dr ",
" rrrrrrrrrrrrrrrr "};
