/* XPM */
static char * image_feature_copy_18_xpm[] = {
"18 18 163 2",
"  	c None",
". 	c #E4B813",
"+ 	c #374B26",
"@ 	c #3D6A12",
"# 	c #3D7904",
"$ 	c #386112",
"% 	c #354626",
"& 	c #DDA509",
"* 	c #DBA006",
"= 	c #FFF02F",
"- 	c #FFF433",
"; 	c #FFF130",
"> 	c #427C0D",
", 	c #5A9C1B",
"' 	c #75BE2E",
") 	c #7CD226",
"! 	c #61B212",
"~ 	c #498B0B",
"{ 	c #38690C",
"] 	c #FFD716",
"^ 	c #FFFF94",
"/ 	c #FFFF89",
"( 	c #394D26",
"_ 	c #61A225",
": 	c #A0E160",
"< 	c #65AC22",
"[ 	c #478808",
"} 	c #55A00E",
"| 	c #78D122",
"1 	c #4B8C0E",
"2 	c #F2F2F2",
"3 	c #808080",
"4 	c #FFFF87",
"5 	c #FFFF82",
"6 	c #427514",
"7 	c #95CB61",
"8 	c #71B332",
"9 	c #3C6515",
"0 	c #344029",
"a 	c #375E15",
"b 	c #59A213",
"c 	c #6BB81F",
"d 	c #E0AD0D",
"e 	c #4A9206",
"f 	c #C1F095",
"g 	c #448605",
"h 	c #DB9C06",
"i 	c #FFE928",
"j 	c #3F5F20",
"k 	c #4A8D0C",
"l 	c #416B18",
"m 	c #3A5B1B",
"n 	c #3C730A",
"o 	c #374F20",
"p 	c #FFD410",
"q 	c #FFFF81",
"r 	c #FFFD6E",
"s 	c #4B8D0B",
"t 	c #B8D79B",
"u 	c #87B958",
"v 	c #609F23",
"w 	c #6BAD2A",
"x 	c #3A6D09",
"y 	c #FFCF0B",
"z 	c #FFFF79",
"A 	c #FFF86C",
"B 	c #40681B",
"C 	c #8BBD5C",
"D 	c #F3F9ED",
"E 	c #7FB54C",
"F 	c #6AA530",
"G 	c #A9E271",
"H 	c #559618",
"I 	c #385918",
"J 	c #6B4A29",
"K 	c #FFD71F",
"L 	c #E6E6E6",
"M 	c #FFFB7B",
"N 	c #FFF871",
"O 	c #FFF065",
"P 	c #427116",
"Q 	c #E5F6D5",
"R 	c #CDF3AA",
"S 	c #BEEA94",
"T 	c #385F14",
"U 	c #D9D9D9",
"V 	c #737373",
"W 	c #FFF26E",
"X 	c #FEEF66",
"Y 	c #FFEE60",
"Z 	c #FFEF55",
"` 	c #D3F0B7",
" .	c #3B6216",
"..	c #FFD822",
"+.	c #CCCCCC",
"@.	c #595959",
"#.	c #FFF26F",
"$.	c #FFF067",
"%.	c #FFF05E",
"&.	c #FFEB57",
"*.	c #FFE344",
"=.	c #406C16",
"-.	c #4F9210",
";.	c #3C6417",
">.	c #FFDD26",
",.	c #BFBFBF",
"'.	c #404040",
").	c #FFF266",
"!.	c #FFEB63",
"~.	c #FFE443",
"{.	c #FFDF37",
"].	c #FFDC2F",
"^.	c #FFDC24",
"/.	c #FFD10E",
"(.	c #B3B3B3",
"_.	c #FEF073",
":.	c #FFF164",
"<.	c #FFEC5E",
"[.	c #FFE85B",
"}.	c #FFE84D",
"|.	c #FFE548",
"1.	c #FFE640",
"2.	c #FEE43A",
"3.	c #FFDD2F",
"4.	c #FFD51C",
"5.	c #FED21B",
"6.	c #A6A6A6",
"7.	c #FFF271",
"8.	c #FFED60",
"9.	c #FFEE58",
"0.	c #000000",
"a.	c #FEEA45",
"b.	c #FFE33D",
"c.	c #FFE03A",
"d.	c #FFDD29",
"e.	c #FFD61B",
"f.	c #FFD211",
"g.	c #999999",
"h.	c #8C8C8C",
"i.	c #FFF36B",
"j.	c #FEED6B",
"k.	c #FFEF63",
"l.	c #FFEB55",
"m.	c #FFE240",
"n.	c #FFDA2C",
"o.	c #FEDF25",
"p.	c #FFD515",
"q.	c #FFF477",
"r.	c #FFF56E",
"s.	c #FFEE5F",
"t.	c #FFE744",
"u.	c #FEE03C",
"v.	c #FFD00E",
"w.	c #FDF482",
"x.	c #FEF778",
"y.	c #FEF26C",
"z.	c #FDF161",
"A.	c #FFEE54",
"B.	c #FEEA4A",
"C.	c #FFE73D",
"D.	c #FEE12D",
"E.	c #FDD11A",
"F.	c #FFD10B",
"          . . . . . . + @ # $ % & * ",
"          . = - ; = > , ' ) ! ~ { ] ",
"          . ^ ^ / ( _ : < [ } | 1 % ",
"          2 3 4 5 6 7 8 9 0 a b c $ ",
". . . . . . . d d e f g * * h h h h ",
". = - ; = i j k l e f g m n o p p p ",
". ^ ^ / q r s t u e f g v w x y y y ",
"2 3 4 5 z A B C D E f F G H I J K K ",
"L L 3 M N O J P u Q R S v T ] J K K ",
"U U V W X Y Z J P E ` F  ...J K K K ",
"+.+.@.#.$.%.&.J *.=.-.;.>.J ] K K K ",
",.,.'.#.).!.J J J ~.{.].^.J J J /./.",
"(.(.'._.:.<.[.}.|.1.2.3.>.4.5./././.",
"6.(.'.7.$.8.9.0.a.b.c.3.d.0.e.f.f.f.",
"g.h.'.i.j.k.l.0.a.m.2.n.o.0.p./././.",
"h.'.q.r.0.s.l.0.t.u.0.].d.0.p.v.0.v.",
"0.w.x.y.0.z.A.0.B.C.0.D.^.0.E.F.0.F.",
"0.0.0.0.0.0.0.0.0.0.0.0.0.0.0.0.0.0."};
