/* XPM */
static char * image_compare_lectures_16_xpm[] = {
"16 16 131 2",
"  	c #ABB9D4",
". 	c #B9C5DD",
"+ 	c #B2BBD4",
"@ 	c #A8B0CC",
"# 	c #9FA5C3",
"$ 	c #9499BC",
"% 	c #8B8EB4",
"& 	c #8283AC",
"* 	c #7D7DA8",
"= 	c #7172A3",
"- 	c None",
"; 	c #B1BBD5",
"> 	c #FFFFFF",
", 	c #8D96BA",
"' 	c #A6AEC9",
") 	c #DADAE7",
"! 	c #DADDE9",
"~ 	c #D1D5E4",
"{ 	c #F5FAFF",
"] 	c #B8BED4",
"^ 	c #D6D9E5",
"/ 	c #CA96C5",
"( 	c #BD7CB7",
"_ 	c #AD5CA5",
": 	c #99338F",
"< 	c #800073",
"[ 	c #A1A7C4",
"} 	c #7CBD7C",
"| 	c #5CAD5C",
"1 	c #339933",
"2 	c #008000",
"3 	c #EAF5FF",
"4 	c #EEF7FF",
"5 	c #FFA1FF",
"6 	c #FF89FF",
"7 	c #FF5CFF",
"8 	c #5A0051",
"9 	c #9CA1BF",
"0 	c #D7D9E5",
"a 	c #E1FFB3",
"b 	c #BDFF59",
"c 	c #007300",
"d 	c #B2B3CB",
"e 	c #8D8EB5",
"f 	c #C2CFDD",
"g 	c #FF7CFF",
"h 	c #FF33FF",
"i 	c #979AB9",
"j 	c #F9FCFF",
"k 	c #9AFF01",
"l 	c #006500",
"m 	c #DCEEFF",
"n 	c #D6EAFF",
"o 	c #DAE9FC",
"p 	c #FF00FF",
"q 	c #9194B5",
"r 	c #FDFFFF",
"s 	c #C7C8D9",
"t 	c #006D00",
"u 	c #005A00",
"v 	c #DBDCE7",
"w 	c #8C8EB2",
"x 	c #F9FDFE",
"y 	c #EFF8FF",
"z 	c #ADC6E0",
"A 	c #B2C9E3",
"B 	c #AEC6E1",
"C 	c #95B4D7",
"D 	c #91B0D5",
"E 	c #8DADD3",
"F 	c #86A7CF",
"G 	c #7C9FCB",
"H 	c #678FC1",
"I 	c #6084B2",
"J 	c #8788AE",
"K 	c #F4FBFE",
"L 	c #C1C2D5",
"M 	c #436CA4",
"N 	c #44679B",
"O 	c #3D6197",
"P 	c #375D94",
"Q 	c #355D96",
"R 	c #2B548F",
"S 	c #204A87",
"T 	c #1D437A",
"U 	c #1A3B6C",
"V 	c #1E4070",
"W 	c #8485AB",
"X 	c #EEF8FE",
"Y 	c #E5F3FF",
"Z 	c #E8F4FF",
"` 	c #E4F1FF",
" .	c #E6F3FF",
"..	c #E9F4FF",
"+.	c #E7F4FF",
"@.	c #C8E6FF",
"#.	c #C6DEFA",
"$.	c #C5C5D9",
"%.	c #8181A9",
"&.	c #EAF6FE",
"*.	c #7C7DA8",
"=.	c #CAE5FF",
"-.	c #DDDDE8",
";.	c #4C6E9F",
">.	c #9DB7D7",
",.	c #B5D5F9",
"'.	c #E4F3FE",
").	c #DBEEFF",
"!.	c #D4EAFF",
"~.	c #CEE6FF",
"{.	c #85A5CD",
"].	c #152F56",
"^.	c #D1D1E1",
"/.	c #7677A4",
"(.	c #E0F1FE",
"_.	c #B9B9D1",
":.	c #325B95",
"<.	c #2B5590",
"[.	c #24497F",
"}.	c #1D3F71",
"|.	c #1A3862",
"1.	c #7374A3",
"2.	c #E0F5FF",
"3.	c #D5EFFF",
"4.	c #D1EDFF",
"5.	c #CCEBFF",
"6.	c #D3EDFF",
"7.	c #D7EEFF",
"8.	c #D4EDFF",
"9.	c #DAF0FF",
"0.	c #D5EEFF",
"  . + @ # $ % & * = = = = - - - ",
"; > > > > > > > > > > > , - - - ",
"' > > > > > > > > > > > ) - - - ",
"' > ' ! ~ ~ { ] ] ' ^ / ( _ : < ",
"[ > > > } | 1 2 3 3 4 ( 5 6 7 8 ",
"9 > 9 0 | a b c d e f _ g 7 h 8 ",
"i > j { 1 b k l m n o : h p p 8 ",
"q r q s 2 t l u s s v < 8 8 8 8 ",
"w x y 3 z A A A B C D E F G H I ",
"J K J L M N O P Q R S T U U U V ",
"W X Y 3 Z `  ...+.U @.#.$.- - - ",
"%.&.*.*.*.*.=.-.;.>.U ,.e - - - ",
"*.'.).!.~.=.+.;.>.{.H ].^.- - - ",
"/.(./././._.;.:.<.[.}.|.].- - - ",
"1.2.3.4.5.6.7.8.9.7.0.n ^.- - - ",
"= = = = = = = = = = = = = - - - "};
