/* XPM */
static char * image_classify_input_18_xpm[] = {
"18 18 205 2",
"  	c #E7F6D1",
". 	c #DEEDB5",
"+ 	c #DAEAAD",
"@ 	c #DAEDB0",
"# 	c #D0E99B",
"$ 	c #C4E181",
"% 	c #C4E281",
"& 	c #B5DB62",
"* 	c #848484",
"= 	c #CDE5DE",
"- 	c #C9E9E1",
"; 	c #BDE5E0",
"> 	c #B4E8E4",
", 	c #A9E9E5",
"' 	c #ADE6E2",
") 	c #A7E7E4",
"! 	c #9BE8E5",
"~ 	c #82D9E0",
"{ 	c #C5E98F",
"] 	c #A4D43D",
"^ 	c #A2D33D",
"/ 	c #A2D13B",
"( 	c #A0D139",
"_ 	c #656565",
": 	c #B9DFD6",
"< 	c #ABDBD3",
"[ 	c #979797",
"} 	c #94E2DF",
"| 	c #91DED9",
"1 	c #86DFDA",
"2 	c #81DFDD",
"3 	c #56C8D9",
"4 	c #C3E88F",
"5 	c #A3D33D",
"6 	c #A2D23B",
"7 	c #A0D039",
"8 	c #A0CF38",
"9 	c #5E5E5E",
"0 	c #858585",
"a 	c #4D4D4D",
"b 	c #919191",
"c 	c #8CDED9",
"d 	c #85DBD7",
"e 	c #7BDCD9",
"f 	c #80DDD9",
"g 	c #54C3D1",
"h 	c #C7E58B",
"i 	c #92C738",
"j 	c #828298",
"k 	c #666681",
"l 	c #8FC235",
"m 	c #80B830",
"n 	c #8ABF32",
"o 	c #81DCD5",
"p 	c #7ED8D5",
"q 	c #77D9D6",
"r 	c #51BFCD",
"s 	c #C1E27E",
"t 	c #75758D",
"u 	c #FFB319",
"v 	c #FAAE19",
"w 	c #9BCC38",
"x 	c #9ACC37",
"y 	c #99CA36",
"z 	c #99CB37",
"A 	c #79D8D5",
"B 	c #74D6D3",
"C 	c #71D7D5",
"D 	c #4EBED0",
"E 	c #BADD6F",
"F 	c #FEB419",
"G 	c #FFB51A",
"H 	c #F8B01A",
"I 	c #98C935",
"J 	c #71D4D0",
"K 	c #6DD5D3",
"L 	c #4BB8CC",
"M 	c #767676",
"N 	c #A7843E",
"O 	c #FAB019",
"P 	c #A98336",
"Q 	c #545454",
"R 	c #5D555D",
"S 	c #5A5A5A",
"T 	c #6C6C6C",
"U 	c #7AA0A9",
"V 	c #6BD1CE",
"W 	c #4BB2C7",
"X 	c #FFCC66",
"Y 	c #FFBA2F",
"Z 	c #FAB72F",
"` 	c #F2B12F",
" .	c #EEAF2F",
"..	c #ECAD2A",
"+.	c #EBAB26",
"@.	c #EEAC26",
"#.	c #EAAD33",
"$.	c #625C62",
"%.	c #FAB8D9",
"&.	c #F5B3CF",
"*.	c #EE9BBE",
"=.	c #676767",
"-.	c #69D1CE",
";.	c #4BB2C1",
">.	c #FFD175",
",.	c #F9B730",
"'.	c #EAAD2F",
").	c #E4AA30",
"!.	c #E5A82F",
"~.	c #E4A82C",
"{.	c #E3A72A",
"].	c #E3AB36",
"^.	c #FAADE5",
"/.	c #F99EE3",
"(.	c #4BB0BD",
"_.	c #FACB66",
":.	c #ECAE30",
"<.	c #EBAC2F",
"[.	c #E4A72F",
"}.	c #B88C2F",
"|.	c #5D5D5D",
"1.	c #BA8C2F",
"2.	c #FA98F3",
"3.	c #FA8FF1",
"4.	c #BF5DCC",
"5.	c #4B4B4B",
"6.	c #F5C666",
"7.	c #F1B12F",
"8.	c #EDAF2F",
"9.	c #E6A931",
"0.	c #DFA531",
"a.	c #F79BD3",
"b.	c #ED89D9",
"c.	c #626262",
"d.	c #FA90EE",
"e.	c #FA86EF",
"f.	c #FA8AF2",
"g.	c #FA86F1",
"h.	c #F681E2",
"i.	c #F17FD0",
"j.	c #D24F9F",
"k.	c #F4C155",
"l.	c #E4A92F",
"m.	c #DEA42F",
"n.	c #D9A12F",
"o.	c #FA97CC",
"p.	c #FA8CDC",
"q.	c #F189E6",
"r.	c #FA82EC",
"s.	c #FA84EC",
"t.	c #F986EA",
"u.	c #F881E6",
"v.	c #F57AE0",
"w.	c #F27BD5",
"x.	c #C34499",
"y.	c #626360",
"z.	c #868883",
"A.	c #646662",
"B.	c #727570",
"C.	c #646661",
"D.	c #72756F",
"E.	c #636561",
"F.	c #71746F",
"G.	c #878984",
"H.	c #636560",
"I.	c #C3C5C0",
"J.	c #72746F",
"K.	c #858783",
"L.	c #71736F",
"M.	c #71736E",
"N.	c #D2D4CF",
"O.	c #858782",
"P.	c #70726E",
"Q.	c #80827E",
"R.	c #7F817C",
"S.	c #DDDFDB",
"T.	c #80827D",
"U.	c #969893",
"V.	c #959793",
"W.	c #959792",
"X.	c #D1D2CE",
"Y.	c #7E807C",
"Z.	c #E0E1DE",
"`.	c #787A76",
" +	c #767873",
".+	c #F1F1F0",
"++	c #9FA19B",
"@+	c #DBDCD8",
"#+	c #F2F3F1",
"$+	c #70726D",
"%+	c #6D6F6B",
"&+	c #F7F7F6",
"*+	c #FFFFFF",
"=+	c #F8F8F7",
"-+	c #686A65",
";+	c #51524E",
">+	c #656762",
",+	c #626460",
"'+	c #62645F",
")+	c #61635F",
"!+	c #60625E",
"~+	c #60625D",
"{+	c #5F615D",
"]+	c #5E615C",
"^+	c #4D4E4C",
"  . + @ # $ % & * = - ; > , ' ) ! ~ ",
"{ ] ] ^ / / ( ( _ : < [ } } | 1 2 3 ",
"4 5 5 / 6 7 8 8 9 < 0 a b c d e f g ",
"h i i j k j l l m 9 a n _ o e p q r ",
"s i t u u v t l w x y z 9 A A B C D ",
"E i 9 F G H a l x x y I 9 p B J K L ",
"M N N 9 O 9 P P a a Q R S S T U V W ",
"X Y Y Z `  .....+.@.#.$.%.&.*.=.-.;.",
">.,.,.` '.).!.!.~.{.].$.^./.=.U -.(.",
"_.` ` :.<.[.[.}.|.|.1.=.2.3.4.9 9 5.",
"6.7.7.8.9.0.0.=.a.b.c.d.e.f.g.h.i.j.",
"k.:.:.l.m.n.n.9 o.p.q.r.s.t.u.v.w.x.",
"y.z.A.B.A.B.A.B.C.D.E.F.G.F.H.F.z.y.",
"z.I.z.J.z.J.z.J.K.L.K.M.N.M.O.P.I.Q.",
"R.S.T.U.T.U.T.V.R.W.R.W.X.W.Y.W.Z.`.",
" +.+++G.++G.G.G.G.G.++G.@+G.++G.#+$+",
"%+&+*+*+*+*+*+*+*+*+*+*+*+*+*+*+=+-+",
";+>+E.E.E.E.H.,+'+)+)+!+!+~+{+{+]+^+"};
