/* XPM */
static char * image_collapse_16_xpm[] = {
"16 16 9 1",
" 	c #800000",
".	s None",
"+	c #FF5830",
"@	c #FF5028",
"#	c #FF4018",
"$	c #FF3008",
"%	c #FF1800",
"&	c #999999",
"*	c #FF0000",
"     ...........",
" ++@ ...........",
" @#$ ...........",
" $$% ...........",
"     ...........",
"..&....&&&&&....",
"..&....&...&....",
"..&&&&&&...&....",
"..&....&...*...*",
"..&....&&&&&*.*.",
"..&..........*..",
"..&....&&&&&*.*.",
"..&....&...*...*",
"..&&&&&&...&....",
".......&...&....",
".......&&&&&...."};
