/* XPM */
static char * image_classify_input_16_xpm[] = {
"16 16 176 2",
"  	c #D1EDA5",
". 	c #C5E483",
"+ 	c #C4E383",
"@ 	c #C4E181",
"# 	c #C2E180",
"$ 	c #9D9D9D",
"% 	c #D2EAE5",
"& 	c #C9E8E3",
"* 	c #BDBDBD",
"= 	c #BAEDEA",
"- 	c #B9EAE7",
"; 	c #B1EAE7",
"> 	c #AEEAE9",
", 	c #78D3E1",
"' 	c #C3E88F",
") 	c #A3D33D",
"! 	c #A2D13B",
"~ 	c #A2D23B",
"{ 	c #A0D039",
"] 	c #A0CF38",
"^ 	c #5E5E5E",
"/ 	c #ABDBD3",
"( 	c #858585",
"_ 	c #4D4D4D",
": 	c #919191",
"< 	c #8CDED9",
"[ 	c #85DBD7",
"} 	c #7BDCD9",
"| 	c #80DDD9",
"1 	c #54C3D1",
"2 	c #C7E58B",
"3 	c #92C738",
"4 	c #828298",
"5 	c #666681",
"6 	c #8FC235",
"7 	c #80B830",
"8 	c #8ABF32",
"9 	c #656565",
"0 	c #81DCD5",
"a 	c #7ED8D5",
"b 	c #77D9D6",
"c 	c #51BFCD",
"d 	c #C1E27E",
"e 	c #75758D",
"f 	c #FFB319",
"g 	c #FAAE19",
"h 	c #9BCC38",
"i 	c #9ACC37",
"j 	c #99CA36",
"k 	c #99CB37",
"l 	c #79D8D5",
"m 	c #74D6D3",
"n 	c #71D7D5",
"o 	c #4EBED0",
"p 	c #BADD6F",
"q 	c #FEB419",
"r 	c #FFB51A",
"s 	c #F8B01A",
"t 	c #98C935",
"u 	c #71D4D0",
"v 	c #6DD5D3",
"w 	c #4BB8CC",
"x 	c #767676",
"y 	c #A7843E",
"z 	c #FAB019",
"A 	c #A98336",
"B 	c #545454",
"C 	c #5D555D",
"D 	c #5A5A5A",
"E 	c #6C6C6C",
"F 	c #7AA0A9",
"G 	c #6BD1CE",
"H 	c #4BB2C7",
"I 	c #FFCC66",
"J 	c #FFBA2F",
"K 	c #FAB72F",
"L 	c #F2B12F",
"M 	c #EEAF2F",
"N 	c #ECAD2A",
"O 	c #EBAB26",
"P 	c #EEAC26",
"Q 	c #EAAD33",
"R 	c #625C62",
"S 	c #FAB8D9",
"T 	c #F5B3CF",
"U 	c #EE9BBE",
"V 	c #676767",
"W 	c #69D1CE",
"X 	c #4BB2C1",
"Y 	c #FFD175",
"Z 	c #F9B730",
"` 	c #EAAD2F",
" .	c #E4AA30",
"..	c #E5A82F",
"+.	c #E4A82C",
"@.	c #E3A72A",
"#.	c #E3AB36",
"$.	c #FAADE5",
"%.	c #F99EE3",
"&.	c #4BB0BD",
"*.	c #FACB66",
"=.	c #ECAE30",
"-.	c #EBAC2F",
";.	c #E4A72F",
">.	c #B88C2F",
",.	c #5D5D5D",
"'.	c #BA8C2F",
").	c #FA98F3",
"!.	c #FA8FF1",
"~.	c #BF5DCC",
"{.	c #4B4B4B",
"].	c #F5C666",
"^.	c #F1B12F",
"/.	c #EDAF2F",
"(.	c #E6A931",
"_.	c #DFA531",
":.	c #F79BD3",
"<.	c #ED89D9",
"[.	c #626262",
"}.	c #FA90EE",
"|.	c #FA86EF",
"1.	c #FA8AF2",
"2.	c #FA86F1",
"3.	c #F681E2",
"4.	c #F17FD0",
"5.	c #D04E9B",
"6.	c #626360",
"7.	c #868883",
"8.	c #646662",
"9.	c #727570",
"0.	c #646661",
"a.	c #72756F",
"b.	c #636561",
"c.	c #71746F",
"d.	c #878984",
"e.	c #636560",
"f.	c #C3C5C0",
"g.	c #72746F",
"h.	c #858783",
"i.	c #71736F",
"j.	c #71736E",
"k.	c #D2D4CF",
"l.	c #858782",
"m.	c #70726E",
"n.	c #80827E",
"o.	c #7F817C",
"p.	c #DDDFDB",
"q.	c #80827D",
"r.	c #969893",
"s.	c #959793",
"t.	c #959792",
"u.	c #D1D2CE",
"v.	c #7E807C",
"w.	c #E0E1DE",
"x.	c #787A76",
"y.	c #767873",
"z.	c #F1F1F0",
"A.	c #9FA19B",
"B.	c #DBDCD8",
"C.	c #F2F3F1",
"D.	c #70726D",
"E.	c #6D6F6B",
"F.	c #F7F7F6",
"G.	c #FFFFFF",
"H.	c #F8F8F7",
"I.	c #686A65",
"J.	c #51524E",
"K.	c #656762",
"L.	c #626460",
"M.	c #62645F",
"N.	c #61635F",
"O.	c #60625E",
"P.	c #60625D",
"Q.	c #5F615D",
"R.	c #5E615C",
"S.	c #4D4E4C",
"  . + @ @ # $ % & * = = - ; > , ",
"' ) ! ~ { ] ^ / ( _ : < [ } | 1 ",
"2 3 4 5 4 6 7 ^ _ 8 9 0 } a b c ",
"d e f f g e h i j k ^ l l m n o ",
"p ^ q r s _ i i j t ^ a m u v w ",
"x y ^ z ^ A _ _ B C D D E F G H ",
"I J K L M N O P Q R S T U V W X ",
"Y Z L `  ...+.@.#.R $.%.V F W &.",
"*.L =.-.;.>.,.,.'.V ).!.~.^ ^ {.",
"].^./.(._.V :.<.[.}.|.1.2.3.4.5.",
"6.7.8.9.8.9.0.a.b.c.d.c.e.c.7.6.",
"7.f.7.g.7.g.h.i.h.j.k.j.l.m.f.n.",
"o.p.q.r.q.s.o.t.o.t.u.t.v.t.w.x.",
"y.z.A.d.d.d.d.d.A.d.B.d.A.d.C.D.",
"E.F.G.G.G.G.G.G.G.G.G.G.G.G.H.I.",
"J.K.b.b.e.L.M.N.N.O.O.P.Q.Q.R.S."};
