/* XPM */
static char * image_classify_18_xpm[] = {
"18 18 217 2",
"  	c #C1F8B8",
". 	c #BAF4A7",
"+ 	c #B8F19E",
"@ 	c #B0EC87",
"# 	c #AFEA87",
"$ 	c #B5E884",
"% 	c #ACE377",
"& 	c #ACE477",
"* 	c #969696",
"= 	c #D1EAE5",
"- 	c #CEE9E6",
"; 	c #C3EEEB",
"> 	c #BCECEA",
", 	c #9CDDD8",
"' 	c #C6F3AC",
") 	c #B0D44B",
"! 	c #A6CD37",
"~ 	c #A6D038",
"{ 	c #A5D43D",
"] 	c #A2D33C",
"^ 	c #87B92E",
"/ 	c #5E5E5E",
"( 	c #656565",
"_ 	c #8FC335",
": 	c #6A6A6A",
"< 	c #ACE5DF",
"[ 	c #9EE8E3",
"} 	c #94E3DF",
"| 	c #98E3DF",
"1 	c #85D2CC",
"2 	c #CBEEA0",
"3 	c #A6D53E",
"4 	c #A4D53D",
"5 	c #A2D13B",
"6 	c #7B7B7B",
"7 	c #C9E3D9",
"8 	c #999999",
"9 	c #6E6E6E",
"0 	c #919191",
"a 	c #9FE5E0",
"b 	c #98E2DF",
"c 	c #91E1DD",
"d 	c #5DCCD1",
"e 	c #CAEB9A",
"f 	c #A6CD36",
"g 	c #A5D43E",
"h 	c #A2D23B",
"i 	c #C1DFD6",
"j 	c #BBE3DA",
"k 	c #ADDFD8",
"l 	c #A1E2DD",
"m 	c #99E0DB",
"n 	c #82E2DE",
"o 	c #63D0D8",
"p 	c #C5E98F",
"q 	c #A4D43D",
"r 	c #A2D33D",
"s 	c #A0D139",
"t 	c #B9DFD6",
"u 	c #ABDBD3",
"v 	c #979797",
"w 	c #94E2DF",
"x 	c #91DED9",
"y 	c #86DFDA",
"z 	c #81DFDD",
"A 	c #56C8D9",
"B 	c #C3E88F",
"C 	c #A3D33D",
"D 	c #A0D039",
"E 	c #A0CF38",
"F 	c #858585",
"G 	c #4D4D4D",
"H 	c #8CDED9",
"I 	c #85DBD7",
"J 	c #7BDCD9",
"K 	c #80DDD9",
"L 	c #54C3D1",
"M 	c #C7E58B",
"N 	c #92C738",
"O 	c #828298",
"P 	c #666681",
"Q 	c #8FC235",
"R 	c #80B830",
"S 	c #8ABF32",
"T 	c #81DCD5",
"U 	c #7ED8D5",
"V 	c #77D9D6",
"W 	c #51BFCD",
"X 	c #C1E27E",
"Y 	c #75758D",
"Z 	c #FFB319",
"` 	c #FAAE19",
" .	c #9BCC38",
"..	c #9ACC37",
"+.	c #99CA36",
"@.	c #99CB37",
"#.	c #79D8D5",
"$.	c #74D6D3",
"%.	c #71D7D5",
"&.	c #4EBED0",
"*.	c #BADD6F",
"=.	c #FEB419",
"-.	c #FFB51A",
";.	c #F8B01A",
">.	c #98C935",
",.	c #71D4D0",
"'.	c #6DD5D3",
").	c #4BB8CC",
"!.	c #767676",
"~.	c #A7843E",
"{.	c #FAB019",
"].	c #A98336",
"^.	c #545454",
"/.	c #5D555D",
"(.	c #5A5A5A",
"_.	c #6C6C6C",
":.	c #7AA0A9",
"<.	c #6BD1CE",
"[.	c #4BB2C7",
"}.	c #FFCC66",
"|.	c #FFBA2F",
"1.	c #FAB72F",
"2.	c #F2B12F",
"3.	c #EEAF2F",
"4.	c #ECAD2A",
"5.	c #EBAB26",
"6.	c #EEAC26",
"7.	c #EAAD33",
"8.	c #625C62",
"9.	c #FAB8D9",
"0.	c #F5B3CF",
"a.	c #EE9BBE",
"b.	c #676767",
"c.	c #69D1CE",
"d.	c #4BB2C1",
"e.	c #FFD175",
"f.	c #F9B730",
"g.	c #EAAD2F",
"h.	c #E4AA30",
"i.	c #E5A82F",
"j.	c #E4A82C",
"k.	c #E3A72A",
"l.	c #E3AB36",
"m.	c #FAADE5",
"n.	c #F99EE3",
"o.	c #4BB0BD",
"p.	c #FACB66",
"q.	c #ECAE30",
"r.	c #EBAC2F",
"s.	c #E4A72F",
"t.	c #B88C2F",
"u.	c #5D5D5D",
"v.	c #BA8C2F",
"w.	c #FA98F3",
"x.	c #FA8FF1",
"y.	c #BF5DCC",
"z.	c #4B4B4B",
"A.	c #F5C666",
"B.	c #F1B12F",
"C.	c #EDAF2F",
"D.	c #E6A931",
"E.	c #DFA531",
"F.	c #F79BD3",
"G.	c #ED89D9",
"H.	c #626262",
"I.	c #FA90EE",
"J.	c #FA86EF",
"K.	c #FA8AF2",
"L.	c #FA86F1",
"M.	c #F681E2",
"N.	c #F17FD0",
"O.	c #D24F9F",
"P.	c #F4C155",
"Q.	c #E4A92F",
"R.	c #DEA42F",
"S.	c #D9A12F",
"T.	c #FA97CC",
"U.	c #FA8CDC",
"V.	c #F189E6",
"W.	c #FA82EC",
"X.	c #FA84EC",
"Y.	c #F986EA",
"Z.	c #F881E6",
"`.	c #F57AE0",
" +	c #F27BD5",
".+	c #C34499",
"++	c #EFBD53",
"@+	c #E7AB2F",
"#+	c #E0A62E",
"$+	c #DAA12E",
"%+	c #D59E2E",
"&+	c #464646",
"*+	c #B43F8F",
"=+	c #EAB951",
"-+	c #E2A82E",
";+	c #DCA32D",
">+	c #D69E2D",
",+	c #D19B2D",
"'+	c #CE992D",
")+	c #A3771D",
"!+	c #B23F8C",
"~+	c #D79E2E",
"{+	c #CF921A",
"]+	c #C88E19",
"^+	c #C18A19",
"/+	c #BC851A",
"(+	c #B68119",
"_+	c #AB7E21",
":+	c #A67A20",
"<+	c #A1761F",
"[+	c #52264D",
"}+	c #E556C6",
"|+	c #D84BBE",
"1+	c #CE43B5",
"2+	c #CC43B1",
"3+	c #BE40A2",
"4+	c #B74398",
"  . . + @ # # # # $ % & * = - ; > , ",
"' ) ) ! ~ { ] ] ^ / ( _ : < [ } | 1 ",
"2 ~ ~ 3 4 ] 5 5 6 7 8 9 0 a | b c d ",
"e f f g ] 5 h h ( i j k l } m c n o ",
"p q q r 5 5 s s ( t u v w w x y z A ",
"B C C 5 h D E E / u F G 0 H I J K L ",
"M N N O P O Q Q R / G S ( T J U V W ",
"X N Y Z Z ` Y Q  ...+.@./ #.#.$.%.&.",
"*.N / =.-.;.G Q ....+.>./ U $.,.'.).",
"!.~.~./ {./ ].].G G ^./.(.(._.:.<.[.",
"}.|.|.1.2.3.4.4.5.6.7.8.9.0.a.b.c.d.",
"e.f.f.2.g.h.i.i.j.k.l.8.m.n.b.:.c.o.",
"p.2.2.q.r.s.s.t.u.u.v.b.w.x.y./ / z.",
"A.B.B.C.D.E.E.b.F.G.H.I.J.K.L.M.N.O.",
"P.q.q.Q.R.S.S./ T.U.V.W.X.Y.Z.`. +.+",
"++@+@+#+$+%+%+&+T.U.H.W.X.Y.Z.`. +*+",
"=+-+-+;+>+,+'+)+&+&+)+&+X.Y.Z.`. +!+",
"~+{+{+]+^+/+(+_+:+<+<+[+}+|+1+2+3+4+"};
