/* XPM */
static char * image_rename_16_xpm[] = {
"16 16 117 2",
"  	c None",
". 	c #EFD3D1",
"+ 	c #E3B5B0",
"@ 	c #787860",
"# 	c #707860",
"$ 	c #CCABA0",
"% 	c #C33A37",
"& 	c #D94C4B",
"* 	c #AB0B07",
"= 	c #E0E0D8",
"- 	c #F0F0E0",
"; 	c #E8F0E0",
"> 	c #E8E8E0",
", 	c #E5D1BB",
"' 	c #C37B4A",
") 	c #D26054",
"! 	c #DB4747",
"~ 	c #BE100F",
"{ 	c #D0D0B0",
"] 	c #E8E8D8",
"^ 	c #9D977A",
"/ 	c #D0AC74",
"( 	c #F6BC6A",
"_ 	c #E1844C",
": 	c #BB2218",
"< 	c #AA0702",
"[ 	c #C8D0A8",
"} 	c #D8D8B8",
"| 	c #E0E8D0",
"1 	c #E9E3CF",
"2 	c #CDA66A",
"3 	c #F9BB5F",
"4 	c #FCB247",
"5 	c #E8A33D",
"6 	c #AB420F",
"7 	c #B8B898",
"8 	c #788060",
"9 	c #94957D",
"0 	c #C49A57",
"a 	c #F5BB65",
"b 	c #FCB348",
"c 	c #E7A33E",
"d 	c #B3863E",
"e 	c #747361",
"f 	c #61694F",
"g 	c #909878",
"h 	c #D8D8C8",
"i 	c #E7DFCA",
"j 	c #C69D5C",
"k 	c #F3BB67",
"l 	c #FCB44B",
"m 	c #E39F39",
"n 	c #BE8F46",
"o 	c #C1BDB0",
"p 	c #ABB1A4",
"q 	c #61614F",
"r 	c #889070",
"s 	c #E0E0D0",
"t 	c #DCD5BF",
"u 	c #CBA870",
"v 	c #F6BB66",
"w 	c #E09C36",
"x 	c #AD7925",
"y 	c #B8B6AA",
"z 	c #B6B6B0",
"A 	c #ABABA4",
"B 	c #6C7457",
"C 	c #808868",
"D 	c #D8D8C0",
"E 	c #DCD9C2",
"F 	c #C49D5E",
"G 	c #F7BC65",
"H 	c #FCB248",
"I 	c #E6A039",
"J 	c #AE7A28",
"K 	c #B3B2A5",
"L 	c #B0B0A2",
"M 	c #A4A499",
"N 	c #CACABC",
"O 	c #D0D8B8",
"P 	c #EAE9D9",
"Q 	c #DFA95A",
"R 	c #FBB54D",
"S 	c #BA8F47",
"T 	c #AEB199",
"U 	c #AAB096",
"V 	c #999F87",
"W 	c #C3CAB4",
"X 	c #D0D0C0",
"Y 	c #808060",
"Z 	c #FDFCFB",
"` 	c #F4DFC0",
" .	c #D0902F",
"..	c #B68940",
"+.	c #ADAA92",
"@.	c #A2AA8F",
"#.	c #999981",
"$.	c #BCBC9F",
"%.	c #D8E0C0",
"&.	c #C0C8B0",
"*.	c #E0E0C8",
"=.	c #B4B09D",
"-.	c #94938F",
";.	c #EFE9DF",
">.	c #C3AB75",
",.	c #AAAC91",
"'.	c #A2AA89",
").	c #92997C",
"!.	c #B4BC98",
"~.	c #D8E0C8",
"{.	c #443C2E",
"].	c #716F60",
"^.	c #848A70",
"/.	c #A8A890",
"(.	c #E0E0E0",
"_.	c #CACACA",
":.	c #A0A088",
"                          . +   ",
"  @ # # # @ #           $ % & * ",
"@ = - ; > > #         , ' ) ! ~ ",
"# ; { { { ] # # # # ^ / ( _ : < ",
"# > { [ [ } ] ] | 1 2 3 4 5 6   ",
"# ] 7 8 # # # # 9 0 a b c d e f ",
"# ] g h - - - i j k l m n o p q ",
"# ] r s s s t u v l w x y z A B ",
"# | C = D E F G H I J K L M N 8 ",
"# | 8 ] O P Q R I S T U V W X Y ",
"# s 7 | [ Z `  ...+.@.#.$.%.&.8 ",
"# *.O *.=.-.;.>.,.'.).!.[ %.7 @ ",
"# *.} ~.{.].^.).'.'.[ [ [ ~./.  ",
"@ (.(.(.(._._._._.(.(.(.(.(.:.  ",
"8 # @ # # # # # # # # # # # 8   ",
"                                "};
