/* XPM */
static char * image_general_lecture_xpm[] = {
"13 13 136 2",
"  	c None",
". 	c #959693",
"+ 	c #80817E",
"@ 	c #7F7F7C",
"# 	c #81837F",
"$ 	c #B5B6B5",
"% 	c #8C8E8B",
"& 	c #F6F6F5",
"* 	c #FAFAF9",
"= 	c #F9FAF9",
"- 	c #F9F9F8",
"; 	c #F8F9F7",
"> 	c #F7F8F7",
", 	c #9E9E9E",
"' 	c #8F8F8F",
") 	c #ADADAC",
"! 	c #8D8E8B",
"~ 	c #F8F9F8",
"{ 	c #DCD9DC",
"] 	c #DADDD7",
"^ 	c #DBDCDF",
"/ 	c #DCDCDC",
"( 	c #DEDFE0",
"_ 	c #9C9C9B",
": 	c #DEDEDE",
"< 	c #979796",
"[ 	c #AFB0AF",
"} 	c #D9D9D9",
"| 	c #DFDDE0",
"1 	c #DEE2E2",
"2 	c #CBE3C4",
"3 	c #A1C396",
"4 	c #888A87",
"5 	c #7C7D7B",
"6 	c #81827F",
"7 	c #BCC7B7",
"8 	c #FAFAFA",
"9 	c #DFDDD9",
"0 	c #C1D7BB",
"a 	c #9CBC92",
"b 	c #87B07A",
"c 	c #7AA06C",
"d 	c #6D7D62",
"e 	c #696C65",
"f 	c #6F7F61",
"g 	c #666962",
"h 	c #85937C",
"i 	c #BED8B7",
"j 	c #99BA8E",
"k 	c #6C7568",
"l 	c #707769",
"m 	c #789969",
"n 	c #719765",
"o 	c #6D8C5F",
"p 	c #60645B",
"q 	c #636E59",
"r 	c #5A6951",
"s 	c #697C5D",
"t 	c #A7CC9C",
"u 	c #66825E",
"v 	c #5A6356",
"w 	c #799269",
"x 	c #69725F",
"y 	c #686867",
"z 	c #738665",
"A 	c #638A56",
"B 	c #507940",
"C 	c #3A502A",
"D 	c #2F3F26",
"E 	c #718742",
"F 	c #7E8972",
"G 	c #649655",
"H 	c #37422D",
"I 	c #353435",
"J 	c #4D5B43",
"K 	c #567244",
"L 	c #4A4C48",
"M 	c #4F5649",
"N 	c #456830",
"O 	c #3D642A",
"P 	c #406329",
"Q 	c #7C8C4E",
"R 	c #C4C767",
"S 	c #CECECE",
"T 	c #7EA176",
"U 	c #446332",
"V 	c #32332F",
"W 	c #3C3E3B",
"X 	c #456131",
"Y 	c #313D22",
"Z 	c #2D2F2B",
"` 	c #385326",
" .	c #5D7050",
"..	c #818B77",
"+.	c #DBDC70",
"@.	c #6F6F6F",
"#.	c #C2CEBF",
"$.	c #537B42",
"%.	c #313C24",
"&.	c #373737",
"*.	c #3B462F",
"=.	c #395721",
"-.	c #324B21",
";.	c #597044",
">.	c #BEC1BA",
",.	c #F6F6F6",
"'.	c #939492",
").	c #819D78",
"!.	c #3B5625",
"~.	c #262A21",
"{.	c #2A3C20",
"].	c #49682F",
"^.	c #A6B739",
"/.	c #C1C273",
"(.	c #C1C1C1",
"_.	c #FDFEFF",
":.	c #81877F",
"<.	c #4C703B",
"[.	c #365521",
"}.	c #566E3E",
"|.	c #ABBA40",
"1.	c #A6A669",
"2.	c #A3A3A3",
"3.	c #FCFCFC",
"4.	c #FCFCFB",
"5.	c #F8F8F7",
"6.	c #929390",
"7.	c #959694",
"8.	c #8DA283",
"9.	c #6F805C",
"0.	c #ADAF8A",
"a.	c #B7B754",
"b.	c #6F6F6E",
"c.	c #797979",
"d.	c #82837F",
"e.	c #939491",
"  . + @ @ @ @ @ # $       ",
"  % & * = - ; > , ' )     ",
"  ! ~ { ] ^ / ( _ : < [   ",
"  ! - } | 1 2 3 4 4 5 6 7 ",
"  ! 8 9 0 a b c d e f g h ",
"  ! i j k l m n o p q r s ",
"t u v w x y z A B C D E F ",
"G H I J K L M N O P Q R S ",
"T U V W X Y Z `  ...+.@.  ",
"#.$.%.&.*.=.-.;.>.,.> '.  ",
"  ).!.~.{.].^./.(._.- '.  ",
"  :.<.[.}.|.1.2.3.4.5.6.  ",
"  7.8.9.0.a.b.c.+ + d.e.  "};
