/* XPM */
static char * image_bookmark_add_18_xpm[] = {
"18 18 166 2",
"  	c None",
". 	c #4F5048",
"+ 	c #737563",
"@ 	c #757865",
"# 	c #757864",
"$ 	c #707360",
"% 	c #474842",
"& 	c #6F715E",
"* 	c #B2B4A5",
"= 	c #B3B5A5",
"- 	c #B1B3A3",
"; 	c #AFB1A0",
"> 	c #ADAF9E",
", 	c #A5A797",
"' 	c #3E3E3C",
") 	c #204880",
"! 	c #6D6F5D",
"~ 	c #B2B4A4",
"{ 	c #90937C",
"] 	c #9DA08C",
"^ 	c #999C89",
"/ 	c #828472",
"( 	c #A8C0E0",
"_ 	c #818371",
": 	c #707068",
"< 	c #696C59",
"[ 	c #A3A594",
"} 	c #8A8C76",
"| 	c #979985",
"1 	c #A5A796",
"2 	c #666856",
"3 	c #919381",
"4 	c #80826D",
"5 	c #7E806A",
"6 	c #787B66",
"7 	c #737662",
"8 	c #A0B0C8",
"9 	c #184880",
"0 	c #57594F",
"a 	c #626452",
"b 	c #7C7D6B",
"c 	c #767764",
"d 	c #767763",
"e 	c #777965",
"f 	c #B8B9A9",
"g 	c #D5D5C7",
"h 	c #727561",
"i 	c #494B43",
"j 	c #717460",
"k 	c #717461",
"l 	c #AFB09F",
"m 	c #D0D0C0",
"n 	c #ADAD9A",
"o 	c #AAAB96",
"p 	c #AEAE9B",
"q 	c #B1B19F",
"r 	c #6B6D5B",
"s 	c #BDBEAD",
"t 	c #D1D2C3",
"u 	c #D2D3C3",
"v 	c #D2D2C3",
"w 	c #CCCCBB",
"x 	c #BCBCA8",
"y 	c #737663",
"z 	c #747663",
"A 	c #BBBDA7",
"B 	c #BEBFA9",
"C 	c #ABAC98",
"D 	c #C7C8B5",
"E 	c #6E715E",
"F 	c #696B59",
"G 	c #BFC0AB",
"H 	c #BBBCA6",
"I 	c #A2A48F",
"J 	c #8B8D7C",
"K 	c #898C7A",
"L 	c #A5A793",
"M 	c #A9AA96",
"N 	c #CACBBA",
"O 	c #6A6C5A",
"P 	c #656755",
"Q 	c #C6C7B4",
"R 	c #BCBDA7",
"S 	c #B2B49D",
"T 	c #727562",
"U 	c #6F7260",
"V 	c #AFB1A1",
"W 	c #6F725F",
"X 	c #B1B29C",
"Y 	c #D0D1C1",
"Z 	c #666857",
"` 	c #616252",
" .	c #CFD0C0",
"..	c #C0C1AC",
"+.	c #BBBCA9",
"@.	c #767967",
"#.	c #ADAFA1",
"$.	c #DEDFD4",
"%.	c #CBCCBA",
"&.	c #777A68",
"*.	c #BBBCA8",
"=.	c #D3D4C5",
"-.	c #626453",
";.	c #5C5E4E",
">.	c #D6D7C9",
",.	c #C4C5B1",
"'.	c #D0D1C6",
").	c #999B87",
"!.	c #5E5F4F",
"~.	c #58594B",
"{.	c #D8D9CC",
"].	c #C7C9B6",
"^.	c #CBCDBB",
"/.	c #9A9C8D",
"(.	c #A7AA99",
"_.	c #B3B6A3",
":.	c #999C8B",
"<.	c #CFD1C1",
"[.	c #5A5B4C",
"}.	c #545547",
"|.	c #D7D8CA",
"1.	c #797C69",
"2.	c #949685",
"3.	c #797D6A",
"4.	c #7A7D6B",
"5.	c #767966",
"6.	c #CACCBB",
"7.	c #CED0BF",
"8.	c #555648",
"9.	c #525246",
"0.	c #CCCEBF",
"a.	c #D1D3C3",
"b.	c #D2D4C4",
"c.	c #A8AA9D",
"d.	c #979988",
"e.	c #DDDED5",
"f.	c #DEDFD6",
"g.	c #949687",
"h.	c #8F9181",
"i.	c #C5C7B6",
"j.	c #525347",
"k.	c #4F4F43",
"l.	c #A9A998",
"m.	c #CACABA",
"n.	c #D1D1C3",
"o.	c #D3D3C6",
"p.	c #D5D5C8",
"q.	c #E1E1D8",
"r.	c #E5E5DE",
"s.	c #DCDCD3",
"t.	c #DCDCD2",
"u.	c #E6E6DE",
"v.	c #D2D2C5",
"w.	c #D0D0C2",
"x.	c #CECEBF",
"y.	c #A6A694",
"z.	c #4E4E44",
"A.	c #3D3D36",
"B.	c #666655",
"C.	c #A4A489",
"D.	c #A6A68A",
"E.	c #656555",
"F.	c #3D3D35",
"G.	c #3E3E36",
"H.	c #4A4A3E",
"I.	c #3F3F34",
"  . + @ @ # # $ %                   ",
"  & * = - ; > , # '     ) ) )       ",
"  ! ~ { { { { ] ^ # / / ) ( ) _ :   ",
"  < [ } } } } } | 1 ) ) ) ( ) ) )   ",
"  2 3 4 4 4 5 6 7 _ ) ( ( ( 8 8 9 0 ",
"  a b c c d e f g g ) ) ) 8 9 9 9 h ",
"i 7 j j k # l m n o p p 9 8 9 p q h ",
"r s t t u v w x y z A B 9 9 9 C D E ",
"F G H H H H H I J K L H M M M M N O ",
"P Q R R S T E U - V W E T X R R Y Z ",
"`  .....+.@.#.$.%.w $.#.&.*.....=.-.",
";.>.,.,.D './ ).,.,.)./ '.D ,.,.u !.",
"~.{.].].].^./.(._._.(.:.^.].].].<.[.",
"}.|.^.^.^.^.1.2.3.4.2.5.6.^.^.^.7.8.",
"9.0.a.u b.b.c.d.e.f.g.h.b.b.u a.i.j.",
"k.l.m.n.o.p.q.r.s.t.u.u.p.v.w.x.y.z.",
"A.B.C.D.D.D.D.D.D.D.D.D.D.D.D.D.E.F.",
"  G.H.H.H.H.H.H.H.H.H.H.H.H.H.H.I.  "};
