/* XPM */
static char * image_has_out_xpm[] = {
"16 16 134 2",
"  	c None",
". 	c #B888D8",
"+ 	c #485080",
"@ 	c #9898E8",
"# 	c #8080D8",
"$ 	c #6858B8",
"% 	c #8888E0",
"& 	c #7878D8",
"* 	c #5858A8",
"= 	c #383860",
"- 	c #A0A0E8",
"; 	c #404068",
"> 	c #808090",
", 	c #383050",
"' 	c #7070A8",
") 	c #6868B0",
"! 	c #F0F0F0",
"~ 	c #B0B0B8",
"{ 	c #343434",
"] 	c #C8C0D0",
"^ 	c #666699",
"/ 	c #8888D0",
"( 	c #484878",
"_ 	c #888890",
": 	c #E0E0E8",
"< 	c #E0E0E0",
"[ 	c #A8A8A8",
"} 	c #FF0000",
"| 	c #E04785",
"1 	c #D0D0D0",
"2 	c #FFFFFF",
"3 	c #707070",
"4 	c #9898A0",
"5 	c #8888C0",
"6 	c #505088",
"7 	c #A8A8B8",
"8 	c #C8C8C8",
"9 	c #9C686C",
"0 	c #7880B8",
"a 	c #008000",
"b 	c #D0D0D8",
"c 	c #9090B8",
"d 	c #586088",
"e 	c #C0C0C0",
"f 	c #B8B8B8",
"g 	c #8B6669",
"h 	c #403030",
"i 	c #59A535",
"j 	c #67B73A",
"k 	c #2CC543",
"l 	c #34AB23",
"m 	c #E8E8E8",
"n 	c #333333",
"o 	c #4AAD46",
"p 	c #61A54C",
"q 	c #49AB44",
"r 	c #30C23D",
"s 	c #45A234",
"t 	c #09AD06",
"u 	c #00A000",
"v 	c #909090",
"w 	c #686868",
"x 	c #505850",
"y 	c #41A527",
"z 	c #45A82C",
"A 	c #49AB32",
"B 	c #4EA836",
"C 	c #45A938",
"D 	c #4BAA34",
"E 	c #4A9D38",
"F 	c #26AF1C",
"G 	c #26A51C",
"H 	c #4CA93B",
"I 	c #42AE2F",
"J 	c #42A428",
"K 	c #419C27",
"L 	c #4BA531",
"M 	c #4E9E33",
"N 	c #4F9F37",
"O 	c #5A9D3F",
"P 	c #333433",
"Q 	c #5AA13E",
"R 	c #59A040",
"S 	c #45AE2F",
"T 	c #47A934",
"U 	c #1EB511",
"V 	c #599A41",
"W 	c #4D9F38",
"X 	c #559E3C",
"Y 	c #549E3F",
"Z 	c #549F3C",
"` 	c #48A731",
" .	c #3EAC28",
"..	c #36AC21",
"+.	c #4CA831",
"@.	c #36A523",
"#.	c #31332E",
"$.	c #50A635",
"%.	c #4FA837",
"&.	c #2AC218",
"*.	c #2BAF1C",
"=.	c #49A134",
"-.	c #34AA23",
";.	c #40A62A",
">.	c #5E9B41",
",.	c #5E9D41",
"'.	c #5A9F3F",
").	c #559F3C",
"!.	c #4FA436",
"~.	c #3F952A",
"{.	c #353535",
"].	c #26671B",
"^.	c #48AE2A",
"/.	c #3BB421",
"(.	c #35A827",
"_.	c #41A331",
":.	c #48A134",
"<.	c #599E3E",
"[.	c #51A139",
"}.	c #639748",
"|.	c #5F9945",
"1.	c #42A828",
"2.	c #2D6922",
"3.	c #369622",
"4.	c #49A82F",
"5.	c #47AD2D",
"6.	c #2FAD1F",
"7.	c #50A138",
"8.	c #609946",
"9.	c #5E9D43",
"0.	c #45AB2F",
"a.	c #4BA733",
"b.	c #46AD2B",
"c.	c #3BB225",
"        . +                     ",
"      @ @ # $                   ",
"    @ % % & * =                 ",
"  - @ # & * ; > ,               ",
"' @ @ # ) ; > ! ~ =   {         ",
"] ^ / ) ( _ ! : < [ , } |       ",
"1 2 3 4 ! ! 5 6 7 8 9 } } } |   ",
"1 2 2 2 2 : 0 + ~ 8 9 } } } } } ",
"a b 2 2 ! : c d e f g h i j k   ",
"l a 8 2 m < b e [ a a n o p q r ",
"s t u 4 v w x a a y z n A B C D ",
"E F G H I J K L M N O P Q R S T ",
"U V W X Y Z `  ...+.@.#.$.D %.&.",
"  *.=.-.;.>.,.'.).!.~.{.].^./.  ",
"    F (._.:.<.[.}.|.1.2.3.4.5.  ",
"          6.7.[.8.9.0.a.b.c.    "};
