/* XPM */
static char * image_parent_18_xpm[] = {
"18 18 166 2",
"  	c None",
". 	c #868883",
"+ 	c #BDC0B9",
"@ 	c #858683",
"# 	c #737563",
"$ 	c #757864",
"% 	c #CACDC7",
"& 	c #F9F9F8",
"* 	c #6F715E",
"= 	c #B3B5A5",
"- 	c #B5B7A7",
"; 	c #B1B3A3",
"> 	c #AFB1A0",
", 	c #FFFFFF",
"' 	c #6D6F5C",
") 	c #B2B4A4",
"! 	c #90937C",
"~ 	c #777975",
"{ 	c #C6C9C3",
"] 	c #F7F7F7",
"^ 	c #FEFEFE",
"/ 	c #F6F6F6",
"( 	c #7C7F7B",
"_ 	c #5F6150",
": 	c #707460",
"< 	c #696C59",
"[ 	c #A3A594",
"} 	c #8A8C76",
"| 	c #9B9E99",
"1 	c #EBECEB",
"2 	c #BDC0BB",
"3 	c #A9ACA6",
"4 	c #FCFCFC",
"5 	c #BCBFBA",
"6 	c #CFD0CC",
"7 	c #9A9C98",
"8 	c #787969",
"9 	c #8C8E79",
"0 	c #717461",
"a 	c #666856",
"b 	c #919381",
"c 	c #80826D",
"d 	c #5F615F",
"e 	c #91938D",
"f 	c #6F726E",
"g 	c #9EA19B",
"h 	c #FBFBFB",
"i 	c #6B6D68",
"j 	c #92948F",
"k 	c #696A58",
"l 	c #80826E",
"m 	c #737662",
"n 	c #626452",
"o 	c #7C7D6B",
"p 	c #767764",
"q 	c #6A6B5A",
"r 	c #606151",
"s 	c #575849",
"t 	c #939590",
"u 	c #FAFAF9",
"v 	c #717460",
"w 	c #5E604F",
"x 	c #6C6D5B",
"y 	c #878A84",
"z 	c #58584A",
"A 	c #6E705D",
"B 	c #5B5C4C",
"C 	c #676756",
"D 	c #7C7F79",
"E 	c #DFDFDF",
"F 	c #545446",
"G 	c #6A6D5A",
"H 	c #57584A",
"I 	c #71736E",
"J 	c #C8C8C7",
"K 	c #676958",
"L 	c #515144",
"M 	c #666655",
"N 	c #666863",
"O 	c #B4B4B4",
"P 	c #616252",
"Q 	c #4E4E41",
"R 	c #686957",
"S 	c #6D6F5D",
"T 	c #6C6E5C",
"U 	c #6B6D5B",
"V 	c #6A6C5A",
"W 	c #535449",
"X 	c #656655",
"Y 	c #656755",
"Z 	c #6E705E",
"` 	c #9E9E8E",
" .	c #C0C0B4",
"..	c #C6C6BB",
"+.	c #C5C5BB",
"@.	c #C5C5BA",
"#.	c #C5C5B9",
"$.	c #C4C4B9",
"%.	c #C3C3B8",
"&.	c #C2C2B8",
"*.	c #9D9E8D",
"=.	c #5F6051",
"-.	c #B8B9AC",
";.	c #C9C9BE",
">.	c #C9C9BD",
",.	c #C7C8BC",
"'.	c #C6C7BB",
").	c #BDBEB0",
"!.	c #AAAB9A",
"~.	c #A1A28F",
"{.	c #A0A18E",
"].	c #9FA08E",
"^.	c #9F9F8D",
"/.	c #9D9E8C",
"(.	c #9E9E8C",
"_.	c #ADAE9F",
":.	c #68695A",
"<.	c #515146",
"[.	c #B1B2A7",
"}.	c #BABBAC",
"|.	c #B0B1A0",
"1.	c #AEAF9E",
"2.	c #ACAD9D",
"3.	c #ACAD9C",
"4.	c #ABAC9C",
"5.	c #ABAC9B",
"6.	c #AAAB9B",
"7.	c #A9AA9A",
"8.	c #A9A999",
"9.	c #A8A999",
"0.	c #A6A797",
"a.	c #909182",
"b.	c #56574B",
"c.	c #3C3C39",
"d.	c #78796D",
"e.	c #C1C3B5",
"f.	c #B9BAAA",
"g.	c #B7B9A9",
"h.	c #B6B8A8",
"i.	c #B6B7A8",
"j.	c #B5B6A6",
"k.	c #B4B6A6",
"l.	c #B2B3A4",
"m.	c #B0B2A2",
"n.	c #AEB0A1",
"o.	c #5C5D50",
"p.	c #3A3A37",
"q.	c #4D4D40",
"r.	c #8C8C79",
"s.	c #ACAC98",
"t.	c #AEAE9C",
"u.	c #AFAF9D",
"v.	c #B0B09F",
"w.	c #B1B19F",
"x.	c #B1B1A1",
"y.	c #B1B1A0",
"z.	c #AFAF9E",
"A.	c #AEAE9D",
"B.	c #ABAB9A",
"C.	c #AAAA99",
"D.	c #A4A492",
"E.	c #6F6F60",
"F.	c #45453D",
"G.	c #47473D",
"H.	c #4A4A3E",
"I.	c #414137",
"                . + @               ",
"    # $ $ $ $ . % & % .             ",
"  * = - ; > . % & , & % .           ",
"  ' ) ! ! ~ { ] { ^ { / { ( _ :     ",
"  < [ } } | 1 2 3 4 3 5 6 7 8 9 0   ",
"  a b c c d e f g h g i j d k l m   ",
"  n o p p q r s t u t r r r r p v   ",
"  w x x x x x x y & y z x x x x A   ",
"  B C C C C C C D E D F C C C C G   ",
"  H C C C C C C I J I F C C C C K   ",
"  L M C C C C C N O N F C C C C P   ",
"  Q M C C R S T U U U U U U U U U V ",
"W X Y Y Y Z `  ...+.@.@.#.$.%.%.&.*.",
"=.-.;.>.,.'.).!.~.~.{.{.].^./.(._.:.",
"<.[.}.|.1.2.3.4.5.6.!.7.8.9.0.0.a.b.",
"c.d.e.f.g.h.i.- j.k.= = ) l.m.n.o.p.",
"  q.r.s.t.u.v.w.x.y.z.A.B.C.D.E.F.  ",
"    G.H.H.H.H.H.H.H.H.H.H.H.H.I.    "};
