/* XPM */
static char * image_new_lecture_16_xpm[] = {
"16 16 91 1",
" 	c None",
".	c #ABB9D4",
"+	c #B9C5DD",
"@	c #B2BBD4",
"#	c #A8B0CC",
"$	c #9FA5C3",
"%	c #9499BC",
"&	c #8B8EB4",
"*	c #8283AC",
"=	c #7D7DA8",
"-	c #9AA1BD",
";	c #204880",
">	c #B1BBD5",
",	c #FFFFFF",
"'	c #7197D2",
")	c #B2C7E2",
"!	c #A8C0E0",
"~	c #ABB4CE",
"{	c #F9FDFF",
"]	c #F6FBFF",
"^	c #A6AEC9",
"/	c #F5FAFF",
"(	c #A0B0C8",
"_	c #184880",
":	c #A1A7C4",
"<	c #F9FCFF",
"[	c #F0F8FF",
"}	c #EAF5FF",
"|	c #9CA1BF",
"1	c #8788AE",
"2	c #7172A3",
"3	c #979AB9",
"4	c #F0F7FF",
"5	c #E9F5FF",
"6	c #E5F2FF",
"7	c #DFEFFF",
"8	c #DCEEFF",
"9	c #D6EAFF",
"0	c #9194B5",
"a	c #FDFFFF",
"b	c #C5DCFA",
"c	c #8C8EB2",
"d	c #F9FDFE",
"e	c #EFF8FF",
"f	c #E5F3FF",
"g	c #DBEEFF",
"h	c #D5EAFF",
"i	c #CEE7FF",
"j	c #CAE5FF",
"k	c #C6E4FF",
"l	c #C2DBFA",
"m	c #F4FBFE",
"n	c #8081A5",
"o	c #BDD9F9",
"p	c #8485AB",
"q	c #EEF8FE",
"r	c #C5E2FF",
"s	c #C1E0FF",
"t	c #BAE0FF",
"u	c #B8D6F9",
"v	c #8181A9",
"w	c #EAF6FE",
"x	c #7C7DA8",
"y	c #76779F",
"z	c #B5D5F9",
"A	c #E4F3FE",
"B	c #D4EAFF",
"C	c #CEE6FF",
"D	c #C4E2FF",
"E	c #BADDFF",
"F	c #B4DAFF",
"G	c #B0DAFF",
"H	c #AFD2F9",
"I	c #7677A4",
"J	c #E0F1FE",
"K	c #C0E0FF",
"L	c #70719C",
"M	c #6A6B94",
"N	c #ABCFF9",
"O	c #7374A3",
"P	c #E0F5FF",
"Q	c #D5EFFF",
"R	c #D1EDFF",
"S	c #CCEBFF",
"T	c #C8E9FF",
"U	c #C1E5FF",
"V	c #BCE3FF",
"W	c #B8E1FF",
"X	c #B2DEFF",
"Y	c #ADDEFF",
"Z	c #AFD7FF",
" .+@#$%&*=-;;;  ",
" >,,,,,,,');!;  ",
" ~,,,,,{];;;!;;;",
" ^,^^^^/^;!!!((_",
" :,,,</[};;;(___",
" |,||||}|12_(_  ",
" 3,</456789___  ",
" 0a000070000b2  ",
" cde}f7ghijkl2  ",
" 1m1111h11nno2  ",
" pqf7ghijrstu2  ",
" vwxxxxjxyyyz2  ",
" xAgBCjDsEFGH2  ",
" IJIIIIKILLMN2  ",
" OPQRSTUVWXYZ2  ",
" 2222222222222  "};
