/* XPM */
static char * image_feature_delete_16_xpm[] = {
"16 16 129 2",
"  	c None",
". 	c #E4B813",
"+ 	c #E0AD0D",
"@ 	c #990000",
"# 	c #970006",
"$ 	c #FFF02F",
"% 	c #FFF433",
"& 	c #FFF130",
"* 	c #FFE928",
"= 	c #FFE01F",
"- 	c #FFDC1B",
"; 	c #FFDA19",
"> 	c #FF7575",
", 	c #FF6666",
"' 	c #FF5555",
") 	c #FF4343",
"! 	c #FF1919",
"~ 	c #880005",
"{ 	c #FFFF94",
"] 	c #FFFF89",
"^ 	c #FFFF81",
"/ 	c #FFFD6E",
"( 	c #FFF25A",
"_ 	c #FFF056",
": 	c #FFE546",
"< 	c #8A0000",
"[ 	c #7D0000",
"} 	c #710000",
"| 	c #6F0005",
"1 	c #F2F2F2",
"2 	c #808080",
"3 	c #FFFF87",
"4 	c #FFFF82",
"5 	c #FFFF79",
"6 	c #FFF86C",
"7 	c #FFF160",
"8 	c #6B4A29",
"9 	c #FFE648",
"0 	c #FFE23F",
"a 	c #D0B62F",
"b 	c #4F361E",
"c 	c #47311B",
"d 	c #E6E6E6",
"e 	c #FFFB7B",
"f 	c #FFF871",
"g 	c #FFF065",
"h 	c #FFE548",
"i 	c #FFE63F",
"j 	c #FFE13B",
"k 	c #FFE03A",
"l 	c #FFD716",
"m 	c #D9D9D9",
"n 	c #737373",
"o 	c #FFF26E",
"p 	c #FEEF66",
"q 	c #FFEE60",
"r 	c #FFEF55",
"s 	c #FFE64A",
"t 	c #FFE73D",
"u 	c #FFE035",
"v 	c #FFDF2E",
"w 	c #FFDB27",
"x 	c #FFD822",
"y 	c #FFD71F",
"z 	c #CCCCCC",
"A 	c #595959",
"B 	c #FFF26F",
"C 	c #FFF067",
"D 	c #FFF05E",
"E 	c #FFEB57",
"F 	c #FFE344",
"G 	c #FFE13E",
"H 	c #FFE037",
"I 	c #FFDC2F",
"J 	c #FFDD26",
"K 	c #BFBFBF",
"L 	c #404040",
"M 	c #FFF266",
"N 	c #FFEB63",
"O 	c #FFE443",
"P 	c #FFDF37",
"Q 	c #FFDC24",
"R 	c #B3B3B3",
"S 	c #FEF073",
"T 	c #FFF164",
"U 	c #FFEC5E",
"V 	c #FFE85B",
"W 	c #FFE84D",
"X 	c #FFE640",
"Y 	c #FEE43A",
"Z 	c #FFDD2F",
"` 	c #FFD51C",
" .	c #FED21B",
"..	c #FFD10E",
"+.	c #A6A6A6",
"@.	c #FFF271",
"#.	c #FFED60",
"$.	c #FFEE58",
"%.	c #000000",
"&.	c #FEEA45",
"*.	c #FFE33D",
"=.	c #FFDD29",
"-.	c #FFD61B",
";.	c #FFD211",
">.	c #999999",
",.	c #8C8C8C",
"'.	c #FFF36B",
").	c #FEED6B",
"!.	c #FFEF63",
"~.	c #FFEB55",
"{.	c #FFE240",
"].	c #FFDA2C",
"^.	c #FEDF25",
"/.	c #FFD515",
"(.	c #FFF477",
"_.	c #FFF56E",
":.	c #FFEE5F",
"<.	c #FFE744",
"[.	c #FEE03C",
"}.	c #FFD00E",
"|.	c #FDF482",
"1.	c #FEF778",
"2.	c #FEF26C",
"3.	c #FDF161",
"4.	c #FFEE54",
"5.	c #FEEA4A",
"6.	c #FEE12D",
"7.	c #FDD11A",
"8.	c #FFD10B",
"                                ",
"                                ",
". . . . . . . + + @ @ @ @ @ @ # ",
". $ % & $ * = - ; @ > , ' ) ! ~ ",
". { { ] ^ / ( _ : @ < [ [ } | | ",
"1 2 3 4 5 6 7 8 9 0 a a a b c c ",
"d d 2 e f g 8 8 h i j k k k l 8 ",
"m m n o p q r 8 s t u v w x 8 y ",
"z z A B C D E 8 F G H I J 8 l y ",
"K K L B M N 8 8 8 O P I Q 8 8 8 ",
"R R L S T U V W h X Y Z J `  ...",
"+.R L @.C #.$.%.&.*.k Z =.%.-.;.",
">.,.L '.).!.~.%.&.{.Y ].^.%./...",
",.L (._.%.:.~.%.<.[.%.I =.%./.}.",
"%.|.1.2.%.3.4.%.5.t %.6.Q %.7.8.",
"%.%.%.%.%.%.%.%.%.%.%.%.%.%.%.%."};
