/* XPM */
static char * image_subrange_lecture_xpm[] = {
"13 13 105 2",
"  	c None",
". 	c #959693",
"+ 	c #80817E",
"@ 	c #7F7F7C",
"# 	c #81837F",
"$ 	c #B5B6B5",
"% 	c #8C8E8B",
"& 	c #F6F6F5",
"* 	c #FAFAF9",
"= 	c #F9FAF9",
"- 	c #F9F9F8",
"; 	c #F8F9F7",
"> 	c #F7F8F7",
", 	c #9E9E9E",
"' 	c #8F8F8F",
") 	c #ADADAC",
"! 	c #8D8E8B",
"~ 	c #F8F9F8",
"{ 	c #DDDDDA",
"] 	c #DBD9DA",
"^ 	c #E0DBDE",
"/ 	c #E1DCE1",
"( 	c #E1DFE1",
"_ 	c #9C9C9B",
": 	c #DEDEDE",
"< 	c #979796",
"[ 	c #AFB0AF",
"} 	c #DAD8DC",
"| 	c #DCDEDD",
"1 	c #E2E3DF",
"2 	c #E3E1E0",
"3 	c #E4E2E4",
"4 	c #888A87",
"5 	c #FAFAFA",
"6 	c #DFD9E2",
"7 	c #E4E0DE",
"8 	c #DEDCDE",
"9 	c #E8E0E6",
"0 	c #E6E6EB",
"a 	c #E5E7E6",
"b 	c #EAE8E9",
"c 	c #616261",
"d 	c #CCCCFB",
"e 	c #A3A5E8",
"f 	c #A8A6EB",
"g 	c #A6A8EC",
"h 	c #AAAAF1",
"i 	c #ABA9EC",
"j 	c #ABABF1",
"k 	c #ADADF1",
"l 	c #CBCBFA",
"m 	c #6C6D6B",
"n 	c #CDCDFC",
"o 	c #AAA6EA",
"p 	c #A7A6ED",
"q 	c #ABA6EB",
"r 	c #AFAAEE",
"s 	c #ABABEF",
"t 	c #B0AEF3",
"u 	c #ABAFF1",
"v 	c #787977",
"w 	c #CECEFD",
"x 	c #ABA6F1",
"y 	c #ABA9F0",
"z 	c #ACA9EC",
"A 	c #AFACF0",
"B 	c #B1B0F1",
"C 	c #AEB1F4",
"D 	c #B1B1F2",
"E 	c #858684",
"F 	c #CFCFFE",
"G 	c #AAA9ED",
"H 	c #AEABEC",
"I 	c #ABB1F3",
"J 	c #AEABF3",
"K 	c #AEAFF3",
"L 	c #B2B0F5",
"M 	c #B3B4F8",
"N 	c #CACCFA",
"O 	c #FFFFFF",
"P 	c #EBE5ED",
"Q 	c #EFEDE9",
"R 	c #E9E9F0",
"S 	c #F2EFED",
"T 	c #F4F4F4",
"U 	c #F1F2F5",
"V 	c #F5F5F5",
"W 	c #EAEEEE",
"X 	c #EEEFF2",
"Y 	c #F0F3ED",
"Z 	c #F4F1F2",
"` 	c #F0F4F1",
" .	c #FCFAFC",
"..	c #8E8F8C",
"+.	c #FBFCFC",
"@.	c #FEFEFE",
"#.	c #FDFDFD",
"$.	c #FCFCFC",
"%.	c #FCFCFB",
"&.	c #F8F8F7",
"*.	c #848582",
"=.	c #959694",
"-.	c #828380",
";.	c #82837F",
">.	c #858683",
"  . + @ @ @ @ @ # $       ",
"  % & * = - ; > , ' )     ",
"  ! ~ { ] ^ / ( _ : < [   ",
"  ! - } | 1 2 3 4 4 4 4   ",
"  ! 5 6 7 8 9 0 a b - c   ",
"  ! d e f g h i j k l m   ",
"  ! n o p q r s t u l v   ",
"  ! w x y z A B C D l E   ",
"  ! F G H I J K L M N E   ",
"  ! O P Q R S T U V - E   ",
"  ! - W X Y Z ` V  .- E   ",
"  ..- - +.@.#.#.$.%.&.*.  ",
"  =.-.+ + + + + + + ;.>.  "};
