/* XPM */
static char * image_has_in_xpm[] = {
"16 16 169 2",
"  	c None",
". 	c #5A5A96",
"+ 	c #585893",
"@ 	c #4D4D7D",
"# 	c #4C4B83",
"$ 	c #4D4D82",
"% 	c #5A5A91",
"& 	c #8181D1",
"* 	c #8484D3",
"= 	c #DCDBE2",
"- 	c #7270DD",
"; 	c #57579B",
"> 	c #5F5F93",
", 	c #9090E4",
"' 	c #8B8BE3",
") 	c #9999E2",
"! 	c #E1E0D5",
"~ 	c #7D7DFA",
"{ 	c #6363CA",
"] 	c #45457D",
"^ 	c #61619A",
"/ 	c #9191DA",
"( 	c #9494E8",
"_ 	c #8484DB",
": 	c #CDCDD2",
"< 	c #6C6CD9",
"[ 	c #5858B7",
"} 	c #3E3E71",
"| 	c #343454",
"1 	c #9E9EE2",
"2 	c #A2A2F0",
"3 	c #9494E6",
"4 	c #8989E1",
"5 	c #7D7DD8",
"6 	c #7373D3",
"7 	c #5B5BB0",
"8 	c #424274",
"9 	c #535365",
"0 	c #606070",
"a 	c #333350",
"b 	c #42426D",
"c 	c #8F8FC9",
"d 	c #A9A9F0",
"e 	c #9E9EEC",
"f 	c #6868BD",
"g 	c #444475",
"h 	c #474760",
"i 	c #DDDDE1",
"j 	c #EDEDEF",
"k 	c #7C7C87",
"l 	c #343450",
"m 	c #4B4B75",
"n 	c #9292D0",
"o 	c #9C9CE9",
"p 	c #6A6AB6",
"q 	c #444476",
"r 	c #55556B",
"s 	c #B2ACB7",
"t 	c #C6C4C2",
"u 	c #B4AFAF",
"v 	c #4C7BD0",
"w 	c #658FA6",
"x 	c #32324D",
"y 	c #43436E",
"z 	c #89898E",
"A 	c #404060",
"B 	c #6E6EA4",
"C 	c #9090E8",
"D 	c #7979CA",
"E 	c #464678",
"F 	c #3D5363",
"G 	c #9E9BB4",
"H 	c #978BAB",
"I 	c #BAB85B",
"J 	c #E9E838",
"K 	c #4A76BC",
"L 	c #4981C4",
"M 	c #82828C",
"N 	c #404058",
"O 	c #ABABAB",
"P 	c #DADADC",
"Q 	c #70707C",
"R 	c #464673",
"S 	c #434371",
"T 	c #4C5474",
"U 	c #7390BC",
"V 	c #706988",
"W 	c #F0EF3E",
"X 	c #F1F033",
"Y 	c #F1F036",
"Z 	c #3B70C0",
"` 	c #508BCA",
" .	c #ABACAC",
"..	c #FFFFFF",
"+.	c #F1F1F1",
"@.	c #A3A3AD",
"#.	c #8D8D96",
"$.	c #628ABD",
"%.	c #3C76D0",
"&.	c #827B78",
"*.	c #EEED38",
"=.	c #F1F035",
"-.	c #F6F531",
";.	c #4678CE",
">.	c #5A8ED4",
",.	c #A5A5A5",
"'.	c #A9A9A9",
").	c #648FD8",
"!.	c #4375D0",
"~.	c #6E6E78",
"{.	c #DBD941",
"].	c #9B994B",
"^.	c #6A6787",
"/.	c #5878BB",
"(.	c #6181B9",
"_.	c #A2A4A4",
":.	c #909090",
"<.	c #E7E7E7",
"[.	c #779CDD",
"}.	c #4174CE",
"|.	c #65659C",
"1.	c #6E6883",
"2.	c #575396",
"3.	c #8A86BF",
"4.	c #A498C2",
"5.	c #A3A1AE",
"6.	c #9C9C9C",
"7.	c #8B8B8B",
"8.	c #CACACA",
"9.	c #FCFCFC",
"0.	c #81A5DB",
"a.	c #4A75AD",
"b.	c #79798F",
"c.	c #9089AE",
"d.	c #C7BDB3",
"e.	c #D8CF97",
"f.	c #D2CC94",
"g.	c #A8A8A8",
"h.	c #848484",
"i.	c #366630",
"j.	c #DCE4EC",
"k.	c #BCC4CC",
"l.	c #CDCDD1",
"m.	c #BDBDBD",
"n.	c #B6B084",
"o.	c #B3AF78",
"p.	c #ACA771",
"q.	c #848272",
"r.	c #CCC561",
"s.	c #7F7F7F",
"t.	c #B1B1B4",
"u.	c #D8D8D8",
"v.	c #BDBDBF",
"w.	c #737B71",
"x.	c #7B795D",
"y.	c #F3E672",
"z.	c #F6EA73",
"A.	c #E6DA6B",
"B.	c #ECE06E",
"C.	c #D9CD65",
"D.	c #767A7A",
"E.	c #8A8A8A",
"F.	c #7B7B7E",
"G.	c #D9CE65",
"H.	c #E8DC6C",
"I.	c #F0E370",
"J.	c #EBDF6E",
"K.	c #E0D568",
"L.	c #E0D468",
"          . + @ # $             ",
"        % & * = - ;             ",
"      > , ' ) ! ~ { ]           ",
"    ^ / ( ' _ : < [ } |         ",
"  > 1 2 3 4 5 6 7 8 9 0 a b     ",
"  c d e 3 4 5 f g h i j k l     ",
"  m n o ( ' p q r s t u v w x y ",
"  z A B C D E F G H I J K L M N ",
"  O P Q R S T U V W X Y Z `  .  ",
"  O ..+.@.#.$.%.&.*.=.-.;.>.,.  ",
"  '.........).!.~.{.].^./.(._.  ",
"  :.<.......[.}.|.1.2.3.4.5.6.  ",
"    7.8.9...0.a.b.c.d.e.f.g.h.i.",
"      7.8...j.k.l.m.n.o.p.q.r.i.",
"        s.t.u.v.6.w.x.y.z.A.B.C.",
"          D.E.F.i.i.G.H.I.J.K.L."};
