/* XPM */
static char * image_number_xpm[] = {
"16 16 15 1",
" 	c None",
".	c #8C8C8C",
"+	c #F1F1F1",
"@	c #FFFFFF",
"#	c #F7F7F7",
"$	c #F2F6F8",
"%	c #F4F6F8",
"&	c #E4EFF8",
"*	c #E7F1F8",
"=	c #E3EBF4",
"-	c #F9FCFD",
";	c #F8FBFD",
">	c #E8EFF4",
",	c #DBE2EF",
"'	c #E3E9F1",
"                ",
" ...............",
" ...............",
" .....+@...+@...",
" .....@@...@@...",
" ...+@@@@@@@@@..",
" ...@@@@@@@@@#..",
" ....$@...%@....",
" ....@@...@@....",
" ....@&...@*....",
" ..=@@@@@@@@-...",
" ..;@@@@@@@@>...",
" ...@@...@@.....",
" ...@,...@'.....",
" ...............",
" ..............."};
