/* XPM */
static char * image_graph_scheme_classifier_xpm[] = {
"13 15 26 1",
" 	c None",
".	c #800000",
"+	c #FF5830",
"@	c #FF5028",
"#	c #B3B3B3",
"$	c #FF4018",
"%	c #FF3008",
"&	c #FF1800",
"*	c #144A57",
"=	c #004800",
"-	c #7A5100",
";	c #48B818",
">	c #F5EE66",
",	c #F3F068",
"'	c #EDE04F",
")	c #40B018",
"!	c #28A010",
"~	c #F7F068",
"{	c #EADE50",
"]	c #E2CD34",
"^	c #38B010",
"/	c #20A008",
"(	c #109000",
"_	c #EEDE4B",
":	c #E4CC35",
"<	c #D6BA18",
"   .....     ",
"   .++@.#    ",
"   .@$%.#    ",
"   .%%&.#    ",
"   .....#    ",
"    #*###    ",
"     *       ",
"  ********   ",
"  *      *   ",
"=====  ----- ",
"=;;;=# ->,'-#",
"=;)!=# -~{]-#",
"=^/(=# -_:<-#",
"=====# -----#",
" #####  #####"};
