/* XPM */
static char * image_odbc_lecture_xpm[] = {
"13 13 108 2",
"  	c None",
". 	c #959693",
"+ 	c #80817E",
"@ 	c #7F7F7C",
"# 	c #81837F",
"$ 	c #B5B6B5",
"% 	c #8C8E8B",
"& 	c #6969FA",
"* 	c #6A6AFB",
"= 	c #7475FB",
"- 	c #8181FA",
"; 	c #8F8FFA",
"> 	c #9F9FFA",
", 	c #9E9E9E",
"' 	c #8F8F8F",
") 	c #ADADAC",
"! 	c #8D8E8B",
"~ 	c #7069FA",
"{ 	c #7B71ED",
"] 	c #7A74EA",
"^ 	c #7B73EE",
"/ 	c #887FEB",
"( 	c #998FEB",
"_ 	c #9C9C9B",
": 	c #DEDEDE",
"< 	c #979796",
"[ 	c #AFB0AF",
"} 	c #F9F9F8",
"| 	c #D9D9D9",
"1 	c #C1B4E6",
"2 	c #DEE2E2",
"3 	c #E2DFE0",
"4 	c #E2E6E3",
"5 	c #888A87",
"6 	c #7C7D7B",
"7 	c #81827F",
"8 	c #FAFAFA",
"9 	c #DFDDD9",
"0 	c #C6B4E5",
"a 	c #CBDDE3",
"b 	c #CEDDE4",
"c 	c #D5E2EC",
"d 	c #B4A9D6",
"e 	c #C3C5C2",
"f 	c #C8C9C6",
"g 	c #6F6F6F",
"h 	c #FBFBFB",
"i 	c #E4DEDF",
"j 	c #B5C5E3",
"k 	c #8BC2E9",
"l 	c #66A7BB",
"m 	c #6FA8BB",
"n 	c #96ABBE",
"o 	c #DDDADC",
"p 	c #F3F4F2",
"q 	c #939492",
"r 	c #D7CAFD",
"s 	c #B5B3EA",
"t 	c #87C2EA",
"u 	c #56B8ED",
"v 	c #47B8ED",
"w 	c #45A0BD",
"x 	c #76ACC0",
"y 	c #989FCC",
"z 	c #D0C4F5",
"A 	c #FDFDFD",
"B 	c #D5E1EB",
"C 	c #7FC2E9",
"D 	c #47B8EE",
"E 	c #2EA4BF",
"F 	c #2E8D99",
"G 	c #558AB2",
"H 	c #B0BDE3",
"I 	c #F5F6F5",
"J 	c #FEFEFE",
"K 	c #D3DEEC",
"L 	c #8DC7F0",
"M 	c #3883B0",
"N 	c #5E8EB3",
"O 	c #B7C1E2",
"P 	c #F6F7F5",
"Q 	c #D9CCFF",
"R 	c #C7BAF2",
"S 	c #ADB3F0",
"T 	c #729FDF",
"U 	c #689DDE",
"V 	c #78A1E1",
"W 	c #9DA7E3",
"X 	c #C4B7EA",
"Y 	c #D3C7F9",
"Z 	c #FFFFFF",
"` 	c #F2F0EC",
" .	c #D5C8F5",
"..	c #AFBFE0",
"+.	c #B5C3E3",
"@.	c #B3C0E7",
"#.	c #C7B8EC",
"$.	c #FDFEFF",
"%.	c #8E8F8C",
"&.	c #DBD0FF",
"*.	c #D9CDFC",
"=.	c #FCFCFB",
"-.	c #F8F8F7",
";.	c #929390",
">.	c #959694",
",.	c #828380",
"'.	c #82837F",
").	c #939491",
"  . + @ @ @ @ @ # $       ",
"  % & * = - ; > , ' )     ",
"  ! ~ { ] ^ / ( _ : < [   ",
"  ! } | 1 2 3 4 5 5 6 7   ",
"  ! 8 9 0 a b c d e f g   ",
"  ! h i j k l m n o p q   ",
"  ! r s t u v w x y z q   ",
"  ! A B C D E F G H I q   ",
"  ! J K L u D M N O P q   ",
"  ! Q R S T U V W X Y q   ",
"  ! Z `  ...+.@.#.$.} q   ",
"  %.8 Z &.J A A *.=.-.;.  ",
"  >.,.+ + + + + + + '.).  "};
