/* XPM */
static char * image_bookmark_delete_16_xpm[] = {
"16 16 144 2",
"  	c None",
". 	c #4F5048",
"+ 	c #737563",
"@ 	c #767965",
"# 	c #757864",
"$ 	c #707360",
"% 	c #474842",
"& 	c #727461",
"* 	c #B4B6A8",
"= 	c #B6B8A9",
"- 	c #B5B7A7",
"; 	c #B3B5A5",
"> 	c #B1B3A3",
", 	c #A9AB9B",
"' 	c #51514F",
") 	c #990000",
"! 	c #970006",
"~ 	c #737562",
"{ 	c #B2B4A4",
"] 	c #90937C",
"^ 	c #8A8E77",
"/ 	c #797C69",
"( 	c #737662",
"_ 	c #818371",
": 	c #FF7575",
"< 	c #FF6666",
"[ 	c #FF5555",
"} 	c #FF4343",
"| 	c #FF1919",
"1 	c #880005",
"2 	c #6F715D",
"3 	c #A8AB99",
"4 	c #8C8F78",
"5 	c #7A7D68",
"6 	c #C1C1B2",
"7 	c #DBDBCE",
"8 	c #8A0000",
"9 	c #7D0000",
"0 	c #710000",
"a 	c #6F0005",
"b 	c #6D6F5D",
"c 	c #767765",
"d 	c #70725F",
"e 	c #797B68",
"f 	c #BABBAC",
"g 	c #D1D1C2",
"h 	c #ABAB97",
"i 	c #A8A995",
"j 	c #9B9B8A",
"k 	c #9F9F95",
"l 	c #515446",
"m 	c #6E705E",
"n 	c #C4C5B6",
"o 	c #D6D6C9",
"p 	c #D5D5C7",
"q 	c #C9C9B7",
"r 	c #BABAA4",
"s 	c #737663",
"t 	c #747662",
"u 	c #B9BAA4",
"v 	c #BCBCA6",
"w 	c #D2D2C4",
"x 	c #6B6E5B",
"y 	c #676957",
"z 	c #D3D4C5",
"A 	c #BCBDA7",
"B 	c #A3A58F",
"C 	c #8B8D7C",
"D 	c #898C7A",
"E 	c #A6A893",
"F 	c #CFD0C0",
"G 	c #636554",
"H 	c #D3D3C4",
"I 	c #C0C1AC",
"J 	c #B5B7A2",
"K 	c #727562",
"L 	c #6E715E",
"M 	c #6F7260",
"N 	c #B3B4A5",
"O 	c #B1B2A3",
"P 	c #6F725F",
"Q 	c #B5B6A1",
"R 	c #CFCFBF",
"S 	c #636454",
"T 	c #5E6050",
"U 	c #D2D4C5",
"V 	c #C4C6B2",
"W 	c #BFC0AE",
"X 	c #767A68",
"Y 	c #AFB0A3",
"Z 	c #E0E1D7",
"` 	c #CED0BF",
" .	c #CFD1C0",
"..	c #777A68",
"+.	c #BEC0AD",
"@.	c #5A5B4C",
"#.	c #C9CAB7",
"$.	c #CCCDBB",
"%.	c #D3D3C8",
"&.	c #838573",
"*.	c #9B9E8A",
"=.	c #D0D1C0",
"-.	c #565748",
";.	c #D4D6C6",
">.	c #CDCFBD",
",.	c #D0D2C1",
"'.	c #9B9E8E",
").	c #A9AC9C",
"!.	c #B8BBA8",
"~.	c #9A9D8D",
"{.	c #D1D3C2",
"].	c #525245",
"^.	c #CCCDBD",
"/.	c #C7C8B6",
"(.	c #787B69",
"_.	c #929584",
":.	c #7A7C6A",
"<.	c #757866",
"[.	c #C6C7B6",
"}.	c #C9CAB8",
"|.	c #515245",
"1.	c #4F5044",
"2.	c #A7A791",
"3.	c #B0B097",
"4.	c #9FA090",
"5.	c #8E907E",
"6.	c #CBCBBE",
"7.	c #CCCCBE",
"8.	c #8C8E7C",
"9.	c #8A8C7A",
"0.	c #A4A48D",
"a.	c #4F4F44",
"b.	c #48483F",
"c.	c #71715E",
"d.	c #A1A184",
"e.	c #B9B9A4",
"f.	c #C0C0AC",
"g.	c #A5A589",
"h.	c #A4A488",
"i.	c #C0C0AD",
"j.	c #C4C4B1",
"k.	c #47473E",
"l.	c #4A4A40",
"m.	c #4A4A3E",
"                                ",
". + @ # # # $ %                 ",
"& * = - ; > , # ' ) ) ) ) ) ) ! ",
"~ { ] ] ] ^ / ( _ ) : < [ } | 1 ",
"2 3 ] ] 4 5 6 7 7 ) 8 9 9 0 a a ",
"b c d d e f g h i j j j j j k l ",
"m n o o p q r s t u v v v v w x ",
"y z A A A A B C D E A A A A F y ",
"G H I J K L M N O P L K Q I R S ",
"T U V W X Y Z `  .Z Y ..+.V F T ",
"@.z #.$.%.&.*.#.#.*.&.%.$.#.=.@.",
"-.;.>.>.,.'.).!.!.).~.,.>.>.{.-.",
"].^./././.(._./ :._.<.[././.}.|.",
"1.2.3.3.3.4.5.6.7.8.9.3.3.3.0.a.",
"b.c.d.d.d.e.f.g.h.i.j.d.d.d.c.k.",
"  l.m.m.m.m.m.m.m.m.m.m.m.m.l.  "};
