/* XPM */
static char * image_linear_feature_xpm[] = {
"13 13 92 2",
"  	c None",
". 	c #959693",
"+ 	c #80817E",
"@ 	c #7F7F7C",
"# 	c #81837F",
"$ 	c #B5B6B5",
"% 	c #8C8E8B",
"& 	c #F6F6F5",
"* 	c #FAFAF9",
"= 	c #F9FAF9",
"- 	c #F9F9F8",
"; 	c #F8F9F7",
"> 	c #F7F8F7",
", 	c #9E9E9E",
"' 	c #8F8F8F",
") 	c #ADADAC",
"! 	c #8D8E8B",
"~ 	c #F8F9F8",
"{ 	c #F2F3F0",
"] 	c #F0F1EE",
"^ 	c #EEEFEC",
"/ 	c #ECEEEA",
"( 	c #EAECE8",
"_ 	c #9C9C9B",
": 	c #DEDEDE",
"< 	c #979796",
"[ 	c #AFB0AF",
"} 	c #474747",
"| 	c #7A7B7A",
"1 	c #E6E6E6",
"2 	c #E6E6E5",
"3 	c #888A87",
"4 	c #7C7D7B",
"5 	c #81827F",
"6 	c #4B4BFF",
"7 	c #5353FF",
"8 	c #5C5CF4",
"9 	c #3B3B3B",
"0 	c #919191",
"a 	c #E6E7E6",
"b 	c #CDCDCD",
"c 	c #D1D3CF",
"d 	c #D7D8D5",
"e 	c #8B8B89",
"f 	c #5050FB",
"g 	c #5C5CFF",
"h 	c #6666FF",
"i 	c #6666F3",
"j 	c #4E4E4E",
"k 	c #E9E9E9",
"l 	c #ECEEEB",
"m 	c #F3F4F2",
"n 	c #939492",
"o 	c #5A5AFC",
"p 	c #7171FF",
"q 	c #7D7DFF",
"r 	c #7D7DF1",
"s 	c #4B4B4B",
"t 	c #A8A8A8",
"u 	c #D8D9D7",
"v 	c #F4F5F3",
"w 	c #6565FD",
"x 	c #8A8AFF",
"y 	c #9999FF",
"z 	c #9999EE",
"A 	c #A5A5A5",
"B 	c #F5F6F5",
"C 	c #AAAAFF",
"D 	c #BCBCFF",
"E 	c #D0D0E8",
"F 	c #575857",
"G 	c #C8C9C7",
"H 	c #5C5C5C",
"I 	c #5B5B5B",
"J 	c #595959",
"K 	c #585958",
"L 	c #585858",
"M 	c #FFFFFF",
"N 	c #FEFEFE",
"O 	c #FDFDFD",
"P 	c #FBFBFB",
"Q 	c #F6F7F5",
"R 	c #8E8F8C",
"S 	c #FAFAFA",
"T 	c #FCFCFC",
"U 	c #FCFCFB",
"V 	c #F8F8F7",
"W 	c #929390",
"X 	c #959694",
"Y 	c #828380",
"Z 	c #82837F",
"` 	c #939491",
"  . + @ @ @ @ @ # $       ",
"  % & * = - ; > , ' )     ",
"  ! ~ { ] ^ / ( _ : < [   ",
"  ! } } } | 1 2 3 3 4 5   ",
"  ! 6 7 8 9 0 a b c d e   ",
"  ! f g h i j 0 k l m n   ",
"  ! o h p q r s t u v n   ",
"  ! w p q x y z s A B n   ",
"  ! p q x y C D E F G n   ",
"  ! H H I J K L L L L n   ",
"  ! M M N O P = > Q - n   ",
"  R S M M N O O T U V W   ",
"  X Y + + + + + + + Z `   "};
